<?xml version="1.0" encoding="UTF-8" standalone="no"?>
<!-- Created with Inkscape (http://www.inkscape.org/) -->

<svg
   version="1.1"
   id="svg2"
   width="195"
   height="195"
   viewBox="0 0 195 195"
   sodipodi:docname="css3-vector.svg"
   inkscape:version="1.1.1 (3bf5ae0d25, 2021-09-20)"
   xmlns:inkscape="http://www.inkscape.org/namespaces/inkscape"
   xmlns:sodipodi="http://sodipodi.sourceforge.net/DTD/sodipodi-0.dtd"
   xmlns="http://www.w3.org/2000/svg"
   xmlns:svg="http://www.w3.org/2000/svg">
  <defs
     id="defs6" />
  <sodipodi:namedview
     id="namedview4"
     pagecolor="#ffffff"
     bordercolor="#666666"
     borderopacity="1.0"
     inkscape:pageshadow="2"
     inkscape:pageopacity="0.0"
     inkscape:pagecheckerboard="0"
     showgrid="false"
     inkscape:zoom="4.0102564"
     inkscape:cx="97.5"
     inkscape:cy="97.5"
     inkscape:window-width="1920"
     inkscape:window-height="986"
     inkscape:window-x="-11"
     inkscape:window-y="-11"
     inkscape:window-maximized="1"
     inkscape:current-layer="g8" />
  <g
     inkscape:groupmode="layer"
     inkscape:label="Image"
     id="g8">
    <g
       id="g30">
      <path
         style="fill:#d5e6f0"
         d="M 71.5,181.7622 C 57.2,177.87541 45.42924,174.65137 45.342755,174.59766 45.25627,174.54395 42.66839,147.05 39.59191,113.5 36.51543,79.95 33.731464,50.3625 33.405317,47.75 L 32.812324,43 H 98 163.18768 l -0.593,4.75 c -0.32614,2.6125 -3.11011,32.2 -6.18659,65.75 -3.07648,33.55 -5.66436,61.04209 -5.75084,61.09353 -0.17682,0.10517 -49.31938,13.2998 -51.65725,13.86982 -0.825,0.20115 -13.2,-2.81437 -27.5,-6.70115 z m 43.35594,-26.31895 c 8.57499,-2.50622 15.64328,-4.64372 15.7073,-4.75 0.064,-0.10629 0.89925,-10.09325 1.85605,-22.19325 0.9568,-12.1 1.95921,-22.7875 2.22756,-23.75 0.45206,-1.62135 -0.87703,-1.75 -18.07946,-1.75 H 98 v 7 7 h 9.53138 c 6.72922,0 9.65775,0.36749 9.96118,1.25 0.23639,0.6875 0.10977,5.5076 -0.28138,10.71133 l -0.71118,9.46133 -3.5,1.25673 c -1.925,0.6912 -6.0875,1.97803 -9.25,2.85962 L 98,144.14192 v 7.92904 C 98,156.43193 98.284635,160 98.632522,160 c 0.347887,0 7.648428,-2.05054 16.223418,-4.55675 z M 116.72049,93.757823 135.94097,85.5 136.50109,81 c 0.30807,-2.475 0.74306,-5.9625 0.96665,-7.75 L 137.87426,70 H 117.93713 98 v 7.5 c 0,4.878771 0.392291,7.5 1.122445,7.5 0.800692,0 0.816839,0.368232 0.05633,1.284588 -0.586362,0.706524 -1.203963,3.969024 -1.372445,7.25 L 97.5,99.5 84,99.752536 c -9.148759,0.171141 -13.016529,-0.06566 -12,-0.734687 2.247431,-1.479145 1.044753,-1.228937 -4.5,0.936191 l -5,1.95241 17.5,0.0546 17.5,0.0546 z M 59,19.5 V 7 H 69.5 80 v 5 5 H 74.5 69 v 3.5 3.5 h 5.5 5.5 v 4 4 H 69.5 59 Z M 88,28 c 0,-3.94652 0.04951,-4 3.702948,-4 h 3.702948 L 91.702948,20.207837 C 88.485888,16.91327 88,15.793338 88,11.672854 V 6.9300338 L 98.25,7.2150169 108.5,7.5 V 12 c 0,4.328247 -0.12658,4.519084 -3.31647,5 l -3.31646,0.5 3.56646,3.446167 c 2.85958,2.763119 3.56647,4.200105 3.56647,7.25 V 32 H 98.5 88 Z m 28,0 c 0,-3.94652 0.0495,-4 3.70295,-4 h 3.70295 l -3.70295,-3.792163 C 116.49372,16.921287 116,15.787975 116,11.707837 V 7 h 10.5 10.5 v 5 5 h -3.70295 -3.70295 l 3.70295,3.792163 c 2.92298,2.993404 3.70295,4.573159 3.70295,7.5 V 32 H 126.5 116 Z"
         id="path68" />
      <path
         style="fill:#e4e4e3"
         d="M 70,181.1413 C 48.980442,175.41263 45.463799,174.1825 45.245172,172.48203 45.105017,171.39192 42.52818,143.5 39.518869,110.5 36.509557,77.5 33.806411,48.8125 33.511879,46.75 L 32.976365,43 H 98 163.02364 l -0.5307,3.75 c -0.42514,3.004099 -6.10711,64.26309 -9.06662,97.75 -0.34026,3.85 -1.13788,12.16539 -1.77248,18.47864 l -1.15384,11.47865 -25,6.74905 c -13.75,3.71197 -26.35,6.71825 -28,6.68062 -1.65,-0.0376 -14.025,-3.07318 -27.5,-6.74566 z m 60.4187,-30.25791 c 0.19369,-0.21086 1.08402,-8.93339 1.97852,-19.38339 0.89449,-10.45 1.8979,-21.3625 2.22979,-24.25 L 135.23045,102 116.86522,101.9709 98.5,101.9418 l 15,-6.461713 C 138.98909,84.49991 136.35965,86.666457 137.44552,75.75 L 138.01747,70 H 118.03765 98.057838 l 0.03854,13.986336 c 0.0212,7.692484 -0.243373,14.442484 -0.587936,15 C 97.135579,99.58964 91.54188,99.993801 83.69098,99.984687 73.98962,99.973425 70.896819,99.683924 72,98.890355 c 1.20621,-0.867683 1.10828,-0.941372 -0.5,-0.376236 -1.1,0.386531 -3.575,1.21648 -5.5,1.844331 -2.944056,0.96023 -0.680569,1.18493 14.25,1.41462 L 98,102.04615 V 110.02307 118 h 9.5 9.5 v 7.375 c 0,12.4314 -0.69174,13.9453 -6.7455,14.76272 -0.41498,0.056 -1.8795,0.53936 -3.2545,1.07407 -1.375,0.5347 -3.59347,1.17927 -4.92993,1.43238 C 98.143527,143.38781 98,143.7324 98,152.41582 v 8.29779 l 16.03327,-4.72341 c 8.8183,-2.59788 16.19175,-4.89594 16.38543,-5.10681 z M 59,19.5 V 7 H 69.5 80 v 5 5 H 74.5 69 v 3.5 3.5 h 5.5 5.5 v 4 4 H 69.5 59 Z M 88,28 c 0,-3.94652 0.04951,-4 3.702948,-4 h 3.702948 L 91.702948,20.207837 C 88.485888,16.91327 88,15.793338 88,11.672854 V 6.9300338 L 98.25,7.2150169 108.5,7.5 V 12 c 0,4.328247 -0.12658,4.519084 -3.31647,5 l -3.31646,0.5 3.56646,3.446167 c 2.85958,2.763119 3.56647,4.200105 3.56647,7.25 V 32 H 98.5 88 Z m 28,0 c 0,-3.94652 0.0495,-4 3.70295,-4 h 3.70295 l -3.70295,-3.792163 C 116.49372,16.921287 116,15.787975 116,11.707837 V 7 h 10.5 10.5 v 5 5 h -3.70295 -3.70295 l 3.70295,3.792163 c 2.92298,2.993404 3.70295,4.573159 3.70295,7.5 V 32 H 126.5 116 Z"
         id="path66" />
      <path
         style="fill:#e0e0de"
         d="M 70,181.1413 C 48.980442,175.41263 45.463799,174.1825 45.245172,172.48203 45.105017,171.39192 42.52818,143.5 39.518869,110.5 36.509557,77.5 33.806411,48.8125 33.511879,46.75 L 32.976365,43 h 65.05713 65.057135 l -0.53672,3.25 c -0.29519,1.7875 -3.06997,31.15 -6.16617,65.25 -3.0962,34.1 -5.91257,62.29026 -6.2586,62.64503 -1.11506,1.14323 -49.90486,13.85815 -52.816243,13.76424 C 95.765804,187.85936 83.475,184.81378 70,181.1413 Z m 60.4187,-30.25791 c 0.19369,-0.21086 1.08402,-8.93339 1.97852,-19.38339 0.89449,-10.45 1.8979,-21.3625 2.22979,-24.25 L 135.23045,102 116.86522,101.9682 98.5,101.9364 117.26084,93.849085 c 14.9475,-6.443484 18.84741,-8.520445 19.18678,-10.218225 0.23427,-1.172001 0.68332,-4.71841 0.9979,-7.88091 L 138.01747,70 105.75874,70.09968 C 88.016431,70.154504 72.375,70.559648 71,71 68.601594,71.768104 68.591435,71.804691 70.75,71.90032 72.822258,71.992126 73,72.473979 73,78 v 6 H 66.563358 60.126717 L 59.682839,80.75 59.23896,77.5 59.36948,81 59.5,84.5 l 19.720792,0.271042 19.720791,0.271043 -0.557326,3.228957 C 97.401484,93.964899 97.359135,94 91.472368,94 c -4.013644,0 -5.386464,-0.329978 -4.86734,-1.169939 0.461908,-0.747383 0.212341,-0.968694 -0.690983,-0.612748 -22.745558,8.962667 -24.912297,10.023117 -24.798044,12.136727 0.09138,1.69048 0.213068,1.77452 0.573325,0.39596 0.39484,-1.51091 1.642778,-1.73139 9.133998,-1.61382 4.772172,0.0749 7.664176,0.3312 6.426676,0.56955 -2.031685,0.39132 -2.25,1.0088 -2.25,6.36382 V 116 h -5.936642 -5.936641 l -0.403321,-3.25 c -0.397095,-3.19982 -0.405793,-3.1921 -0.563359,0.5 L 62,117 l 13.25,0.004 c 7.2875,0.002 19.6625,0.29701 27.5,0.65555 l 14.25,0.65189 v 7.21945 c 0,13.05371 0.19002,12.7703 -10.60736,15.82023 l -9.419344,2.66068 -8.396193,-2.10583 C 79.345071,139.59017 79.039356,139.24954 79.013655,131.25 L 79,127 l -7.75,0.18908 c -6.940978,0.16935 -7.149758,0.22675 -2,0.54991 l 5.75,0.36082 v 12.02955 12.02955 l -3.25,-0.56769 c -4.896259,-0.85524 -2.302231,0.0966 12.904878,4.73519 L 98.5,160.54957 l 15.78327,-4.64139 c 8.6808,-2.55277 15.94175,-4.81392 16.13543,-5.02479 z M 67.25,150.33772 c -0.738419,-0.29796 -1.321501,-2.61892 -1.424707,-5.67105 L 65.650586,139.5 l -0.388381,4.3644 c -0.448438,5.0393 0.141856,7.16845 1.95641,7.05665 1.003642,-0.0618 1.010444,-0.18827 0.03139,-0.58333 z M 64.705733,130.75 c -0.238353,-1.2375 -0.433369,-0.225 -0.433369,2.25 0,2.475 0.195016,3.4875 0.433369,2.25 0.238353,-1.2375 0.238353,-3.2625 0,-4.5 z M 58.692991,71.269032 C 58.439447,70.296064 58.215328,70.85 58.194949,72.5 c -0.02038,1.65 0.187065,2.446064 0.460988,1.769032 0.273923,-0.677033 0.290597,-2.027033 0.03705,-3 z M 59.219221,19.75 59.5,7.5 69.75,7.2150169 80,6.9300338 V 11.965017 17 H 74.5 69 v 3.5 3.5 h 5.5 5.5 v 4 4 H 69.469221 58.938442 Z M 88,28.034983 C 88,24.048118 88.044158,24 91.702948,24 h 3.702948 L 91.702948,20.207837 C 88.485888,16.91327 88,15.793338 88,11.672854 V 6.9300338 L 98.25,7.2150169 108.5,7.5 V 12 c 0,4.382441 -0.0883,4.508442 -3.3815,4.823166 l -3.38151,0.323167 3.70477,3.794025 c 3.04439,3.117734 3.64715,4.397016 3.3815,7.176833 L 108.5,31.5 98.25,31.784983 88,32.069966 Z M 116,28 c 0,-3.94652 0.0495,-4 3.70295,-4 h 3.70295 l -3.70295,-3.792163 C 116.48589,16.91327 116,15.793338 116,11.672854 V 6.9300338 L 126.25,7.2150169 136.5,7.5 V 12 c 0,4.328247 -0.12658,4.519084 -3.31647,5 l -3.31646,0.5 3.56646,3.446167 c 2.85958,2.763119 3.56647,4.200105 3.56647,7.25 V 32 H 126.5 116 Z"
         id="path64" />
      <path
         style="fill:#dee0de"
         d="M 70,181.1413 C 48.980442,175.41263 45.463799,174.1825 45.245172,172.48203 45.105017,171.39192 42.52818,143.5 39.518869,110.5 36.509557,77.5 33.806411,48.8125 33.511879,46.75 L 32.976365,43 h 65.05713 65.057135 l -0.53672,3.25 c -0.29519,1.7875 -3.06997,31.15 -6.16617,65.25 -3.0962,34.1 -5.91257,62.29026 -6.2586,62.64503 -1.11506,1.14323 -49.90486,13.85815 -52.816243,13.76424 C 95.765804,187.85936 83.475,184.81378 70,181.1413 Z m 60.4187,-30.25791 c 0.19369,-0.21086 1.08402,-8.93339 1.97852,-19.38339 0.89449,-10.45 1.8979,-21.3625 2.22979,-24.25 L 135.23045,102 116.86522,101.9682 98.5,101.9364 117.26084,93.849085 c 14.9475,-6.443484 18.84741,-8.520445 19.18678,-10.218225 0.23427,-1.172001 0.68828,-4.760627 1.00892,-7.974725 l 0.58298,-5.843816 -40.125446,0.314415 -40.125449,0.314414 0.605687,4.418972 C 58.727441,77.290605 59,80.566335 59,82.139571 V 85 h 20.067388 c 18.625871,0 20.033306,0.125709 19.592945,1.75 -0.260944,0.9625 -0.722789,2.879712 -1.026322,4.260472 -0.509941,2.319697 -0.911071,2.481904 -5.278596,2.134541 -4.634694,-0.368612 -4.679297,-0.404231 -2.291066,-1.829542 3.406103,-2.032782 1.437009,-1.344215 -14.921455,5.217841 l -14.357106,5.759228 0.5961,3.60373 c 0.327856,1.98205 0.601053,5.29123 0.607106,7.35373 L 62,117 l 13.25,0.004 c 7.2875,0.002 19.6625,0.29701 27.5,0.65555 l 14.25,0.65189 v 7.21945 c 0,13.05371 0.19002,12.7703 -10.60736,15.82023 l -9.419344,2.66068 -8.396193,-2.10583 C 79.345071,139.59017 79.039356,139.24954 79.013655,131.25 L 79,127 l -7.75,-7.4e-4 -7.75,-7.4e-4 1,11.72624 1,11.72623 16.5,5.05381 16.5,5.05381 15.78327,-4.64591 c 8.6808,-2.55525 15.94175,-4.81844 16.13543,-5.02931 z M 65.682392,138.65094 c -0.753985,-9.08266 -0.52896,-11.83084 0.855375,-10.44651 0.295771,0.29578 0.408271,4.98328 0.25,10.41667 L 66.5,148.5 Z M 63,112.625 c 0,-1.85625 -0.28125,-4.78125 -0.625,-6.5 L 61.75,103 l 4.875,0.13618 c 2.68125,0.0749 3.8625,0.3312 2.625,0.56955 -2.031685,0.39132 -2.25,1.0088 -2.25,6.36382 C 67,115.33333 66.775172,116 65,116 c -1.604938,0 -2,-0.66667 -2,-3.375 z m -3,-31.5 c 0,-1.58125 -0.28125,-4.28125 -0.625,-6 C 58.781667,72.158333 58.908333,72 61.875,72 H 65 v 6 c 0,5.733333 -0.111111,6 -2.5,6 C 60.413043,84 60,83.525 60,81.125 Z M 59.219221,19.75 59.5,7.5 69.75,7.2150169 80,6.9300338 V 11.965017 17 H 74.5 69 v 3.5 3.5 h 5.5 5.5 v 4 4 H 69.469221 58.938442 Z M 88,28.034983 C 88,24.048118 88.044158,24 91.702948,24 h 3.702948 L 91.702948,20.207837 C 88.485888,16.91327 88,15.793338 88,11.672854 V 6.9300338 L 98.25,7.2150169 108.5,7.5 V 12 c 0,4.36169 -0.10159,4.509758 -3.30539,4.81749 l -3.30539,0.317489 3.61372,3.999954 c 2.83411,3.137021 3.5472,4.686545 3.30539,7.18251 L 108.5,31.5 98.25,31.784983 88,32.069966 Z M 116,28 c 0,-3.94652 0.0495,-4 3.70295,-4 h 3.70295 l -3.70295,-3.792163 C 116.48589,16.91327 116,15.793338 116,11.672854 V 6.9300338 L 126.25,7.2150169 136.5,7.5 V 12 c 0,4.328247 -0.12658,4.519084 -3.31647,5 l -3.31646,0.5 3.56646,3.446167 c 2.85958,2.763119 3.56647,4.200105 3.56647,7.25 V 32 H 126.5 116 Z"
         id="path62" />
      <path
         style="fill:#d4d4d5"
         d="M 70,181.1413 C 48.980442,175.41263 45.463799,174.1825 45.245172,172.48203 45.105017,171.39192 42.52818,143.5 39.518869,110.5 36.509557,77.5 33.806411,48.8125 33.511879,46.75 L 32.976365,43 h 65.05713 65.057135 l -0.53672,3.25 c -0.29519,1.7875 -3.06997,31.15 -6.16617,65.25 -3.0962,34.1 -5.91257,62.29026 -6.2586,62.64503 -1.11506,1.14323 -49.90486,13.85815 -52.816243,13.76424 C 95.765804,187.85936 83.475,184.81378 70,181.1413 Z m 60.4187,-30.25791 c 0.19369,-0.21086 1.08402,-8.93339 1.97852,-19.38339 0.89449,-10.45 1.8979,-21.3625 2.22979,-24.25 L 135.23045,102 116.86522,101.9682 98.5,101.9364 117.26084,93.849085 c 14.9475,-6.443484 18.84741,-8.520445 19.18678,-10.218225 0.23427,-1.172001 0.68332,-4.71841 0.9979,-7.88091 l 0.57195,-5.75 H 97.869445 57.721418 l 0.630599,5.25 c 0.346829,2.8875 0.63451,6.2625 0.639291,7.5 L 59,85 h 20 c 11,0 20,0.203826 20,0.452947 0,1.567502 -2.444213,5.390548 -3.16254,4.946598 -0.478546,-0.295758 -0.634072,-0.919617 -0.345613,-1.386354 0.288459,-0.466736 -7.405708,2.334821 -17.09815,6.225683 l -17.62262,7.074296 0.614461,4.48299 C 61.723492,109.2618 62,112.56634 62,114.13957 V 117 l 13.25,0.004 c 7.2875,0.002 19.6625,0.29701 27.5,0.65555 l 14.25,0.65189 v 7.21945 c 0,13.01457 0.15347,12.781 -10.34401,15.74332 L 97.5,143.85763 88.838384,141.74574 C 79.353762,139.43318 79,139.02431 79,130.375 V 127 l -7.75,-3.8e-4 -7.75,-3.7e-4 0.879045,11.8168 0.879044,11.81681 16.620956,4.95792 16.620955,4.95792 15.78327,-4.64095 c 8.6808,-2.55253 15.94175,-4.81349 16.13543,-5.02436 z M 59.219221,19.75 59.5,7.5 69.75,7.2150169 80,6.9300338 V 11.965017 17 H 74.5 69 v 3.5 3.5 h 5.5 5.5 v 4 4 H 69.469221 58.938442 Z M 88,28 c 0,-3.94652 0.04951,-4 3.702948,-4 h 3.702948 L 91.702948,20.207837 C 88.493717,16.921287 88,15.787975 88,11.707837 V 7 h 10 10 v 5 c 0,4.957084 -0.0274,5 -3.19617,5 h -3.19616 l 3.19616,3.297607 c 2.56472,2.646118 3.19617,4.12785 3.19617,7.5 V 32 H 98 88 Z m 28,0 c 0,-3.94652 0.0495,-4 3.70295,-4 h 3.70295 l -3.70295,-3.792163 C 116.48589,16.91327 116,15.793338 116,11.672854 V 6.9300338 L 126.25,7.2150169 136.5,7.5 V 12 c 0,4.328247 -0.12658,4.519084 -3.31647,5 l -3.31646,0.5 3.56646,3.446167 c 2.85958,2.763119 3.56647,4.200105 3.56647,7.25 V 32 H 126.5 116 Z"
         id="path60" />
      <path
         style="fill:#adc9df"
         d="M 70.002285,181.09903 C 53.260599,176.50829 45.431033,173.92536 45.2723,172.94075 45.144552,172.14834 42.554806,144.05 39.517311,110.5 36.479815,76.95 33.750418,48.0375 33.451983,46.25 L 32.909374,43 h 65.124768 65.124768 l -0.53627,2.75 c -0.29494,1.5125 -3.08267,30.875 -6.19494,65.25 -3.11227,34.375 -5.9442,62.77784 -6.29318,63.11742 -1.17468,1.14302 -49.96818,13.88354 -52.816093,13.79086 -1.550135,-0.0504 -13.842399,-3.11461 -27.316142,-6.80925 z M 130.4187,150.88339 c 0.19369,-0.21086 1.08402,-8.93339 1.97852,-19.38339 0.89449,-10.45 1.8979,-21.3625 2.22979,-24.25 L 135.23045,102 116.86522,101.9682 98.5,101.9364 117.26084,93.849085 c 14.9475,-6.443484 18.84741,-8.520445 19.18678,-10.218225 0.23427,-1.172001 0.68332,-4.71841 0.9979,-7.88091 L 138.01747,70 H 98.008736 58 l 0.0087,2.25 c 0.0048,1.2375 0.292462,4.6125 0.639291,7.5 L 59.278582,85 H 79.139291 C 90.062681,85 99,85.354693 99,85.788206 99,86.22172 90.45,90.094976 80,94.395442 58.75228,103.13947 60.180541,101.74225 61.635924,112.36043 L 62.271848,117 l 13.114076,0.004 c 7.212742,0.002 19.526576,0.29701 27.364076,0.65555 l 14.25,0.65189 v 7.21945 c 0,13.02721 0.1653,12.77729 -10.43004,15.77014 l -9.242027,2.61059 -8.413966,-2.20564 L 80.5,139.5 79.574481,133.25 78.648961,127 h -7.903936 -7.903936 l 0.527217,2.75 c 0.289969,1.5125 0.819778,6.86552 1.177354,11.8956 l 0.650138,9.1456 16.582144,4.90816 16.582143,4.90817 15.853225,-4.67037 c 8.71928,-2.5687 16.01171,-4.8429 16.20539,-5.05377 z M 59.432899,30.685735 c -0.277382,-0.722846 -0.375758,-6.235346 -0.218615,-12.25 L 59.5,7.5 h 10 10 V 12 16.5 L 74.25,16.80226 69,17.104519 V 20.55226 24 h 5.5 5.5 v 4 4 H 69.968615 C 62.604388,32 59.803138,31.650561 59.432899,30.685735 Z M 88,28 c 0,-3.94652 0.04951,-4 3.702948,-4 h 3.702948 l -3.767378,-3.858144 c -3.368057,-3.449204 -3.734049,-4.323655 -3.452947,-8.25 L 88.5,7.5 98.25,7.213788 108,6.927576 v 5.036212 C 108,16.961601 107.97563,17 104.80383,17 h -3.19616 l 3.19616,3.297607 c 2.56472,2.646118 3.19617,4.12785 3.19617,7.5 V 32 H 98 88 Z m 28,0.03498 C 116,24.048118 116.04416,24 119.70295,24 h 3.70295 l -3.76738,-3.858144 c -3.36806,-3.449204 -3.73405,-4.323655 -3.45295,-8.25 L 116.5,7.5 h 10 10 V 12 c 0,4.382441 -0.0883,4.508442 -3.3815,4.823166 l -3.38151,0.323167 3.70477,3.794025 c 3.04439,3.117734 3.64715,4.397016 3.3815,7.176833 L 136.5,31.5 126.25,31.784983 116,32.069966 v -4.034983 z"
         id="path58" />
      <path
         style="fill:#98b3d2"
         d="M 70.514506,181.06692 45.529012,174.28844 39.812435,112.89422 C 36.668318,79.127399 34.07429,49.5875 34.047929,47.25 L 34,43 h 64 64 l -0.0479,4.25 c -0.0264,2.3375 -2.62027,31.876131 -5.76425,65.6414 l -5.71631,61.3914 -25.48576,6.84871 C 110.96859,184.89829 98.6,187.94988 97.5,187.91281 96.4,187.87574 84.256528,184.79509 70.514506,181.06692 Z M 115,155.92897 c 7.975,-2.29933 14.8294,-4.47589 15.23201,-4.83679 C 130.8224,150.56293 135,108.87067 135,103.5078 c 0,-1.21686 -2.96413,-1.50738 -17.69871,-1.73473 L 99.60258,101.5 117.05129,94.101057 c 9.59679,-4.069419 17.96796,-7.894419 18.60261,-8.5 0.63464,-0.605581 1.46782,-4.363557 1.85149,-8.351057 L 138.20298,70 H 97.696648 57.190313 l 0.521825,4.25 c 0.287004,2.3375 0.826244,5.825 1.198311,7.75 L 59.586934,85.5 79.043467,86 98.5,86.5 91,89.670059 c -4.125,1.743532 -12.45,5.195636 -18.5,7.671343 -7.246624,2.965378 -11.11979,5.089108 -11.351069,6.224008 -0.193088,0.9475 -0.05764,4.47039 0.300995,7.82866 l 0.652064,6.10593 6.199005,0.0186 c 3.409453,0.0102 15.761505,0.1227 27.449005,0.25 L 117,118 v 4.35331 c 0,2.39432 -0.27995,7.0317 -0.62211,10.30529 l -0.6221,5.95199 -9.17418,2.486 -9.174182,2.48601 -8.453714,-2.09215 L 80.5,139.39831 79.662692,133.19916 78.825384,127 h -8.026236 -8.026236 l 0.570615,4.25 c 0.313838,2.3375 0.867483,7.73409 1.230323,11.99243 l 0.659707,7.74244 7.133222,2.08545 c 3.923271,1.147 11.183221,3.35282 16.133221,4.90182 4.95,1.549 9.675,2.66361 10.5,2.4769 0.825,-0.18671 8.025,-2.22074 16,-4.52007 z M 59.432899,30.685735 c -0.277382,-0.722846 -0.375758,-6.235346 -0.218615,-12.25 L 59.5,7.5 h 10 10 V 12 16.5 L 74.25,16.80226 69,17.104519 V 20.55226 24 h 5.5 5.5 v 4 4 H 69.968615 C 62.604388,32 59.803138,31.650561 59.432899,30.685735 Z M 88,28 c 0,-3.94652 0.04951,-4 3.702948,-4 h 3.702948 l -3.767378,-3.858144 c -3.368057,-3.449204 -3.734049,-4.323655 -3.452947,-8.25 L 88.5,7.5 98.25,7.213788 108,6.927576 v 5.036212 C 108,16.961601 107.97563,17 104.80383,17 h -3.19616 l 3.19616,3.297607 c 2.56472,2.646118 3.19617,4.12785 3.19617,7.5 V 32 H 98 88 Z m 28,0.03498 C 116,24.048118 116.04416,24 119.70295,24 h 3.70295 l -3.76738,-3.858144 c -3.36806,-3.449204 -3.73405,-4.323655 -3.45295,-8.25 L 116.5,7.5 h 10 10 V 12 c 0,4.382441 -0.0883,4.508442 -3.3815,4.823166 l -3.38151,0.323167 3.70477,3.794025 c 3.04439,3.117734 3.64715,4.397016 3.3815,7.176833 L 136.5,31.5 126.25,31.784983 116,32.069966 v -4.034983 z"
         id="path56" />
      <path
         style="fill:#b4b3b3"
         d="M 71,181.04591 C 48.680973,174.92177 46.435704,174.10865 45.777734,171.91167 45.127912,169.74189 33.91847,48.961392 33.976066,44.75 33.998608,43.101812 37.723403,43 98,43 c 60.2766,0 64.00139,0.101812 64.02393,1.75 0.0576,4.213886 -11.15198,124.9919 -11.80166,127.15707 -0.65873,2.19531 -2.92157,3.00504 -25.72227,9.20434 -13.75,3.7385 -25.9,6.76573 -27,6.72717 -1.1,-0.0386 -13.025,-3.09526 -26.5,-6.79267 z m 43.37097,-24.7256 c 8.87097,-2.57383 16.23716,-4.74446 16.36931,-4.82362 C 131.04752,151.31266 135,107.66315 135,104.45424 v -2.40809 L 117.42342,101.77307 99.846838,101.5 118.42342,93.597551 C 132.14684,87.759627 137,85.25075 137,83.994242 c 0,-0.935473 0.28911,-4.466871 0.64246,-7.847551 L 138.28491,70 H 97.597143 56.909374 l 0.501326,3.25 c 0.27573,1.7875 0.77228,5.378074 1.103445,7.979054 l 0.602119,4.729054 19.526723,0.270946 L 98.169711,86.5 79.834855,94.07637 61.5,101.65274 61.19388,107.5347 c -0.168366,3.23508 -0.04729,6.91321 0.269052,8.17363 L 62.038104,118 h 27.617956 27.61796 l -0.71343,9.71915 c -0.39239,5.34553 -0.88849,10.00239 -1.10245,10.34858 -0.21395,0.34619 -4.2451,1.6657 -8.95809,2.93226 -8.987994,2.4154 -10.412589,2.34796 -22.830123,-1.08068 -3.480294,-0.96096 -3.670633,-1.2305 -3.683582,-5.21631 C 79.958669,126.18406 79.764175,126 70.790044,126 h -7.976693 l 0.707972,9.44303 c 1.280269,17.0764 -0.414812,15.13275 17.999631,20.63908 8.788475,2.62796 16.145982,4.80955 16.350016,4.84799 0.204033,0.0384 7.62903,-2.03596 16.5,-4.60979 z M 59.432899,30.685735 c -0.277382,-0.722846 -0.375758,-6.235346 -0.218615,-12.25 L 59.5,7.5 h 10 10 V 12 16.5 L 74.25,16.80226 69,17.104519 V 20.55226 24 h 5.5 5.5 v 4 4 H 69.968615 C 62.604388,32 59.803138,31.650561 59.432899,30.685735 Z M 88,28 c 0,-3.94652 0.04951,-4 3.702948,-4 h 3.702948 l -3.767378,-3.858144 c -3.368057,-3.449204 -3.734049,-4.323655 -3.452947,-8.25 L 88.5,7.5 98.25,7.213788 108,6.927576 v 5.036212 C 108,16.961601 107.97563,17 104.80383,17 h -3.19616 l 3.19616,3.297607 c 2.56472,2.646118 3.19617,4.12785 3.19617,7.5 V 32 H 98 88 Z m 28,0.03498 C 116,24.048118 116.04416,24 119.70295,24 h 3.70295 l -3.76738,-3.858144 c -3.36806,-3.449204 -3.73405,-4.323655 -3.45295,-8.25 L 116.5,7.5 h 10 10 V 12 c 0,4.382441 -0.0883,4.508442 -3.3815,4.823166 l -3.38151,0.323167 3.70477,3.794025 c 3.04439,3.117734 3.64715,4.397016 3.3815,7.176833 L 136.5,31.5 126.25,31.784983 116,32.069966 v -4.034983 z"
         id="path54" />
      <path
         style="fill:#53a9da"
         d="M 71,181.04591 C 48.680973,174.92177 46.435704,174.10865 45.777734,171.91167 45.127912,169.74189 33.91847,48.961392 33.976066,44.75 33.998608,43.101812 37.723403,43 98,43 c 60.2766,0 64.00139,0.101812 64.02393,1.75 0.0576,4.213886 -11.15198,124.9919 -11.80166,127.15707 -0.65873,2.19531 -2.92157,3.00504 -25.72227,9.20434 -13.75,3.7385 -25.9,6.76573 -27,6.72717 -1.1,-0.0386 -13.025,-3.09526 -26.5,-6.79267 z m 43.37097,-24.7256 c 8.87097,-2.57383 16.23716,-4.74446 16.36931,-4.82362 C 131.04752,151.31266 135,107.66315 135,104.45424 v -2.40809 L 117.42342,101.77307 99.846838,101.5 118.42342,93.597551 C 132.14684,87.759627 137,85.25075 137,83.994242 c 0,-0.935473 0.28911,-4.466871 0.64246,-7.847551 L 138.28491,70 H 97.597143 56.909374 l 0.501326,3.25 c 0.27573,1.7875 0.77228,5.378074 1.103445,7.979054 l 0.602119,4.729054 19.526723,0.270946 L 98.169711,86.5 79.834855,94.07637 61.5,101.65274 61.19388,107.5347 c -0.168366,3.23508 -0.04729,6.91321 0.269052,8.17363 L 62.038104,118 h 27.617956 27.61796 l -0.71343,9.71915 c -0.39239,5.34553 -0.88849,10.00239 -1.10245,10.34858 -0.21395,0.34619 -4.2451,1.6657 -8.95809,2.93226 -8.987994,2.4154 -10.412589,2.34796 -22.830123,-1.08068 -3.480294,-0.96096 -3.670633,-1.2305 -3.683582,-5.21631 C 79.958669,126.18406 79.764175,126 70.790044,126 h -7.976693 l 0.707972,9.44303 c 1.280269,17.0764 -0.414812,15.13275 17.999631,20.63908 8.788475,2.62796 16.145982,4.80955 16.350016,4.84799 0.204033,0.0384 7.62903,-2.03596 16.5,-4.60979 z M 60,20 V 8 h 10 10 v 3.950096 3.950096 L 74.25,16.200096 68.5,16.5 68.189635,20.25 67.879269,24 H 73.939635 80 v 4 4 H 70 60 Z m 28,8 c 0,-3.94652 0.04951,-4 3.702948,-4 h 3.702948 L 91.702948,20.207837 C 88.619835,17.050443 88,15.711327 88,12.207837 V 8 h 10 10 v 4 c 0,3.904762 -0.0833,4 -3.5,4 -1.925,0 -3.5,0.361725 -3.5,0.803833 0,0.442108 1.575,2.330384 3.5,4.196167 2.79204,2.706149 3.5,4.161754 3.5,7.196167 V 32 H 98 88 Z m 28,0 v -4 h 4.20821 4.20821 l -4.20821,-4.287852 C 116.78974,16.228986 116,14.727649 116,11.712148 V 8 h 10 10 v 4 c 0,3.94652 -0.0495,4 -3.70295,4 h -3.70295 l 3.70295,3.792163 c 3.08312,3.157394 3.70295,4.49651 3.70295,8 V 32 h -10 -10 z"
         id="path52" />
      <path
         style="fill:#5d8cc4"
         d="M 71,181.04591 C 48.680973,174.92177 46.435704,174.10865 45.777734,171.91167 45.127912,169.74189 33.91847,48.961392 33.976066,44.75 33.998608,43.101812 37.723403,43 98,43 c 60.2766,0 64.00139,0.101812 64.02393,1.75 0.0576,4.213886 -11.15198,124.9919 -11.80166,127.15707 -0.65873,2.19531 -2.92157,3.00504 -25.72227,9.20434 -13.75,3.7385 -25.9,6.76573 -27,6.72717 -1.1,-0.0386 -13.025,-3.09526 -26.5,-6.79267 z m 43.85916,-24.6036 c 8.57677,-2.50674 15.85775,-4.98426 16.17997,-5.50562 0.32222,-0.52136 1.36485,-10.7329 2.31696,-22.69231 0.95212,-11.95941 1.94246,-22.74647 2.20076,-23.97125 l 0.46964,-2.22687 -17.60563,-0.27313 L 100.81523,101.5 118.52893,94 c 9.74253,-4.125 17.90352,-7.987623 18.13552,-8.583608 1.03094,-2.648343 1.88614,-15.57611 1.064,-16.084219 -0.49562,-0.306311 -18.87196,-0.224301 -40.836316,0.182244 l -39.935186,0.739173 0.477539,3.123205 c 0.262647,1.717763 0.748493,5.251279 1.079658,7.852259 l 0.602119,4.729054 19.526723,0.270946 L 98.169711,86.5 79.834855,94.07637 61.5,101.65274 61.19388,107.5347 c -0.168366,3.23508 -0.04729,6.91321 0.269052,8.17363 L 62.038104,118 h 27.400802 27.400804 l -0.55546,9.75 c -0.30551,5.3625 -0.65181,9.86987 -0.76956,10.01637 -0.11776,0.14651 -4.21923,1.42899 -9.1144,2.84997 -9.375219,2.72147 -10.47131,2.68786 -22.730363,-0.69703 -3.480294,-0.96096 -3.670633,-1.2305 -3.683582,-5.21631 C 79.958669,126.18406 79.764175,126 70.790044,126 h -7.976693 l 0.707972,9.44303 c 1.280269,17.0764 -0.414812,15.13275 17.999631,20.63908 8.788475,2.62796 16.376181,4.80955 16.861568,4.84799 0.485387,0.0384 7.899878,-1.98106 16.476638,-4.48779 z M 60,20 V 8 h 10 10 v 3.950096 3.950096 L 74.25,16.200096 68.5,16.5 68.189635,20.25 67.879269,24 H 73.939635 80 v 4 4 H 70 60 Z m 28,8 c 0,-3.94652 0.04951,-4 3.702948,-4 h 3.702948 L 91.702948,20.207837 C 88.619835,17.050443 88,15.711327 88,12.207837 V 8 h 10 10 v 4 c 0,3.904762 -0.0833,4 -3.5,4 -1.925,0 -3.5,0.361725 -3.5,0.803833 0,0.442108 1.575,2.330384 3.5,4.196167 2.79204,2.706149 3.5,4.161754 3.5,7.196167 V 32 H 98 88 Z m 28,0 v -4 h 4.20821 4.20821 l -4.20821,-4.287852 C 116.78974,16.228986 116,14.727649 116,11.712148 V 8 h 10 10 v 4 c 0,3.94652 -0.0495,4 -3.70295,4 h -3.70295 l 3.70295,3.792163 c 3.08312,3.157394 3.70295,4.49651 3.70295,8 V 32 h -10 -10 z"
         id="path50" />
      <path
         style="fill:#349ad4"
         d="M 71.729094,181.05735 C 58.105096,177.33615 46.704038,174.03737 46.393409,173.72674 45.929433,173.26277 34.064919,49.877481 34.015269,45 34.001854,43.682133 41.770992,43.5 98,43.5 c 56.22901,0 63.99815,0.182133 63.98473,1.5 -0.0493,4.84723 -11.91265,128.26125 -12.37356,128.72216 -0.67116,0.67116 -50.675032,14.26756 -52.11117,14.16938 -0.55,-0.0376 -12.146908,-3.11298 -25.770906,-6.83419 z m 43.130066,-24.61504 c 8.57677,-2.50674 15.85775,-4.98426 16.17997,-5.50562 0.32222,-0.52136 1.36485,-10.7329 2.31696,-22.69231 0.95212,-11.95941 1.94246,-22.74647 2.20076,-23.97125 l 0.46964,-2.22687 -17.60563,-0.27313 L 100.81523,101.5 118.52893,94 c 9.74253,-4.125 17.90352,-7.987623 18.13552,-8.583608 1.03094,-2.648343 1.88614,-15.57611 1.064,-16.084219 -0.49562,-0.306311 -18.89659,-0.223845 -40.891049,0.183257 l -39.989921,0.740186 0.629182,5.122192 C 57.822711,78.195014 58.342783,81.7375 58.632377,83.25 L 59.158911,86 78.829455,86.03913 98.5,86.07826 l -19,7.911018 -19,7.911012 0.361548,7.29985 c 0.198852,4.01492 0.562909,7.63735 0.809017,8.04985 0.246108,0.4125 12.759846,0.75 27.808306,0.75 h 27.360839 l -0.55546,9.75 c -0.30551,5.3625 -0.65181,9.86987 -0.76956,10.01637 -0.11776,0.14651 -4.18025,1.4162 -9.02776,2.82155 l -8.813668,2.55517 -8.791529,-2.17231 -8.791529,-2.17231 -0.295102,-6.14924 L 79.5,126.5 l -8.372342,-0.29242 -8.372343,-0.29242 0.73303,10.75453 c 0.403166,5.91499 1.0707,11.67157 1.483409,12.79242 0.59063,1.60404 4.026536,3.02903 16.139312,6.69353 8.463914,2.56061 16.011069,4.69811 16.771456,4.75 0.760387,0.0519 8.399878,-1.9566 16.976638,-4.46333 z M 60,20 V 8 h 10 10 v 4 4 h -6 -6 v 4 4 h 6 6 v 4 4 H 70 60 Z m 28,8 c 0,-3.94652 0.04951,-4 3.702948,-4 h 3.702948 L 91.702948,20.207837 C 88.619835,17.050443 88,15.711327 88,12.207837 V 8 h 10 10 v 4 c 0,3.904762 -0.0833,4 -3.5,4 -1.925,0 -3.5,0.361725 -3.5,0.803833 0,0.442108 1.575,2.330384 3.5,4.196167 2.79204,2.706149 3.5,4.161754 3.5,7.196167 V 32 H 98 88 Z m 28,0 v -4 h 4.20821 4.20821 l -4.20821,-4.287852 C 116.78974,16.228986 116,14.727649 116,11.712148 V 8 h 10 10 v 4 c 0,3.904762 -0.0833,4 -3.5,4 -1.925,0 -3.5,0.238748 -3.5,0.530551 0,0.291804 1.575,1.91342 3.5,3.603593 3.00327,2.636907 3.5,3.69699 3.5,7.469448 V 32 h -10 -10 z"
         id="path48" />
      <path
         style="fill:#5283bc"
         d="M 71.729094,181.05735 C 58.105096,177.33615 46.704038,174.03737 46.393409,173.72674 45.929433,173.26277 34.064919,49.877481 34.015269,45 34.001854,43.682133 41.770992,43.5 98,43.5 c 56.22901,0 63.99815,0.182133 63.98473,1.5 -0.0493,4.84723 -11.91265,128.26125 -12.37356,128.72216 -0.67116,0.67116 -50.675032,14.26756 -52.11117,14.16938 -0.55,-0.0376 -12.146908,-3.11298 -25.770906,-6.83419 z M 121.47678,170.69506 140.45356,165.5 145.17596,112 c 2.59732,-29.425 4.74527,-54.5125 4.77322,-55.75 L 150,54 H 124 98 v 8 8 H 77.406162 56.812324 l 0.646759,5.25 c 0.355718,2.8875 0.8837,6.4875 1.173294,8 L 59.158911,86 78.829455,86.03913 98.5,86.07826 l -19,7.911018 -19,7.911012 0.361548,7.29985 c 0.198852,4.01492 0.562909,7.63735 0.809017,8.04985 0.246108,0.4125 8.520911,0.75 18.388452,0.75 L 98,118 v 12.5 c 0,6.875 -0.241285,12.5 -0.536188,12.5 -0.294904,0 -4.324734,-0.95019 -8.955178,-2.11154 l -8.41899,-2.11155 -0.294822,-6.13845 L 79.5,126.5 l -8.372342,-0.29242 -8.372343,-0.29242 0.734186,10.77149 c 0.403803,5.92432 1.09169,11.7118 1.528638,12.86106 0.588414,1.54765 2.828672,2.67371 8.638156,4.34195 4.314038,1.23881 11.556205,3.37265 16.093705,4.74188 l 8.25,2.48949 v 7.95854 c 0,7.7567 0.05706,7.94398 2.25,7.38454 1.2375,-0.31569 10.78955,-2.91177 21.22678,-5.76905 z M 60,20 V 8 h 10 10 v 4 4 h -6 -6 v 4 4 h 6 6 v 4 4 H 70 60 Z m 28,8 c 0,-3.94652 0.04951,-4 3.702948,-4 h 3.702948 L 91.702948,20.207837 C 88.619835,17.050443 88,15.711327 88,12.207837 V 8 h 10 10 v 4 c 0,3.904762 -0.0833,4 -3.5,4 -1.925,0 -3.5,0.361725 -3.5,0.803833 0,0.442108 1.575,2.330384 3.5,4.196167 2.79204,2.706149 3.5,4.161754 3.5,7.196167 V 32 H 98 88 Z m 28,0 v -4 h 4.20821 4.20821 l -4.20821,-4.287852 C 116.78974,16.228986 116,14.727649 116,11.712148 V 8 h 10 10 v 4 c 0,3.904762 -0.0833,4 -3.5,4 -1.925,0 -3.5,0.238748 -3.5,0.530551 0,0.291804 1.575,1.91342 3.5,3.603593 3.00327,2.636907 3.5,3.69699 3.5,7.469448 V 32 h -10 -10 z"
         id="path46" />
      <path
         style="fill:#447ab9"
         d="M 71.677284,180.98552 C 58.02479,177.24683 46.638195,173.97153 46.373739,173.70707 46.014783,173.34812 34.081326,48.853141 34.012568,44.75 34.005656,44.3375 62.8,44 98,44 c 35.2,0 63.99434,0.3375 63.98743,0.75 -0.0679,4.054091 -11.99995,128.59585 -12.35438,128.95028 -0.57753,0.57754 -51.437273,14.34405 -52.429069,14.19129 -0.38719,-0.0596 -11.874203,-3.16735 -25.526697,-6.90605 z M 121.47678,170.69506 140.45356,165.5 145.17596,112 c 2.59732,-29.425 4.74527,-54.5125 4.77322,-55.75 L 150,54 H 124 98 v 8 8 H 77.401813 56.803626 l 0.670146,6.25 c 1.142503,10.655353 -0.912431,9.671027 20.831933,9.978619 L 97.490206,86.5 79.495103,93.910785 c -9.897307,4.075931 -18.307645,7.675935 -18.689642,7.999995 -0.381996,0.32407 -0.429544,4.07672 -0.105661,8.33922 L 61.288677,118 H 79.644338 98 v 12.5 c 0,6.875 -0.3375,12.49229 -0.75,12.48286 -1.956203,-0.0447 -15.616169,-3.9499 -16.32773,-4.66787 C 80.478033,137.86674 79.976289,135.025 79.807284,132 L 79.5,126.5 l -8.389329,-0.29269 -8.389328,-0.2927 0.703555,10.7927 c 1.019524,15.63972 0.209399,14.3844 11.372704,17.62241 5.336319,1.54785 12.739898,3.7257 16.452398,4.83967 L 98,161.1948 v 7.92165 c 0,7.71845 0.05772,7.90693 2.25,7.34766 1.2375,-0.31569 10.78955,-2.91177 21.22678,-5.76905 z M 60,20.036212 V 8 h 10 10 v 4 4 h -6 -6 v 4 4 h 6.060365 6.060366 L 79.810365,27.75 79.5,31.5 69.75,31.786212 60,32.072424 Z M 88,28 c 0,-3.904762 0.08333,-4 3.5,-4 1.925,0 3.5,-0.238748 3.5,-0.530551 0,-0.291804 -1.575,-1.91342 -3.5,-3.603593 C 88.496729,17.228949 88,16.168866 88,12.396408 V 8 h 10 10 v 4 c 0,3.904762 -0.0833,4 -3.5,4 -1.925,0 -3.5,0.361725 -3.5,0.803833 0,0.442108 1.575,2.330384 3.5,4.196167 2.79204,2.706149 3.5,4.161754 3.5,7.196167 V 32 H 98 88 Z m 28.66667,3.333333 C 116.3,30.966667 116,29.166667 116,27.333333 116,24.083624 116.10557,24 120.20821,24 h 4.20821 l -4.20821,-4.287852 C 116.78974,16.228986 116,14.727649 116,11.712148 V 8 h 10 10 v 4 c 0,3.904762 -0.0833,4 -3.5,4 -1.925,0 -3.5,0.238748 -3.5,0.530551 0,0.291804 1.575,1.91342 3.5,3.603593 3.00327,2.636907 3.5,3.69699 3.5,7.469448 V 32 h -9.33333 c -5.13334,0 -9.63334,-0.3 -10,-0.666667 z"
         id="path44" />
      <path
         style="fill:#2061ae"
         d="M 72.056592,180.88969 C 58.062717,177.07094 46.483261,173.81659 46.324467,173.6578 46.165673,173.49901 43.569671,146.39854 40.555574,113.43454 37.541477,80.470544 34.817934,51.3625 34.503256,48.75 L 33.931114,44 H 98 162.06889 l -0.56858,4.75 c -0.31271,2.6125 -3.04391,31.728197 -6.06932,64.70155 -3.02542,32.97335 -5.61886,60.06966 -5.76322,60.21401 -0.21274,0.21274 -45.33726,12.50497 -50.66777,13.80225 -0.825,0.20077 -12.949534,-2.75938 -26.943408,-6.57812 z M 121.25,170.98209 c 17.96249,-4.82287 19.75,-5.49902 19.75,-7.47071 0,-1.19234 2.025,-25.2227 4.5,-53.4008 2.475,-28.178094 4.5,-52.330377 4.5,-53.671739 V 54 H 124 98 V 61.5 69 H 77.5 57 l 0.08761,3.25 c 0.04818,1.7875 0.385683,5.5 0.75,8.25 l 0.662394,5 19.365281,0.5 19.36528,0.5 -18.206948,7.493812 c -10.013821,4.121597 -18.410459,7.823098 -18.659195,8.225568 -0.248736,0.40246 -0.145417,4.11774 0.229599,8.25618 L 61.275863,118 H 79.637932 98 v 12.56739 c 0,11.50185 -0.148376,12.52297 -1.75,12.0435 -0.9625,-0.28813 -4.746638,-1.2629 -8.409196,-2.16615 -7.322165,-1.80577 -7.802205,-2.43101 -7.827149,-10.19474 L 80,126 h -8.853207 -8.853208 l 0.417379,4.75 c 0.229559,2.6125 0.726002,8.32533 1.103208,12.69519 L 64.5,151.39037 81.25,156.37004 98,161.34971 v 7.94178 c 0,7.07757 0.190431,7.89017 1.75,7.4676 0.9625,-0.2608 10.6375,-2.86045 21.5,-5.777 z M 60,20.036212 V 8 h 10 10 v 4 4 h -6 -6 v 4 4 h 6.060365 6.060366 L 79.810365,27.75 79.5,31.5 69.75,31.786212 60,32.072424 Z M 88,28 c 0,-3.904762 0.08333,-4 3.5,-4 1.925,0 3.5,-0.238748 3.5,-0.530551 0,-0.291804 -1.575,-1.91342 -3.5,-3.603593 C 88.496729,17.228949 88,16.168866 88,12.396408 V 8 h 10 10 v 4 c 0,3.904762 -0.0833,4 -3.5,4 -1.925,0 -3.5,0.361725 -3.5,0.803833 0,0.442108 1.575,2.330384 3.5,4.196167 2.79204,2.706149 3.5,4.161754 3.5,7.196167 V 32 H 98 88 Z m 28.66667,3.333333 C 116.3,30.966667 116,29.166667 116,27.333333 116,24.083624 116.10557,24 120.20821,24 h 4.20821 l -4.20821,-4.287852 C 116.78974,16.228986 116,14.727649 116,11.712148 V 8 h 10 10 v 4 c 0,3.904762 -0.0833,4 -3.5,4 -1.925,0 -3.5,0.238748 -3.5,0.530551 0,0.291804 1.575,1.91342 3.5,3.603593 3.00327,2.636907 3.5,3.69699 3.5,7.469448 V 32 h -9.33333 c -5.13334,0 -9.63334,-0.3 -10,-0.666667 z"
         id="path42" />
      <path
         style="fill:#1e60ad"
         d="M 72,180.77941 C 57.975,176.93786 46.432239,173.72845 46.349421,173.64739 46.266602,173.56632 43.67818,145.825 40.597371,112 37.516563,78.175 34.751433,49.0375 34.452638,47.25 L 33.909374,44 h 64.057131 64.057135 l -0.54331,3.75 C 160.91064,51.682158 150,170.11879 150,172.37076 c 0,1.1583 -5.70279,2.83347 -51.381371,15.09306 C 98.003383,187.62894 86.025,184.62096 72,180.77941 Z m 52.28412,-1.3154 c 13.26665,-3.59479 24.19908,-6.63229 24.29427,-6.75 0.0952,-0.1177 1.38246,-13.26401 2.86059,-29.21401 1.47813,-15.95 3.76608,-40.475 5.08433,-54.5 1.31826,-14.025 2.70436,-29.6625 3.08024,-34.75 L 160.28696,45 H 98 35.713041 l 0.683412,9.25 c 0.375876,5.0875 1.761982,20.725 3.080235,34.75 1.318252,14.025 3.606201,38.55 5.08433,54.5 1.478129,15.95 2.767278,29.09819 2.864776,29.2182 0.563413,0.6935 47.562825,13.1168 49.905671,13.19151 1.557305,0.0497 13.685995,-2.8509 26.952655,-6.4457 z M 99.8125,177.31689 c 0.72187,-0.28887 1.58437,-0.25335 1.91667,0.0789 0.33229,0.33229 -0.25834,0.56864 -1.3125,0.52522 -1.164946,-0.048 -1.401903,-0.28494 -0.60417,-0.60416 z M 96.18338,169.81051 96,162.12103 87.75,159.63494 c -4.5375,-1.36735 -11.536408,-3.47067 -15.553128,-4.67405 -4.016721,-1.20338 -7.130992,-2.3601 -6.920603,-2.57049 C 65.579749,152.08692 95.0669,160.33098 97,161.25977 97.275,161.3919 97.245021,165.1 96.93338,169.5 l -0.566621,8 z m 7.62912,6.50638 c 0.72187,-0.28887 1.58437,-0.25335 1.91667,0.0789 0.33229,0.33229 -0.25834,0.56864 -1.3125,0.52522 -1.16495,-0.048 -1.4019,-0.28494 -0.60417,-0.60416 z m 7,-2 c 0.72187,-0.28887 1.58437,-0.25335 1.91667,0.0789 0.33229,0.33229 -0.25834,0.56864 -1.3125,0.52522 -1.16495,-0.048 -1.4019,-0.28494 -0.60417,-0.60416 z m 4,-1 c 0.72187,-0.28887 1.58437,-0.25335 1.91667,0.0789 0.33229,0.33229 -0.25834,0.56864 -1.3125,0.52522 -1.16495,-0.048 -1.4019,-0.28494 -0.60417,-0.60416 z m 4,-1 c 0.72187,-0.28887 1.58437,-0.25335 1.91667,0.0789 0.33229,0.33229 -0.25834,0.56864 -1.3125,0.52522 -1.16495,-0.048 -1.4019,-0.28494 -0.60417,-0.60416 z m 7,-2 c 0.72187,-0.28887 1.58438,-0.25335 1.91667,0.0789 0.33229,0.33229 -0.25834,0.56864 -1.3125,0.52522 -1.16495,-0.048 -1.4019,-0.28494 -0.60417,-0.60416 z m 4,-1 c 0.72187,-0.28887 1.58437,-0.25335 1.91667,0.0789 0.33229,0.33229 -0.25834,0.56864 -1.3125,0.52522 -1.16495,-0.048 -1.4019,-0.28494 -0.60417,-0.60416 z m 7,-2 c 0.72187,-0.28887 1.58437,-0.25335 1.91667,0.0789 0.33229,0.33229 -0.25834,0.56864 -1.3125,0.52522 -1.16495,-0.048 -1.4019,-0.28494 -0.60417,-0.60416 z m 4.26645,-2.90022 c 0.048,-1.16495 0.28494,-1.4019 0.60416,-0.60417 0.28887,0.72187 0.25335,1.58437 -0.0789,1.91667 -0.3323,0.33229 -0.56864,-0.25834 -0.52522,-1.3125 z M 142.28601,155.5 c 0.008,-2.75 0.20172,-3.75631 0.43157,-2.23625 0.22986,1.52006 0.22371,3.77006 -0.0136,5 -0.23736,1.22994 -0.42542,-0.0137 -0.41792,-2.76375 z M 62.429121,142.25 c -0.41273,-4.8125 -0.790626,-10.55 -0.839769,-12.75 l -0.08935,-4 h 9.5 9.5 l 0.823615,6.14692 0.823616,6.14692 6.3819,1.60308 C 92.039176,140.27861 95.156049,141 95.455516,141 95.754982,141 96,136.32971 96,130.62157 V 120.24313 L 78.426187,119.511 c -13.990245,-0.58284 -17.687932,-1.02952 -18.133452,-2.19053 -0.307801,-0.80211 -0.612085,-4.84756 -0.676187,-8.98987 L 59.5,100.79912 74.346784,94.649558 89.193567,88.5 74.143096,88 C 65.865337,87.725 58.673507,87.05 58.16125,86.5 57.079081,85.338095 55.07179,69.926335 56.084116,70.551986 c 0.373012,0.230535 0.995076,3.800647 1.382364,7.933584 L 58.17064,86 77.83532,86.030318 97.5,86.060637 78.772876,93.780318 C 57.658197,102.4842 59.218736,100.85092 60.647983,112.75 l 0.630599,5.25 h 17.803556 17.803556 l 0.307153,12.49005 c 0.263801,10.72719 0.09544,12.42702 -1.192847,12.0435 -0.825,-0.2456 -4.506713,-1.18809 -8.181585,-2.09443 L 81.13683,138.79122 80.451918,132.39561 79.767006,126 h -8.971401 -8.971401 l 0.554602,3.75 c 0.957788,6.47618 1.881927,21.25 1.32924,21.25 -0.290679,0 -0.866196,-3.9375 -1.278925,-8.75 z M 143.27236,144 c 0,-2.475 0.19502,-3.4875 0.43337,-2.25 0.23836,1.2375 0.23836,3.2625 0,4.5 -0.23835,1.2375 -0.43337,0.225 -0.43337,-2.25 z m 1,-11 c 0,-2.475 0.19502,-3.4875 0.43337,-2.25 0.23836,1.2375 0.23836,3.2625 0,4.5 -0.23835,1.2375 -0.43337,0.225 -0.43337,-2.25 z m 1,-12 c 0,-2.475 0.19502,-3.4875 0.43337,-2.25 0.23836,1.2375 0.23836,3.2625 0,4.5 -0.23835,1.2375 -0.43337,0.225 -0.43337,-2.25 z m 1,-11 c 0,-2.475 0.19502,-3.4875 0.43337,-2.25 0.23836,1.2375 0.23836,3.2625 0,4.5 -0.23835,1.2375 -0.43337,0.225 -0.43337,-2.25 z m 1.01365,-11.5 c 0.008,-2.75 0.20172,-3.756313 0.43157,-2.23625 0.22986,1.520062 0.22371,3.77006 -0.0136,5 -0.23736,1.22994 -0.42542,-0.0138 -0.41792,-2.76375 z M 148.27236,87 c 0,-2.475 0.19502,-3.4875 0.43337,-2.25 0.23836,1.2375 0.23836,3.2625 0,4.5 -0.23835,1.2375 -0.43337,0.225 -0.43337,-2.25 z m 1,-11 c 0,-2.475 0.19502,-3.4875 0.43337,-2.25 0.23836,1.2375 0.23836,3.2625 0,4.5 -0.23835,1.2375 -0.43337,0.225 -0.43337,-2.25 z M 76.206614,68.251395 95.913228,67.95801 96.21394,60.729005 96.514652,53.5 97.007326,61.252328 97.5,69.004655 77,68.774717 56.5,68.54478 Z M 150.27236,64 c 0,-2.475 0.19502,-3.4875 0.43337,-2.25 0.23836,1.2375 0.23836,3.2625 0,4.5 -0.23835,1.2375 -0.43337,0.225 -0.43337,-2.25 z m 0.80659,-8.583333 c 0.048,-1.164943 0.28494,-1.4019 0.60416,-0.604167 0.28887,0.721875 0.25335,1.584375 -0.0789,1.916667 -0.3323,0.332291 -0.56864,-0.258334 -0.52522,-1.3125 z M 110.75,52.252604 c 7.2875,-0.17086 19.2125,-0.17086 26.5,0 7.2875,0.170859 1.325,0.310654 -13.25,0.310654 -14.575,0 -20.5375,-0.139795 -13.25,-0.310654 z M 60,20.036212 V 8 h 10 10 v 4 4 h -6 -6 v 4 4 h 6.060365 6.060366 L 79.810365,27.75 79.5,31.5 69.75,31.786212 60,32.072424 Z M 88,28 c 0,-3.904762 0.08333,-4 3.5,-4 1.925,0 3.5,-0.238748 3.5,-0.530551 0,-0.291804 -1.575,-1.91342 -3.5,-3.603593 C 88.496729,17.228949 88,16.168866 88,12.396408 V 8 h 10 10 v 4 c 0,3.904762 -0.0833,4 -3.5,4 -1.925,0 -3.5,0.361725 -3.5,0.803833 0,0.442108 1.575,2.330384 3.5,4.196167 2.79204,2.706149 3.5,4.161754 3.5,7.196167 V 32 H 98 88 Z m 28.66667,3.333333 C 116.3,30.966667 116,29.166667 116,27.333333 116,24.083624 116.10557,24 120.20821,24 h 4.20821 l -4.20821,-4.287852 C 116.78974,16.228986 116,14.727649 116,11.712148 V 8 h 10 10 v 4 c 0,3.904762 -0.0833,4 -3.5,4 -1.925,0 -3.5,0.238748 -3.5,0.530551 0,0.291804 1.575,1.91342 3.5,3.603593 3.00327,2.636907 3.5,3.69699 3.5,7.469448 V 32 h -9.33333 c -5.13334,0 -9.63334,-0.3 -10,-0.666667 z"
         id="path40" />
      <path
         style="fill:#195bab"
         d="m 94.8125,186.31689 c 0.721875,-0.28887 1.584375,-0.25335 1.916667,0.0789 0.332291,0.33229 -0.258334,0.56864 -1.3125,0.52522 -1.164943,-0.048 -1.4019,-0.28494 -0.604167,-0.60416 z m 5,0 c 0.72187,-0.28887 1.58437,-0.25335 1.91667,0.0789 0.33229,0.33229 -0.25834,0.56864 -1.3125,0.52522 -1.164946,-0.048 -1.401903,-0.28494 -0.60417,-0.60416 z m -9,-1 c 0.721875,-0.28887 1.584375,-0.25335 1.916667,0.0789 0.332291,0.33229 -0.258334,0.56864 -1.3125,0.52522 -1.164943,-0.048 -1.4019,-0.28494 -0.604167,-0.60416 z m 13,0 c 0.72187,-0.28887 1.58437,-0.25335 1.91667,0.0789 0.33229,0.33229 -0.25834,0.56864 -1.3125,0.52522 -1.16495,-0.048 -1.4019,-0.28494 -0.60417,-0.60416 z m -20,-2 c 0.721875,-0.28887 1.584375,-0.25335 1.916667,0.0789 0.332291,0.33229 -0.258334,0.56864 -1.3125,0.52522 -1.164943,-0.048 -1.4019,-0.28494 -0.604167,-0.60416 z m 27,0 c 0.72187,-0.28887 1.58437,-0.25335 1.91667,0.0789 0.33229,0.33229 -0.25834,0.56864 -1.3125,0.52522 -1.16495,-0.048 -1.4019,-0.28494 -0.60417,-0.60416 z m -31,-1 c 0.721875,-0.28887 1.584375,-0.25335 1.916667,0.0789 0.332291,0.33229 -0.258334,0.56864 -1.3125,0.52522 -1.164943,-0.048 -1.4019,-0.28494 -0.604167,-0.60416 z m 35,0 c 0.72187,-0.28887 1.58437,-0.25335 1.91667,0.0789 0.33229,0.33229 -0.25834,0.56864 -1.3125,0.52522 -1.16495,-0.048 -1.4019,-0.28494 -0.60417,-0.60416 z M 73.5,181 c -1.260639,-0.54172 -1.445479,-0.85943 -0.5,-0.85943 0.825,0 2.4,0.38674 3.5,0.85943 1.260639,0.54172 1.445479,0.85943 0.5,0.85943 -0.825,0 -2.4,-0.38674 -3.5,-0.85943 z m 46,0 c 1.1,-0.47269 2.675,-0.85943 3.5,-0.85943 0.94548,0 0.76064,0.31771 -0.5,0.85943 -1.1,0.47269 -2.675,0.85943 -3.5,0.85943 -0.94548,0 -0.76064,-0.31771 0.5,-0.85943 z m -50.6875,-1.68311 c 0.721875,-0.28887 1.584375,-0.25335 1.916667,0.0789 0.332291,0.33229 -0.258334,0.56864 -1.3125,0.52522 -1.164943,-0.048 -1.4019,-0.28494 -0.604167,-0.60416 z m 57,0 c 0.72187,-0.28887 1.58438,-0.25335 1.91667,0.0789 0.33229,0.33229 -0.25834,0.56864 -1.3125,0.52522 -1.16495,-0.048 -1.4019,-0.28494 -0.60417,-0.60416 z m -61,-1 c 0.721875,-0.28887 1.584375,-0.25335 1.916667,0.0789 0.332291,0.33229 -0.258334,0.56864 -1.3125,0.52522 -1.164943,-0.048 -1.4019,-0.28494 -0.604167,-0.60416 z m 65,0 c 0.72187,-0.28887 1.58437,-0.25335 1.91667,0.0789 0.33229,0.33229 -0.25834,0.56864 -1.3125,0.52522 -1.16495,-0.048 -1.4019,-0.28494 -0.60417,-0.60416 z m -72,-2 c 0.721875,-0.28887 1.584375,-0.25335 1.916667,0.0789 0.332291,0.33229 -0.258334,0.56864 -1.3125,0.52522 -1.164943,-0.048 -1.4019,-0.28494 -0.604167,-0.60416 z m 79,0 c 0.72187,-0.28887 1.58437,-0.25335 1.91667,0.0789 0.33229,0.33229 -0.25834,0.56864 -1.3125,0.52522 -1.16495,-0.048 -1.4019,-0.28494 -0.60417,-0.60416 z m -83,-1 c 0.721875,-0.28887 1.584375,-0.25335 1.916667,0.0789 0.332291,0.33229 -0.258334,0.56864 -1.3125,0.52522 -1.164943,-0.048 -1.4019,-0.28494 -0.604167,-0.60416 z m 87,0 c 0.72187,-0.28887 1.58437,-0.25335 1.91667,0.0789 0.33229,0.33229 -0.25834,0.56864 -1.3125,0.52522 -1.16495,-0.048 -1.4019,-0.28494 -0.60417,-0.60416 z M 47.75,174.31067 c -1.24825,-0.3262 -1.707041,-1.36812 -1.600168,-3.63399 0.138305,-2.93228 0.181414,-2.96997 0.560321,-0.48991 0.275718,1.80466 1.293566,3.00994 3.100168,3.67106 2.696864,0.9869 1.222972,1.31086 -2.060321,0.45284 z m 98.43968,-0.45284 c 1.8066,-0.66112 2.82445,-1.8664 3.10017,-3.67106 0.38415,-2.51439 0.4201,-2.48573 0.56032,0.4466 0.11813,2.47037 -0.32626,3.26095 -2.10017,3.73634 -3.49229,0.9359 -4.55969,0.58573 -1.56032,-0.51188 z M 45.272364,161 c 0,-2.475 0.195016,-3.4875 0.433369,-2.25 0.238353,1.2375 0.238353,3.2625 0,4.5 -0.238353,1.2375 -0.433369,0.225 -0.433369,-2.25 z m 104.999996,0 c 0,-2.475 0.19502,-3.4875 0.43337,-2.25 0.23836,1.2375 0.23836,3.2625 0,4.5 -0.23835,1.2375 -0.43337,0.225 -0.43337,-2.25 z M 85.8125,158.31689 c 0.721875,-0.28887 1.584375,-0.25335 1.916667,0.0789 0.332291,0.33229 -0.258334,0.56864 -1.3125,0.52522 -1.164943,-0.048 -1.4019,-0.28494 -0.604167,-0.60416 z m -7,-2 c 0.721875,-0.28887 1.584375,-0.25335 1.916667,0.0789 0.332291,0.33229 -0.258334,0.56864 -1.3125,0.52522 -1.164943,-0.048 -1.4019,-0.28494 -0.604167,-0.60416 z M 44.272364,150 c 0,-2.475 0.195016,-3.4875 0.433369,-2.25 0.238353,1.2375 0.238353,3.2625 0,4.5 -0.238353,1.2375 -0.433369,0.225 -0.433369,-2.25 z m 24.540136,3.31689 c 0.721875,-0.28887 1.584375,-0.25335 1.916667,0.0789 0.332291,0.33229 -0.258334,0.56864 -1.3125,0.52522 -1.164943,-0.048 -1.4019,-0.28494 -0.604167,-0.60416 z M 151.27236,150 c 0,-2.475 0.19502,-3.4875 0.43337,-2.25 0.23836,1.2375 0.23836,3.2625 0,4.5 -0.23835,1.2375 -0.43337,0.225 -0.43337,-2.25 z m -87.999996,-3 c 0,-2.475 0.195016,-3.4875 0.433369,-2.25 0.238353,1.2375 0.238353,3.2625 0,4.5 -0.238353,1.2375 -0.433369,0.225 -0.433369,-2.25 z m -20,-8 c 0,-2.475 0.195016,-3.4875 0.433369,-2.25 0.238353,1.2375 0.238353,3.2625 0,4.5 -0.238353,1.2375 -0.433369,0.225 -0.433369,-2.25 z m 108.999996,0 c 0,-2.475 0.19502,-3.4875 0.43337,-2.25 0.23836,1.2375 0.23836,3.2625 0,4.5 -0.23835,1.2375 -0.43337,0.225 -0.43337,-2.25 z m -66.45986,0.31689 c 0.721875,-0.28887 1.584375,-0.25335 1.916667,0.0789 0.332291,0.33229 -0.258334,0.56864 -1.3125,0.52522 -1.164943,-0.048 -1.4019,-0.28494 -0.604167,-0.60416 z M 62.252183,135.5 c 0.0111,-2.2 0.215885,-2.98225 0.455078,-1.73834 0.239193,1.24391 0.230112,3.04391 -0.02018,4 C 62.436788,138.71775 62.241084,137.7 62.252183,135.5 Z M 81,137.5 c 0,-0.825 0.176855,-1.5 0.393011,-1.5 0.216156,0 0.652033,0.675 0.968615,1.5 0.316583,0.825 0.139728,1.5 -0.393011,1.5 C 81.435877,139 81,138.325 81,137.5 Z m -38.713986,-9 c 0.0075,-2.75 0.201713,-3.75631 0.431567,-2.23625 0.229855,1.52006 0.223712,3.77006 -0.01365,5 -0.237362,1.22994 -0.425424,-0.0137 -0.417917,-2.76375 z m 37.966169,1 c 0.0111,-2.2 0.215885,-2.98225 0.455078,-1.73834 0.239193,1.24391 0.230112,3.04391 -0.02018,4 C 80.436788,132.71775 80.241084,131.7 80.252183,129.5 Z m 73.033827,-1 c 0.008,-2.75 0.20172,-3.75631 0.43157,-2.23625 0.22986,1.52006 0.22371,3.77006 -0.0136,5 -0.23736,1.22994 -0.42542,-0.0137 -0.41792,-2.76375 z M 66.75,125.26779 c 2.3375,-0.21053 6.1625,-0.21053 8.5,0 2.3375,0.21054 0.425,0.3828 -4.25,0.3828 -4.675,0 -6.5875,-0.17226 -4.25,-0.3828 z M 41.286014,117.5 c 0.0075,-2.75 0.201713,-3.75631 0.431567,-2.23625 0.229855,1.52006 0.223712,3.77006 -0.01365,5 -0.237362,1.22994 -0.425424,-0.0138 -0.417917,-2.76375 z m 112.999996,0 c 0.008,-2.75 0.20172,-3.75631 0.43157,-2.23625 0.22986,1.52006 0.22371,3.77006 -0.0136,5 -0.23736,1.22994 -0.42542,-0.0138 -0.41792,-2.76375 z M 65.75,118.26779 c 2.3375,-0.21053 6.1625,-0.21053 8.5,0 2.3375,0.21054 0.425,0.3828 -4.25,0.3828 -4.675,0 -6.5875,-0.17226 -4.25,-0.3828 z M 60.232003,115 c 0,-1.925 0.205795,-2.7125 0.457323,-1.75 0.251527,0.9625 0.251527,2.5375 0,3.5 -0.251528,0.9625 -0.457323,0.175 -0.457323,-1.75 z m -19.959639,-8 c 0,-2.475 0.195016,-3.4875 0.433369,-2.25 0.238353,1.2375 0.238353,3.2625 0,4.5 -0.238353,1.2375 -0.433369,0.225 -0.433369,-2.25 z m 114.999996,0 c 0,-2.475 0.19502,-3.4875 0.43337,-2.25 0.23836,1.2375 0.23836,3.2625 0,4.5 -0.23835,1.2375 -0.43337,0.225 -0.43337,-2.25 z m -96.040357,-2 c 0,-1.925 0.205795,-2.7125 0.457323,-1.75 0.251527,0.9625 0.251527,2.5375 0,3.5 -0.251528,0.9625 -0.457323,0.175 -0.457323,-1.75 z M 62,100 c 0.825,-0.533156 1.95,-0.969374 2.5,-0.969374 0.55,0 0.325,0.436218 -0.5,0.969374 -0.825,0.53316 -1.95,0.96937 -2.5,0.96937 -0.55,0 -0.325,-0.43621 0.5,-0.96937 z M 39.272364,96 c 0,-2.475 0.195016,-3.4875 0.433369,-2.25 0.238353,1.2375 0.238353,3.2625 0,4.5 -0.238353,1.2375 -0.433369,0.225 -0.433369,-2.25 z m 116.999996,0 c 0,-2.475 0.19502,-3.4875 0.43337,-2.25 0.23836,1.2375 0.23836,3.2625 0,4.5 -0.23835,1.2375 -0.43337,0.225 -0.43337,-2.25 z M 67,98 c 0.825,-0.533156 1.95,-0.969374 2.5,-0.969374 0.55,0 0.325,0.436218 -0.5,0.969374 -0.825,0.533156 -1.95,0.969374 -2.5,0.969374 -0.55,0 -0.325,-0.436218 0.5,-0.969374 z m 7,-3 c 0.825,-0.533156 1.95,-0.969374 2.5,-0.969374 0.55,0 0.325,0.436218 -0.5,0.969374 -0.825,0.533156 -1.95,0.969374 -2.5,0.969374 -0.55,0 -0.325,-0.436218 0.5,-0.969374 z m 5,-2 c 0.825,-0.533156 1.95,-0.969374 2.5,-0.969374 0.55,0 0.325,0.436218 -0.5,0.969374 -0.825,0.533156 -1.95,0.969374 -2.5,0.969374 -0.55,0 -0.325,-0.436218 0.5,-0.969374 z m 7,-3 c 0.825,-0.533156 1.95,-0.969374 2.5,-0.969374 0.55,0 0.325,0.436218 -0.5,0.969374 -0.825,0.533156 -1.95,0.969374 -2.5,0.969374 -0.55,0 -0.325,-0.436218 0.5,-0.969374 z M 38.272364,85 c 0,-2.475 0.195016,-3.4875 0.433369,-2.25 0.238353,1.2375 0.238353,3.2625 0,4.5 C 38.46738,88.4875 38.272364,87.475 38.272364,85 Z M 92,87.5 c 1.375,-0.786021 3.175,-1.427461 4,-1.425423 0.825,0.002 -0.01416,0.661093 -1.86481,1.464565 C 89.876844,89.387936 88.734049,89.366986 92,87.5 Z M 157.27236,85 c 0,-2.475 0.19502,-3.4875 0.43337,-2.25 0.23836,1.2375 0.23836,3.2625 0,4.5 -0.23835,1.2375 -0.43337,0.225 -0.43337,-2.25 z M 57.232003,82 c 0,-1.925 0.205795,-2.7125 0.457323,-1.75 0.251527,0.9625 0.251527,2.5375 0,3.5 -0.251528,0.9625 -0.457323,0.175 -0.457323,-1.75 z M 37.286014,74.5 c 0.0075,-2.75 0.201713,-3.756313 0.431567,-2.23625 0.229855,1.520062 0.223712,3.770062 -0.01365,5 C 37.466569,78.493687 37.278507,77.25 37.286014,74.5 Z m 120.999996,0 c 0.008,-2.75 0.20172,-3.756313 0.43157,-2.23625 0.22986,1.520062 0.22371,3.770062 -0.0136,5 C 158.46657,78.493687 158.27851,77.25 158.28601,74.5 Z M 56.232003,74 c 0,-1.925 0.205795,-2.7125 0.457323,-1.75 0.251527,0.9625 0.251527,2.5375 0,3.5 -0.251528,0.9625 -0.457323,0.175 -0.457323,-1.75 z M 66.75,68.254119 c 5.6375,-0.178247 14.8625,-0.178247 20.5,0 5.6375,0.178248 1.025,0.324086 -10.25,0.324086 -11.275,0 -15.8875,-0.145838 -10.25,-0.324086 z M 36.286014,63.5 c 0.0075,-2.75 0.201713,-3.756313 0.431567,-2.23625 0.229855,1.520062 0.223712,3.770062 -0.01365,5 C 36.466569,67.493687 36.278507,66.25 36.286014,63.5 Z m 122.999996,0 c 0.008,-2.75 0.20172,-3.756313 0.43157,-2.23625 0.22986,1.520062 0.22371,3.770062 -0.0136,5 C 159.46657,67.493687 159.27851,66.25 159.28601,63.5 Z M 35.286014,52.5 c 0.0075,-2.75 0.201713,-3.756313 0.431567,-2.23625 0.229855,1.520062 0.223712,3.770062 -0.01365,5 C 35.466569,56.493687 35.278507,55.25 35.286014,52.5 Z m 124.999996,0 c 0.008,-2.75 0.20172,-3.756313 0.43157,-2.23625 0.22986,1.520062 0.22371,3.770062 -0.0136,5 C 160.46657,56.493687 160.27851,55.25 160.28601,52.5 Z M 34,44.75 C 34,44.3375 62.8,44 98,44 c 35.2,0 64,0.3375 64,0.75 0,0.4125 -28.8,0.75 -64,0.75 -35.2,0 -64,-0.3375 -64,-0.75 z M 60,20.036212 V 8 h 10 10 v 4 4 h -6 -6 v 4 4 h 6.060365 6.060366 L 79.810365,27.75 79.5,31.5 69.75,31.786212 60,32.072424 Z M 88,28 c 0,-3.904762 0.08333,-4 3.5,-4 1.925,0 3.5,-0.238748 3.5,-0.530551 0,-0.291804 -1.575,-1.91342 -3.5,-3.603593 C 88.496729,17.228949 88,16.168866 88,12.396408 V 8 h 10 10 v 4 c 0,3.904762 -0.0833,4 -3.5,4 -1.925,0 -3.5,0.361725 -3.5,0.803833 0,0.442108 1.575,2.330384 3.5,4.196167 2.79204,2.706149 3.5,4.161754 3.5,7.196167 V 32 H 98 88 Z m 28.66667,3.333333 C 116.3,30.966667 116,29.166667 116,27.333333 116,24.083624 116.10557,24 120.20821,24 h 4.20821 l -4.20821,-4.287852 C 116.78974,16.228986 116,14.727649 116,11.712148 V 8 h 10 10 v 4 c 0,3.904762 -0.0833,4 -3.5,4 -1.925,0 -3.5,0.238748 -3.5,0.530551 0,0.291804 1.575,1.91342 3.5,3.603593 3.00327,2.636907 3.5,3.69699 3.5,7.469448 V 32 h -9.33333 c -5.13334,0 -9.63334,-0.3 -10,-0.666667 z"
         id="path38" />
      <path
         style="fill:#585455"
         d="M 60,20.036212 V 8 h 10 10 v 4 4 h -6 -6 v 4 4 h 6.060365 6.060366 L 79.810365,27.75 79.5,31.5 69.75,31.786212 60,32.072424 Z M 88,28 c 0,-3.904762 0.08333,-4 3.5,-4 1.925,0 3.5,-0.238748 3.5,-0.530551 0,-0.291804 -1.575,-1.91342 -3.5,-3.603593 C 88.496729,17.228949 88,16.168866 88,12.396408 V 8 h 10 10 v 4 c 0,3.904762 -0.0833,4 -3.5,4 -1.925,0 -3.5,0.361725 -3.5,0.803833 0,0.442108 1.575,2.330384 3.5,4.196167 2.79204,2.706149 3.5,4.161754 3.5,7.196167 V 32 H 98 88 Z m 28.66667,3.333333 C 116.3,30.966667 116,29.166667 116,27.333333 116,24.083624 116.10557,24 120.20821,24 h 4.20821 l -4.20821,-4.287852 C 116.78974,16.228986 116,14.727649 116,11.712148 V 8 h 10 10 v 4 c 0,3.904762 -0.0833,4 -3.5,4 -1.925,0 -3.5,0.238748 -3.5,0.530551 0,0.291804 1.575,1.91342 3.5,3.603593 3.00327,2.636907 3.5,3.69699 3.5,7.469448 V 32 h -9.33333 c -5.13334,0 -9.63334,-0.3 -10,-0.666667 z"
         id="path36" />
      <path
         style="fill:#211d1e"
         d="M 60,19.5 V 8 h 9.5 9.5 v 4 4 H 73.5 68 v 4 4 H 73.5 79 V 27.5 31 H 69.5 60 Z m 29,7.890594 c 0,-3.536198 0.07099,-3.601119 3.5,-3.200801 1.925,0.224733 3.5,0.180439 3.5,-0.09843 0,-0.27887 -1.637341,-2.183826 -3.638535,-4.233235 -2.904476,-2.974453 -3.661023,-4.546642 -3.75,-7.792921 L 88.5,7.9984827 98.25,7.9992414 108,8 v 4 4 h -4.20821 -4.208206 l 4.208206,4.287852 c 3.18096,3.241161 4.20821,5.071956 4.20821,7.5 V 31 H 98.5 89 Z m 28,0 c 0,-3.536198 0.071,-3.601119 3.5,-3.200801 1.925,0.224733 3.5,0.137241 3.5,-0.194427 C 124,23.663698 122.425,21.865783 120.5,20 117.56763,17.157832 117,15.909674 117,12.303833 V 8 h 9.5 9.5 v 4 4 h -4.20821 -4.20821 l 4.20821,4.287852 c 3.18096,3.241161 4.20821,5.071956 4.20821,7.5 V 31 h -9.5 -9.5 z"
         id="path34" />
      <path
         style="fill:#1a1517"
         d="M 60,19.5 V 8 h 9.5 9.5 v 4 4 H 73.557498 68.114996 L 67.697557,20.25 67.280118,24.5 67.390059,20 67.5,15.5 72.75,15.19774 C 77.827624,14.905405 78,14.798696 78,11.94774 V 9 H 69.5 61 V 19.5 30 h 8.5 c 7.753526,0 8.5,-0.170829 8.5,-1.945209 0,-1.601366 -0.839629,-2.011414 -4.75,-2.319752 L 68.5,25.360496 73.75,25.180248 C 78.956722,25.001486 79,25.02473 79,28 v 3 H 69.5 60 Z M 89,28 c 0,-2.748684 0.27226,-2.987448 3.25,-2.850168 3.024931,0.139456 3.059557,0.178682 0.5,0.566422 -1.885775,0.285672 -2.75,1.012009 -2.75,2.311235 0,1.689779 0.94613,1.930684 8.75,2.227943 L 107.5,30.58873 98.25,30.794365 89,31 Z m 28,0 c 0,-2.828451 0.21444,-2.990849 3.75,-2.839963 3.6921,0.157566 3.69982,0.166264 0.5,0.563359 -2.40905,0.29896 -3.25,0.904433 -3.25,2.339962 C 118,29.826987 118.75936,30 126.5,30 h 8.5 v -2.712148 c 0,-1.812277 -1.41012,-4.217777 -4.25,-7.25 L 126.5,15.5 l 4.75,4.458208 c 3.80178,3.568241 4.75,5.11533 4.75,7.75 V 31 H 126.5 117 Z M 92.702948,20.207837 C 89.619835,17.050443 89,15.711327 89,12.207837 V 8 L 98.25,8.2056352 107.5,8.4112704 98.75,8.7445681 90,9.0778658 V 12.74677 c 0,2.88194 0.794267,4.482308 3.702948,7.461067 C 95.739569,22.293527 97.180896,24 96.905896,24 c -0.275,0 -2.166327,-1.706473 -4.202948,-3.792163 z M 103.43709,20.75 100.5,17.5 l 3.25,2.937091 c 1.7875,1.6154 3.25,3.0779 3.25,3.25 0,0.772561 -0.82513,0.09236 -3.56291,-2.937091 z m 16.25,-1.554719 C 117.64367,17.062405 117,15.385624 117,12.195281 V 8 h 9.5 9.5 v 4 c 0,3.984007 -0.015,3.99936 -3.75,3.839963 -3.6921,-0.157566 -3.69982,-0.166264 -0.5,-0.563359 2.8373,-0.352106 3.25,-0.776228 3.25,-3.339962 V 9 h -8.5 -8.5 v 3.695281 c 0,2.647727 0.76175,4.490375 2.68709,6.5 1.4779,1.542596 2.46209,2.804719 2.18709,2.804719 -0.275,0 -1.70919,-1.262123 -3.18709,-2.804719 z M 102.25,15.310674 c 0.9625,-0.251527 2.5375,-0.251527 3.5,0 0.9625,0.251528 0.175,0.457323 -1.75,0.457323 -1.925,0 -2.7125,-0.205795 -1.75,-0.457323 z"
         id="path32" />
    </g>
  </g>
</svg>
