<?xml version="1.0" encoding="UTF-8" standalone="no"?>
<!-- Created with Inkscape (http://www.inkscape.org/) -->

<svg
   version="1.1"
   id="svg2"
   width="266.66666"
   height="266.66666"
   viewBox="0 0 266.66666 266.66666"
   sodipodi:docname="html5-logo-vector-01.svg"
   inkscape:version="1.1.1 (3bf5ae0d25, 2021-09-20)"
   xmlns:inkscape="http://www.inkscape.org/namespaces/inkscape"
   xmlns:sodipodi="http://sodipodi.sourceforge.net/DTD/sodipodi-0.dtd"
   xmlns="http://www.w3.org/2000/svg"
   xmlns:svg="http://www.w3.org/2000/svg">
  <defs
     id="defs6" />
  <sodipodi:namedview
     id="namedview4"
     pagecolor="#ffffff"
     bordercolor="#666666"
     borderopacity="1.0"
     inkscape:pageshadow="2"
     inkscape:pageopacity="0.0"
     inkscape:pagecheckerboard="0"
     showgrid="false"
     inkscape:zoom="2.9325001"
     inkscape:cx="133.33333"
     inkscape:cy="133.33333"
     inkscape:window-width="1920"
     inkscape:window-height="986"
     inkscape:window-x="-11"
     inkscape:window-y="-11"
     inkscape:window-maximized="1"
     inkscape:current-layer="g8" />
  <g
     inkscape:groupmode="layer"
     inkscape:label="Image"
     id="g8">
    <g
       id="g30"
       transform="translate(1.3640212,1.3640238)">
      <path
         style="fill:#f9e7e1;stroke-width:1.33333"
         d="M 99.333331,245.47145 67.333332,236.47881 60.492549,159.90608 C 56.73012,117.79106 53.302695,79.583331 52.876051,74.999998 l -0.775718,-8.333333 h 83.262717 83.26273 l -0.77301,7.666666 c -0.42515,4.216667 -3.86595,42.409819 -7.64622,84.873679 l -6.87322,77.20701 -32.66667,9.10529 c -17.96666,5.00791 -34.16666,9.06918 -36,9.02503 -1.83333,-0.0441 -17.73333,-4.12695 -35.333329,-9.07289 z M 176.55028,206.5685 c 0.5913,-0.59729 6.11638,-55.9955 6.11638,-61.32696 0,-0.71921 -9.81665,-1.24154 -23.33333,-1.24154 H 136 v 10 10 h 12.77261 12.7726 l -0.69291,3.66666 c -0.3811,2.01667 -1.07437,8.25692 -1.5406,13.86723 l -0.84768,10.20056 -6.23201,1.53699 c -3.4276,0.84534 -8.48201,2.12822 -11.23201,2.85084 l -5,1.31384 v 10.42269 10.4227 l 19.89657,-5.47409 c 10.94311,-3.01075 20.23728,-5.81827 20.65371,-6.23892 z m 8.79773,-88.90184 c 0.008,-2.75 0.38657,-7.25 0.84112,-10 l 0.82644,-5 H 161.50778 136 v 10 10 h 24.66666 24.66667 l 0.0147,-5 z M 67.999998,37.333332 V 21.333333 h 6 6 v 5.333333 c 0,5.037037 0.222223,5.333333 4,5.333333 3.777777,0 4,-0.296296 4,-5.333333 v -5.333333 h 6 5.999999 v 15.999999 16 h -5.999999 c -5.968254,0 -6,-0.02469 -6,-4.666667 0,-4.296295 -0.31746,-4.666666 -4,-4.666666 -3.68254,0 -4,0.370371 -4,4.666666 0,4.641975 -0.03175,4.666667 -6,4.666667 h -6 z m 44.000002,6 v -10 h -4.66667 c -4.64197,0 -4.66667,-0.03175 -4.66667,-5.999999 v -6 H 118 133.33333 v 6 c 0,5.968253 -0.0247,5.999999 -4.66667,5.999999 H 124 v 10 10 h -6 -6 z m 24,-6 V 21.333333 h 6.40458 c 5.97359,0 6.5919,0.327736 9.18779,4.870005 l 2.7832,4.870005 3.14555,-4.8535 c 2.88666,-4.454048 3.66678,-4.85486 9.47888,-4.870005 l 6.33333,-0.0165 v 15.999999 16 h -5.92695 -5.92694 l -0.40639,-6.333333 -0.40639,-6.333333 -2.36757,4.333333 c -1.30216,2.383333 -2.89324,4.333333 -3.53573,4.333333 -0.64248,0 -2.41698,-1.95 -3.9433,-4.333333 l -2.77514,-4.333333 -0.0224,6.333333 L 148,53.333332 h -6 -6 z m 41.33333,0 V 21.333333 H 182.66666 188 v 10.666666 10.666667 h 8 7.99999 v 5.333333 5.333333 h -13.33333 -13.33333 z"
         id="path68" />
      <path
         style="fill:#eaeaea;stroke-width:1.33333"
         d="m 99.333331,245.37529 -31.999999,-9.01311 -7.500999,-83.84776 c -4.125549,-46.11627 -7.240138,-84.297755 -6.92131,-84.847755 0.75787,-1.307377 164.086887,-1.307377 164.844147,0 0.31856,0.55 -2.79603,38.728415 -6.92132,84.840935 l -7.50052,83.84091 -32.66667,9.11479 c -17.96666,5.01312 -34.16666,9.07209 -36,9.01993 -1.83333,-0.0521 -17.73333,-4.15073 -35.333329,-9.10794 z m 57.999999,-32.83791 c 9.9,-2.70791 18.44375,-5.31036 18.98612,-5.78321 0.77547,-0.6761 6.31704,-54.05848 6.34143,-61.08751 C 182.66529,144.39485 176.98086,144 158.66666,144 h -24 v 9.95172 9.95172 l 13,0.38161 c 12.9486,0.38011 12.99906,0.39479 12.76223,3.71495 -0.1308,1.83333 -0.62243,7.88157 -1.09257,13.44053 l -0.85479,10.10721 -11.90744,3.06987 -11.90743,3.06988 v 10.57944 c 0,9.45066 0.24895,10.50552 2.33334,9.88668 1.28333,-0.38102 10.43333,-2.90832 20.33333,-5.61623 z m 28.01468,-94.87072 c 0.008,-2.75 0.38657,-7.25 0.84112,-10 l 0.82644,-5 h -26.17445 -26.17446 v 10 10 H 160 185.33333 l 0.0147,-5 z M 67.999998,37.333332 V 21.333333 h 6 6 v 5.333333 c 0,5.037037 0.222223,5.333333 4,5.333333 3.777777,0 4,-0.296296 4,-5.333333 v -5.333333 h 6 5.999999 v 15.999999 16 h -5.999999 c -5.968254,0 -6,-0.02469 -6,-4.666667 0,-4.296295 -0.31746,-4.666666 -4,-4.666666 -3.68254,0 -4,0.370371 -4,4.666666 0,4.641975 -0.03175,4.666667 -6,4.666667 h -6 z m 44.000002,6 v -10 h -4.66667 c -4.64197,0 -4.66667,-0.03175 -4.66667,-5.999999 v -6 H 118 133.33333 v 6 c 0,5.968253 -0.0247,5.999999 -4.66667,5.999999 H 124 v 10 10 h -6 -6 z m 24,-6 V 21.333333 h 6.40458 c 5.97359,0 6.5919,0.327736 9.18779,4.870005 l 2.7832,4.870005 3.14555,-4.8535 c 2.88666,-4.454048 3.66678,-4.85486 9.47888,-4.870005 l 6.33333,-0.0165 v 15.999999 16 h -5.92695 -5.92694 l -0.40639,-6.333333 -0.40639,-6.333333 -2.36757,4.333333 c -1.30216,2.383333 -2.89324,4.333333 -3.53573,4.333333 -0.64248,0 -2.41698,-1.95 -3.9433,-4.333333 l -2.77514,-4.333333 -0.0224,6.333333 L 148,53.333332 h -6 -6 z m 41.33333,0 V 21.333333 H 182.66666 188 v 10.666666 10.666667 h 8 7.99999 v 5.333333 5.333333 h -13.33333 -13.33333 z"
         id="path66" />
      <path
         style="fill:#f2e1da;stroke-width:1.33333"
         d="m 99.333331,245.37529 -31.999999,-9.01311 -7.500999,-83.84776 c -4.125549,-46.11627 -7.240138,-84.297755 -6.92131,-84.847755 0.75787,-1.307377 164.086887,-1.307377 164.844147,0 0.31856,0.55 -2.79603,38.728415 -6.92132,84.840935 l -7.50052,83.84091 -32.66667,9.11479 c -17.96666,5.01312 -34.16666,9.07209 -36,9.01993 -1.83333,-0.0521 -17.73333,-4.15073 -35.333329,-9.10794 z m 55.914439,-32.22706 c 11.04705,-3.03513 20.52931,-5.90889 21.07168,-6.38612 0.77555,-0.68241 6.31705,-54.07106 6.34143,-61.09545 C 182.66488,144.37294 174.32628,144 145.39374,144 h -37.27291 l -0.66289,-4.33334 C 107.09335,137.28333 106.53986,132.48333 106.22797,129 l -0.56707,-6.33334 h 39.83622 39.83621 l 0.0147,-5 c 0.008,-2.75 0.38657,-7.25 0.84112,-10 l 0.82644,-5 H 135.44157 83.867567 l 0.77328,7.66667 c 1.390607,13.78714 4.683149,50.29428 4.687865,51.97823 0.0035,1.2543 8.473632,1.7292 35.671268,2 l 35.66668,0.3551 L 160.42889,168 c -0.1308,1.83333 -0.62243,7.88157 -1.09257,13.44053 l -0.85479,10.10721 -11.80831,3.04431 -11.8083,3.04432 -11.28443,-2.98103 c -11.22145,-2.9644 -11.2889,-3.00804 -12.08446,-7.81818 -0.44001,-2.66044 -0.80662,-6.48716 -0.81469,-8.50383 l -0.0147,-3.66667 H 100.59711 90.527554 l 0.887545,11.66667 c 0.488149,6.41667 1.283419,13.70464 1.767265,16.1955 l 0.879723,4.52883 19.968953,5.66193 c 10.98293,3.11407 20.23045,5.7261 20.55006,5.8045 0.3196,0.0784 9.6196,-2.34072 20.66667,-5.37586 z M 67.999998,37.333332 V 21.333333 h 6 6 v 5.333333 c 0,5.037037 0.222223,5.333333 4,5.333333 3.777777,0 4,-0.296296 4,-5.333333 v -5.333333 h 6 5.999999 v 15.999999 16 h -5.999999 c -5.968254,0 -6,-0.02469 -6,-4.666667 0,-4.296295 -0.31746,-4.666666 -4,-4.666666 -3.68254,0 -4,0.370371 -4,4.666666 0,4.641975 -0.03175,4.666667 -6,4.666667 h -6 z m 44.000002,6 v -10 h -4.66667 c -4.64197,0 -4.66667,-0.03175 -4.66667,-5.999999 v -6 H 118 133.33333 v 6 c 0,5.968253 -0.0247,5.999999 -4.66667,5.999999 H 124 v 10 10 h -6 -6 z m 24,-6 V 21.333333 h 5.98774 c 5.37439,0 6.2963,0.476332 9,4.650161 1.65674,2.557589 3.36778,4.657589 3.8023,4.666667 0.43452,0.0091 1.92096,-2.083495 3.3032,-4.650162 2.33208,-4.330408 2.97169,-4.666666 8.87662,-4.666666 h 6.36347 v 15.999999 16 h -5.92695 -5.92694 l -0.40639,-6.333333 -0.40639,-6.333333 -2.62081,4.333333 c -1.44144,2.383333 -3.07604,4.333333 -3.63243,4.333333 -0.55638,0 -2.07702,-1.95 -3.37918,-4.333333 l -2.36758,-4.333333 -0.40638,6.333333 -0.40639,6.333333 H 141.92694 136 Z m 41.33333,0 V 21.333333 H 182.66666 188 v 10.666666 10.666667 h 8 7.99999 v 5.333333 5.333333 h -13.33333 -13.33333 z"
         id="path64" />
      <path
         style="fill:#f6d3c9;stroke-width:1.33333"
         d="M 99.642732,245.38503 C 82.212905,240.44138 67.765254,236.15734 67.536846,235.86495 66.779773,234.89581 52.333381,68.686093 52.917613,67.666665 c 0.749258,-1.307381 164.082177,-1.307381 164.831437,0 0.59181,1.032648 -13.86763,167.239365 -14.63399,168.213035 -0.85345,1.08435 -66.44525,18.78336 -69.08037,18.64037 -1.48575,-0.0807 -16.96213,-4.1914 -34.391958,-9.13504 z m 55.658438,-32.18846 c 11.01769,-3.00855 20.46576,-5.87216 20.99573,-6.36358 0.80674,-0.74804 6.32311,-53.23571 6.35842,-60.49966 C 182.66598,144.16652 180.00821,144 145.41502,144 h -37.25163 l -0.70605,-5.66667 c -0.38832,-3.11667 -0.90461,-7.91667 -1.14729,-10.66667 l -0.44125,-5 h 39.73226 39.73227 l 0.0147,-5 c 0.008,-2.75 0.38657,-7.25 0.84112,-10 l 0.82644,-5 H 135.5078 c -28.32928,0 -51.498132,0.45 -51.486333,1 0.01173,0.55 1.209081,13.9 2.660626,29.66667 1.451547,15.76667 2.641893,29.10687 2.645215,29.64489 0.0033,0.53802 16.056042,1.13802 35.672702,1.33334 l 35.66667,0.3551 -0.46263,8 c -0.25445,4.4 -0.86116,10.37867 -1.34825,13.28594 l -0.88561,5.28593 -10.65176,3.15429 -10.65175,3.1543 -12.2487,-2.97426 -12.2487,-2.97424 -0.90663,-8.46598 -0.90661,-8.46598 h -9.94477 -9.94477 l 0.940961,12.02835 c 1.720272,21.99033 -0.340007,19.61274 22.629369,26.11465 10.97976,3.10803 20.24873,5.69732 20.5977,5.75399 0.34899,0.0567 9.64899,-2.35854 20.66667,-5.36708 z M 67.999998,37.333332 V 21.333333 h 6 6 v 5.333333 c 0,5.037037 0.222223,5.333333 4,5.333333 3.777777,0 4,-0.296296 4,-5.333333 v -5.333333 h 6 5.999999 v 15.999999 16 h -5.999999 c -5.968254,0 -6,-0.02469 -6,-4.666667 0,-4.296295 -0.31746,-4.666666 -4,-4.666666 -3.68254,0 -4,0.370371 -4,4.666666 0,4.641975 -0.03175,4.666667 -6,4.666667 h -6 z m 44.000002,6 v -10 h -4.66667 c -4.64197,0 -4.66667,-0.03175 -4.66667,-5.999999 v -6 H 118 133.33333 v 6 c 0,5.968253 -0.0247,5.999999 -4.66667,5.999999 H 124 v 10 10 h -6 -6 z m 24,-6 V 21.333333 h 5.98774 c 5.37439,0 6.2963,0.476332 9,4.650161 1.65674,2.557589 3.36778,4.657589 3.8023,4.666667 0.43452,0.0091 1.92096,-2.083495 3.3032,-4.650162 2.33208,-4.330408 2.97169,-4.666666 8.87662,-4.666666 h 6.36347 v 15.999999 16 h -5.92695 -5.92694 l -0.40639,-6.333333 -0.40639,-6.333333 -2.62081,4.333333 c -1.44144,2.383333 -3.07604,4.333333 -3.63243,4.333333 -0.55638,0 -2.07702,-1.95 -3.37918,-4.333333 l -2.36758,-4.333333 -0.40638,6.333333 -0.40639,6.333333 H 141.92694 136 Z m 41.33333,0 V 21.333333 H 182.66666 188 v 10.666666 10.666667 h 8 7.99999 v 5.333333 5.333333 h -13.33333 -13.33333 z"
         id="path62" />
      <path
         style="fill:#f1c5b8;stroke-width:1.33333"
         d="M 101.33333,245.76766 C 84.099998,240.96993 69.420606,236.5001 68.71246,235.83471 68.004313,235.16933 64.087604,197.13432 60.008662,151.31246 L 52.592405,67.999998 h 82.740925 82.74093 l -7.41627,83.312462 c -4.07893,45.82186 -7.99565,83.85695 -8.7038,84.52244 -1.4782,1.38917 -64.26061,18.87872 -67.28753,18.74456 -1.1,-0.0488 -16.1,-4.01407 -33.33333,-8.8118 z M 155.622,213.19927 c 10.84122,-3.00705 20.2102,-5.93592 20.8199,-6.50857 1.02882,-0.96627 6.07575,-48.63332 6.17883,-58.35737 L 182.66666,144 H 145.5 108.33333 L 107.5,139.83333 c -0.45834,-2.29167 -0.83334,-7.09167 -0.83334,-10.66667 v -6.5 H 146 185.33333 l 0.012,-3 c 0.007,-1.65 0.38995,-6.15 0.85239,-10 l 0.8408,-7 h -51.51906 c -28.33589,0 -51.510614,0.45 -51.499799,1 0.01081,0.55 1.201966,13.9 2.647003,29.66667 C 88.111702,149.1 89.302854,162.45 89.313668,163 c 0.01081,0.55 15.919662,1 35.352992,1 H 160 l -0.1168,7 c -0.0643,3.85 -0.51424,9.98049 -1,13.62333 l -0.88319,6.62333 -10.66667,3.09899 -10.66666,3.09899 -12.25486,-2.98051 -12.25486,-2.98051 -0.90048,-8.40848 -0.90047,-8.40848 h -9.94477 -9.94477 l 0.940961,12.02835 c 1.727903,22.08788 -0.212092,19.78005 21.978129,26.14538 10.60461,3.04196 20.011,5.59731 20.9031,5.67856 0.8921,0.0812 10.4921,-2.31261 21.33334,-5.31968 z M 67.999998,37.333332 V 21.333333 h 6 6 v 5.333333 c 0,5.037037 0.222223,5.333333 4,5.333333 3.777777,0 4,-0.296296 4,-5.333333 v -5.333333 h 6 5.999999 v 15.999999 16 h -5.999999 c -5.968254,0 -6,-0.02469 -6,-4.666667 0,-4.296295 -0.31746,-4.666666 -4,-4.666666 -3.68254,0 -4,0.370371 -4,4.666666 0,4.641975 -0.03175,4.666667 -6,4.666667 h -6 z m 44.000002,6 v -10 h -4.66667 c -4.64197,0 -4.66667,-0.03175 -4.66667,-5.999999 v -6 H 118 133.33333 v 6 c 0,5.968253 -0.0247,5.999999 -4.66667,5.999999 H 124 v 10 10 h -6 -6 z m 24,-6 V 21.333333 h 5.98774 c 5.37439,0 6.2963,0.476332 9,4.650161 1.65674,2.557589 3.36778,4.657589 3.8023,4.666667 0.43452,0.0091 1.92096,-2.083495 3.3032,-4.650162 2.33208,-4.330408 2.97169,-4.666666 8.87662,-4.666666 h 6.36347 v 15.999999 16 h -5.92695 -5.92694 l -0.40639,-6.333333 -0.40639,-6.333333 -2.62081,4.333333 c -1.44144,2.383333 -3.07604,4.333333 -3.63243,4.333333 -0.55638,0 -2.07702,-1.95 -3.37918,-4.333333 l -2.36758,-4.333333 -0.40638,6.333333 -0.40639,6.333333 H 141.92694 136 Z m 41.33333,0 V 21.333333 H 182.66666 188 v 10.666666 10.666667 h 8 7.99999 v 5.333333 5.333333 h -13.33333 -13.33333 z"
         id="path60" />
      <path
         style="fill:#efb5a6;stroke-width:1.33333"
         d="M 100.66666,245.47034 C 71.534368,237.28258 68.58052,236.18641 67.705389,233.2383 66.749244,230.01727 53.263676,78.66385 53.309381,71.666665 l 0.02395,-3.666667 h 81.999999 82 l -0.0369,5 c -0.0875,11.826756 -14.26046,161.819852 -15.38697,162.840542 -1.44352,1.30792 -64.69517,18.87584 -67.41701,18.72483 -1.00417,-0.0557 -16.22575,-4.14847 -33.82575,-9.09503 z m 55.8591,-32.35632 c 11.07749,-3.05396 20.34814,-5.7112 20.60144,-5.90499 0.52414,-0.401 5.48585,-53.93803 5.51826,-59.54237 L 182.66666,144 h -37.1521 -37.1521 l -0.8479,-6.1861 c -0.46634,-3.40236 -0.8479,-8.20235 -0.8479,-10.66666 v -4.48058 h 39.14762 39.14761 l 0.8408,-7 c 0.46244,-3.85 0.84601,-8.35 0.85239,-10 l 0.0116,-3 h -51.33333 c -43.981338,0 -51.333332,0.27722 -51.333332,1.93558 0,3.08205 3.924144,47.48149 4.748901,53.73109 L 89.496726,164 h 35.434314 35.43432 l -0.94147,13 c -0.51781,7.15 -1.35001,13.37698 -1.84935,13.83774 -0.49933,0.46075 -6.00788,2.13747 -12.24121,3.72603 L 134,197.45208 l -10.66667,-3.10879 -10.66667,-3.10877 -1.11641,-8.28394 -1.11641,-8.28392 H 100.40643 90.379012 l 0.977515,13.66667 c 0.537633,7.51667 1.419117,14.86666 1.958855,16.33333 0.767802,2.08641 5.155922,3.86757 20.166308,8.18563 10.55174,3.03541 20.02156,5.58541 21.04407,5.66666 1.02249,0.0812 10.92249,-2.35098 22,-5.40493 z M 67.999998,37.333332 V 21.333333 h 6 6 v 5.333333 c 0,5.037037 0.222223,5.333333 4,5.333333 3.777777,0 4,-0.296296 4,-5.333333 v -5.333333 h 6 5.999999 v 15.999999 16 h -5.999999 c -5.968254,0 -6,-0.02469 -6,-4.666667 0,-4.296295 -0.31746,-4.666666 -4,-4.666666 -3.68254,0 -4,0.370371 -4,4.666666 0,4.641975 -0.03175,4.666667 -6,4.666667 h -6 z m 44.000002,6 v -10 h -4.66667 c -4.64197,0 -4.66667,-0.03175 -4.66667,-5.999999 v -6 H 118 133.33333 v 6 c 0,5.968253 -0.0247,5.999999 -4.66667,5.999999 H 124 v 10 10 h -6 -6 z m 24,-6 V 21.333333 h 5.98774 c 5.37439,0 6.2963,0.476332 9,4.650161 1.65674,2.557589 3.36778,4.657589 3.8023,4.666667 0.43452,0.0091 1.92096,-2.083495 3.3032,-4.650162 2.33208,-4.330408 2.97169,-4.666666 8.87662,-4.666666 h 6.36347 v 15.999999 16 h -5.92695 -5.92694 l -0.40639,-6.333333 -0.40639,-6.333333 -2.62081,4.333333 c -1.44144,2.383333 -3.07604,4.333333 -3.63243,4.333333 -0.55638,0 -2.07702,-1.95 -3.37918,-4.333333 l -2.36758,-4.333333 -0.40638,6.333333 -0.40639,6.333333 H 141.92694 136 Z m 41.33333,0 V 21.333333 H 182.66666 188 v 10.666666 10.666667 h 8 7.99999 v 5.333333 5.333333 h -13.33333 -13.33333 z"
         id="path58" />
      <path
         style="fill:#f7b193;stroke-width:1.33333"
         d="m 100.66666,245.37579 -31.999995,-8.97846 -1.015005,-4.532 C 66.625561,227.28379 53.317911,78.449207 53.32792,71.666665 l 0.0054,-3.666667 h 82 82 l -0.0552,5 c -0.1052,9.534588 -14.16526,161.664852 -15.02028,162.519892 -1.1649,1.16488 -65.07251,19.07244 -67.59123,18.93974 -1.1,-0.058 -16.4,-4.14569 -34,-9.08384 z m 55.80628,-32.19348 c 11.10655,-3.0164 20.40428,-5.67696 20.66162,-5.91234 0.56436,-0.51623 5.43574,-52.79036 5.49226,-58.93664 L 182.66666,144 h -37.1521 -37.1521 l -0.8479,-6.1861 c -0.46634,-3.40236 -0.8479,-8.20235 -0.8479,-10.66666 v -4.48058 h 39.14762 39.14761 l 0.8408,-7 c 0.46244,-3.85 0.84601,-8.35 0.85239,-10 l 0.0116,-3 H 135.33333 83.999998 v 2.83519 c 0,3.54107 3.743297,45.15981 4.751798,52.83148 L 89.496726,164 H 124.74836 160 l -0.13187,6.33333 c -0.0725,3.48333 -0.52252,9.57633 -1,13.53999 L 158,191.07997 l -11.40867,3.09663 -11.40867,3.09664 -11.25752,-3.06232 c -7.04982,-1.91774 -11.35063,-3.77535 -11.5066,-4.96996 -0.13699,-1.0492 -0.62397,-4.75763 -1.08217,-8.24096 l -0.8331,-6.33334 H 100.41321 90.323142 l 0.933814,13.66667 c 1.404455,20.5546 -0.585082,18.31073 21.816454,24.60526 10.77629,3.028 20.40608,5.55554 21.39953,5.61676 0.99346,0.0612 10.89346,-2.35665 22,-5.37304 z M 67.999998,37.333332 V 21.333333 h 6 6 v 5.333333 c 0,5.037037 0.222223,5.333333 4,5.333333 3.777777,0 4,-0.296296 4,-5.333333 v -5.333333 h 6 5.999999 v 15.999999 16 h -5.999999 c -5.968254,0 -6,-0.02469 -6,-4.666667 0,-4.296295 -0.31746,-4.666666 -4,-4.666666 -3.68254,0 -4,0.370371 -4,4.666666 0,4.641975 -0.03175,4.666667 -6,4.666667 h -6 z m 44.000002,6 v -10 h -4.66667 c -4.64197,0 -4.66667,-0.03175 -4.66667,-5.999999 v -6 H 118 133.33333 v 6 c 0,5.968253 -0.0247,5.999999 -4.66667,5.999999 H 124 v 10 10 h -6 -6 z m 24,-6 V 21.333333 h 5.98774 c 5.37439,0 6.2963,0.476332 9,4.650161 1.65674,2.557589 3.36778,4.657589 3.8023,4.666667 0.43452,0.0091 1.92096,-2.083495 3.3032,-4.650162 2.33208,-4.330408 2.97169,-4.666666 8.87662,-4.666666 h 6.36347 v 15.999999 16 h -5.92695 -5.92694 l -0.40639,-6.333333 -0.40639,-6.333333 -2.62081,4.333333 c -1.44144,2.383333 -3.07604,4.333333 -3.63243,4.333333 -0.55638,0 -2.07702,-1.95 -3.37918,-4.333333 l -2.36758,-4.333333 -0.40638,6.333333 -0.40639,6.333333 H 141.92694 136 Z m 41.33333,0 V 21.333333 H 182.66666 188 v 10.666666 10.666667 h 8 7.99999 v 5.333333 5.333333 h -13.33333 -13.33333 z"
         id="path56" />
      <path
         style="fill:#bbbbbb;stroke-width:1.33333"
         d="m 100.66666,245.37579 -31.999995,-8.97846 -1.015005,-4.532 C 66.625561,227.28379 53.317911,78.449207 53.32792,71.666665 l 0.0054,-3.666667 h 82 82 l -0.0552,5 c -0.1052,9.534588 -14.16526,161.664852 -15.02028,162.519892 -1.1649,1.16488 -65.07251,19.07244 -67.59123,18.93974 -1.1,-0.058 -16.4,-4.14569 -34,-9.08384 z m 55.96784,-32.19477 c 11.0177,-3.01709 20.32712,-5.76205 20.68763,-6.09991 0.36051,-0.33785 1.87024,-14.5193 3.35497,-31.51435 l 2.69952,-30.9001 -37.50984,-0.35349 -37.50984,-0.35348 -0.84514,-6.16595 c -0.46483,-3.39126 -0.84514,-8.18219 -0.84514,-10.6465 v -4.48058 h 39.15888 39.15888 l 0.82644,-5 c 0.45455,-2.75 0.83306,-7.62587 0.84112,-10.83528 l 0.0147,-5.83528 -51,0.97743 c -28.05,0.53759 -51.224267,1.18774 -51.498378,1.44478 -0.512932,0.48098 3.352286,46.81541 4.619004,55.37042 l 0.709053,4.78873 34.824281,0.89483 c 19.15335,0.49216 35.05963,1.13019 35.34728,1.41783 0.28764,0.28765 0.03,6.07297 -0.57245,12.85626 L 158,191.07965 l -11.54346,3.06013 -11.54345,3.06012 -11.12274,-3.02565 c -6.95294,-1.89137 -11.21612,-3.74081 -11.37181,-4.93329 -0.13699,-1.0492 -0.62397,-4.75763 -1.08217,-8.24096 l -0.8331,-6.33334 H 100.41321 90.323142 l 0.933814,13.66667 c 1.404455,20.5546 -0.585082,18.31073 21.816454,24.60526 10.77629,3.028 20.47879,5.55554 21.56109,5.61676 1.08232,0.0612 10.98232,-2.35722 22,-5.37433 z M 67.999998,37.333332 V 21.333333 h 6 6 v 5.333333 c 0,5.037037 0.222223,5.333333 4,5.333333 3.777777,0 4,-0.296296 4,-5.333333 v -5.333333 h 6 5.999999 v 15.999999 16 h -5.999999 c -5.968254,0 -6,-0.02469 -6,-4.666667 0,-4.296295 -0.31746,-4.666666 -4,-4.666666 -3.68254,0 -4,0.370371 -4,4.666666 0,4.641975 -0.03175,4.666667 -6,4.666667 h -6 z m 44.000002,6 v -10 h -4.66667 c -4.64197,0 -4.66667,-0.03175 -4.66667,-5.999999 v -6 H 118 133.33333 v 6 c 0,5.968253 -0.0247,5.999999 -4.66667,5.999999 H 124 v 10 10 h -6 -6 z m 24,-6 V 21.333333 h 5.98774 c 5.37439,0 6.2963,0.476332 9,4.650161 1.65674,2.557589 3.36778,4.657589 3.8023,4.666667 0.43452,0.0091 1.92096,-2.083495 3.3032,-4.650162 2.33208,-4.330408 2.97169,-4.666666 8.87662,-4.666666 h 6.36347 v 15.999999 16 h -5.92695 -5.92694 l -0.40639,-6.333333 -0.40639,-6.333333 -2.62081,4.333333 c -1.44144,2.383333 -3.07604,4.333333 -3.63243,4.333333 -0.55638,0 -2.07702,-1.95 -3.37918,-4.333333 l -2.36758,-4.333333 -0.40638,6.333333 -0.40639,6.333333 H 141.92694 136 Z m 41.33333,0 V 21.333333 H 182.66666 188 v 10.666666 10.666667 h 8 7.99999 v 5.333333 5.333333 h -13.33333 -13.33333 z"
         id="path54" />
      <path
         style="fill:#f0a692;stroke-width:1.33333"
         d="m 100.66666,245.37579 -31.999995,-8.97846 -1.015005,-4.532 C 66.625561,227.28379 53.317911,78.449207 53.32792,71.666665 l 0.0054,-3.666667 h 82 82 l -0.0552,5 c -0.1052,9.534588 -14.16526,161.664852 -15.02028,162.519892 -1.1649,1.16488 -65.07251,19.07244 -67.59123,18.93974 -1.1,-0.058 -16.4,-4.14569 -34,-9.08384 z m 55.96784,-32.19477 c 11.0177,-3.01709 20.32712,-5.76205 20.68763,-6.09991 0.36051,-0.33785 1.87024,-14.5193 3.35497,-31.51435 l 2.69952,-30.9001 -37.50984,-0.35349 -37.50984,-0.35348 -0.84514,-6.16595 c -0.46483,-3.39126 -0.84514,-8.18219 -0.84514,-10.6465 v -4.48058 h 39.15888 39.15888 l 0.82644,-5 c 0.45455,-2.75 0.83306,-7.62587 0.84112,-10.83528 l 0.0147,-5.83528 -51,0.97743 c -28.05,0.53759 -51.224267,1.18774 -51.498378,1.44478 -0.512932,0.48098 3.352286,46.81541 4.619004,55.37042 l 0.709053,4.78873 34.824281,0.89483 c 19.15335,0.49216 35.05963,1.13019 35.34728,1.41783 0.28764,0.28765 0.03,6.07297 -0.57245,12.85626 L 158,191.07965 l -11.54346,3.06013 -11.54345,3.06012 -11.12274,-3.02565 c -6.95294,-1.89137 -11.21612,-3.74081 -11.37181,-4.93329 -0.13699,-1.0492 -0.62397,-4.75763 -1.08217,-8.24096 l -0.8331,-6.33334 H 100.41321 90.323142 l 0.933814,13.66667 c 1.404455,20.5546 -0.585082,18.31073 21.816454,24.60526 10.77629,3.028 20.47879,5.55554 21.56109,5.61676 1.08232,0.0612 10.98232,-2.35722 22,-5.37433 z M 67.999998,37.333332 V 21.333333 h 5.333333 5.333334 v 5.333333 c 0,5.206349 0.111106,5.333333 4.666666,5.333333 4.555556,0 4.666667,-0.126986 4.666667,-5.333333 v -5.333333 h 5.333333 5.333333 v 15.999999 16 h -5.333333 -5.333333 v -5.417811 c 0,-5.309218 -0.08685,-5.409437 -4.333333,-4.999999 -3.956136,0.381442 -4.369355,0.853038 -4.747154,5.41781 -0.40237,4.861649 -0.559168,5 -5.666666,5 H 67.999998 Z M 112,43.41781 v -9.915522 l -4.33334,-0.417811 c -4.09703,-0.395027 -4.33333,-0.708644 -4.33333,-5.751144 V 21.999999 H 118 132.66666 v 5.333334 c 0,5.0425 -0.2363,5.356117 -4.33333,5.751144 L 124,33.502288 v 9.915522 9.915522 h -6 -6 z m 24.29101,-5.751144 0.37565,-15.666667 5.54882,-0.404238 c 5.25266,-0.382664 5.72629,-0.1066 8.87437,5.172502 l 3.32557,5.57674 3.47568,-5.505834 c 3.12518,-4.950598 4.01184,-5.505836 8.79228,-5.505836 H 172 v 15.999999 16 h -5.33334 -5.33333 v -6.97618 -6.976178 l -3.49369,5.141425 -3.49368,5.141424 -2.83966,-4.498579 -2.83964,-4.498578 -0.40638,6.333333 -0.40639,6.333333 h -5.96927 -5.96925 z m 41.04232,-0.333334 V 21.333333 H 182.66666 188 v 10.666666 10.666667 h 7.33333 7.33333 v 5.333333 5.333333 H 190 177.33333 Z"
         id="path52" />
      <path
         style="fill:#e79a87;stroke-width:1.33333"
         d="M 100.97607,245.38503 C 83.546238,240.44138 68.958305,236.06941 68.558438,235.66954 67.898762,235.00987 53.408085,78.053695 53.355639,70.999998 l -0.02231,-3 h 82.000001 82 l -0.0223,3 c -0.0509,6.842289 -14.5328,163.999542 -15.17127,164.638012 -0.93625,0.93625 -66.30998,19.06804 -68.07883,18.88206 -0.76684,-0.0807 -15.65503,-4.1914 -33.08485,-9.13504 z m 56.05841,-32.26528 c 17.16212,-4.71606 20.45725,-6.03158 20.93601,-8.35837 0.31252,-1.51876 1.52579,-14.46138 2.69617,-28.76138 1.17039,-14.3 2.41062,-27.35 2.75606,-29 l 0.62808,-3 h -37.83968 -37.83968 l -0.8408,-7 c -0.46244,-3.85 -0.84601,-8.65 -0.85239,-10.66667 l -0.0116,-3.66667 h 39.15888 39.15888 l 0.82644,-5 c 0.45455,-2.75 0.83306,-7.62587 0.84112,-10.83528 l 0.0147,-5.83528 -51,0.97743 c -28.05,0.53759 -51.221074,1.18455 -51.491281,1.43768 -0.51625,0.48363 3.435145,48.78857 4.601756,56.25545 L 89.454166,164 l 16.272914,0.005 c 8.95011,0.003 24.86053,0.39772 35.35649,0.87787 l 19.08357,0.873 -0.9192,12.12212 c -0.50554,6.66717 -1.10646,12.33544 -1.33536,12.59614 -0.22889,0.26071 -5.45344,1.89266 -11.61009,3.62654 l -11.19392,3.15253 -11.22049,-3.05224 c -7.02318,-1.91048 -11.31364,-3.76584 -11.46954,-4.95988 -0.13699,-1.0492 -0.62397,-4.75763 -1.08217,-8.24096 l -0.8331,-6.33333 H 100.41321 90.323142 l 0.933814,13.66666 c 1.414462,20.70107 -0.574476,18.45224 21.834104,24.68709 10.76658,2.99564 20.4756,5.5028 21.5756,5.57147 1.1,0.0687 11.16552,-2.3938 22.36782,-5.47213 z M 67.999998,37.333332 V 21.333333 h 5.333333 5.333334 v 5.333333 c 0,5.206349 0.111106,5.333333 4.666666,5.333333 4.555556,0 4.666667,-0.126986 4.666667,-5.333333 v -5.333333 h 5.333333 5.333333 v 15.999999 16 h -5.333333 -5.333333 v -5.417811 c 0,-5.309218 -0.08685,-5.409437 -4.333333,-4.999999 -3.956136,0.381442 -4.369355,0.853038 -4.747154,5.41781 -0.40237,4.861649 -0.559168,5 -5.666666,5 H 67.999998 Z M 112,43.41781 v -9.915522 l -4.33334,-0.417811 c -4.09703,-0.395027 -4.33333,-0.708644 -4.33333,-5.751144 V 21.999999 H 118 132.66666 v 5.333334 c 0,5.0425 -0.2363,5.356117 -4.33333,5.751144 L 124,33.502288 v 9.915522 9.915522 h -6 -6 z m 24.29101,-5.751144 0.37565,-15.666667 5.54882,-0.404238 c 5.25266,-0.382664 5.72629,-0.1066 8.87437,5.172502 l 3.32557,5.57674 3.47568,-5.505834 c 3.12518,-4.950598 4.01184,-5.505836 8.79228,-5.505836 H 172 v 15.999999 16 h -5.33334 -5.33333 v -6.97618 -6.976178 l -3.49369,5.141425 -3.49368,5.141424 -2.83966,-4.498579 -2.83964,-4.498578 -0.40638,6.333333 -0.40639,6.333333 h -5.96927 -5.96925 z m 41.04232,-0.333334 V 21.333333 H 182.66666 188 v 10.666666 10.666667 h 7.33333 7.33333 v 5.333333 5.333333 H 190 177.33333 Z"
         id="path50" />
      <path
         style="fill:#ec8d70;stroke-width:1.33333"
         d="m 101.63236,245.41845 c -17.802197,-4.97344 -32.685954,-9.36094 -33.075014,-9.75 C 67.937762,235.04887 53.333332,76.460811 53.333332,70.352398 c 0,-2.222144 4.540467,-2.3524 81.999998,-2.3524 77.20749,0 81.99982,0.136372 81.997,2.333334 -0.007,5.491473 -14.60087,164.714968 -15.14723,165.261328 -0.65149,0.65151 -66.41462,19.12172 -67.51644,18.96265 -0.36666,-0.0529 -15.2321,-4.16542 -33.0343,-9.13886 z m 57.01166,-32.51947 19.3107,-5.56565 2.25324,-26 c 1.23929,-14.3 2.52577,-28.55 2.85886,-31.66667 L 183.67244,144 H 145.83621 108 l -0.0116,-3.66667 c -0.006,-2.01667 -0.38995,-6.81667 -0.85239,-10.66667 l -0.84079,-7 h 39.3446 39.3446 l 0.82644,-5 c 0.45455,-2.75 0.83306,-7.55 0.84112,-10.66666 l 0.0147,-5.66667 H 135.33333 83.999998 l -0.0075,4.33333 c -0.0095,5.43747 3.979005,52.61307 4.790821,56.66667 l 0.600812,3 H 124.74 160.09584 l -0.89579,12.33333 c -0.49269,6.78334 -1.05457,12.52366 -1.24863,12.75627 -0.19405,0.23261 -5.47572,1.83239 -11.73704,3.55505 l -11.38421,3.13211 -11.08174,-3.01659 -11.08177,-3.0166 -0.35539,-5.20512 c -0.78234,-11.4583 -0.50729,-11.20512 -12.17289,-11.20512 H 89.660896 l 0.587471,5.66667 c 0.323108,3.11667 0.999407,10.45583 1.502884,16.30924 L 92.666664,207.28515 112,212.82819 c 10.63333,3.04867 21.13333,5.56406 23.33333,5.58975 2.2,0.0257 12.68981,-2.45784 23.31069,-5.51896 z M 67.999998,37.333332 V 21.333333 h 5.333333 5.333334 v 5.333333 c 0,5.206349 0.111106,5.333333 4.666666,5.333333 4.555556,0 4.666667,-0.126986 4.666667,-5.333333 v -5.333333 h 5.333333 5.333333 v 15.999999 16 h -5.333333 -5.333333 v -5.417811 c 0,-5.309218 -0.08685,-5.409437 -4.333333,-4.999999 -3.956136,0.381442 -4.369355,0.853038 -4.747154,5.41781 -0.40237,4.861649 -0.559168,5 -5.666666,5 H 67.999998 Z M 112,43.41781 v -9.915522 l -4.33334,-0.417811 c -4.09703,-0.395027 -4.33333,-0.708644 -4.33333,-5.751144 V 21.999999 H 118 132.66666 v 5.333334 c 0,5.0425 -0.2363,5.356117 -4.33333,5.751144 L 124,33.502288 v 9.915522 9.915522 h -6 -6 z m 24.29101,-5.751144 0.37565,-15.666667 5.54882,-0.404238 c 5.25266,-0.382664 5.72629,-0.1066 8.87437,5.172502 l 3.32557,5.57674 3.47568,-5.505834 c 3.12518,-4.950598 4.01184,-5.505836 8.79228,-5.505836 H 172 v 15.999999 16 h -5.33334 -5.33333 v -6.97618 -6.976178 l -3.49369,5.141425 -3.49368,5.141424 -2.83966,-4.498579 -2.83964,-4.498578 -0.40638,6.333333 -0.40639,6.333333 h -5.96927 -5.96925 z m 41.04232,-0.333334 V 21.333333 H 182.66666 188 v 10.666666 10.666667 h 7.33333 7.33333 v 5.333333 5.333333 H 190 177.33333 Z"
         id="path48" />
      <path
         style="fill:#f38a5d;stroke-width:1.33333"
         d="M 101.47179,245.22282 C 83.581275,240.18034 68.712373,235.82347 68.429785,235.54089 67.952384,235.06349 53.387355,75.49375 53.350153,70.333332 c -0.01584,-2.197111 4.770422,-2.333334 81.983177,-2.333334 77.21094,0 81.99929,0.136275 81.98794,2.333334 -0.0244,4.716193 -14.63085,164.754008 -15.0777,165.200878 -0.48048,0.48046 -67.66271,19.23746 -68.03325,18.9946 -0.11574,-0.0759 -14.84802,-4.26352 -32.73853,-9.30599 z M 158.66666,212.9089 178,207.33333 l 2.22973,-26 c 1.22635,-14.3 2.50264,-28.55 2.83621,-31.66667 L 183.67244,144 H 145.83621 108 l -0.0116,-3.66667 c -0.006,-2.01667 -0.38995,-6.81667 -0.85239,-10.66667 l -0.84079,-7 H 145.64761 185 L 185.83333,118.5 c 0.45833,-2.29167 0.83333,-7.09167 0.83333,-10.66667 v -6.5 H 135.33333 83.999998 l -0.0128,4.33333 c -0.01676,5.66132 3.944861,52.77942 4.764446,56.66667 l 0.632518,3 h 35.377488 35.37748 L 159.24062,177 c -0.49417,6.41666 -1.44599,12.25718 -2.11513,12.97892 -0.66916,0.72173 -5.84612,2.57046 -11.50439,4.10828 -10.73981,2.91889 -10.68076,2.92226 -26.55508,-1.51739 l -6.93402,-1.93927 -0.39934,-7.6486 -0.39933,-7.64861 -10.80916,-0.38417 -10.809162,-0.38418 0.61097,7.05084 c 0.336033,3.87796 1.000156,11.25084 1.475828,16.38418 l 0.864858,9.33333 L 112,212.89898 c 10.63333,3.06112 21.13333,5.57012 23.33333,5.57557 2.2,0.005 12.7,-2.49909 23.33333,-5.56565 z M 67.999998,37.333332 V 21.333333 h 5.333333 5.333334 v 5.333333 c 0,5.206349 0.111106,5.333333 4.666666,5.333333 4.555556,0 4.666667,-0.126986 4.666667,-5.333333 v -5.333333 h 5.333333 5.333333 v 15.999999 16 h -5.333333 -5.333333 v -5.417811 c 0,-5.309218 -0.08685,-5.409437 -4.333333,-4.999999 -3.956136,0.381442 -4.369355,0.853038 -4.747154,5.41781 -0.40237,4.861649 -0.559168,5 -5.666666,5 H 67.999998 Z M 112,43.41781 v -9.915522 l -4.33334,-0.417811 c -4.09703,-0.395027 -4.33333,-0.708644 -4.33333,-5.751144 V 21.999999 H 118 132.66666 v 5.333334 c 0,5.0425 -0.2363,5.356117 -4.33333,5.751144 L 124,33.502288 v 9.915522 9.915522 h -6 -6 z m 24.29101,-5.751144 0.37565,-15.666667 5.54882,-0.404238 c 5.25266,-0.382664 5.72629,-0.1066 8.87437,5.172502 l 3.32557,5.57674 3.47568,-5.505834 c 3.12518,-4.950598 4.01184,-5.505836 8.79228,-5.505836 H 172 v 15.999999 16 h -5.33334 -5.33333 v -6.97618 -6.976178 l -3.49369,5.141425 -3.49368,5.141424 -2.83966,-4.498579 -2.83964,-4.498578 -0.40638,6.333333 -0.40639,6.333333 h -5.96927 -5.96925 z m 41.04232,-0.333334 V 21.333333 H 182.66666 188 v 10.666666 10.666667 h 7.33333 7.33333 v 5.333333 5.333333 H 190 177.33333 Z"
         id="path46" />
      <path
         style="fill:#e77355;stroke-width:1.33333"
         d="M 101.47179,245.22282 C 83.581275,240.18034 68.712373,235.82347 68.429785,235.54089 67.952384,235.06349 53.387355,75.49375 53.350153,70.333332 c -0.01584,-2.197111 4.770422,-2.333334 81.983177,-2.333334 77.21094,0 81.99929,0.136275 81.98794,2.333334 -0.0244,4.716193 -14.63085,164.754008 -15.0777,165.200878 -0.48048,0.48046 -67.66271,19.23746 -68.03325,18.9946 -0.11574,-0.0759 -14.84802,-4.26352 -32.73853,-9.30599 z m 55.75895,-31.81688 c 10.57692,-2.93376 19.66498,-5.80028 20.19568,-6.37003 1.27375,-1.36746 6.61558,-61.88926 5.60662,-63.52179 -0.48312,-0.78171 -14.93519,-0.92054 -37.90692,-0.36414 L 108,144.04922 l -0.0116,-3.69128 c -0.006,-2.0302 -0.39143,-6.85378 -0.85568,-10.71906 l -0.84409,-7.02779 39.37028,0.90447 39.37027,0.90446 0.75964,-3.87668 c 0.4178,-2.13217 0.93624,-7.17668 1.15208,-11.21001 L 187.33333,102 l -51.66667,-0.34899 -51.666662,-0.349 -0.0128,4.349 c -0.01673,5.67308 3.943628,52.78923 4.764446,56.68232 l 0.632518,3 h 35.374138 35.37413 l -0.79653,8.33333 c -1.67841,17.55962 -1.24892,16.71719 -9.72572,19.0761 -4.18558,1.16476 -9.11016,2.57932 -10.94349,3.14346 -3.26269,1.004 -5.51581,0.62278 -19.60067,-3.31641 l -6.93402,-1.93927 -0.39934,-7.6486 -0.39933,-7.64861 -10.80916,-0.38417 -10.809162,-0.38418 0.61097,7.05084 c 0.336033,3.87796 1.000156,11.25084 1.475828,16.38418 l 0.864858,9.33333 L 114,213.43171 c 11.73333,3.35411 21.93333,5.92063 22.66666,5.70336 0.73334,-0.21726 9.98718,-2.79537 20.56408,-5.72913 z M 67.999998,37.333332 V 21.333333 h 5.333333 5.333334 v 5.333333 c 0,5.206349 0.111106,5.333333 4.666666,5.333333 4.555556,0 4.666667,-0.126986 4.666667,-5.333333 v -5.333333 h 5.333333 5.333333 v 15.999999 16 h -5.333333 -5.333333 v -5.417811 c 0,-5.309218 -0.08685,-5.409437 -4.333333,-4.999999 -3.956136,0.381442 -4.369355,0.853038 -4.747154,5.41781 -0.40237,4.861649 -0.559168,5 -5.666666,5 H 67.999998 Z M 112,43.41781 v -9.915522 l -4.33334,-0.417811 c -4.09703,-0.395027 -4.33333,-0.708644 -4.33333,-5.751144 V 21.999999 H 118 132.66666 v 5.333334 c 0,5.0425 -0.2363,5.356117 -4.33333,5.751144 L 124,33.502288 v 9.915522 9.915522 h -6 -6 z m 24.29101,-5.751144 0.37565,-15.666667 5.54882,-0.404238 c 5.25266,-0.382664 5.72629,-0.1066 8.87437,5.172502 l 3.32557,5.57674 3.47568,-5.505834 c 3.12518,-4.950598 4.01184,-5.505836 8.79228,-5.505836 H 172 v 15.999999 16 h -5.33334 -5.33333 v -6.97618 -6.976178 l -3.49369,5.141425 -3.49368,5.141424 -2.83966,-4.498579 -2.83964,-4.498578 -0.40638,6.333333 -0.40639,6.333333 h -5.96927 -5.96925 z m 41.04232,-0.333334 V 21.333333 H 182.66666 188 v 10.666666 10.666667 h 7.33333 7.33333 v 5.333333 5.333333 H 190 177.33333 Z"
         id="path44" />
      <path
         style="fill:#ef6328;stroke-width:1.33333"
         d="m 102.02502,245.07574 c -18.319573,-5.08636 -33.422047,-9.36167 -33.561056,-9.50067 -0.13901,-0.13901 -3.30419,-34.75026 -7.033734,-76.91391 -3.729543,-42.16364 -7.146203,-79.811162 -7.592575,-83.661162 l -0.811586,-7 h 82.307261 82.30726 l -0.81198,7 c -0.44659,3.85 -3.86747,41.500002 -7.60195,83.666662 -3.73449,42.16667 -6.89433,76.77276 -7.02188,76.90244 -0.1276,0.12973 -14.6258,4.19675 -32.21834,9.03793 -17.59254,4.84119 -32.58644,9.00791 -33.31978,9.25939 -0.73333,0.25149 -16.32207,-3.70432 -34.64164,-8.79068 z m 66.0848,-34.58028 10.10982,-2.79132 2.28018,-26.1854 c 1.2541,-14.40198 2.63198,-29.03541 3.06195,-32.51874 l 0.78177,-6.33334 H 146.17177 108 l -0.0182,-6.33333 C 107.9718,132.85 107.60181,128.65 107.15962,127 l -0.80397,-3 h 39.42843 39.42841 l 0.65581,-4.33334 c 0.3607,-2.38333 0.95962,-7.48333 1.33094,-11.33333 l 0.67512,-7 H 135.29096 82.707551 L 83.483642,109 c 0.426851,4.21666 1.767652,18.46666 2.979557,31.66666 l 2.203465,24 35.730396,0.35523 35.7304,0.35524 -0.79405,8.31143 c -1.6552,17.32505 -1.28861,16.58205 -9.3354,18.92132 -3.98479,1.15841 -9.04119,2.46542 -11.23644,2.90446 -5.1144,1.02288 -22.91197,-3.1807 -25.09491,-5.92713 C 112.75,188.43392 112,184.605 112,181.07849 v -6.41183 H 100.51527 89.030547 l 0.773001,5.66667 c 0.425151,3.11667 1.16406,10.53995 1.642022,16.49619 l 0.869021,10.82951 21.509369,5.95126 21.50937,5.95124 11.33333,-3.13738 c 6.23334,-1.72556 15.88276,-4.39346 21.44316,-5.92869 z M 67.999998,37.333332 V 21.333333 h 5.333333 5.333334 v 5.333333 c 0,5.206349 0.111106,5.333333 4.666666,5.333333 4.555556,0 4.666667,-0.126986 4.666667,-5.333333 v -5.333333 h 5.333333 5.333333 v 15.999999 16 h -5.333333 -5.333333 v -5.417811 c 0,-5.309218 -0.08685,-5.409437 -4.333333,-4.999999 -3.956136,0.381442 -4.369355,0.853038 -4.747154,5.41781 -0.40237,4.861649 -0.559168,5 -5.666666,5 H 67.999998 Z M 112,43.41781 v -9.915522 l -4.33334,-0.417811 c -4.09703,-0.395027 -4.33333,-0.708644 -4.33333,-5.751144 V 21.999999 H 118 132.66666 v 5.333334 c 0,5.0425 -0.2363,5.356117 -4.33333,5.751144 L 124,33.502288 v 9.915522 9.915522 h -6 -6 z m 24.29101,-5.751144 0.37565,-15.666667 5.54882,-0.404238 c 5.25266,-0.382664 5.72629,-0.1066 8.87437,5.172502 l 3.32557,5.57674 3.47568,-5.505834 c 3.12518,-4.950598 4.01184,-5.505836 8.79228,-5.505836 H 172 v 15.999999 16 h -5.33334 -5.33333 v -6.97618 -6.976178 l -3.49369,5.141425 -3.49368,5.141424 -2.83966,-4.498579 -2.83964,-4.498578 -0.40638,6.333333 -0.40639,6.333333 h -5.96927 -5.96925 z m 41.04232,-0.333334 V 21.333333 H 182.66666 188 v 10.666666 10.666667 h 7.33333 7.33333 v 5.333333 5.333333 H 190 177.33333 Z"
         id="path42" />
      <path
         style="fill:#7d7d7d;stroke-width:1.33333"
         d="M 102,245.00585 C 83.666665,239.91071 68.567554,235.65002 68.44642,235.53765 68.325285,235.42527 65.174809,200.83333 61.445361,158.66666 57.715913,116.5 54.295889,78.849998 53.845308,74.999998 l -0.819239,-7 H 135.1797 c 45.1845,0 82.15233,0.15 82.15073,0.333334 -0.001,0.183333 -3.30158,37.153528 -7.33333,82.155988 -4.03173,45.00246 -7.33044,82.55287 -7.33044,83.44538 0,0.97232 -10.02014,4.38136 -25,8.50544 -13.75,3.78551 -28.9,7.99577 -33.66666,9.35616 l -8.66667,2.47343 z m 62.60956,-12.95302 c 13.0221,-3.60865 24.04522,-6.92985 24.49582,-7.38044 0.60906,-0.60906 13.10137,-131.754 13.49512,-141.672392 0.0512,-1.290653 -7.4541,-1.666667 -33.26717,-1.666667 H 136 v 10 9.999999 H 109.18494 82.369889 l 0.733605,4.33333 c 0.403484,2.38334 1.764992,16.78334 3.025575,32 l 2.291969,27.66667 H 112.21052 136 v 15.33333 C 136,192.18362 135.578,196 134.30448,196 c -4.0071,0 -20.08441,-5.22794 -21.1245,-6.86915 -0.62653,-0.98864 -1.14834,-4.64752 -1.15957,-8.13085 L 112,174.66666 H 100.51527 89.030547 l 0.773001,5.66667 c 0.425151,3.11667 1.16525,10.55359 1.644664,16.52648 l 0.871663,10.85981 20.173395,5.54191 c 11.09537,3.04805 20.92339,5.7923 21.84006,6.09834 1.13829,0.38003 1.66667,3.76842 1.66667,10.68812 0,9.25086 0.21444,10.06364 2.4665,9.34887 1.35658,-0.43056 13.12095,-3.73537 26.14306,-7.34403 z m -56.62777,-95.7195 C 107.97179,132.85 107.6018,128.65 107.15962,127 c -0.79846,-2.97942 -0.70227,-3 14.0182,-3 H 136 v 9.33333 9.33333 h -14 -14 l -0.0182,-6.33333 z M 67.999998,37.333332 V 21.333333 h 5.333333 5.333334 v 5.333333 c 0,5.206349 0.111106,5.333333 4.666666,5.333333 4.555556,0 4.666667,-0.126986 4.666667,-5.333333 v -5.333333 h 5.333333 5.333333 v 15.999999 16 h -5.333333 -5.333333 v -5.417811 c 0,-5.309218 -0.08685,-5.409437 -4.333333,-4.999999 -3.956136,0.381442 -4.369355,0.853038 -4.747154,5.41781 -0.40237,4.861649 -0.559168,5 -5.666666,5 H 67.999998 Z M 112,43.41781 v -9.915522 l -4.33334,-0.417811 c -4.09703,-0.395027 -4.33333,-0.708644 -4.33333,-5.751144 V 21.999999 H 118 132.66666 v 5.333334 c 0,5.0425 -0.2363,5.356117 -4.33333,5.751144 L 124,33.502288 v 9.915522 9.915522 h -6 -6 z m 24.29101,-5.751144 0.37565,-15.666667 5.54882,-0.404238 c 5.25266,-0.382664 5.72629,-0.1066 8.87437,5.172502 l 3.32557,5.57674 3.47568,-5.505834 c 3.12518,-4.950598 4.01184,-5.505836 8.79228,-5.505836 H 172 v 15.999999 16 h -5.33334 -5.33333 v -6.97618 -6.976178 l -3.49369,5.141425 -3.49368,5.141424 -2.83966,-4.498579 -2.83964,-4.498578 -0.40638,6.333333 -0.40639,6.333333 h -5.96927 -5.96925 z m 41.04232,-0.333334 V 21.333333 H 182.66666 188 v 10.666666 10.666667 h 7.33333 7.33333 v 5.333333 5.333333 H 190 177.33333 Z"
         id="path40" />
      <path
         style="fill:#e95726;stroke-width:1.33333"
         d="M 102,245.00585 C 83.666665,239.91071 68.567554,235.65002 68.44642,235.53765 68.325285,235.42527 65.174809,200.83333 61.445361,158.66666 57.715913,116.5 54.295889,78.849998 53.845308,74.999998 l -0.819239,-7 H 135.1797 c 45.1845,0 82.15233,0.15 82.15073,0.333334 -0.001,0.183333 -3.30158,37.153528 -7.33333,82.155988 -4.03173,45.00246 -7.33044,82.55287 -7.33044,83.44538 0,0.97232 -10.02014,4.38136 -25,8.50544 -13.75,3.78551 -28.9,7.99577 -33.66666,9.35616 l -8.66667,2.47343 z m 62.60956,-12.95302 c 13.0221,-3.60865 24.04522,-6.92985 24.49582,-7.38044 0.60906,-0.60906 13.10137,-131.754 13.49512,-141.672392 0.0512,-1.290653 -7.4541,-1.666667 -33.26717,-1.666667 H 136 v 10 9.999999 H 109.18494 82.369889 l 0.733605,4.33333 c 0.403484,2.38334 1.764992,16.78334 3.025575,32 l 2.291969,27.66667 H 112.21052 136 v 15.33333 C 136,192.18362 135.578,196 134.30448,196 c -4.0071,0 -20.08441,-5.22794 -21.1245,-6.86915 -0.62653,-0.98864 -1.14834,-4.64752 -1.15957,-8.13085 L 112,174.66666 H 100.51527 89.030547 l 0.773001,5.66667 c 0.425151,3.11667 1.16525,10.55359 1.644664,16.52648 l 0.871663,10.85981 20.173395,5.54191 c 11.09537,3.04805 20.92339,5.7923 21.84006,6.09834 1.13829,0.38003 1.66667,3.76842 1.66667,10.68812 0,9.25086 0.21444,10.06364 2.4665,9.34887 1.35658,-0.43056 13.12095,-3.73537 26.14306,-7.34403 z m -56.62777,-95.7195 C 107.97179,132.85 107.6018,128.65 107.15962,127 c -0.79846,-2.97942 -0.70227,-3 14.0182,-3 H 136 v 9.33333 9.33333 h -14 -14 l -0.0182,-6.33333 z M 67.999998,37.333332 V 21.333333 h 5.333333 5.333334 v 5.333333 c 0,5.188521 0.12452,5.333333 4.58618,5.333333 4.337127,0 4.608651,-0.271524 4.999999,-5 0.391348,-4.728476 0.685344,-5.022472 5.41382,-5.41382 l 5,-0.413821 v 16.080488 16.080486 h -5.333333 -5.333333 v -5.333333 c 0,-5.206349 -0.111107,-5.333333 -4.666667,-5.333333 -4.555556,0 -4.666666,0.126986 -4.666666,5.333333 v 5.333333 H 73.333331 67.999998 Z M 112,42.666666 V 31.999999 h -4 c -3.77778,0 -4,-0.296296 -4,-5.333333 v -5.333333 h 14 14 v 5.248856 c 0,4.94719 -0.24905,5.272866 -4.33334,5.666666 l -4.33333,0.417811 -0.38942,10.333333 -0.38942,10.333333 H 117.27725 112 Z m 25.33333,-5.333334 V 21.333333 h 5.24803 c 4.73421,0 5.54148,0.522154 8.24552,5.333333 1.64862,2.933333 3.33701,5.328712 3.75197,5.323064 0.41496,-0.0056 2.1224,-2.405648 3.79429,-5.333333 2.74354,-4.804235 3.55576,-5.323064 8.33334,-5.323064 H 172 v 15.999999 16 h -5.26366 -5.26365 l -0.40301,-7 -0.40302,-7 -2.62081,4.333334 c -1.44144,2.383333 -3.04251,4.333333 -3.55792,4.333333 -0.51541,0 -2.33604,-2.25 -4.04585,-5 l -3.10875,-5 -0.39987,7.666667 -0.39988,7.666666 h -4.60012 -4.60013 z m 40,0 V 21.333333 H 182.66666 188 v 10.666666 10.666667 h 7.33333 7.33333 v 5.333333 5.333333 H 190 177.33333 Z"
         id="path38" />
      <path
         style="fill:#e34c25;stroke-width:1.33333"
         d="M 102,244.92425 C 83.666665,239.87106 68.571586,235.64589 68.455378,235.53498 68.33917,235.42407 65.165928,200.53333 61.403725,158 57.641524,115.46666 54.209304,77.816665 53.776571,74.333331 l -0.786787,-6.333333 h 82.325396 82.32541 l -0.8191,7 c -0.9908,8.467395 -14.15483,156.158342 -14.15483,158.807022 0,1.17556 -3.09125,2.66143 -8.33333,4.00556 -4.58333,1.17524 -19.73333,5.32335 -33.66667,9.21804 l -25.33333,7.08124 z m 61.33333,-11.79091 c 13.93333,-3.81076 25.75167,-7.27471 26.26296,-7.69767 0.86089,-0.71216 13.07037,-131.758538 13.07037,-140.286453 v -3.815886 h -34 -34 v 10 9.999999 h -26.11719 -26.1172 l 0.732717,5 c 0.402995,2.75 1.759395,17.15 3.014223,32 l 2.281504,27 h 23.102976 23.10297 v 15.33333 c 0,8.43334 -0.4519,15.33334 -1.00424,15.33334 -3.26434,0 -19.651,-5.56194 -20.54733,-6.97414 -0.59084,-0.93089 -1.08345,-4.54253 -1.09468,-8.02586 L 112,174.66666 H 100.54155 89.083096 L 89.841458,181 c 0.4171,3.48333 1.138701,10.9279 1.60356,16.5435 l 0.845198,10.21017 20.854894,5.81434 20.85489,5.81434 0.38941,10.30882 c 0.26177,6.92973 0.91735,10.31898 2,10.33982 0.88583,0.0171 13.01059,-3.08689 26.94392,-6.89765 z M 107.98179,136.33333 C 107.97179,132.85 107.6018,128.65 107.15962,127 c -0.79679,-2.97322 -0.67757,-3 13.35154,-3 h 14.1555 v 9.33333 9.33333 H 121.33333 108 l -0.0182,-6.33333 z M 67.999998,37.333332 V 21.333333 h 5.333333 5.333334 v 5.333333 c 0,5.188521 0.12452,5.333333 4.58618,5.333333 4.337127,0 4.608651,-0.271524 4.999999,-5 0.391348,-4.728476 0.685344,-5.022472 5.41382,-5.41382 l 5,-0.413821 v 16.080488 16.080486 h -5.333333 -5.333333 v -5.333333 c 0,-5.206349 -0.111107,-5.333333 -4.666667,-5.333333 -4.555556,0 -4.666666,0.126986 -4.666666,5.333333 v 5.333333 H 73.333331 67.999998 Z M 112,42.666666 V 31.999999 h -4 c -3.77778,0 -4,-0.296296 -4,-5.333333 v -5.333333 h 14 14 v 5.248856 c 0,4.94719 -0.24905,5.272866 -4.33334,5.666666 l -4.33333,0.417811 -0.38942,10.333333 -0.38942,10.333333 H 117.27725 112 Z m 25.33333,-5.333334 V 21.333333 h 5.24803 c 4.73421,0 5.54148,0.522154 8.24552,5.333333 1.64862,2.933333 3.33701,5.328712 3.75197,5.323064 0.41496,-0.0056 2.1224,-2.405648 3.79429,-5.333333 2.74354,-4.804235 3.55576,-5.323064 8.33334,-5.323064 H 172 v 15.999999 16 h -5.26366 -5.26365 l -0.40301,-7 -0.40302,-7 -2.62081,4.333334 c -1.44144,2.383333 -3.04251,4.333333 -3.55792,4.333333 -0.51541,0 -2.33604,-2.25 -4.04585,-5 l -3.10875,-5 -0.39987,7.666667 -0.39988,7.666666 h -4.60012 -4.60013 z m 40,0 V 21.333333 H 182.66666 188 v 10.666666 10.666667 h 7.33333 7.33333 v 5.333333 5.333333 H 190 177.33333 Z"
         id="path36" />
      <path
         style="fill:#3e3e3e;stroke-width:1.33333"
         d="M 67.999998,37.333332 V 21.333333 h 5.333333 5.333334 v 5.333333 c 0,5.188521 0.12452,5.333333 4.58618,5.333333 4.337127,0 4.608651,-0.271524 4.999999,-5 0.391348,-4.728476 0.685344,-5.022472 5.41382,-5.41382 l 5,-0.413821 v 16.080488 16.080486 h -5.333333 -5.333333 v -5.333333 c 0,-5.206349 -0.111107,-5.333333 -4.666667,-5.333333 -4.555556,0 -4.666666,0.126986 -4.666666,5.333333 v 5.333333 H 73.333331 67.999998 Z M 112,42.666666 V 31.999999 h -4 c -3.77778,0 -4,-0.296296 -4,-5.333333 v -5.333333 h 14 14 v 5.248856 c 0,4.94719 -0.24905,5.272866 -4.33334,5.666666 l -4.33333,0.417811 -0.38942,10.333333 -0.38942,10.333333 H 117.27725 112 Z m 25.33333,-5.333334 V 21.333333 h 5.24803 c 4.73421,0 5.54148,0.522154 8.24552,5.333333 1.64862,2.933333 3.33701,5.328712 3.75197,5.323064 0.41496,-0.0056 2.1224,-2.405648 3.79429,-5.333333 2.74354,-4.804235 3.55576,-5.323064 8.33334,-5.323064 H 172 v 15.999999 16 h -5.26366 -5.26365 l -0.40301,-7 -0.40302,-7 -2.62081,4.333334 c -1.44144,2.383333 -3.04251,4.333333 -3.55792,4.333333 -0.51541,0 -2.33604,-2.25 -4.04585,-5 l -3.10875,-5 -0.39987,7.666667 -0.39988,7.666666 h -4.60012 -4.60013 z m 40,0 V 21.333333 H 182.66666 188 v 10.666666 10.666667 h 7.33333 7.33333 v 5.333333 5.333333 H 190 177.33333 Z"
         id="path34" />
      <path
         style="fill:#000000;stroke-width:1.33333"
         d="M 67.999998,37.999999 V 22.666666 h 5.333333 c 5.20635,0 5.333334,0.111107 5.333334,4.666667 0,4.555556 0.126986,4.666666 5.333333,4.666666 5.206349,0 5.333333,-0.111106 5.333333,-4.666666 0,-4.444444 0.222223,-4.666667 4.666667,-4.666667 h 4.666666 v 15.333333 15.333333 h -4.666666 c -4.555556,0 -4.666667,-0.126984 -4.666667,-5.333333 v -5.333333 h -5.333333 -5.333333 v 5.333333 5.333333 h -5.333334 -5.333333 z m 45.056082,5 -0.38942,-10.333333 -4.33333,-0.417811 C 104.36611,31.866343 104,31.44391 104,27.248855 v -4.582189 h 14 14 v 4.666667 c 0,4.444444 -0.22223,4.666666 -4.66667,4.666666 h -4.66667 v 10.666667 10.666666 h -4.61058 -4.61058 z m 24.27725,-5 V 22.666666 h 5.37831 c 4.73328,0 5.7085,0.559672 8.13169,4.666667 1.51437,2.566666 3.14413,4.65924 3.62171,4.650161 0.47756,-0.0091 2.22381,-2.109077 3.88054,-4.666667 2.61139,-4.031314 3.7204,-4.650161 8.33334,-4.650161 H 172 v 15.333333 15.333333 h -4.66667 -4.66667 v -7.333333 c 0,-4.033333 -0.50552,-7.333333 -1.12337,-7.333333 -0.61785,0 -2.25429,2.1 -3.63653,4.666666 -1.38224,2.566667 -2.82674,4.65924 -3.20996,4.650161 -0.38324,-0.0091 -2.1968,-2.259077 -4.03014,-4.999999 l -3.33333,-4.983495 -0.39987,7.666667 -0.39988,7.666666 h -4.60012 -4.60013 z m 40,0 V 22.666666 H 182.66666 188 v 10 10 h 7.33333 7.33333 v 5.333333 5.333333 H 190 177.33333 Z"
         id="path32" />
    </g>
  </g>
</svg>
