<?xml version="1.0" encoding="UTF-8" standalone="no"?>
<!-- Created with Inkscape (http://www.inkscape.org/) -->

<svg
   version="1.1"
   id="svg2"
   width="800"
   height="800"
   viewBox="0 0 800 800"
   sodipodi:docname="JavaScript_logo.svg"
   inkscape:version="1.1.1 (3bf5ae0d25, 2021-09-20)"
   xmlns:inkscape="http://www.inkscape.org/namespaces/inkscape"
   xmlns:sodipodi="http://sodipodi.sourceforge.net/DTD/sodipodi-0.dtd"
   xmlns="http://www.w3.org/2000/svg"
   xmlns:svg="http://www.w3.org/2000/svg">
  <defs
     id="defs6" />
  <sodipodi:namedview
     id="namedview4"
     pagecolor="#ffffff"
     bordercolor="#666666"
     borderopacity="1.0"
     inkscape:pageshadow="2"
     inkscape:pageopacity="0.0"
     inkscape:pagecheckerboard="0"
     showgrid="false"
     inkscape:zoom="0.9775"
     inkscape:cx="400"
     inkscape:cy="400"
     inkscape:window-width="1920"
     inkscape:window-height="986"
     inkscape:window-x="-11"
     inkscape:window-y="-11"
     inkscape:window-maximized="1"
     inkscape:current-layer="g8" />
  <g
     inkscape:groupmode="layer"
     inkscape:label="Image"
     id="g8">
    <g
       id="g30"
       transform="translate(7.1611239,-1.0230179)">
      <path
         style="fill:#fbf6c7"
         d="M 65,400 V 65 H 400 735 V 400 735 H 400 65 Z"
         id="path68" />
      <path
         style="fill:#f8ef8e"
         d="M 65.46324,733.75148 C 65.201921,733.06317 65.103289,582.425 65.244057,399 L 65.5,65.5 H 400 734.5 V 400 734.5 l -334.28082,0.25148 c -266.90071,0.20079 -334.376584,-7.8e-4 -334.75594,-1 z"
         id="path66" />
      <path
         style="fill:#f3e01d"
         d="M 66,400 V 66 H 400 734 V 400 734 H 400 66 Z"
         id="path64" />
      <path
         style="fill:#e4d21c"
         d="m 313.33414,680.57753 c -30.47779,-5.77783 -54.29803,-22.81766 -68.37209,-48.91006 l -4.03496,-7.48055 18.78646,-11.41739 c 26.64365,-16.19257 33.3136,-20.09018 33.6323,-19.65314 0.15385,0.21099 2.3943,3.82836 4.97878,8.03862 10.5632,17.20806 18.73265,22.94491 33.69281,23.66017 12.14805,0.5808 18.6934,-1.43078 24.92188,-7.65926 9.22329,-9.2233 8.52379,1.06644 8.83107,-129.90592 L 366.04079,372 h 32.01073 32.01074 l -0.29131,118.75 -0.29132,118.75 -2.62171,9.51148 c -8.97186,32.54962 -27.61002,51.24821 -59.43686,59.62957 -8.61143,2.26776 -12.36315,2.65767 -28.42106,2.95379 -12.73278,0.2348 -20.7339,-0.0823 -25.66586,-1.01731 z M 552,680.46231 c -31.6295,-5.00111 -59.51693,-20.91192 -77.0764,-43.97494 -5.49625,-7.2189 -12.32849,-18.41581 -11.65071,-19.09359 1.26264,-1.26265 50.35851,-29.39255 51.3006,-29.39313 0.59042,-3.6e-4 3.22985,3.1553 5.8654,7.01256 10.01564,14.6584 25.90023,25.90634 41.06111,29.07552 8.01963,1.6764 22.70992,1.67474 29.5,-0.003 26.47924,-6.54398 36.43232,-30.41777 20.12063,-48.26204 -6.31803,-6.91165 -15.01826,-11.80252 -41.31021,-23.22268 C 536.35799,538.0703 523.58223,530.929 510.31234,519.34287 498.46612,508.99977 489.29374,493.92044 484.86039,477.5 c -1.78292,-6.60363 -2.16405,-10.79274 -2.18355,-24 -0.0281,-19.05575 1.57984,-26.34472 8.99483,-40.77366 3.78378,-7.36289 6.46941,-10.94309 13.29717,-17.72634 18.15468,-18.03634 39.68943,-26 70.30725,-26 31.7424,0 52.37681,7.56128 70.79107,25.94069 8.28986,8.27418 17.98563,21.39177 17.88266,24.19379 -0.0457,1.24305 -45.52274,30.9659 -48.44855,31.66496 -0.6893,0.1647 -2.40664,-1.66862 -3.8163,-4.07403 -9.527,-16.2566 -26.2687,-24.70225 -42.96524,-21.67459 -7.1238,1.29179 -10.32471,2.78544 -15.26515,7.1232 -5.91364,5.19225 -7.91996,10.088 -7.91996,19.32598 0,6.25057 0.46754,8.8801 2.13803,12.02462 4.97857,9.37162 16.68307,16.85147 45.32735,28.96677 18.76428,7.93649 37.89765,17.60193 47.97831,24.23681 10.12031,6.66097 25.1785,21.53792 29.8763,29.51671 8.41329,14.28921 11.43354,26.51488 11.55045,46.75509 0.10471,18.12723 -1.67869,26.62352 -8.59767,40.96013 -4.46053,9.24253 -6.11165,11.5124 -14.18444,19.5 -5.02496,4.97193 -11.68995,10.5386 -14.81108,12.37039 -12.7014,7.45443 -28.68148,12.91239 -44.31187,15.13464 -9.82588,1.39699 -38.3552,1.1012 -48.5,-0.50285 z"
         id="path62" />
      <path
         style="fill:#d5c51a"
         d="m 314.23485,680.5616 c -25.45608,-4.82131 -45.08132,-16.2566 -59.76184,-34.82219 -3.53878,-4.47529 -8.0171,-11.14926 -9.95182,-14.83105 l -3.51768,-6.69415 25.09904,-15.17717 c 13.80447,-8.34744 25.61618,-15.36291 26.24824,-15.58992 0.63207,-0.22702 2.94921,2.82776 5.14921,6.7884 5.66835,10.20469 15.41301,19.87545 22.78751,22.61471 7.06731,2.62515 18.87814,2.88368 26.62596,0.58283 7.09974,-2.1084 13.34068,-7.95755 16.29959,-15.27637 L 365.5,602.5 365.77039,487.25 366.04079,372 h 32.01073 32.01074 l -0.29131,118.75 -0.29132,118.75 -2.73232,9.94755 c -8.63223,31.4272 -28.2645,51.02108 -59.29976,59.18377 -8.56879,2.2537 -12.4424,2.66415 -27.94755,2.96131 -12.43032,0.23822 -20.24803,-0.0808 -25.26515,-1.03103 z M 557.5,681.32436 c -7.27341,-0.91153 -23.42979,-4.70049 -29.91878,-7.0165 -26.13023,-9.3262 -50.90428,-30.32785 -62.3636,-52.86736 l -2.06389,-4.05949 25.30382,-14.69051 c 13.91711,-8.07977 25.69502,-14.67809 26.17314,-14.66292 0.47812,0.0152 2.66931,2.74643 4.86931,6.06947 5.86871,8.86453 18.10769,20.17665 26.28558,24.29497 21.86892,11.01301 50.99688,9.23317 64.56629,-3.94528 7.56058,-7.34274 10.24518,-17.44566 7.31321,-27.52172 C 613.79549,573.62673 605.61721,567.89202 566.5,551.04743 521.55075,531.69145 503.01826,517.72618 491.45925,494.5 c -6.96349,-13.99213 -8.72682,-22.09125 -8.81762,-40.5 -0.0908,-18.40493 1.26949,-25.0931 7.83038,-38.5 12.10233,-24.73064 35.02595,-40.60599 65.73914,-45.52648 11.26746,-1.80513 37.89383,-0.7516 48.52541,1.92002 16.9589,4.26163 30.13736,11.66968 41.7795,23.48564 7.23694,7.34501 17.82771,22.08952 17.20608,23.9544 -0.3535,1.06049 -47.30749,31.67404 -48.55543,31.65767 -0.36669,-0.005 -2.33261,-2.59231 -4.3687,-5.75 -7.68292,-11.9151 -16.81517,-18.24711 -29.16109,-20.21938 -11.73452,-1.8746 -22.73465,1.18422 -29.27497,8.1405 -5.45231,5.79908 -6.83254,9.4951 -6.84798,18.33763 -0.0123,7.02988 0.34982,8.65861 2.98603,13.43121 5.06656,9.17254 14.34536,14.87325 46.5,28.5687 54.68447,23.29146 77.10018,43.29703 85.15608,76.00009 3.1492,12.78423 3.13554,36.35962 -0.0278,48 -9.41489,34.6446 -35.95402,56.18859 -77.62827,63.01724 -8.24472,1.35096 -36.60212,1.85958 -45,0.80712 z"
         id="path60" />
      <path
         style="fill:#c6b719"
         d="M 314.4496,680.53874 C 283.00512,674.82657 259.37842,658.045 244.58992,630.91879 l -3.58791,-6.58122 25.10488,-15.20408 c 13.80768,-8.36224 25.5568,-15.3007 26.10915,-15.41878 0.55236,-0.11809 2.86721,2.89748 5.14412,6.70127 5.55189,9.27494 13.32233,17.54709 19.81037,21.08947 4.51442,2.46482 6.722,2.97181 14.43499,3.31515 17.84997,0.79457 27.51212,-4.88647 32.76059,-19.26218 0.78648,-2.1542 1.26698,-37.05821 1.62525,-118.05842 l 0.50864,-115 31.75,-0.26405 31.75,-0.26404 -0.004,114.26404 c -0.003,95.53194 -0.24399,115.73948 -1.46781,123.26405 -6.44506,39.62705 -30.59838,64.09606 -70.06226,70.97798 -10.57212,1.84363 -34.02372,1.87599 -44.01631,0.0608 z M 550.5,680.04743 c -12.70024,-2.27198 -19.80794,-4.36583 -30.70815,-9.04626 -18.74922,-8.05071 -38.02295,-23.99168 -48.96872,-40.50117 -5.82711,-8.78903 -7.44716,-12.28063 -6.246,-13.46166 1.40177,-1.37829 49.1914,-29.04237 50.11602,-29.01076 0.44377,0.0152 2.60685,2.74527 4.80685,6.06689 2.2,3.32162 7.6,9.49963 12,13.7289 13.13441,12.62477 25.6641,17.51358 45,17.558 17.54081,0.0403 30.09019,-4.99096 37.46625,-15.02084 5.60685,-7.62413 6.48251,-19.64023 2.06262,-28.30394 C 610.91972,572.04184 600.99758,565.87241 564.5,550.01677 533.59421,536.59038 518.65746,527.60801 505.9697,514.81901 489.489,498.20679 480.98367,474.14138 482.35416,448 c 1.12396,-21.43898 8.19769,-38.19349 22.14584,-52.45367 11.19684,-11.44731 24.24745,-18.80482 42.09157,-23.72987 6.89595,-1.90331 10.53295,-2.19018 28.40843,-2.24071 18.11661,-0.0512 21.54637,0.20577 29.5,2.21029 11.75744,2.96319 27.2924,10.63798 35.7658,17.66951 10.3382,8.57901 25.31048,28.37047 23.11801,30.55909 -1.27436,1.27212 -47.60704,30.98685 -48.3019,30.97766 -0.32005,-0.004 -1.59091,-1.7748 -2.82413,-3.93459 -3.76279,-6.58996 -13.01364,-15.79339 -18.58021,-18.48499 -10.47959,-5.0672 -25.26138,-5.3765 -34.38969,-0.71959 -16.05404,8.19017 -19.32654,30.09456 -6.40686,42.88424 6.74946,6.68156 12.98342,10.13437 37.67101,20.86495 37.55115,16.32178 54.04325,25.93731 67.48539,39.34662 12.05307,12.02364 18.41442,23.48366 22.63107,40.77009 2.10398,8.62541 2.37391,33.18436 0.45923,41.78097 -3.63163,16.30539 -12.36211,31.95707 -23.53484,42.19238 -13.23135,12.12121 -33.59764,21.35405 -54.62665,24.7644 -13.14341,2.13152 -39.40847,1.9266 -52.46623,-0.40935 z"
         id="path58" />
      <path
         style="fill:#b7aa18"
         d="m 314,680.46893 c -17.46277,-3.14461 -32.66392,-10.05827 -45.86895,-20.86171 -7.98242,-6.53067 -13.0644,-12.37958 -20.03774,-23.06166 -5.20408,-7.97185 -7.15278,-12.67179 -5.50125,-13.26809 0.49937,-0.1803 11.93294,-7.02322 25.40794,-15.20649 13.475,-8.18327 24.76894,-14.71276 25.09764,-14.50997 0.32871,0.20278 2.35371,3.3933 4.5,7.09003 5.20335,8.96213 13.59336,17.89503 19.82589,21.10875 4.14856,2.13914 6.81294,2.6939 14.57647,3.03498 16.45855,0.72309 24.60035,-3.17541 30.14313,-14.43327 L 365.5,603.5434 366,488.0217 366.5,372.5 398.25,372.23595 430,371.97191 v 114.38305 c 0,97.99602 -0.21863,115.65539 -1.52607,123.26405 -6.8952,40.12664 -31.23012,64.43897 -70.97393,70.90803 -11.05313,1.7991 -33.3519,1.76932 -43.5,-0.0581 z m 244,0.86286 c -30.94158,-4.8992 -52.65426,-14.66416 -70.92021,-31.89533 -11.65259,-10.99246 -24.93824,-30.02555 -22.56134,-32.32147 1.39269,-1.34524 49.31848,-29.11683 50.22903,-29.10624 0.41388,0.005 2.4899,2.70533 4.61336,6.00116 5.23264,8.12159 13.86088,16.88435 21.46361,21.79823 23.36856,15.10383 61.00033,12.38794 73.15597,-5.27968 8.45988,-12.29601 5.64579,-29.23769 -6.44475,-38.79936 -6.19575,-4.89983 -19.46653,-11.58958 -43.43814,-21.89703 -28.81029,-12.388 -42.85271,-20.6827 -55.45903,-32.75904 -12.61685,-12.08642 -19.73016,-24.26638 -23.86513,-40.86377 -1.75195,-7.03215 -2.16476,-11.59775 -2.14376,-23.70926 0.0233,-13.42878 0.31197,-15.94273 2.75608,-24 9.44623,-31.14055 34.31168,-52.09825 68.96464,-58.12645 13.02127,-2.26517 38.8558,-1.44012 50.64967,1.61754 18.55211,4.80979 35.79886,15.63441 47.12962,29.58008 5.14997,6.33849 11.87038,16.36116 11.87038,17.70324 0,0.60163 -46.07585,30.44944 -48.20134,31.22469 -0.77049,0.28103 -2.51877,-1.59637 -4.29866,-4.61616 -1.65,-2.7994 -5.78234,-7.69965 -9.18297,-10.88945 -8.19744,-7.68921 -14.64574,-10.16772 -26.87933,-10.33152 -8.35188,-0.11182 -9.58617,0.13657 -15.74504,3.16857 -3.76141,1.85174 -7.7692,4.71432 -9.16808,6.54835 -8.20417,10.75621 -7.16366,27.07726 2.33157,36.5725 6.21029,6.21029 13.98267,10.43658 39.88255,21.68644 11.85371,5.14878 25.81436,11.60522 31.02367,14.34765 37.54814,19.76716 54.62761,41.93177 58.38913,75.77355 4.87212,43.83366 -17.43144,78.89445 -58.85418,92.5177 -15.77999,5.18978 -26.71045,6.74742 -46.22354,6.58709 C 567.9582,681.78892 559.375,681.54951 558,681.33179 Z"
         id="path56" />
      <path
         style="fill:#a89c16"
         d="m 317.6649,680.96935 c -26.25774,-4.13406 -47.03015,-15.48417 -61.73817,-33.73393 -7.09501,-8.80352 -14.33041,-20.74105 -13.64843,-22.51827 0.27376,-0.71341 11.77756,-8.12186 25.564,-16.46321 l 25.06625,-15.1661 3.70701,6.20608 c 12.54546,21.00291 24.46902,28.01497 43.56124,25.61767 9.42457,-1.18339 16.16782,-4.80896 19.90641,-10.70286 6.76896,-10.67129 6.35684,-2.75178 6.6848,-128.45873 L 367.06477,372 H 398.53239 430 l -0.006,113.25 c -0.005,93.50098 -0.25709,114.90665 -1.44637,122.75 -5.93568,39.14603 -27.67233,62.88821 -65.54773,71.59546 -7.81868,1.79745 -37.02337,2.68251 -45.3351,1.37389 z M 553.5,680.41675 C 517.02743,674.78561 488.13132,656.87267 469.80427,628.53305 466.61192,623.59664 464,619.02139 464,618.36582 c 0,-1.06978 49.23937,-30.43392 50.83846,-30.31777 0.36385,0.0264 2.23654,2.55939 4.16154,5.62881 4.83401,7.70783 14.2628,17.25623 21.92159,22.19966 26.82254,17.31286 68.83137,10.90579 76.52413,-11.67125 3.03346,-8.9027 1.56445,-18.77738 -3.9154,-26.31937 -5.09914,-7.01801 -15.59648,-13.27772 -40.97647,-24.4348 C 559.87423,547.87711 545.675,541.39154 541,539.0387 508.61274,522.73884 490.30656,501.848 484.44617,474.5 c -2.32949,-10.87078 -2.37953,-32.53472 -0.0967,-41.87632 9.66669,-39.55759 43.93929,-63.64142 90.53155,-63.61778 32.6279,0.0165 58.48497,10.38217 75.12495,30.11619 C 654.5932,404.56232 664,417.9774 664,419.0791 c 0,0.82471 -48.9552,32.35552 -49.35781,31.79012 -0.14461,-0.20307 -1.7372,-2.7193 -3.53909,-5.59163 -4.7818,-7.62245 -13.94057,-15.68755 -20.81852,-18.33252 -7.65426,-2.94351 -20.53846,-3.22826 -28.02078,-0.61929 -13.83326,4.82345 -20.67291,20.28781 -15.58879,35.24608 3.47483,10.22351 14.08332,17.55078 43.32499,29.92452 50.22242,21.25184 71.68004,36.91865 83.55196,61.00362 5.27926,10.71021 7.16407,17.57732 8.50853,31 1.17503,11.73111 0.52458,21.74076 -2.17428,33.45956 -7.72076,33.52458 -37.08345,57.3846 -78.11685,63.47747 -12.83314,1.90554 -35.85856,1.89586 -48.26936,-0.0203 z"
         id="path54" />
      <path
         style="fill:#998e15"
         d="m 322,681.47411 c -0.825,-0.16164 -4.875,-0.83862 -9,-1.50441 -15.69809,-2.53373 -32.4526,-10.25832 -45.90579,-21.16467 -10.07516,-8.16781 -26.57516,-31.32439 -24.52167,-34.41442 0.5101,-0.7676 12.0473,-8.12273 25.63821,-16.34474 l 24.71074,-14.94912 4.69106,7.88623 c 5.49802,9.24281 13.94633,18.14097 20.01148,21.07706 8.10361,3.92289 22.94177,4.33674 32.00074,0.89252 8.49129,-3.22838 14.47064,-12.54917 16.328,-25.45256 0.62693,-4.35533 1.0151,-48.27577 1.02742,-116.25 L 367,372 h 31.5 31.5 l -0.006,113.25 c -0.006,121.22898 -0.0773,123.18318 -5.05597,139.25 -11.63203,37.53778 -43.42902,57.8234 -89.93813,57.3781 -6.325,-0.0606 -12.175,-0.24235 -13,-0.40399 z m 231.5,-1.05736 C 525.37055,676.07374 498.91026,662.68831 481.95584,644.2248 475.63792,637.34452 464,620.6237 464,618.42666 c 0,-0.67215 11.3625,-7.82969 25.25,-15.90564 l 25.25,-14.68355 2,2.74591 c 17.96709,24.66801 31.60871,33.28319 55.50218,35.05164 21.86044,1.61798 40.60174,-7.21982 45.44354,-21.42975 3.26675,-9.58738 1.2771,-20.66427 -5.03669,-28.04051 -5.30272,-6.19504 -16.04472,-12.30276 -40.57437,-23.0699 -39.6835,-17.41883 -51.09042,-24.09094 -64.92308,-37.97471 -14.5103,-14.5639 -21.70896,-30.12701 -23.97355,-51.82947 -4.63789,-44.44687 19.57579,-79.43984 63.01163,-91.06273 8.57315,-2.29407 11.49443,-2.56437 28.55034,-2.64175 19.56615,-0.0888 24.76238,0.55098 37.5,4.61691 18.29022,5.83835 33.77049,17.68899 45.74587,35.01991 2.88523,4.17554 5.49434,8.23937 5.79801,9.03074 0.39189,1.02125 -6.58909,6.01368 -24.05339,17.20169 -13.53304,8.66957 -24.7265,15.60123 -24.87435,15.4037 -0.14786,-0.19753 -1.34028,-2.15915 -2.64983,-4.35915 -3.661,-6.15035 -12.96222,-15.46007 -17.96631,-17.98272 -9.34853,-4.71275 -20.1621,-5.65631 -29.94153,-2.61261 -7.6506,2.38114 -12.22744,5.82524 -15.78617,11.87922 -2.47503,4.21041 -2.7723,5.68115 -2.7723,13.71611 0,8.01184 0.30116,9.51231 2.74295,13.66604 5.25463,8.93866 14.60651,14.83665 41.75705,26.3351 49.46497,20.94876 71.72026,37.10742 83.60087,60.69916 10.94297,21.72984 11.9355,53.67376 2.38715,76.82876 -11.30673,27.41911 -38.2648,45.93915 -74.98802,51.51637 -11.78672,1.79007 -35.48822,1.72586 -47.5,-0.12868 z"
         id="path52" />
      <path
         style="fill:#8a8113"
         d="M 317.5,680.8915 C 302.73347,678.7636 286.30895,672.37614 274,663.97444 267.68639,659.66497 254.79906,646.61935 250.31644,640 c -4.72912,-6.98335 -8.57504,-15.1414 -7.59845,-16.11799 0.48118,-0.48118 11.94861,-7.58275 25.48318,-15.78128 l 24.6083,-14.90641 5.09212,8.33296 c 11.68313,19.11874 23.7377,25.84438 42.17281,23.52959 13.18083,-1.65505 20.13224,-7.12839 24.20314,-19.05687 l 2.2183,-6.5 L 366.7803,485.75 367.06477,372 H 398.53239 430 v 112.27623 c 0,70.46481 -0.38052,115.31093 -1.02181,120.42531 -1.58393,12.63207 -4.57999,22.93244 -9.68552,33.29846 -3.99116,8.10346 -6.08389,10.90166 -14.23583,19.0348 -10.41719,10.39317 -17.4755,14.77007 -31.3053,19.41257 -14.72623,4.94342 -39.30911,6.88558 -56.25154,4.44413 z m 239,-0.019 C 525.32945,676.97817 495.80067,661.41883 477.83608,639.42277 472.24971,632.58275 464,619.88969 464,618.13449 c 0,-0.70548 38.66274,-23.72893 48.62799,-28.9577 1.94733,-1.02177 2.68021,-0.36644 8.63272,7.71927 11.32995,15.39025 24.90859,24.51071 41.10564,27.60972 23.47394,4.49131 45.0072,-2.04882 53.29214,-16.186 3.44079,-5.87127 4.29799,-15.92402 1.95845,-22.9677 -3.67602,-11.06746 -13.09206,-17.97996 -41.27216,-30.29867 -43.77535,-19.13605 -55.1915,-25.76261 -69.9976,-40.63044 -7.91128,-7.94426 -9.84389,-10.59709 -14.24742,-19.55698 -5.85993,-11.92325 -7.70323,-18.37797 -9.24286,-32.36599 -1.95346,-17.74782 1.05751,-33.68967 9.44362,-50 6.05487,-11.77624 19.92037,-25.42502 32.19948,-31.69617 18.15038,-9.26971 33.82548,-12.43489 57,-11.50965 28.95156,1.15588 48.17929,9.25729 66.09077,27.84668 8.10559,8.41236 17.21115,21.50216 15.82723,22.75261 -0.5049,0.4562 -10.368,6.88178 -21.918,14.27907 -11.55,7.39728 -22.18697,14.22827 -23.63772,15.17997 l -2.63772,1.73037 -5.48197,-7.82336 c -3.01508,-4.30285 -7.00311,-8.98157 -8.86228,-10.39715 -14.48776,-11.0311 -35.50339,-11.68244 -47.57922,-1.47463 -1.7594,1.48724 -4.40419,5.16757 -5.87731,8.17852 -2.39016,4.88531 -2.62951,6.31883 -2.22417,13.32089 0.96762,16.71504 9.24559,23.72017 46.80039,39.60424 34.83312,14.73292 53.51956,26.02334 67.80922,40.97058 13.96137,14.60385 19.94586,28.19472 22.23423,50.49427 2.46003,23.97237 -4.25841,48.32224 -17.69732,64.14092 -15.07523,17.74479 -38.613,29.36617 -66.58045,32.87299 -9.60871,1.20483 -31.25016,1.1536 -41.26568,-0.0977 z"
         id="path50" />
      <path
         style="fill:#7c7312"
         d="M 316.39877,680.54365 C 301.34452,678.20507 286.6081,672.55931 275,664.68311 263.80071,657.08428 250.4844,641.96066 244.4954,630.03837 l -2.74357,-5.46163 2.25473,-1.53837 c 1.2401,-0.8461 12.7359,-7.89434 25.54621,-15.66276 l 23.29147,-14.12438 5.25442,8.59854 c 11.47197,18.7732 23.5939,25.52091 41.73807,23.23363 16.24091,-2.04736 23.62826,-9.81236 26.07569,-27.4087 C 366.64135,592.4339 367,553.93406 367,480.92764 V 372 h 31.5 31.5 v 112.62166 c 0,123.58328 -0.0393,124.51761 -5.97559,141.97075 -4.53501,13.33332 -9.24786,20.84413 -19.42134,30.95157 -7.62386,7.57437 -10.64678,9.80213 -18.60307,13.70963 -19.4911,9.5725 -45.46523,13.0394 -69.60123,9.29004 z m 240.6855,0.372 C 524.65679,676.71681 496.10373,661.7393 477.74325,639.29732 472.26965,632.60695 464,619.88549 464,618.15565 c 0,-0.62993 41.04072,-25.02823 50.19552,-29.84073 0.38254,-0.20109 2.59522,2.45829 4.91707,5.90973 9.47363,14.08261 23.61387,24.98475 37.88741,29.21124 7.88013,2.33335 22.09045,3.06899 30.81977,1.59546 9.01155,-1.52117 19.88983,-6.79764 24.24814,-11.76148 5.51415,-6.28027 7.23504,-11.47554 6.72421,-20.29997 -0.98986,-17.09916 -9.22729,-23.86237 -50.92047,-41.80746 C 544.34671,541.03712 534.55992,536.14728 524.5,529.49238 503.40164,515.53525 491.02455,498.98942 485.29147,477.07796 483.20661,469.10977 482.7792,465.14702 482.74844,453.5 c -0.0445,-16.83099 1.81709,-25.0897 8.90346,-39.5 3.99666,-8.12731 6.05713,-10.87989 14.2599,-19.04986 7.81655,-7.78529 11.25117,-10.39502 18.5882,-14.1239 4.95,-2.51573 11.925,-5.51906 15.5,-6.67407 21.7728,-7.03437 51.97213,-6.74059 73.60524,0.71602 11.65805,4.01836 21.35006,10.08381 31.15642,19.49831 8.61378,8.26957 20.20454,24.15934 18.62362,25.53111 -0.48691,0.42248 -9.21028,6.09488 -19.38528,12.60533 -10.175,6.51045 -20.84641,13.33919 -23.71425,15.17498 l -5.21424,3.33779 -3.548,-5.54642 c -5.25863,-8.22056 -11.79354,-14.23086 -19.3228,-17.77161 -6.11303,-2.87475 -7.57776,-3.15194 -16.70071,-3.16053 -11.0047,-0.0104 -15.89282,1.52068 -22.3929,7.01382 -7.97121,6.73637 -10.62224,21.50585 -5.74151,31.98713 4.46047,9.57877 13.93949,15.73287 44.63441,28.97815 36.05798,15.55952 51.5896,24.80846 66.09497,39.35894 14.99928,15.04593 21.80448,29.85038 23.89075,51.9734 5.61125,59.50227 -36.39594,98.67627 -105.11406,98.02461 -7.35441,-0.0697 -16.25874,-0.50064 -19.78739,-0.95755 z"
         id="path48" />
      <path
         style="fill:#6d6511"
         d="m 319.5,680.86563 c -15.79455,-1.98869 -32.59728,-8.05864 -44.1733,-15.95749 -6.42384,-4.38327 -16.54994,-14.0992 -21.86397,-20.97832 C 249.58594,638.91123 242,626.21699 242,624.74819 c 0,-0.7527 49.44094,-30.75799 50.61605,-30.71845 0.48617,0.0164 2.38456,2.65146 4.21863,5.85579 7.60371,13.28454 16.33627,21.58836 25.60615,24.349 2.23254,0.66487 7.88417,1.16424 12.55917,1.10971 13.25353,-0.15459 21.42135,-4.08796 26.50617,-12.76456 5.48769,-9.36403 5.45763,-8.65682 5.47647,-128.82968 L 367,373 h 31.53901 31.53901 l -0.34497,116.75 c -0.38145,129.09648 0.03,120.74572 -6.89205,139.87577 -6.93762,19.17306 -21.58546,34.94273 -40.36717,43.45877 -16.31004,7.39532 -41.40804,10.49645 -62.97383,7.78109 z m 238.5,0.0124 c -36.37784,-4.18342 -68.06843,-22.5917 -86.72781,-50.37803 -4.37822,-6.51976 -7.62003,-12.48549 -7.0788,-13.02672 0.35025,-0.35026 45.95032,-26.94318 49.01176,-28.58255 1.39171,-0.74525 2.47937,0.23782 5.91706,5.34809 7.03946,10.46443 17.40794,19.93903 26.98836,24.66166 27.50242,13.55722 62.16372,7.16133 70.87017,-13.07734 3.1476,-7.31681 2.56796,-18.50477 -1.30076,-25.10623 -5.69476,-9.71738 -13.98411,-14.82639 -48.23978,-29.73181 -11.51711,-5.01135 -24.66365,-11.0869 -29.21454,-13.50122 -29.10422,-15.44026 -45.27401,-33.37279 -52.46523,-58.1847 C 483.78577,472.48599 483.5,469.22441 483.5,453.5 c 0,-16.07778 0.25021,-18.80092 2.34303,-25.5 8.80885,-28.19691 29.76009,-47.41807 60.66548,-55.65592 9.09538,-2.42438 11.6507,-2.66456 28.49149,-2.67802 15.2927,-0.0122 20.08607,0.35065 27.64859,2.0931 18.30088,4.21662 31.99415,11.9053 44.45213,24.95956 9.61756,10.07789 17.79405,22.17263 15.80712,23.38204 -0.77431,0.47132 -11.75784,7.5748 -24.40784,15.78552 -22.68841,14.72634 -23.02032,14.89957 -24.5,12.78652 -9.97264,-14.24141 -17.53898,-20.62072 -27.4601,-23.15209 -17.07106,-4.35566 -32.47993,0.97349 -38.7899,13.41547 -3.69278,7.28143 -3.84723,17.16559 -0.38441,24.60192 4.58533,9.84692 13.25431,15.56445 43.12478,28.44251 22.60623,9.74623 39.08336,18.03328 50.00963,25.15196 9.73336,6.34148 25.75649,22.24804 30.42329,30.20195 4.47172,7.62144 8.54495,19.2702 10.09235,28.86246 1.81461,11.24872 0.79565,34.23384 -1.93392,43.62402 -8.30463,28.5694 -30.80989,48.92604 -63.83386,57.73953 -14.80844,3.9521 -39.35847,5.37477 -57.24786,3.31751 z"
         id="path46" />
      <path
         style="fill:#5e580f"
         d="M 319.63477,680.9371 C 289.85127,676.80112 265.70376,662.36578 250.31859,639.5 246.63896,634.03126 242,625.73839 242,624.62923 242,623.90939 291.72117,594 292.91784,594 c 0.59519,0 1.08216,0.42051 1.08216,0.93447 0,2.18394 12.44206,19.29387 16.37182,22.51401 8.71998,7.14536 19.59542,9.75013 31.58571,7.56505 14.09781,-2.56915 20.44564,-8.98961 23.59952,-23.86955 1.16186,-5.48164 1.41126,-26.0192 1.42559,-117.39398 L 367,373 h 31.53916 31.53917 l -0.33849,116.25 c -0.33136,113.80107 -0.38256,116.43959 -2.43078,125.25 -8.49469,36.53995 -29.76785,57.51415 -65.92031,64.9939 -9.52384,1.97043 -32.29066,2.75735 -41.75398,1.4432 z M 558.5,680.92621 c -34.19406,-4.07048 -64.79942,-20.51391 -82.78476,-44.478 -6.28451,-8.37363 -12.2962,-18.21072 -11.5644,-18.92314 0.66551,-0.64788 48.73363,-28.48638 49.65077,-28.75509 0.50682,-0.14849 3.59959,3.33148 6.87282,7.73326 C 535.43652,616.35502 553.67421,626 576.44986,626 c 19.6198,0 34.45602,-7.19716 40.19729,-19.5 3.24314,-6.94966 3.24126,-17.05024 -0.004,-24.02028 C 611.79483,572.06927 602.25728,565.99112 566.5,550.52451 544.54846,541.02949 533.19558,535.21452 522.43055,527.95203 495.45908,509.75609 483.01931,486.0915 483.0305,453 c 0.009,-25.26102 6.43185,-41.4727 22.98046,-58 12.4548,-12.43877 26.11074,-19.61765 45.00475,-23.65887 10.45286,-2.23575 35.7985,-2.47566 46.96067,-0.44451 20.43632,3.71873 36.01878,11.95883 49.59264,26.22488 7.20087,7.56806 17.05896,21.85798 15.69439,22.74998 -15.6207,10.21105 -47.31521,30.28541 -47.76115,30.2505 -0.33348,-0.0261 -2.94541,-3.30998 -5.80429,-7.2975 -9.72795,-13.56838 -21.3956,-19.51417 -36.53393,-18.61758 -17.91066,1.06078 -28.16068,11.00503 -28.13231,27.2931 0.021,12.06976 5.24353,20.00607 18.15372,27.58706 3.677,2.15917 15.827,7.91027 27,12.78023 39.32458,17.14033 55.76778,26.95258 69.41485,41.42233 17.15804,18.19237 23.20789,36.04014 22.10432,65.21038 -0.61759,16.32445 -2.06444,22.45942 -8.25431,35 -11.59979,23.50103 -33.54363,38.82367 -65.18999,45.51996 -11.40852,2.41402 -37.19612,3.40191 -49.76032,1.90625 z"
         id="path44" />
      <path
         style="fill:#4f4a0e"
         d="m 319.5,680.94436 c -16.61486,-2.24561 -35.54738,-9.61866 -47.20937,-18.38514 -10.74898,-8.08015 -22.29008,-21.74596 -28.2309,-33.4282 -1.22197,-2.40294 -1.84781,-4.71187 -1.39075,-5.13096 1.5443,-1.416 49.27526,-30.00026 50.05647,-29.97691 0.426,0.0127 2.53753,3.15758 4.69227,6.98856 5.86077,10.42 12.4942,17.32745 20.35593,21.1968 6.24568,3.07397 7.34977,3.28832 16.70699,3.24354 8.18441,-0.0392 10.93506,-0.46105 15.01936,-2.30361 9.19056,-4.14617 13.53329,-10.09741 16.05705,-22.00446 1.16186,-5.48164 1.41126,-26.0192 1.42559,-117.39398 L 367,373 h 31.5 31.5 v 110.03941 c 0,71.23972 -0.37578,113.40944 -1.06574,119.5971 -1.55685,13.96193 -4.27503,23.57953 -9.87573,34.94279 -10.83685,21.98689 -29.83769,35.95629 -56.53685,41.56581 -10.60692,2.22853 -32.93615,3.16238 -43.02168,1.79925 z m 243.5,0.38142 c -39.12743,-3.95911 -70.58714,-20.97192 -90.20706,-48.78227 -4.95934,-7.02965 -9.21801,-14.46661 -8.6127,-15.04047 0.60344,-0.5721 49.09516,-28.59486 49.83494,-28.799 0.4067,-0.11222 2.87228,2.72096 5.47907,6.29596 15.82744,21.70603 33.03307,31.0258 57.20316,30.98522 26.1322,-0.0439 42.28305,-12.07028 42.28305,-31.48522 0,-18.03047 -8.6248,-25.14946 -54.47378,-44.96316 C 532.67714,535.78166 519.34143,527.68259 506,514.00442 490.34516,497.95446 484.12212,482.20426 483.27949,456.5 c -0.42171,-12.86411 -0.19588,-16.24014 1.58597,-23.70926 6.36498,-26.68076 24.01154,-46.64583 50.13454,-56.72151 26.47648,-10.21203 64.44085,-8.89729 88.29659,3.0578 14.08275,7.05745 26.52845,18.41572 35.88677,32.75123 l 4.89163,7.49322 -7.2875,4.68737 c -4.00812,2.57805 -14.98175,9.63915 -24.38585,15.69133 l -17.09836,11.00396 -5.40164,-7.59885 C 606.93074,438.97592 602.25,433.84611 599.5,431.75571 585.01197,420.74273 561.54558,421.64203 551.03488,433.61305 546.4382,438.84838 545,442.89707 545,450.60186 c 0,9.12992 1.60829,13.74615 6.80153,19.52229 6.05807,6.73803 13.93374,11.16764 40.58105,22.82448 37.52916,16.41711 51.35123,24.61391 65.70584,38.96503 13.12777,13.12458 20.16181,26.93809 22.99059,45.1491 1.7006,10.94803 0.6574,33.64881 -1.95017,42.43724 -10.23989,34.51203 -40.25833,56.61338 -83.43193,61.42752 -9.0228,1.0061 -24.79147,1.19817 -32.69691,0.39826 z"
         id="path42" />
      <path
         style="fill:#403d0d"
         d="m 320.5,680.97948 c -15.72203,-2.03094 -32.34384,-7.86449 -44.00499,-15.44389 -11.95117,-7.76789 -30.0064,-28.80867 -33.99612,-39.61759 -0.44773,-1.21299 5.27182,-5.12497 24.52013,-16.77099 13.80724,-8.35393 25.47026,-14.96265 25.91784,-14.68603 0.44757,0.27661 2.64389,3.58347 4.88069,7.34858 6.14917,10.35058 12.29343,16.62758 19.97828,20.40987 6.2274,3.06497 7.32394,3.27674 16.68481,3.22235 8.206,-0.0477 10.96802,-0.47653 15.261,-2.36955 6.55197,-2.88912 11.32505,-8.09475 14.38756,-15.6914 L 366.5,601.5 366.77841,487.25 367.05682,373 H 398.52841 430 l -0.008,110.25 c -0.005,68.24859 -0.39636,113.67869 -1.02708,119.25 -4.76749,42.11275 -27.65807,68.51344 -66.45174,76.64165 -10.49592,2.19915 -31.95059,3.13767 -42.01298,1.83783 z M 563,681.33447 C 524.41816,677.52643 492.44217,660.21693 472.78763,632.5 c -4.90784,-6.92106 -9.22683,-14.43347 -8.60739,-14.97161 0.17587,-0.15278 10.21976,-6.01301 22.31976,-13.02272 12.1,-7.00971 23.40005,-13.5892 25.11122,-14.62109 l 3.11121,-1.87615 3.78123,5.74578 c 2.07967,3.16019 7.42963,9.35576 11.88878,13.76794 13.10756,12.96948 26.78226,18.44016 46.10756,18.44571 19.73537,0.006 34.61733,-7.1764 40.41131,-19.50257 3.00282,-6.38822 2.88149,-17.22084 -0.26864,-23.98557 -4.90576,-10.53484 -14.02571,-16.28055 -52.90974,-33.33397 -12.28647,-5.38849 -26.67138,-12.34698 -31.96646,-15.4633 -24.73308,-14.5562 -38.69481,-30.93362 -45.33796,-53.18245 -2.2319,-7.47495 -2.76804,-11.54175 -3.164,-24 -0.40789,-12.83351 -0.17666,-16.2579 1.60095,-23.70926 7.7486,-32.48063 31.96525,-54.44107 68.10057,-61.75582 9.31911,-1.88643 25.91635,-2.37995 36.92571,-1.09799 30.76229,3.58207 53.05364,17.06724 69.26647,41.90279 4.47648,6.85729 4.72524,7.55042 3.10413,8.64919 -9.32986,6.32368 -46.15018,29.50909 -46.85213,29.50234 -0.50062,-0.005 -2.65532,-2.71727 -4.78823,-6.0277 -4.79882,-7.4481 -11.4162,-13.43537 -18.62198,-16.84879 -4.88619,-2.31462 -6.72763,-2.60591 -16.5,-2.61007 -10.01104,-0.004 -11.45762,0.23678 -16.09002,2.68109 -5.6491,2.98078 -10.93908,8.44295 -13.03508,13.45937 -0.76345,1.82721 -1.3749,6.72225 -1.3749,11.00701 0,9.44885 2.05897,14.25855 8.80532,20.56897 6.41597,6.00138 14.30723,10.2395 38.83072,20.85458 34.47868,14.92423 50.15122,24.02852 63.98527,37.16952 C 674.03379,546.78538 682,566.64772 682,593.5225 c 0,24.6984 -6.4861,42.33687 -21.39703,58.18765 -11.70109,12.43861 -26.38942,20.64264 -46.15076,25.77707 -14.63895,3.80352 -35.8365,5.38853 -51.45221,3.84725 z"
         id="path40" />
      <path
         style="fill:#312f0b"
         d="m 323,680.95146 c -29.14804,-2.63936 -53.80603,-16.00599 -69.93957,-37.91291 -5.51777,-7.49231 -11.54302,-17.8893 -10.79859,-18.63373 1.88968,-1.88967 50.09753,-30.30075 50.74025,-29.90353 0.44386,0.27433 2.14152,2.86126 3.77257,5.74874 10.60336,18.77135 23.45457,26.85018 40.46355,25.43715 3.99399,-0.3318 9.06179,-1.18108 11.26179,-1.8873 5.82634,-1.87029 12.76702,-9.11358 15.6189,-16.29988 l 2.3811,-6 0.27056,-114.25 L 367.04112,373 H 398.52056 430 l -0.0163,107.25 c -0.009,58.9875 -0.43149,112.26792 -0.93898,118.40094 -1.3211,15.96567 -4.22851,27.11923 -10.25714,39.34906 -4.42196,8.97049 -6.42223,11.74451 -13.73177,19.04347 -6.75685,6.74708 -10.48116,9.53284 -17.71253,13.24888 -11.34418,5.82953 -24.34826,9.35911 -39.34331,10.6786 -12.5332,1.10286 -12.60579,1.1028 -25,-0.0195 z m 239,0.061 c -35.10561,-3.51012 -64.08277,-17.92509 -83.86783,-41.72088 -5.69873,-6.85394 -14.83336,-20.98708 -14.01578,-21.68527 0.21099,-0.18017 10.73361,-6.31201 23.38361,-13.62632 12.65,-7.3143 23.93321,-13.90181 25.07379,-14.6389 1.93815,-1.25252 2.38669,-0.88224 6.85744,5.66093 6.04717,8.85034 17.55283,19.64487 25.39327,23.82378 16.47379,8.78043 42.35979,9.73263 57.30541,2.10794 10.37182,-5.2913 17.07531,-14.91944 17.26294,-24.79454 0.187,-9.84161 -1.90445,-14.81373 -9.31577,-22.14691 C 602.87534,566.86647 593.2188,561.59472 567,550.47541 537.27963,537.8711 520.26001,527.95901 508.16882,516.2126 491.12178,499.65167 483,479.03623 483,452.32685 c 0,-28.86711 12.26866,-52.36299 35.33743,-67.67516 17.47244,-11.59754 42.89103,-17.08429 68.37381,-14.75887 32.99395,3.01084 54.72494,15.53902 72.15402,41.59767 2.86065,4.27702 5.07373,7.87613 4.91796,7.99801 -2.37192,1.85597 -47.91962,30.50932 -48.48918,30.5038 -0.43672,-0.004 -1.78646,-1.74601 -2.99942,-3.8706 -4.11888,-7.21451 -12.09847,-14.89981 -18.99609,-18.2955 -5.47599,-2.69582 -7.96981,-3.29015 -15.26998,-3.63918 -11.74155,-0.56137 -18.17067,1.33706 -24.84257,7.33568 -6.06564,5.45353 -8.66858,11.45218 -8.66858,19.9773 0,8.75659 2.55791,14.42877 9.33562,20.70183 7.11761,6.58764 12.45743,9.4401 41.63428,22.24047 35.65543,15.64264 52.19116,25.81566 65.67593,40.4048 7.88791,8.5339 14.7176,21.05487 17.81685,32.66387 2.69525,10.09572 3.75583,30.92341 2.10948,41.42627 -5.9025,37.65502 -33.45693,63.06021 -76.49235,70.52592 -11.12416,1.9298 -31.41186,2.66768 -42.59721,1.54928 z"
         id="path38" />
      <path
         style="fill:#22210a"
         d="m 322.74936,680.9253 c -25.11593,-2.5345 -45.1553,-11.82354 -61.24936,-28.39152 -6.77944,-6.97906 -16.96843,-21.24335 -18.96382,-26.54878 -0.42386,-1.12697 5.75182,-5.35307 24.11177,-16.5 13.57486,-8.24175 24.98952,-15.11236 25.36591,-15.26803 0.37638,-0.15567 3.19731,3.66933 6.26872,8.5 6.67315,10.49545 12.29222,16.1766 19.71742,19.9353 4.84708,2.45364 6.62776,2.78793 15,2.81594 5.225,0.0175 11.61866,-0.58392 14.20814,-1.33645 9.18485,-2.66923 16.19566,-11.28125 18.66748,-22.93098 C 366.6697,597.45826 367,563.16172 367,484.45078 V 373 h 31.5 31.5 l -0.0103,107.25 c -0.006,65.29242 -0.41365,111.84737 -1.04131,119.00158 -3.29849,37.59695 -19.51361,62.22217 -49.07545,74.5288 -14.45831,6.01901 -38.49183,9.02508 -57.12356,7.14492 z m 239.30045,0.0566 c -23.59051,-2.46185 -44.33465,-9.63992 -61.47256,-21.27128 -8.03902,-5.45601 -20.56034,-17.57897 -26.44679,-25.60539 -5.17518,-7.05657 -10.61399,-16.01494 -10.00195,-16.47441 0.20432,-0.15339 5.32149,-3.1451 11.37149,-6.64826 6.05,-3.50315 17.36299,-10.06353 25.13999,-14.57861 l 14.13998,-8.20925 4.66561,6.82835 c 6.0944,8.91946 17.49245,19.64238 25.247,23.75156 9.07214,4.80736 19.70006,7.22544 31.75728,7.22544 20.44364,0 35.12575,-7.1524 40.87159,-19.91061 2.89721,-6.43304 2.77166,-16.89823 -0.27983,-23.3252 C 611.65018,571.40886 602.08194,565.37479 563.5,548.99897 527.49327,533.71618 508.63085,520.37224 495.65076,501 c -13.67744,-20.413 -16.66237,-55.04193 -6.90948,-80.15874 13.68637,-35.24679 53.07323,-55.53191 98.75872,-50.86298 33.13555,3.38636 54.58725,16.06516 71.97667,42.54104 l 4.44211,6.76324 -23.97928,15.35872 c -13.1886,8.4473 -24.30783,15.34979 -24.70939,15.33888 -0.40156,-0.0109 -2.08011,-2.2991 -3.73011,-5.08484 -4.10111,-6.92404 -12.33045,-14.46873 -19.24736,-17.64606 -7.54415,-3.46546 -20.23321,-4.26895 -28.67248,-1.81559 -12.27669,3.56893 -20.78031,16.44242 -19.125,28.95303 2.13728,16.15337 10.13095,22.48155 50.04484,39.61788 54.97412,23.60218 75.70231,41.8448 84.64546,74.49542 1.83435,6.69708 2.20375,10.76871 2.2681,25 0.0673,14.89035 -0.20823,17.99278 -2.22058,25 -9.38877,32.69279 -35.68995,54.17048 -74.65766,60.96588 -10.80112,1.88356 -31.78746,2.63239 -42.48551,1.51597 z"
         id="path36" />
      <path
         style="fill:#131408"
         d="m 323.43126,680.98895 c -35.37384,-3.62937 -63.97413,-22.35166 -78.7028,-51.52033 l -2.54058,-5.03137 21.65606,-13.12175 c 11.91083,-7.21696 23.30913,-14.08947 25.32954,-15.27225 l 3.67348,-2.15051 4.30008,7.2381 c 5.95097,10.01697 13.79078,18.20019 20.67539,21.58105 5.11798,2.51331 6.71246,2.78811 16.17757,2.78811 13.14395,0 18.03703,-1.69402 24.33206,-8.42392 8.71497,-9.317 8.12858,-0.29381 8.43701,-129.82608 L 367.04112,373 h 31.52973 31.52972 l -0.38481,115.25 c -0.4152,124.34923 -0.26152,120.67734 -5.75424,137.48853 -9.60537,29.39848 -31.76068,47.8774 -64.39045,53.70568 -10.67749,1.9072 -26.15794,2.56889 -36.13981,1.54474 z m 238.82026,0.009 C 543.57981,679.03838 527.27677,674.30369 512,666.40407 c -16.67115,-8.62065 -31.39173,-22.1645 -42.11858,-38.75172 -4.62333,-7.14916 -5.61013,-9.33338 -4.62874,-10.24527 0.68603,-0.63745 12.07267,-7.4257 25.30364,-15.08502 l 24.05633,-13.92603 3.94367,5.86888 c 6.3023,9.37891 18.92859,20.884 27.52806,25.08358 C 556.45026,624.41071 563.59821,626 576,626 c 20.91042,0 35.44359,-6.99697 41.35564,-19.91061 2.82548,-6.17167 2.82231,-16.80267 -0.007,-23.08939 -4.73479,-10.52108 -14.77954,-17.16152 -47.489,-31.39428 -33.10142,-14.40333 -45.23536,-21.13014 -58.06295,-32.18893 -12.2127,-10.52868 -22.20943,-26.77278 -26.41128,-42.91679 -2.56935,-9.8717 -2.63569,-36.24671 -0.11446,-45.5 4.21648,-15.47513 13.97666,-31.02075 25.43246,-40.50779 18.92006,-15.66851 46.62846,-23.16786 75.84261,-20.52698 32.65659,2.95206 54.43509,15.34598 71.58734,40.73961 2.6766,3.96266 4.86654,7.62138 4.86654,8.13048 0,0.74007 -44.2194,29.83374 -47.07503,30.9725 -0.42455,0.16931 -2.54713,-2.30629 -4.71683,-5.50132 -5.26578,-7.75421 -12.12184,-13.91542 -19.03299,-17.10406 -8.01949,-3.69999 -22.21254,-4.31768 -30.18626,-1.31372 -11.14368,4.19819 -17.45819,13.49874 -17.42827,25.66983 0.014,5.68609 0.56419,8.17626 2.82974,12.80688 4.69504,9.59633 14.76043,16.02165 45.60964,29.11528 55.56131,23.58244 77.60304,42.79414 86.0702,75.01929 3.24344,12.34419 3.71601,32.19014 1.07037,44.95106 -2.42149,11.67979 -8.60288,25.11217 -15.54082,33.77077 -12.86124,16.05091 -34.82795,27.84318 -60.06443,32.24405 -10.7375,1.87246 -31.77709,2.63482 -42.2838,1.53212 z"
         id="path34" />
      <path
         style="fill:#040607"
         d="M 328,681.36507 C 290.38082,678.52392 262.03974,661.18718 245.66614,631 l -3.52561,-6.5 21.56955,-13 c 11.86325,-7.15 23.24421,-14.00078 25.29101,-15.22396 l 3.72146,-2.22395 5.04482,8.22395 c 6.30315,10.27525 13.11944,17.21684 20.23263,20.60455 4.90029,2.3338 6.69942,2.61941 16.5,2.61941 10.04889,0 11.49789,-0.24449 16.75831,-2.82761 6.45079,-3.16766 9.86139,-7.04762 13.06531,-14.86331 L 366.5,602.5 366.77441,487.75 367.04883,373 H 398.52441 430 l -0.0158,106.75 c -0.009,58.80817 -0.44394,111.91469 -0.96909,118.25 -4.35476,52.53474 -34.02566,80.77058 -87.51508,83.28231 -4.95,0.23244 -11.025,0.26968 -13.5,0.0828 z m 238,0.028 c -39.45297,-3.47174 -70.56309,-19.43176 -91.16087,-46.76708 -3.34435,-4.43829 -7.02738,-10.01829 -8.1845,-12.39999 -1.81686,-3.73964 -1.90269,-4.46049 -0.62924,-5.28429 C 469.39957,614.75898 513.87971,589 514.27468,589 c 0.23668,0 3.30919,3.89662 6.82782,8.65915 10.43698,14.12668 23.64269,23.41779 38.14393,26.83684 7.97019,1.87919 26.57937,1.92597 33.49764,0.0842 11.62916,-3.09587 19.21452,-8.43527 23.75969,-16.72466 2.51995,-4.59584 2.93375,-6.41946 2.91703,-12.85555 -0.0486,-18.7034 -8.5305,-25.91254 -52.92079,-44.97964 -30.46547,-13.08592 -44.19306,-21.04942 -56.82208,-32.96301 -11.76197,-11.09564 -18.57718,-22.12127 -23.33415,-37.74988 -2.42152,-7.95573 -2.68865,-10.40313 -2.76227,-25.30747 -0.0711,-14.40154 0.21101,-17.51024 2.2185,-24.44341 12.84147,-44.35002 58.31324,-67.64709 113.0724,-57.93167 18.26725,3.24099 34.04367,11.32341 46.58749,23.86723 6.88104,6.88104 17.92403,21.91629 17.32709,23.59117 -0.25293,0.70966 -41.26652,27.4974 -45.8822,29.96764 -1.49375,0.79943 -2.38287,0.0677 -5.35067,-4.40347 -4.82601,-7.27069 -13.45147,-15.23523 -19.26335,-17.78731 -5.83263,-2.56119 -21.64436,-3.67042 -27.9481,-1.96062 -6.76785,1.83569 -13.3119,6.9529 -16.75325,13.10044 -2.73984,4.89439 -3.07424,6.38089 -3.03696,13.5 0.0348,6.64143 0.49,8.86439 2.68051,13.09002 4.93144,9.51306 12.57237,14.47334 42.13308,27.35162 37.75876,16.44981 54.78332,26.3217 68.01344,39.4384 17.83945,17.68651 25.5286,38.76748 24.29922,66.61996 -0.66326,15.02654 -2.45592,22.57362 -8.19479,34.5 -14.54007,30.21686 -46.36532,47.40678 -90.48391,48.87352 -6.875,0.22857 -14.525,0.23738 -17,0.0196 z"
         id="path32" />
    </g>
  </g>
</svg>
