<?xml version="1.0" encoding="UTF-8" standalone="no"?>
<!-- Created with Inkscape (http://www.inkscape.org/) -->

<svg
   version="1.1"
   id="svg2"
   width="512"
   height="512"
   viewBox="0 0 512 512"
   sodipodi:docname="nodejs-logo.svg"
   inkscape:version="1.1.1 (3bf5ae0d25, 2021-09-20)"
   xmlns:inkscape="http://www.inkscape.org/namespaces/inkscape"
   xmlns:sodipodi="http://sodipodi.sourceforge.net/DTD/sodipodi-0.dtd"
   xmlns="http://www.w3.org/2000/svg"
   xmlns:svg="http://www.w3.org/2000/svg">
  <defs
     id="defs6" />
  <sodipodi:namedview
     id="namedview4"
     pagecolor="#ffffff"
     bordercolor="#666666"
     borderopacity="1.0"
     inkscape:pageshadow="2"
     inkscape:pageopacity="0.0"
     inkscape:pagecheckerboard="0"
     showgrid="false"
     inkscape:zoom="1.5273438"
     inkscape:cx="256"
     inkscape:cy="136.18414"
     inkscape:window-width="1920"
     inkscape:window-height="986"
     inkscape:window-x="-11"
     inkscape:window-y="-11"
     inkscape:window-maximized="1"
     inkscape:current-layer="g8" />
  <g
     inkscape:groupmode="layer"
     inkscape:label="Image"
     id="g8">
    <g
       id="g30"
       transform="translate(3.2736573,37.319697)">
      <path
         style="fill:#f7faef"
         d="m 226.25,310.89179 -17.25,-10.0574 0.0153,-20.6672 c 0.008,-11.36695 0.34592,-21.14955 0.75,-21.73911 0.9884,-1.44209 34.05753,-20.4313 35.5539,-20.41603 0.64944,0.007 3.13922,1.13162 5.53286,2.5 2.39364,1.36837 4.75614,2.48795 5.25,2.48795 C 256.6092,243 257,231.88798 257,217.46862 c 0,-21.64644 0.22575,-25.61802 1.48357,-26.10069 1.49931,-0.57534 21.39212,9.92198 22.75112,12.00563 0.40408,0.61954 0.73468,22.50144 0.73468,48.62644 0,26.125 -0.3306,47.99046 -0.73468,48.58992 -1.19964,1.77968 -34.09975,20.41231 -35.99373,20.38467 -0.95753,-0.014 -9.50346,-4.55123 -18.99096,-10.0828 z M 251.62827,288.92661 257,285.85322 v -6.33115 -6.33115 l -5.75,-3.25004 -5.75,-3.25004 -5.5,2.98553 -5.5,2.98554 v 6.85314 6.85314 l 4.5,2.7373 c 2.475,1.50552 5.12022,2.77267 5.87827,2.81591 0.75805,0.0432 3.79555,-1.30443 6.75,-2.99479 z M 130,310.16063 l -16.5,-9.68966 -0.26965,-21.1534 -0.26965,-21.1534 2.76965,-1.9462 c 1.52331,-1.07041 9.57928,-5.83851 17.90215,-10.59579 10.84475,-6.19875 15.66165,-8.44729 17,-7.93565 3.84523,1.47003 32.91725,18.62041 34.1175,20.12685 1.89589,2.37954 1.76737,40.5264 -0.14297,42.43674 -2.95125,2.95125 -33.43149,19.74603 -35.7075,19.67502 -1.31974,-0.0412 -9.82453,-4.4352 -18.89953,-9.76451 z m 194.43799,1.49578 c -7.73411,-4.48603 -15.27161,-8.95428 -16.75,-9.92946 L 305,299.95389 v -20.8545 c 0,-15.48024 0.32213,-21.11383 1.25,-21.8608 C 310.09065,254.1467 339.4567,238 341.23927,238 c 1.16428,0 9.68218,4.3875 18.92867,9.75 l 16.81178,9.75 0.0101,7.5416 0.0101,7.5416 -10.79416,6.2084 C 360.26905,282.20622 354.9172,285 354.31283,285 352.73305,285 352,282.51252 352,277.15184 c 0,-4.61185 -0.0852,-4.73556 -5.49023,-7.96843 l -5.49023,-3.28385 -5.75977,3.36558 -5.75977,3.36557 v 6.43465 6.43464 l 17,9.75295 c 11.59242,6.65061 17,10.29806 17,11.46664 0,2.03968 -19.59346,13.33198 -22.88068,13.18682 -1.16562,-0.0515 -8.44723,-3.76397 -16.18133,-8.25 z m 104.64019,5.07399 c -2.982,-1.79373 -5.58646,-3.75525 -5.78769,-4.35893 -0.20123,-0.60368 0.98926,-1.65892 2.64553,-2.34497 2.68157,-1.11074 3.47976,-0.974 7.28769,1.24849 l 4.27629,2.49584 15,-8.76063 15,-8.76062 v -17.72357 -17.72358 l -15.08147,-8.75304 -15.08148,-8.75304 -14.91852,8.65111 -14.91853,8.65111 -0.25304,17.95072 -0.25304,17.95071 5.00356,2.75 C 421.47178,304.45715 422,303.47046 422,280.56574 V 263 h 3 3 v 19.86514 c 0,18.58283 -0.13379,20.03522 -2.07258,22.5 -3.06608,3.89789 -10.28826,3.71947 -17.54685,-0.43347 C 399.93622,300.1003 400,300.30146 400,278.5 c 0,-14.91225 0.31116,-19.49923 1.43121,-21.09833 C 403.50413,254.44217 434.21971,237 437.35847,237 c 2.18283,0 31.09714,15.70321 35.39153,19.22095 0.92886,0.76088 1.25,6.4986 1.25,22.3334 v 21.30946 l -2.75,1.89973 c -8.67147,5.99035 -31.46079,18.23595 -33.93073,18.23232 -1.5506,-0.002 -5.25909,-1.47173 -8.24109,-3.26546 z M 17.234181,284.42464 17.5,256.84929 l 17,-9.88006 c 9.35,-5.43402 17.627656,-9.90011 18.394792,-9.92464 2.013987,-0.0644 35.119988,19.16992 36.068355,20.95541 0.438201,0.825 0.562051,13.3125 0.275221,27.75 -0.46191,23.25018 -0.705317,26.24731 -2.129938,26.22645 C 86.223794,311.9635 81,309.35613 75.5,306.1823 L 65.5,300.41168 65,286.95584 C 64.725,279.55513 64.158253,272.9736 63.740561,272.33022 62.90505,271.04326 54.259706,266 52.88907,266 c -0.472464,0 -3.115785,1.3886 -5.874047,3.08577 L 42,272.17155 v 12.47997 c 0,6.86398 -0.453175,13.32673 -1.007056,14.36166 C 39.836021,301.17491 21.22928,312 18.670503,312 c -1.568129,0 -1.681212,-2.17104 -1.436322,-27.57536 z m 419.080529,10.1117 C 433.00126,293.09523 430,288.58639 430,285.04966 430,283.38634 430.63928,283 433.39159,283 c 2.79633,0 3.50328,0.44499 4.02793,2.53537 0.71499,2.84872 4.00153,4.46463 9.08048,4.46463 4.94775,0 8.5,-1.6289 8.5,-3.8977 0,-2.28572 -3.56745,-3.61178 -12.42014,-4.6167 -9.41737,-1.06902 -13.69205,-6.75574 -10.4413,-13.89036 C 433.76051,264.03544 438.78512,262 445.95079,262 454.95893,262 461,265.90282 461,271.72251 461,273.65869 460.47548,274 457.5,274 c -2.38333,0 -3.5,-0.46048 -3.5,-1.4433 0,-4.76993 -13.7111,-6.3579 -15.46361,-1.79094 -0.92641,2.41419 0.27301,2.97824 9.87597,4.64437 C 459.29537,277.29834 462,279.3039 462,285.48575 c 0,4.53175 -2.37506,7.94595 -6.66113,9.57551 -3.65389,1.38921 -15.36619,1.06604 -19.02416,-0.52492 z M 336.75,285.24177 c -2.37925,-1.47514 -2.75,-2.35005 -2.75,-6.48957 0,-4.50181 0.21108,-4.88521 3.5718,-6.48783 3.41668,-1.6293 3.73156,-1.61774 7.25,0.26618 3.23448,1.73186 3.71518,2.47978 3.98474,6.19977 0.27934,3.85506 0.0132,4.40914 -3,6.24626 -4.00152,2.43966 -5.47954,2.48294 -9.05654,0.26519 z m 147.83465,-33.14823 c -2.62328,-2.8987 -1.75266,-8.1592 1.66535,-10.06234 2.46935,-1.37493 3.03065,-1.37493 5.5,0 5.50855,3.06715 3.46328,11.9688 -2.75,11.9688 -1.47951,0 -3.46642,-0.85791 -4.41535,-1.90646 z M 491,251.55902 c 0,-1.05548 -1.91911,-1.49891 -2.48992,-0.57533 -0.34546,0.55897 0.0734,1.01631 0.9309,1.01631 0.85746,0 1.55902,-0.19844 1.55902,-0.44098 z m -5.30701,-5.28999 c -0.25354,-0.97297 -0.47766,-0.41903 -0.49804,1.23097 -0.0204,1.65 0.18706,2.44606 0.46099,1.76903 0.27392,-0.67703 0.29059,-2.02703 0.0371,-3 z m 7,0 c -0.25354,-0.97297 -0.47766,-0.41903 -0.49804,1.23097 -0.0204,1.65 0.18706,2.44606 0.46099,1.76903 0.27392,-0.67703 0.29059,-2.02703 0.0371,-3 z"
         id="path68" />
      <path
         style="fill:#ecf4d9"
         d="m 227.5,311.52842 c -8.8,-5.1484 -16.5625,-9.86619 -17.25,-10.48399 -0.92208,-0.82861 -1.25,-6.45015 -1.25,-21.42887 0,-18.09553 0.19047,-20.47028 1.75,-21.81879 0.9625,-0.83227 9.12191,-5.72519 18.13202,-10.87317 l 16.38202,-9.35997 4.8685,2.71819 c 2.67768,1.495 5.31827,2.71818 5.86798,2.71818 0.63987,0 0.99948,-9.18602 0.99948,-25.53138 0,-21.41559 0.23444,-25.62135 1.45431,-26.08946 1.40317,-0.53845 18.22224,8.25331 21.79569,11.39316 1.62071,1.42405 1.75,5.06105 1.75,49.22768 0,44.17285 -0.12906,47.80222 -1.75,49.21134 -3.15593,2.74353 -33.52682,19.79001 -35.15774,19.73323 -0.87574,-0.0305 -8.79226,-4.26776 -17.59226,-9.41615 z m 29.29245,-31.79365 0.29245,-6.45044 -5.87728,-3.50108 -5.87728,-3.50108 -5.41517,3.17542 -5.41517,3.17542 -0.26778,6.9335 -0.26778,6.93349 5.69507,3.11932 5.69507,3.11931 5.57271,-3.2767 5.57271,-3.27671 z M 130.48914,310.19815 113.5,300.39631 v -21.43764 -21.43764 l 16,-9.36506 c 8.8,-5.15079 16.96534,-9.73895 18.14519,-10.19592 1.71482,-0.66416 5.60672,1.1488 19.39902,9.03666 9.48961,5.42713 17.62989,10.46056 18.0895,11.1854 1.02826,1.62162 1.12148,39.88118 0.10098,41.44044 C 184.05017,301.4324 151.3138,320 149.30738,320 c -1.00601,0 -9.47422,-4.41083 -18.81824,-9.80185 z M 322.49485,310.25 305.5,300.5 v -21.44373 -21.44372 l 16.87991,-9.80628 c 9.28395,-5.39345 17.83395,-9.79031 19,-9.7708 1.16605,0.0195 9.54509,4.41291 18.62009,9.76313 l 16.5,9.72767 0.29183,7.13898 c 0.33542,8.2052 1.16886,7.23653 -13.56118,15.7616 C 353.35721,286.14114 352,285.78151 352,277.45095 v -5.30417 l -5.53327,-3.16581 -5.53327,-3.16582 -5.71673,3.3869 -5.71673,3.38691 -0.29512,6.1053 c -0.34937,7.22774 -1.52183,6.13315 18.99404,17.73254 15.71766,8.88655 17.14507,10.11121 14.26333,12.23742 C 358.95744,311.25015 342.29167,320 340.87108,320 c -0.75976,0 -9.02906,-4.3875 -18.37623,-9.75 z m 106.57952,6.43419 c -2.98409,-1.78087 -5.58855,-3.72673 -5.78768,-4.32413 -0.19914,-0.59741 0.96928,-1.63766 2.59647,-2.31166 2.61633,-1.08372 3.45931,-0.93541 7.28769,1.28219 l 4.32915,2.50767 15,-8.67774 15,-8.67773 v -17.92157 -17.92156 l -15,-8.72129 -15,-8.7213 -5.55415,3.15147 c -3.05479,1.7333 -9.90782,5.62646 -15.22895,8.65146 l -9.6748,5.5 -0.02,18 -0.02,18 4.89637,2.75 C 421.39285,304.58248 422,303.45946 422,280.56574 V 263 h 3 3 v 19.86514 c 0,18.58283 -0.13379,20.03522 -2.07258,22.5 -2.84823,3.62093 -9.49351,3.64284 -16.43538,0.0542 C 399.92961,300.47593 400,300.67514 400,278.55502 400,261.59648 400.21497,258.9676 401.75,257.1541 404.37967,254.04739 434.48063,237 437.33656,237 c 2.63539,0 33.29379,17.15299 35.41344,19.81338 0.90916,1.14108 1.25,7.20957 1.25,22.2553 0,15.34578 -0.32271,20.94623 -1.25,21.69273 -4.68047,3.76798 -33.32272,19.23207 -35.56119,19.19966 -1.47885,-0.0214 -5.13034,-1.49601 -8.11444,-3.27688 z M 17,284.57787 V 257.15574 L 34.609234,247.07787 C 44.294313,241.53504 52.634018,237 53.141914,237 c 2.177004,0 35.686227,20.23923 36.080758,21.79241 0.238563,0.93918 0.22818,13.29509 -0.02308,27.45759 -0.406549,22.91599 -0.635275,25.74491 -2.078212,25.70371 C 86.229623,311.92825 81,309.27843 75.5,306.06522 l -10,-5.8422 -0.5,-13.36151 c -0.275,-7.34883 -0.837705,-13.88137 -1.250455,-14.51675 -1.016832,-1.56531 -9.281293,-6.34942 -10.927615,-6.32576 -0.727061,0.0104 -3.45943,1.36128 -6.07193,3.00184 L 42,272.00367 v 12.56391 c 0,6.91015 -0.436263,13.37907 -0.969474,14.37538 C 39.92738,301.00421 21.037744,312 18.59988,312 17.172268,312 17,309.0473 17,284.57787 Z m 419.15151,9.72676 c -3.60717,-1.77729 -6.81649,-7.12935 -5.82476,-9.71374 1.00656,-2.62305 5.57117,-1.98958 6.68007,0.92704 1.55114,4.07982 9.3275,5.82626 15.49742,3.48046 1.9466,-0.7401 2.55106,-1.58837 2.3151,-3.24887 -0.25596,-1.80123 -1.2125,-2.40552 -4.81934,-3.04461 -13.40227,-2.37472 -14.99374,-2.88149 -16.98038,-5.40709 C 427.31264,270.04256 433.86475,262 445.48246,262 c 9.17486,0 13.9224,2.7743 15.1366,8.84531 0.61509,3.07545 0.53989,3.15469 -2.99406,3.15469 -2.49226,0 -3.625,-0.451 -3.625,-1.4433 0,-0.79381 -1.00013,-2.14381 -2.22251,-3 -4.16534,-2.91752 -14.25432,-1.28705 -13.58964,2.19621 0.33627,1.76221 1.53204,2.15775 13.00139,4.30068 7.96388,1.48797 10.81076,3.94878 10.81076,9.34468 0,4.39221 -1.81885,6.97092 -6.68426,9.47677 -3.32585,1.71292 -15.25035,1.35799 -19.16423,-0.57041 z m -99.39972,-9.14606 c -2.35735,-1.42268 -2.74847,-2.31174 -2.75,-6.2511 -0.002,-4.23069 0.27621,-4.74224 3.52663,-6.49271 3.47985,-1.87402 3.57963,-1.87275 7.25,0.0925 3.25923,1.74514 3.75909,2.50659 4.02352,6.12905 0.27505,3.7678 -0.003,4.32465 -3.11803,6.25 -4.00032,2.47233 -5.22479,2.50965 -8.93212,0.27223 z m 148.41602,-32.75359 c -3.33022,-2.33257 -2.71177,-8.26079 1.08219,-10.37356 2.46952,-1.37523 3.03048,-1.37523 5.5,0 3.79396,2.11277 4.41241,8.04099 1.08219,10.37356 C 491.57973,253.28224 489.85524,254 489,254 c -0.85524,0 -2.57973,-0.71776 -3.83219,-1.59502 z m 5.35918,-1.36131 c -0.32507,-0.52598 -1.25163,-0.70283 -2.05902,-0.39301 -2.06711,0.79323 -1.82352,1.34934 0.59105,1.34934 1.13246,0 1.79305,-0.43035 1.46797,-0.95633 z m -4.834,-4.77464 c -0.25354,-0.97297 -0.47766,-0.41903 -0.49804,1.23097 -0.0204,1.65 0.18706,2.44606 0.46099,1.76903 0.27392,-0.67703 0.29059,-2.02703 0.0371,-3 z m 6.26133,-1.82407 c -0.65957,-0.79473 -2.15661,-1.4001 -3.32676,-1.34528 -1.87977,0.0881 -1.83639,0.18098 0.37244,0.79775 1.375,0.38394 2.56059,1.35159 2.63465,2.15032 0.33472,3.61011 0.67077,4.27929 1.0783,2.14721 0.24232,-1.26778 -0.0991,-2.95528 -0.75863,-3.75 z"
         id="path66" />
      <path
         style="fill:#e5e5e5"
         d="m 227.5,311.52842 c -8.8,-5.1484 -16.5625,-9.86619 -17.25,-10.48399 -0.92208,-0.82861 -1.25,-6.45015 -1.25,-21.42887 0,-18.09553 0.19047,-20.47028 1.75,-21.81879 0.9625,-0.83227 9.12191,-5.72519 18.13202,-10.87317 l 16.38202,-9.35997 4.8685,2.71819 c 2.67768,1.495 5.31827,2.71818 5.86798,2.71818 0.63987,0 0.99948,-9.18602 0.99948,-25.53138 0,-21.41559 0.23444,-25.62135 1.45431,-26.08946 1.40317,-0.53845 18.22224,8.25331 21.79569,11.39316 1.62071,1.42405 1.75,5.06105 1.75,49.22768 0,44.17285 -0.12906,47.80222 -1.75,49.21134 -3.15593,2.74353 -33.52682,19.79001 -35.15774,19.73323 -0.87574,-0.0305 -8.79226,-4.26776 -17.59226,-9.41615 z m 29.29245,-31.79365 0.29245,-6.45044 -5.87728,-3.50108 -5.87728,-3.50108 -5.41517,3.17542 -5.41517,3.17542 -0.26778,6.9335 -0.26778,6.93349 5.69507,3.11932 5.69507,3.11931 5.57271,-3.2767 5.57271,-3.27671 z M 130.5,310.08414 l -17,-9.87748 v -21.33653 -21.33652 l 16.89788,-9.76681 C 139.69171,242.39506 148.18003,238 149.2608,238 c 2.1473,0 30.85477,16.09899 34.4892,19.34135 2.18905,1.9529 2.25,2.54015 2.25,21.67798 0,17.47927 -0.19496,19.84267 -1.75,21.21436 -3.13061,2.76148 -33.32381,19.76686 -35.06119,19.74712 -0.92885,-0.0106 -9.33881,-4.46406 -18.68881,-9.89667 z M 322.49485,310.25 305.5,300.5 v -21.44373 -21.44372 l 16.87991,-9.80628 c 9.28395,-5.39345 17.83395,-9.79031 19,-9.7708 1.16605,0.0195 9.54509,4.41291 18.62009,9.76313 l 16.5,9.72767 0.29183,7.13898 c 0.33542,8.2052 1.16886,7.23653 -13.56118,15.7616 C 353.35721,286.14114 352,285.78151 352,277.45095 v -5.30417 l -5.53327,-3.16581 -5.53327,-3.16582 -5.71673,3.3869 -5.71673,3.38691 -0.29512,6.1053 c -0.34937,7.22774 -1.52183,6.13315 18.99404,17.73254 15.71766,8.88655 17.14507,10.11121 14.26333,12.23742 C 358.95744,311.25015 342.29167,320 340.87108,320 c -0.75976,0 -9.02906,-4.3875 -18.37623,-9.75 z M 428.75,316.39282 c -3.1625,-1.9545 -5.75,-3.86879 -5.75,-4.25399 0,-0.38519 1.39435,-1.22666 3.09855,-1.86993 2.73043,-1.03062 3.56765,-0.87344 7.04712,1.32306 l 3.94858,2.49263 15.44335,-8.7923 15.44335,-8.79229 -0.0236,-18 -0.0236,-18 -15.00327,-8.5 c -8.2518,-4.675 -15.54942,-8.35628 -16.21693,-8.18062 -0.66751,0.17566 -7.62417,4.00066 -15.45925,8.5 l -14.24561,8.18062 -0.004,18.12741 -0.004,18.1274 5.48961,2.8726 c 8.81962,4.61512 8.95649,4.34993 9.28246,-17.98535 L 422.04413,263 H 425.02207 428 v 20.04545 c 0,19.9495 -0.0118,20.05721 -2.45455,22.5 -3.31411,3.31412 -9.00599,3.26835 -15.705,-0.1263 C 399.84716,300.35517 400,300.75603 400,279.61055 c 0,-10.16419 0.41544,-19.57305 0.92321,-20.90857 C 401.98494,255.9094 433.67064,237 437.28831,237 c 2.3169,0 30.76332,15.93054 34.46169,19.29921 2.18816,1.99309 2.25,2.59206 2.25,21.79332 0,10.85914 -0.26381,20.43138 -0.58625,21.27164 -0.83941,2.18747 -33.46139,20.64111 -36.43228,20.60905 -1.36481,-0.0147 -5.06897,-1.6259 -8.23147,-3.5804 z M 17,284.57787 V 257.15574 L 34.609234,247.07787 C 44.294313,241.53504 52.634018,237 53.141914,237 c 2.177004,0 35.686227,20.23923 36.080758,21.79241 0.238563,0.93918 0.22818,13.29509 -0.02308,27.45759 -0.406549,22.91599 -0.635275,25.74491 -2.078212,25.70371 C 86.229623,311.92825 81,309.27843 75.5,306.06522 l -10,-5.8422 -0.5,-13.36151 c -0.275,-7.34883 -0.837705,-13.88137 -1.250455,-14.51675 -1.016832,-1.56531 -9.281293,-6.34942 -10.927615,-6.32576 -0.727061,0.0104 -3.45943,1.36128 -6.07193,3.00184 L 42,272.00367 v 12.56391 c 0,6.91015 -0.436263,13.37907 -0.969474,14.37538 C 39.92738,301.00421 21.037744,312 18.59988,312 17.172268,312 17,309.0473 17,284.57787 Z m 420.5,10.01962 c -4.08534,-1.80332 -6.54969,-4.78663 -6.79511,-8.22608 -0.17482,-2.44994 0.19868,-2.91785 2.54462,-3.18779 2.1642,-0.24902 2.95231,0.21702 3.70214,2.1892 1.27928,3.36477 3.95065,4.62718 9.79148,4.62718 5.49964,0 8.64747,-1.73892 8.11561,-4.48323 -0.41316,-2.13183 -3.08799,-3.10856 -10.92468,-3.98921 -10.16379,-1.14217 -14.94341,-6.5266 -11.75455,-13.24195 2.68119,-5.64624 14.32981,-8.18878 22.28619,-4.86439 3.30054,1.37906 6.5343,5.84747 6.5343,9.02912 0,2.70458 -5.83904,1.99704 -7.14334,-0.86559 -1.18901,-2.60959 -3.47202,-3.54968 -8.6724,-3.5711 -4.03658,-0.0166 -7.18426,1.53713 -7.18426,3.54628 0,1.8455 2.87461,2.97429 10,3.92676 10.33976,1.38215 14,4.05546 14,10.22506 0,3.79208 -2.52117,7.19024 -6.59857,8.89388 -4.18054,1.74674 -13.93585,1.7423 -17.90143,-0.008 z m -100.25,-9.34287 c -2.95988,-1.47308 -3.25,-2.02732 -3.25,-6.20864 0,-4.24753 0.27005,-4.7366 3.60798,-6.5342 3.59544,-1.93627 3.62063,-1.93571 7.25,0.16179 5.59485,3.23338 5.63882,9.45248 0.0889,12.57643 -3.67512,2.06867 -3.54975,2.06859 -7.69691,0.005 z M 485,252 c -5.39095,-5.39095 1.24041,-13.6934 7.60589,-9.52258 3.24229,2.12444 3.33911,7.74727 0.1716,9.96588 C 489.78621,254.53847 487.40261,254.40261 485,252 Z m 5.32945,-1.58385 c -0.33428,-0.87111 -0.88789,-1.20861 -1.23025,-0.75 -0.34236,0.45862 -1.02973,1.17135 -1.5275,1.58385 -0.49777,0.4125 0.0558,0.75 1.23025,0.75 1.53742,0 1.96511,-0.44346 1.5275,-1.58385 z M 489.00982,244.5 c 1.89238,0 2.51778,0.54774 2.60516,2.28165 0.0632,1.25491 0.4404,2.60491 0.83813,3 0.39773,0.39509 0.57099,-0.58626 0.38502,-2.18079 -0.18597,-1.59452 -1.12563,-3.39222 -2.08813,-3.99488 -2.51345,-1.57378 -5.20816,0.40989 -5.42686,3.99488 l -0.17686,2.89914 0.68668,-3 c 0.53706,-2.34634 1.22926,-3 3.17686,-3 z"
         id="path64" />
      <path
         style="fill:#ddecbb"
         d="m 227.89045,311.66142 c -8.58525,-5.03878 -16.34775,-9.77902 -17.25,-10.53386 C 209.21875,299.93812 209,297.0469 209,279.44565 v -20.30946 l 2.75,-1.93221 c 1.5125,-1.06271 9.69636,-5.90289 18.18636,-10.75594 l 15.43636,-8.82373 4.81416,2.68784 C 252.83467,241.79047 255.45081,243 256.00052,243 256.64039,243 257,233.81398 257,217.46862 c 0,-20.93893 0.25136,-25.62784 1.3974,-26.06762 1.34509,-0.51616 18.2596,8.30976 21.8526,11.40259 1.62115,1.39547 1.75,5.01787 1.75,49.19641 0,44.18396 -0.12866,47.79973 -1.75,49.18219 -3.14676,2.68314 -33.80581,19.82011 -35.29677,19.72923 -0.79928,-0.0487 -8.47753,-4.21122 -17.06278,-9.25 z m 27.90165,-24.991 c 0.87966,-0.67072 1.19886,-3.03934 1,-7.42042 l -0.2921,-6.43522 -5.63767,-3.31496 -5.63768,-3.31495 -5.36232,3.21589 -5.36233,3.21589 -0.2851,6.94168 -0.2851,6.94167 5.7409,3.17154 5.74091,3.17155 4.5442,-2.59374 c 2.4993,-1.42656 5.12564,-3.03708 5.83629,-3.57893 z M 130.5,310.08414 l -17,-9.87748 v -21.33653 -21.33652 l 16.89788,-9.76681 C 139.69171,242.39506 148.18003,238 149.2608,238 c 2.1473,0 30.85477,16.09899 34.4892,19.34135 2.18905,1.9529 2.25,2.54015 2.25,21.67798 0,17.47927 -0.19496,19.84267 -1.75,21.21436 -3.13061,2.76148 -33.32381,19.76686 -35.06119,19.74712 -0.92885,-0.0106 -9.33881,-4.46406 -18.68881,-9.89667 z m 192,0.0967 -17,-9.76616 v -21.34892 -21.34892 l 16.99188,-9.8584 c 9.34553,-5.42212 17.89553,-9.82471 19,-9.78354 1.10446,0.0412 9.43312,4.43557 18.50812,9.76532 l 16.5,9.69047 v 7.45213 7.45213 l -10.78929,6.37238 C 353.1542,286.22343 352,286.10925 352,277.45095 v -5.30417 l -5.4562,-3.12172 c -5.37075,-3.07283 -5.50778,-3.09537 -8.75,-1.439 -8.33626,4.25877 -8.91131,5.04621 -8.58892,11.76118 l 0.29512,6.14679 10,5.89247 c 21.7999,12.84553 23.87605,14.15468 24.23817,15.28373 0.40116,1.25081 -20.22086,13.29972 -22.73817,13.28531 -0.825,-0.005 -9.15,-4.40335 -18.5,-9.77474 z m 106.25,6.21202 c -3.1625,-1.9545 -5.75,-3.86879 -5.75,-4.25399 0,-0.38519 1.39435,-1.22666 3.09855,-1.86993 2.73043,-1.03062 3.56765,-0.87344 7.04712,1.32306 l 3.94858,2.49263 15.44335,-8.7923 15.44335,-8.79229 -0.0236,-18 -0.0236,-18 -15.00327,-8.5 c -8.2518,-4.675 -15.54942,-8.35628 -16.21693,-8.18062 -0.66751,0.17566 -7.62417,4.00066 -15.45925,8.5 l -14.24561,8.18062 -0.004,18.12741 -0.004,18.1274 5.48961,2.8726 c 8.81962,4.61512 8.95649,4.34993 9.28246,-17.98535 L 422.04413,263 H 425.02207 428 v 20.04545 c 0,19.9495 -0.0118,20.05721 -2.45455,22.5 -3.31411,3.31412 -9.00599,3.26835 -15.705,-0.1263 C 399.84716,300.35517 400,300.75603 400,279.61055 c 0,-10.16419 0.41544,-19.57305 0.92321,-20.90857 C 401.98494,255.9094 433.67064,237 437.28831,237 c 2.3169,0 30.76332,15.93054 34.46169,19.29921 2.18816,1.99309 2.25,2.59206 2.25,21.79332 0,10.85914 -0.26381,20.43138 -0.58625,21.27164 -0.83941,2.18747 -33.46139,20.64111 -36.43228,20.60905 -1.36481,-0.0147 -5.06897,-1.6259 -8.23147,-3.5804 z M 17,284.61047 v -27.38952 l 18.10909,-10.28289 c 14.029928,-7.96663 18.478713,-10.06152 19.75,-9.3001 0.9025,0.54054 8.907825,5.14451 17.789611,10.23105 8.881785,5.08654 16.34198,10.00937 16.578211,10.93962 0.236232,0.93025 0.22394,13.27887 -0.02732,27.44137 -0.375685,21.17628 -0.705278,25.75 -1.8556,25.75 -0.769325,0 -6.111449,-2.7491 -11.871385,-6.10911 L 65,299.78177 v -13.38461 -13.38462 l -4.189339,-3.03474 c -6.163132,-4.46455 -8.014965,-4.63536 -13.533103,-1.24827 L 42.5,271.66204 42,285.28506 c -0.275,7.49266 -0.95,14.05807 -1.5,14.5898 C 38.489868,301.81823 20.060463,312 18.553015,312 17.186796,312 17,308.7056 17,284.61047 Z m 420.5,9.98702 c -4.08534,-1.80332 -6.54969,-4.78663 -6.79511,-8.22608 -0.17482,-2.44994 0.19868,-2.91785 2.54462,-3.18779 2.1642,-0.24902 2.95231,0.21702 3.70214,2.1892 1.27928,3.36477 3.95065,4.62718 9.79148,4.62718 5.49964,0 8.64747,-1.73892 8.11561,-4.48323 -0.41316,-2.13183 -3.08799,-3.10856 -10.92468,-3.98921 -10.16379,-1.14217 -14.94341,-6.5266 -11.75455,-13.24195 2.68119,-5.64624 14.32981,-8.18878 22.28619,-4.86439 3.30054,1.37906 6.5343,5.84747 6.5343,9.02912 0,2.70458 -5.83904,1.99704 -7.14334,-0.86559 -1.18901,-2.60959 -3.47202,-3.54968 -8.6724,-3.5711 -4.03658,-0.0166 -7.18426,1.53713 -7.18426,3.54628 0,1.8455 2.87461,2.97429 10,3.92676 10.33976,1.38215 14,4.05546 14,10.22506 0,3.79208 -2.52117,7.19024 -6.59857,8.89388 -4.18054,1.74674 -13.93585,1.7423 -17.90143,-0.008 z m -100.25,-9.34287 c -2.95988,-1.47308 -3.25,-2.02732 -3.25,-6.20864 0,-4.24753 0.27005,-4.7366 3.60798,-6.5342 3.59544,-1.93627 3.62063,-1.93571 7.25,0.16179 5.59485,3.23338 5.63882,9.45248 0.0889,12.57643 -3.67512,2.06867 -3.54975,2.06859 -7.69691,0.005 z M 485,252 c -5.39095,-5.39095 1.24041,-13.6934 7.60589,-9.52258 3.24229,2.12444 3.33911,7.74727 0.1716,9.96588 C 489.78621,254.53847 487.40261,254.40261 485,252 Z m 5.32945,-1.58385 c -0.33428,-0.87111 -0.88789,-1.20861 -1.23025,-0.75 -0.34236,0.45862 -1.02973,1.17135 -1.5275,1.58385 -0.49777,0.4125 0.0558,0.75 1.23025,0.75 1.53742,0 1.96511,-0.44346 1.5275,-1.58385 z M 489.00982,244.5 c 1.89238,0 2.51778,0.54774 2.60516,2.28165 0.0632,1.25491 0.4404,2.60491 0.83813,3 0.39773,0.39509 0.57099,-0.58626 0.38502,-2.18079 -0.18597,-1.59452 -1.12563,-3.39222 -2.08813,-3.99488 -2.51345,-1.57378 -5.20816,0.40989 -5.42686,3.99488 l -0.17686,2.89914 0.68668,-3 c 0.53706,-2.34634 1.22926,-3 3.17686,-3 z"
         id="path62" />
      <path
         style="fill:#cecece"
         d="m 227.89045,311.66142 c -8.58525,-5.03878 -16.34775,-9.77902 -17.25,-10.53386 C 209.21875,299.93812 209,297.0469 209,279.44565 v -20.30946 l 2.75,-1.93221 c 1.5125,-1.06271 9.69636,-5.90289 18.18636,-10.75594 l 15.43636,-8.82373 4.81416,2.68784 C 252.83467,241.79047 255.45081,243 256.00052,243 256.64039,243 257,233.81398 257,217.46862 c 0,-20.93893 0.25136,-25.62784 1.3974,-26.06762 1.34509,-0.51616 18.2596,8.30976 21.8526,11.40259 1.62115,1.39547 1.75,5.01787 1.75,49.19641 0,44.18396 -0.12866,47.79973 -1.75,49.18219 -3.14676,2.68314 -33.80581,19.82011 -35.29677,19.72923 -0.79928,-0.0487 -8.47753,-4.21122 -17.06278,-9.25 z m 27.90165,-24.991 c 0.87966,-0.67072 1.19886,-3.03934 1,-7.42042 l -0.2921,-6.43522 -5.63767,-3.31496 -5.63768,-3.31495 -5.36232,3.21589 -5.36233,3.21589 -0.2851,6.94168 -0.2851,6.94167 5.7409,3.17154 5.74091,3.17155 4.5442,-2.59374 c 2.4993,-1.42656 5.12564,-3.03708 5.83629,-3.57893 z M 131.5,310.56198 c -8.8,-5.13765 -16.57155,-9.86707 -17.27011,-10.5098 -0.96541,-0.88826 -1.20531,-6.11003 -1,-21.76637 l 0.27011,-20.59776 17,-9.82759 c 9.35,-5.40518 17.82066,-9.83499 18.82368,-9.84403 1.61296,-0.0145 21.74082,11.08979 31.94613,17.62433 l 3.76981,2.41383 -0.26981,21.19347 -0.26981,21.19347 -16.9765,9.77923 c -9.33708,5.37858 -17.66208,9.75745 -18.5,9.73083 -0.83793,-0.0266 -8.7235,-4.25195 -17.5235,-9.38961 z m 191,-0.38118 -17,-9.76616 V 279.06572 257.7168 l 16.99188,-9.8584 c 9.34553,-5.42212 17.89553,-9.82471 19,-9.78354 1.10446,0.0412 9.43312,4.43557 18.50812,9.76532 l 16.5,9.69047 v 7.45213 7.45213 l -10.78929,6.37238 C 353.1542,286.22343 352,286.10925 352,277.45095 v -5.30417 l -5.4562,-3.12172 c -5.37075,-3.07283 -5.50778,-3.09537 -8.75,-1.439 -8.33626,4.25877 -8.91131,5.04621 -8.58892,11.76118 l 0.29512,6.14679 10,5.89247 c 21.7999,12.84553 23.87605,14.15468 24.23817,15.28373 0.40116,1.25081 -20.22086,13.29972 -22.73817,13.28531 -0.825,-0.005 -9.15,-4.40335 -18.5,-9.77474 z m 106.50407,6.25194 c -3.02276,-1.87458 -5.61791,-3.77426 -5.767,-4.22152 -0.14908,-0.44725 0.97409,-1.28073 2.49594,-1.85218 2.28618,-0.85846 3.54893,-0.61877 7.26699,1.37938 l 4.5,2.41838 15.25,-8.80676 15.25,-8.80675 -0.01,-18.02165 -0.01,-18.02164 -15.3427,-8.79961 -15.34271,-8.7996 -15.39727,8.90095 -15.39728,8.90095 V 278.60134 296.5 l 5.73837,3 c 9.10417,4.75962 9.20641,4.56813 9.5337,-17.85794 L 422.04413,263 H 425.02207 428 v 20.04545 c 0,19.9495 -0.0118,20.05721 -2.45455,22.5 -3.70023,3.70024 -9.27592,3.33664 -17.25442,-1.12519 -3.96609,-2.21796 -6.76063,-4.52519 -7.3461,-6.0651 -1.33505,-3.51144 -1.20834,-36.68294 0.15152,-39.66751 1.15531,-2.53561 30.99385,-20.59993 35.42652,-21.44729 1.64387,-0.31425 6.91562,2.17021 17.66022,8.32287 8.42424,4.82396 16.32931,9.67412 17.56681,10.77812 2.19321,1.95661 2.25,2.51854 2.25,22.26154 0,15.97881 -0.29404,20.54829 -1.39297,21.64723 -2.95706,2.95706 -33.43336,19.74573 -35.7075,19.67041 -1.31974,-0.0437 -4.8727,-1.61322 -7.89546,-3.48779 z M 17,284.61047 v -27.38952 l 18.10909,-10.28289 c 14.029928,-7.96663 18.478713,-10.06152 19.75,-9.3001 0.9025,0.54054 8.907825,5.14451 17.789611,10.23105 8.881785,5.08654 16.34198,10.00937 16.578211,10.93962 0.236232,0.93025 0.22394,13.27887 -0.02732,27.44137 -0.375685,21.17628 -0.705278,25.75 -1.8556,25.75 -0.769325,0 -6.111449,-2.7491 -11.871385,-6.10911 L 65,299.78177 v -13.38461 -13.38462 l -4.189339,-3.03474 c -6.163132,-4.46455 -8.014965,-4.63536 -13.533103,-1.24827 L 42.5,271.66204 42,285.28506 c -0.275,7.49266 -0.95,14.05807 -1.5,14.5898 C 38.489868,301.81823 20.060463,312 18.553015,312 17.186796,312 17,308.7056 17,284.61047 Z m 420.5,9.98702 c -4.05554,-1.79016 -6.28476,-4.49443 -6.67504,-8.09749 -0.28436,-2.62515 0.0186,-3.03953 2.42455,-3.31638 2.1642,-0.24902 2.95231,0.21702 3.70214,2.1892 C 438.2175,288.70227 440.89541,290 446.5,290 c 5.59639,0 8.5,-1.38688 8.5,-4.05993 0,-2.29324 -2.34874,-3.37058 -9.5,-4.35753 -8.87157,-1.22438 -11.56638,-2.49716 -13.11019,-6.19203 -1.23018,-2.94423 -1.22218,-3.85594 0.0608,-6.9265 2.01598,-4.82492 6.98555,-6.86336 15.13715,-6.20903 7.12356,0.57181 10.84164,2.66938 12.33744,6.96023 1.54702,4.43778 1.4056,4.78479 -1.94993,4.78479 -2.25973,0 -3.25204,-0.59781 -3.9234,-2.36362 C 452.97567,268.8058 451.15874,268 445.85247,268 441.20369,268 438,269.45105 438,271.55662 c 0,1.97504 2.98079,3.10375 11.91336,4.51115 8.75667,1.37969 12.08664,3.90452 12.08664,9.16427 0,6.89953 -5.70923,10.79657 -15.71788,10.72882 -3.18017,-0.0215 -7.13212,-0.63505 -8.78212,-1.36337 z m -100.25,-9.58653 c -2.8611,-1.74444 -3.25,-2.49964 -3.25,-6.31105 0,-4.00182 0.27783,-4.46197 3.67102,-6.08007 3.5058,-1.6718 3.82083,-1.6699 7,0.0422 3.02765,1.6305 3.32898,2.20802 3.32898,6.38016 0,4.26654 -0.24717,4.70525 -3.53393,6.2726 -4.25451,2.02883 -3.32612,2.06792 -7.21607,-0.30383 z m 149.02992,-32.03105 c -4.36417,-1.75607 -4.17149,-8.79702 0.29645,-10.83275 6.18299,-2.81716 11.27827,4.9982 6.42363,9.85284 -2.1749,2.1749 -3.33124,2.34352 -6.72008,0.97991 z M 490.36163,250.5 c -0.70033,-1.82502 -2.0147,-1.94675 -2.69935,-0.25 -0.27741,0.6875 -0.53991,-0.4688 -0.58333,-2.56955 -0.0704,-3.40748 0.16379,-3.78508 2.17105,-3.5 1.54013,0.21873 2.25,1.00091 2.25,2.47919 0,2.86363 1.28738,4.05803 2.09774,1.94624 0.84746,-2.20845 -2.41284,-5.78097 -4.92797,-5.3999 -1.06731,0.16171 -2.54869,1.21489 -3.29194,2.3404 -1.14967,1.74094 -1.121,2.37529 0.1921,4.25 1.76935,2.52609 5.71328,3.10523 4.7917,0.70362 z"
         id="path60" />
      <path
         style="fill:#cbe398"
         d="m 228.31753,311.66716 c -8.90037,-5.1206 -16.89681,-9.90303 -17.76987,-10.62761 -1.3727,-1.13924 -1.55089,-4.10465 -1.31753,-21.92576 l 0.26987,-20.60835 17.88897,-10.42755 17.88897,-10.42756 4.75841,2.67484 c 2.61712,1.47116 5.25459,2.67483 5.86103,2.67483 0.7747,0 1.10262,-7.593 1.10262,-25.53138 0,-20.1359 0.27704,-25.6377 1.31097,-26.03446 1.1399,-0.43742 18.99659,8.93575 22.43903,11.77849 0.96776,0.79916 1.25,11.68672 1.25,48.21867 0,36.21495 -0.29064,47.56463 -1.25,48.81301 -1.31522,1.71147 -33.77309,20.76385 -35.34032,20.74435 -0.50032,-0.006 -8.19179,-4.20091 -17.09215,-9.32152 z m 22.77276,-21.91716 5.94875,-3.25 -0.26952,-6.93349 -0.26952,-6.9335 -5.5,-3.23616 -5.5,-3.23617 -5.75,3.15048 -5.75,3.15049 v 7.06509 7.06509 l 5.25,3.11482 c 2.8875,1.71315 5.39435,3.15499 5.57077,3.20408 0.17642,0.0491 2.9977,-1.37323 6.26952,-3.16073 z M 131.5,310.56198 c -8.8,-5.13765 -16.57155,-9.86707 -17.27011,-10.5098 -0.96541,-0.88826 -1.20531,-6.11003 -1,-21.76637 l 0.27011,-20.59776 17,-9.82759 c 9.35,-5.40518 17.82066,-9.83499 18.82368,-9.84403 1.61296,-0.0145 21.74082,11.08979 31.94613,17.62433 l 3.76981,2.41383 -0.26981,21.19347 -0.26981,21.19347 -16.9765,9.77923 c -9.33708,5.37858 -17.66208,9.75745 -18.5,9.73083 -0.83793,-0.0266 -8.7235,-4.25195 -17.5235,-9.38961 z m 191,-0.44992 -17,-9.76259 v -21.2788 -21.2788 l 17,-9.86386 c 9.35,-5.42513 17.72333,-9.8783 18.6074,-9.89594 0.88407,-0.0176 9.20907,4.3906 18.5,9.79608 l 16.8926,9.82814 v 7.35566 7.35566 l -10.82874,6.32655 c -5.9558,3.4796 -11.2433,6.07033 -11.75,5.75718 C 353.41457,284.13818 353,281.46417 353,278.50908 c 0,-5.80876 -0.8589,-6.86841 -8.89684,-10.97631 -3.30009,-1.68655 -3.51371,-1.67191 -7.5,0.51418 C 329.57513,271.90114 329,272.72966 329,279 c 0,4.18562 0.46269,6.08339 1.75,7.17783 0.9625,0.8183 8.6125,5.42982 17,10.24782 10.07067,5.78486 15.24459,9.32283 15.23408,10.41718 -0.0162,1.68934 -19.53576,13.21975 -22.16732,13.09449 -0.72422,-0.0345 -8.96676,-4.45584 -18.31676,-9.82526 z m 106.50407,6.32068 c -3.02276,-1.87458 -5.61791,-3.77426 -5.767,-4.22152 -0.14908,-0.44725 0.97409,-1.28073 2.49594,-1.85218 2.28618,-0.85846 3.54893,-0.61877 7.26699,1.37938 l 4.5,2.41838 15.25,-8.80676 15.25,-8.80675 -0.01,-18.02165 -0.01,-18.02164 -15.3427,-8.79961 -15.34271,-8.7996 -15.39727,8.90095 -15.39728,8.90095 V 278.60134 296.5 l 5.73837,3 c 9.10417,4.75962 9.20641,4.56813 9.5337,-17.85794 L 422.04413,263 H 425.02207 428 v 20.04545 c 0,19.9495 -0.0118,20.05721 -2.45455,22.5 -3.70023,3.70024 -9.27592,3.33664 -17.25442,-1.12519 -3.96609,-2.21796 -6.76063,-4.52519 -7.3461,-6.0651 -1.33505,-3.51144 -1.20834,-36.68294 0.15152,-39.66751 1.15531,-2.53561 30.99385,-20.59993 35.42652,-21.44729 1.64387,-0.31425 6.91562,2.17021 17.66022,8.32287 8.42424,4.82396 16.32931,9.67412 17.56681,10.77812 2.19321,1.95661 2.25,2.51854 2.25,22.26154 0,15.97881 -0.29404,20.54829 -1.39297,21.64723 -2.95706,2.95706 -33.43336,19.74573 -35.7075,19.67041 -1.31974,-0.0437 -4.8727,-1.61322 -7.89546,-3.48779 z M 17.666667,311.33333 C 17.3,310.96667 17,298.88641 17,284.48832 c 0,-23.69398 0.166077,-26.32062 1.75,-27.6775 0.9625,-0.82454 9.088921,-5.66795 18.058714,-10.76313 L 53.117427,236.78371 71.058714,247.08897 89,257.39422 v 26.83427 c 0,20.97528 -0.281386,26.94226 -1.288752,27.32882 -0.708814,0.272 -6.108814,-2.27835 -12,-5.66744 L 65,299.72788 V 286.4029 c 0,-14.97564 -0.170334,-15.37221 -8.147737,-18.96952 -4.026474,-1.81569 -4.073712,-1.81247 -8.594335,0.58572 C 40.892608,271.92639 41,271.65309 41,286.48961 v 13.34675 l -10.599415,6.08182 c -10.899357,6.25392 -11.598033,6.55104 -12.733918,5.41515 z M 437.5,294.59749 c -4.05554,-1.79016 -6.28476,-4.49443 -6.67504,-8.09749 -0.28436,-2.62515 0.0186,-3.03953 2.42455,-3.31638 2.1642,-0.24902 2.95231,0.21702 3.70214,2.1892 C 438.2175,288.70227 440.89541,290 446.5,290 c 5.59639,0 8.5,-1.38688 8.5,-4.05993 0,-2.29324 -2.34874,-3.37058 -9.5,-4.35753 -8.87157,-1.22438 -11.56638,-2.49716 -13.11019,-6.19203 -1.23018,-2.94423 -1.22218,-3.85594 0.0608,-6.9265 2.01598,-4.82492 6.98555,-6.86336 15.13715,-6.20903 7.12356,0.57181 10.84164,2.66938 12.33744,6.96023 1.54702,4.43778 1.4056,4.78479 -1.94993,4.78479 -2.25973,0 -3.25204,-0.59781 -3.9234,-2.36362 C 452.97567,268.8058 451.15874,268 445.85247,268 441.20369,268 438,269.45105 438,271.55662 c 0,1.97504 2.98079,3.10375 11.91336,4.51115 8.75667,1.37969 12.08664,3.90452 12.08664,9.16427 0,6.89953 -5.70923,10.79657 -15.71788,10.72882 -3.18017,-0.0215 -7.13212,-0.63505 -8.78212,-1.36337 z m -100.25,-9.58653 c -2.8611,-1.74444 -3.25,-2.49964 -3.25,-6.31105 0,-4.00182 0.27783,-4.46197 3.67102,-6.08007 3.5058,-1.6718 3.82083,-1.6699 7,0.0422 3.02765,1.6305 3.32898,2.20802 3.32898,6.38016 0,4.26654 -0.24717,4.70525 -3.53393,6.2726 -4.25451,2.02883 -3.32612,2.06792 -7.21607,-0.30383 z m 149.02992,-32.03105 c -4.36417,-1.75607 -4.17149,-8.79702 0.29645,-10.83275 6.18299,-2.81716 11.27827,4.9982 6.42363,9.85284 -2.1749,2.1749 -3.33124,2.34352 -6.72008,0.97991 z M 490.36163,250.5 c -0.70033,-1.82502 -2.0147,-1.94675 -2.69935,-0.25 -0.27741,0.6875 -0.53991,-0.4688 -0.58333,-2.56955 -0.0704,-3.40748 0.16379,-3.78508 2.17105,-3.5 1.54013,0.21873 2.25,1.00091 2.25,2.47919 0,2.86363 1.28738,4.05803 2.09774,1.94624 0.84746,-2.20845 -2.41284,-5.78097 -4.92797,-5.3999 -1.06731,0.16171 -2.54869,1.21489 -3.29194,2.3404 -1.14967,1.74094 -1.121,2.37529 0.1921,4.25 1.76935,2.52609 5.71328,3.10523 4.7917,0.70362 z"
         id="path58" />
      <path
         style="fill:#bfdd80"
         d="m 228.31753,311.66716 c -8.90037,-5.1206 -16.89681,-9.90303 -17.76987,-10.62761 -1.3727,-1.13924 -1.55089,-4.10465 -1.31753,-21.92576 l 0.26987,-20.60835 17.88897,-10.42755 17.88897,-10.42756 4.75841,2.67484 c 2.61712,1.47116 5.25459,2.67483 5.86103,2.67483 0.7747,0 1.10262,-7.593 1.10262,-25.53138 0,-20.1359 0.27704,-25.6377 1.31097,-26.03446 1.1399,-0.43742 18.99659,8.93575 22.43903,11.77849 0.96776,0.79916 1.25,11.68672 1.25,48.21867 0,36.21495 -0.29064,47.56463 -1.25,48.81301 -1.31522,1.71147 -33.77309,20.76385 -35.34032,20.74435 -0.50032,-0.006 -8.19179,-4.20091 -17.09215,-9.32152 z m 22.77276,-21.91716 5.94875,-3.25 -0.26952,-6.93349 -0.26952,-6.9335 -5.5,-3.23616 -5.5,-3.23617 -5.75,3.15048 -5.75,3.15049 v 7.06509 7.06509 l 5.25,3.11482 c 2.8875,1.71315 5.39435,3.15499 5.57077,3.20408 0.17642,0.0491 2.9977,-1.37323 6.26952,-3.16073 z M 131.8644,310.67078 c -8.59958,-5.04393 -16.36208,-9.78838 -17.25,-10.54322 -1.38544,-1.17781 -1.61223,-4.15604 -1.59909,-21 0.008,-10.79516 0.34592,-20.14417 0.75,-20.77559 1.21743,-1.90238 33.86799,-20.35777 35.87346,-20.27711 1.02368,0.0412 9.28623,4.43557 18.36123,9.76532 l 16.5,9.69047 v 21.37627 21.37628 l -16.99188,9.8584 c -9.34553,5.42212 -17.67053,9.82275 -18.5,9.77918 -0.82946,-0.0436 -8.54414,-4.20607 -17.14372,-9.25 z m 190.6356,-0.55872 -17,-9.76259 v -21.2788 -21.2788 l 17,-9.86386 c 9.35,-5.42513 17.72333,-9.8783 18.6074,-9.89594 0.88407,-0.0176 9.20907,4.3906 18.5,9.79608 l 16.8926,9.82814 v 7.35566 7.35566 l -10.82874,6.32655 c -5.9558,3.4796 -11.2433,6.07033 -11.75,5.75718 C 353.41457,284.13818 353,281.46417 353,278.50908 c 0,-5.80876 -0.8589,-6.86841 -8.89684,-10.97631 -3.30009,-1.68655 -3.51371,-1.67191 -7.5,0.51418 C 329.57513,271.90114 329,272.72966 329,279 c 0,4.18562 0.46269,6.08339 1.75,7.17783 0.9625,0.8183 8.6125,5.42982 17,10.24782 10.07067,5.78486 15.24459,9.32283 15.23408,10.41718 -0.0162,1.68934 -19.53576,13.21975 -22.16732,13.09449 -0.72422,-0.0345 -8.96676,-4.45584 -18.31676,-9.82526 z m 107.17676,6.48689 c -3.20279,-1.83727 -5.7607,-3.73615 -5.68426,-4.21972 0.0764,-0.48358 1.12115,-1.40487 2.32158,-2.04732 1.82369,-0.97601 2.92284,-0.75285 6.68426,1.3571 l 4.50166,2.5252 15.25,-8.82728 15.25,-8.82727 v -18.07325 -18.07326 l -14.75,-8.45657 c -8.1125,-4.65112 -15.2,-8.55299 -15.75,-8.67082 -0.55,-0.11783 -7.75,3.73811 -16,8.56874 l -15,8.78297 -0.27301,17.66511 -0.27301,17.6651 4.77301,2.99716 c 5.10861,3.2079 8.14677,3.7614 10.07301,1.83516 0.8459,-0.8459 1.2,-6.6 1.2,-19.5 V 263 h 3 3 v 19.04966 c 0,23.71825 -0.80242,25.94969 -9.33179,25.95073 -1.74251,2.1e-4 -6.04473,-1.46229 -9.56048,-3.25 -4.77272,-2.42687 -6.73626,-4.06567 -7.75,-6.46827 -1.65239,-3.91624 -1.90868,-34.40321 -0.32734,-38.93946 0.8462,-2.4274 4.03473,-4.6886 17.83673,-12.64922 C 428.1106,241.36205 436.44495,237 437.3879,237 c 1.77559,0 31.76903,16.99138 34.8621,19.74949 1.55792,1.3892 1.75,3.78801 1.75,21.85461 v 20.29412 l -3.25,2.41759 c -5.94098,4.41935 -31.46036,18.68467 -33.37017,18.65391 -1.03391,-0.0166 -4.50029,-1.53349 -7.70307,-3.37077 z M 17.666667,311.33333 C 17.3,310.96667 17,298.88641 17,284.48832 c 0,-23.69398 0.166077,-26.32062 1.75,-27.6775 0.9625,-0.82454 9.088921,-5.66795 18.058714,-10.76313 L 53.117427,236.78371 71.058714,247.08897 89,257.39422 v 26.83427 c 0,20.97528 -0.281386,26.94226 -1.288752,27.32882 -0.708814,0.272 -6.108814,-2.27835 -12,-5.66744 L 65,299.72788 V 286.4029 c 0,-14.97564 -0.170334,-15.37221 -8.147737,-18.96952 -4.026474,-1.81569 -4.073712,-1.81247 -8.594335,0.58572 C 40.892608,271.92639 41,271.65309 41,286.48961 v 13.34675 l -10.599415,6.08182 c -10.899357,6.25392 -11.598033,6.55104 -12.733918,5.41515 z M 438.4449,294.93172 c -3.68472,-1.07088 -6.95419,-4.46504 -7.81564,-8.1137 -0.5144,-2.17873 -0.2223,-2.81241 1.55668,-3.37704 1.63634,-0.51935 2.64788,-0.0942 4.00163,1.68199 0.99645,1.30737 2.27963,2.93953 2.85151,3.62703 0.63353,0.76163 3.54176,1.25 7.44364,1.25 5.50401,0 6.62695,-0.31617 7.99138,-2.25 1.4744,-2.08968 1.44685,-2.36503 -0.38665,-3.86443 -1.08579,-0.88793 -4.69514,-1.92226 -8.02077,-2.29852 -9.16372,-1.03675 -12.07371,-2.35963 -13.68767,-6.22237 -1.21091,-2.89813 -1.20774,-3.83883 0.0229,-6.78419 1.75703,-4.20516 4.19614,-5.5803 11.17555,-6.30064 7.56544,-0.78082 13.68046,1.63658 15.88348,6.27909 1.8852,3.97278 1.38343,5.44106 -1.85945,5.44106 -1.4553,0 -2.68809,-0.89463 -3.40698,-2.47241 -1.30504,-2.86426 -4.11166,-3.78667 -10.17289,-3.34338 -2.74116,0.20047 -4.71209,0.94478 -5.39731,2.03827 -1.65941,2.64811 0.32183,3.88125 8.55817,5.3267 9.71078,1.7042 12.62077,2.92493 13.95545,5.85422 1.39553,3.06285 0.37615,8.84386 -1.9075,10.81771 -4.02444,3.47847 -13.77037,4.74942 -20.78554,2.71061 z M 337.19888,284.85259 c -2.96525,-1.89866 -3.27048,-2.52783 -3,-6.18379 0.25185,-3.40413 0.84241,-4.38511 3.6094,-5.99552 3.23176,-1.88092 3.38787,-1.88259 6.75,-0.072 3.0989,1.66887 3.44172,2.28053 3.44172,6.14078 0,3.76381 -0.39683,4.52925 -3.25,6.26886 -3.95288,2.41012 -3.52576,2.41908 -7.55112,-0.15837 z m 148.43598,-32.92517 c -3.07291,-2.41715 -3.41355,-5.91274 -0.80612,-8.27243 3.72607,-3.37205 10.19418,-0.87309 10.15595,3.92375 -0.0198,2.48536 -0.97038,3.85114 -3.66895,5.27156 -2.79792,1.4727 -2.59309,1.50598 -5.68088,-0.92288 z m 7.32996,-1.86168 C 493.53417,249.0019 494,247.68404 494,247.13717 494,245.4944 490.98538,243 489,243 c -2.17003,0 -5,2.54697 -5,4.5 0,4.05294 7.08386,6.08035 8.96482,2.56574 z m -5.89453,-2.38529 c -0.0624,-3.3931 0.17793,-3.78387 2.15289,-3.5 1.73451,0.24931 2.2583,1.03392 2.38298,3.56955 0.17287,3.51566 -0.95571,4.3193 -2.10651,1.5 -0.65574,-1.60648 -0.78177,-1.58597 -1.5367,0.25 -0.64339,1.56471 -0.83768,1.16869 -0.89266,-1.81955 z"
         id="path56" />
      <path
         style="fill:#b0b0b0"
         d="m 228.31753,311.66716 c -8.90037,-5.1206 -16.89681,-9.90303 -17.76987,-10.62761 -1.3727,-1.13924 -1.55089,-4.10465 -1.31753,-21.92576 l 0.26987,-20.60835 17.88897,-10.42755 17.88897,-10.42756 4.75841,2.67484 c 2.61712,1.47116 5.25459,2.67483 5.86103,2.67483 0.7747,0 1.10262,-7.593 1.10262,-25.53138 0,-20.1359 0.27704,-25.6377 1.31097,-26.03446 1.1399,-0.43742 18.99659,8.93575 22.43903,11.77849 0.96776,0.79916 1.25,11.68672 1.25,48.21867 0,36.21495 -0.29064,47.56463 -1.25,48.81301 -1.31522,1.71147 -33.77309,20.76385 -35.34032,20.74435 -0.50032,-0.006 -8.19179,-4.20091 -17.09215,-9.32152 z m 22.77276,-21.91716 5.94875,-3.25 -0.26952,-6.93349 -0.26952,-6.9335 -5.5,-3.23616 -5.5,-3.23617 -5.75,3.15048 -5.75,3.15049 v 7.06509 7.06509 l 5.25,3.11482 c 2.8875,1.71315 5.39435,3.15499 5.57077,3.20408 0.17642,0.0491 2.9977,-1.37323 6.26952,-3.16073 z m -119.20557,20.8939 c -8.58841,-5.02915 -16.35091,-9.7615 -17.25,-10.51634 -1.41184,-1.18533 -1.63263,-4.04849 -1.61941,-21 0.008,-10.79516 0.34592,-20.11673 0.75,-20.71462 C 114.79393,256.89098 147.61009,238 149.22532,238 c 0.72692,0 8.9611,4.40102 18.29818,9.78004 l 16.9765,9.78004 v 21.32329 21.32329 l -17,9.87748 c -9.35,5.43261 -17.675,9.83837 -18.5,9.79057 -0.825,-0.0478 -8.52688,-4.20167 -17.11528,-9.23081 z M 322.5,310.11206 l -17,-9.76259 v -21.2788 -21.2788 l 17,-9.86386 c 9.35,-5.42513 17.72333,-9.8783 18.6074,-9.89594 0.88407,-0.0176 9.20907,4.3906 18.5,9.79608 l 16.8926,9.82814 v 7.35566 7.35566 l -10.82874,6.32655 c -5.9558,3.4796 -11.2433,6.07033 -11.75,5.75718 C 353.41457,284.13818 353,281.46417 353,278.50908 c 0,-5.80876 -0.8589,-6.86841 -8.89684,-10.97631 -3.30009,-1.68655 -3.51371,-1.67191 -7.5,0.51418 C 329.57513,271.90114 329,272.72966 329,279 c 0,4.18562 0.46269,6.08339 1.75,7.17783 0.9625,0.8183 8.6125,5.42982 17,10.24782 10.07067,5.78486 15.24459,9.32283 15.23408,10.41718 -0.0162,1.68934 -19.53576,13.21975 -22.16732,13.09449 -0.72422,-0.0345 -8.96676,-4.45584 -18.31676,-9.82526 z m 106.71571,6.13602 c -5.59331,-3.31522 -6.09457,-3.86349 -4.55887,-4.98643 2.41782,-1.76795 4.23704,-1.58822 8.89511,0.87879 l 4.05196,2.146 15.44804,-8.96071 15.44805,-8.96071 0.24776,-16.93251 c 0.13628,-9.31288 -0.10657,-17.48091 -0.53965,-18.15118 -0.80456,-1.2452 -29.79147,-18.30143 -31.02698,-18.25663 -0.37462,0.0136 -7.43113,3.96298 -15.68113,8.77644 l -15,8.75175 -0.27301,17.7074 -0.27301,17.70739 4.77301,2.99716 c 5.26283,3.30474 9.7224,3.91241 10.66602,1.45337 0.33385,-0.86998 0.60699,-9.64498 0.60699,-19.5 L 422,263 h 3 3 v 19.06574 c 0,19.25203 -0.4331,21.98041 -3.91334,24.65246 -2.66369,2.04511 -8.29267,1.43685 -13.8353,-1.49502 -9.86494,-5.21825 -9.25343,-3.46613 -9.23605,-26.46339 0.008,-11.14289 0.34592,-20.75917 0.75,-21.36953 C 402.88066,255.70553 435.47417,237 437.29439,237 c 1.65375,0 31.88505,17.11182 34.95561,19.78593 1.55856,1.35732 1.75,3.73273 1.75,21.71407 0,17.96746 -0.19264,20.36181 -1.75,21.75051 -3.20289,2.85604 -33.11861,19.74971 -34.94883,19.73591 -0.99064,-0.007 -4.6291,-1.68972 -8.08546,-3.73834 z M 17.666667,311.33333 C 17.3,310.96667 17,298.88641 17,284.48832 c 0,-23.69398 0.166077,-26.32062 1.75,-27.6775 0.9625,-0.82454 9.088921,-5.66795 18.058714,-10.76313 L 53.117427,236.78371 71.058714,247.08897 89,257.39422 v 26.83427 c 0,20.97528 -0.281386,26.94226 -1.288752,27.32882 -0.708814,0.272 -6.108814,-2.27835 -12,-5.66744 L 65,299.72788 V 286.4029 c 0,-14.97564 -0.170334,-15.37221 -8.147737,-18.96952 -4.026474,-1.81569 -4.073712,-1.81247 -8.594335,0.58572 C 40.892608,271.92639 41,271.65309 41,286.48961 v 13.34675 l -10.599415,6.08182 c -10.899357,6.25392 -11.598033,6.55104 -12.733918,5.41515 z M 439.01582,294.97604 C 434.88631,294.00507 431,289.86859 431,286.44424 c 0,-3.42772 4.65161,-3.49076 5.94815,-0.0806 1.14485,3.0112 2.86043,3.63638 9.97865,3.63638 6.19916,0 9.70872,-2.18028 8.51538,-5.29009 C 454.84626,283.15697 447.33081,281 442.51588,281 436.36812,281 432,277.41227 432,272.36283 c 0,-4.92393 1.34212,-6.88244 5.99106,-8.74258 9.65324,-3.86246 21.16334,-0.031 22.16951,7.37975 0.28318,2.08567 -0.11633,2.55244 -2.41057,2.81642 -1.5125,0.17403 -2.75,-0.16347 -2.75,-0.75 C 455,270.21584 450.93257,268 445.7,268 c -5.50475,0 -7.7,1.1772 -7.7,4.1291 0,1.70574 0.60628,1.8956 14.5,4.54065 7.4214,1.41286 10.52268,5.11942 9.08297,10.85569 -1.71382,6.82839 -11.48848,10.05553 -22.56715,7.4506 z M 337.19847,284.79501 c -2.97674,-1.83869 -3.27187,-2.44053 -3,-6.11779 0.24891,-3.36668 0.85093,-4.39819 3.44951,-5.91032 2.99741,-1.74422 3.32028,-1.74968 6.75,-0.11416 3.29826,1.57283 3.60202,2.07468 3.60202,5.95091 0,3.7277 -0.40221,4.48181 -3.36803,6.31479 -3.93646,2.43286 -3.27726,2.44381 -7.4335,-0.12343 z m 147.45652,-33.62375 c -2.1712,-2.39914 -2.10048,-5.45812 0.17375,-7.51627 3.79797,-3.43712 10.17126,-0.86661 10.17126,4.10232 0,4.7996 -7.00034,7.10977 -10.34501,3.41395 z m 8.41271,-1.29775 c 2.65339,-4.95792 -3.49307,-9.30529 -7.49627,-5.30208 -1.84273,1.84273 -1.94264,2.86643 -0.53625,5.49431 1.4562,2.72092 6.53854,2.59929 8.03252,-0.19223 z M 487.116,247.75 c -0.0944,-3.0519 0.23595,-3.75 1.77459,-3.75 1.41619,0 1.99313,0.87826 2.2992,3.5 0.22474,1.925 0.049,3.5 -0.39059,3.5 -0.43956,0 -0.7992,-0.675 -0.7992,-1.5 0,-2.07741 -1.75199,-1.88786 -2.31067,0.25 -0.25153,0.9625 -0.50953,0.0625 -0.57333,-2 z"
         id="path54" />
      <path
         style="fill:#b1d666"
         d="M 228,311.40063 C 218.925,306.15637 210.9375,301.13484 210.25,300.24168 209.35022,299.07273 209,293.26143 209,279.5 c 0,-13.78332 0.34879,-19.55941 1.25,-20.70063 1.02234,-1.29459 23.07347,-14.40126 32.72078,-19.44845 2.19821,-1.15004 3.05149,-0.9649 7.73485,1.67822 2.89524,1.63397 5.49589,2.97086 5.77922,2.97086 0.28333,0 0.51515,-11.65186 0.51515,-25.89301 0,-20.78376 0.26574,-25.99499 1.34673,-26.4098 1.53127,-0.58761 20.49609,9.64202 22.40327,12.08434 0.95923,1.22838 1.25,12.44467 1.25,48.21847 0,35.79084 -0.29031,46.98209 -1.25,48.18652 -1.30515,1.638 -34.05848,20.83748 -35.45183,20.7813 -0.43899,-0.0177 -8.22317,-4.32294 -17.29817,-9.56719 z m 23.12313,-21.63145 5.87687,-3.23083 -0.0119,-7.01917 -0.0119,-7.01918 -5.90759,-3.24458 -5.90759,-3.24459 -5.58054,3.2053 -5.58055,3.2053 v 7.19276 7.19277 l 5.25,3.04026 c 2.8875,1.67215 5.41791,3.06559 5.62313,3.09653 0.20523,0.0309 3.01773,-1.39762 6.25,-3.17457 z M 131.88472,310.6439 c -8.58841,-5.02915 -16.35091,-9.7615 -17.25,-10.51634 -1.41184,-1.18533 -1.63263,-4.04849 -1.61941,-21 0.008,-10.79516 0.34592,-20.11673 0.75,-20.71462 C 114.79393,256.89098 147.61009,238 149.22532,238 c 0.72692,0 8.9611,4.40102 18.29818,9.78004 l 16.9765,9.78004 v 21.32329 21.32329 l -17,9.87748 c -9.35,5.43261 -17.675,9.83837 -18.5,9.79057 -0.825,-0.0478 -8.52688,-4.20167 -17.11528,-9.23081 z m 191.56802,-0.26417 c -9.32401,-5.29449 -17.28335,-10.13336 -17.68743,-10.75304 -0.40408,-0.61968 -0.73468,-9.90169 -0.73468,-20.62669 0,-10.725 0.3306,-19.99046 0.73468,-20.58992 1.00497,-1.49088 33.94525,-20.41484 35.49373,-20.39089 0.68253,0.0106 8.89096,4.46224 18.24096,9.89262 l 17,9.87343 0.29285,7.0596 0.29284,7.05961 -10.29284,6.0379 c -5.66107,3.32085 -11.08035,6.04234 -12.04285,6.04777 -1.46628,0.008 -1.75,-0.9287 -1.75,-5.7794 v -5.78929 l -5.58998,-3.21071 C 344.33554,267.44482 341.40372,266 340.89488,266 c -0.50885,0 -3.39336,1.39296 -6.41003,3.09546 L 329,272.19092 v 6.77771 6.77772 l 17.04403,9.77891 c 11.81945,6.78134 16.95282,10.25257 16.74646,11.32411 -0.2703,1.40358 -16.40144,11.2576 -20.62135,12.59695 -1.11732,0.35462 -7.97644,-2.96807 -18.7164,-9.06659 z m 105.76297,5.86835 c -5.59331,-3.31522 -6.09457,-3.86349 -4.55887,-4.98643 2.41782,-1.76795 4.23704,-1.58822 8.89511,0.87879 l 4.05196,2.146 15.44804,-8.96071 15.44805,-8.96071 0.24776,-16.93251 c 0.13628,-9.31288 -0.10657,-17.48091 -0.53965,-18.15118 -0.80456,-1.2452 -29.79147,-18.30143 -31.02698,-18.25663 -0.37462,0.0136 -7.43113,3.96298 -15.68113,8.77644 l -15,8.75175 -0.27301,17.7074 -0.27301,17.70739 4.77301,2.99716 c 5.26283,3.30474 9.7224,3.91241 10.66602,1.45337 0.33385,-0.86998 0.60699,-9.64498 0.60699,-19.5 V 263 h 3 3 v 19.06574 c 0,19.25203 -0.4331,21.98041 -3.91334,24.65246 -2.66369,2.04511 -8.29267,1.43685 -13.8353,-1.49502 -9.86494,-5.21825 -9.25343,-3.46613 -9.23605,-26.46339 0.008,-11.14289 0.34592,-20.75917 0.75,-21.36953 C 402.88066,255.70553 435.47417,237 437.29439,237 c 1.65375,0 31.88505,17.11182 34.95561,19.78593 1.55856,1.35732 1.75,3.73273 1.75,21.71407 0,17.96746 -0.19264,20.36181 -1.75,21.75051 -3.20289,2.85604 -33.11861,19.74971 -34.94883,19.73591 -0.99064,-0.007 -4.6291,-1.68972 -8.08546,-3.73834 z M 17.666667,311.33333 C 17.3,310.96667 17,298.87177 17,284.45578 17,264.7068 17.308169,257.98923 18.25,257.20789 21.624279,254.4086 51.454853,238 53.169637,238 54.930896,238 79.291492,251.42945 86.25,256.23646 l 2.75,1.89973 v 26.37289 c 0,16.46657 -0.374843,26.60455 -0.997919,26.98963 -1.037672,0.64132 -20.088225,-9.69265 -21.905954,-11.88288 -0.569532,-0.68625 -1.161651,-7.26417 -1.31582,-14.61762 L 64.5,271.62831 60,268.89276 C 54.521764,265.56254 53.007954,265.44513 48.064492,267.9671 41.056523,271.5423 41,271.69042 41,286.48005 v 13.33719 l -10.837426,6.09138 c -11.510681,6.4698 -11.468944,6.45168 -12.495907,5.42471 z M 439.01582,294.97604 C 434.88631,294.00507 431,289.86859 431,286.44424 c 0,-3.42772 4.65161,-3.49076 5.94815,-0.0806 1.14485,3.0112 2.86043,3.63638 9.97865,3.63638 6.19916,0 9.70872,-2.18028 8.51538,-5.29009 C 454.84626,283.15697 447.33081,281 442.51588,281 436.36812,281 432,277.41227 432,272.36283 c 0,-4.92393 1.34212,-6.88244 5.99106,-8.74258 9.65324,-3.86246 21.16334,-0.031 22.16951,7.37975 0.28318,2.08567 -0.11633,2.55244 -2.41057,2.81642 -1.5125,0.17403 -2.75,-0.16347 -2.75,-0.75 C 455,270.21584 450.93257,268 445.7,268 c -5.50475,0 -7.7,1.1772 -7.7,4.1291 0,1.70574 0.60628,1.8956 14.5,4.54065 7.4214,1.41286 10.52268,5.11942 9.08297,10.85569 -1.71382,6.82839 -11.48848,10.05553 -22.56715,7.4506 z M 337.19847,284.79501 c -2.97674,-1.83869 -3.27187,-2.44053 -3,-6.11779 0.24891,-3.36668 0.85093,-4.39819 3.44951,-5.91032 2.99741,-1.74422 3.32028,-1.74968 6.75,-0.11416 3.29826,1.57283 3.60202,2.07468 3.60202,5.95091 0,3.7277 -0.40221,4.48181 -3.36803,6.31479 -3.93646,2.43286 -3.27726,2.44381 -7.4335,-0.12343 z m 147.45652,-33.62375 c -2.1712,-2.39914 -2.10048,-5.45812 0.17375,-7.51627 3.79797,-3.43712 10.17126,-0.86661 10.17126,4.10232 0,4.7996 -7.00034,7.10977 -10.34501,3.41395 z m 8.41271,-1.29775 c 2.65339,-4.95792 -3.49307,-9.30529 -7.49627,-5.30208 -1.84273,1.84273 -1.94264,2.86643 -0.53625,5.49431 1.4562,2.72092 6.53854,2.59929 8.03252,-0.19223 z M 487.116,247.75 c -0.0944,-3.0519 0.23595,-3.75 1.77459,-3.75 1.41619,0 1.99313,0.87826 2.2992,3.5 0.22474,1.925 0.049,3.5 -0.39059,3.5 -0.43956,0 -0.7992,-0.675 -0.7992,-1.5 0,-2.07741 -1.75199,-1.88786 -2.31067,0.25 -0.25153,0.9625 -0.50953,0.0625 -0.57333,-2 z"
         id="path52" />
      <path
         style="fill:#a7d150"
         d="M 228,311.40063 C 218.925,306.15637 210.9375,301.13484 210.25,300.24168 209.35022,299.07273 209,293.26143 209,279.5 c 0,-13.78332 0.34879,-19.55941 1.25,-20.70063 1.02234,-1.29459 23.07347,-14.40126 32.72078,-19.44845 2.19821,-1.15004 3.05149,-0.9649 7.73485,1.67822 2.89524,1.63397 5.49589,2.97086 5.77922,2.97086 0.28333,0 0.51515,-11.65186 0.51515,-25.89301 0,-20.78376 0.26574,-25.99499 1.34673,-26.4098 1.53127,-0.58761 20.49609,9.64202 22.40327,12.08434 0.95923,1.22838 1.25,12.44467 1.25,48.21847 0,35.79084 -0.29031,46.98209 -1.25,48.18652 -1.30515,1.638 -34.05848,20.83748 -35.45183,20.7813 -0.43899,-0.0177 -8.22317,-4.32294 -17.29817,-9.56719 z m 23.12313,-21.63145 5.87687,-3.23083 -0.0119,-7.01917 -0.0119,-7.01918 -5.90759,-3.24458 -5.90759,-3.24459 -5.58054,3.2053 -5.58055,3.2053 v 7.19276 7.19277 l 5.25,3.04026 c 2.8875,1.67215 5.41791,3.06559 5.62313,3.09653 0.20523,0.0309 3.01773,-1.39762 6.25,-3.17457 z m -118.8056,20.89798 c -8.90037,-5.1206 -16.88787,-9.89561 -17.75,-10.61112 C 113.24112,298.95522 113,295.72136 113,279.03254 c 0,-17.52867 0.19467,-19.89428 1.75,-21.26623 2.6013,-2.29458 33.18049,-19.76896 34.56119,-19.74988 0.65385,0.009 8.83881,4.43886 18.18881,9.84406 l 17,9.82763 0.26959,21.05299 0.26959,21.05298 -17.4587,10.10296 c -9.60228,5.55662 -17.8236,10.09786 -18.26959,10.09163 -0.44599,-0.006 -8.093,-4.20091 -16.99336,-9.32152 z m 191.13521,-0.28743 c -9.32401,-5.29449 -17.28335,-10.13336 -17.68743,-10.75304 -0.40408,-0.61968 -0.73468,-9.90169 -0.73468,-20.62669 0,-10.725 0.3306,-19.99046 0.73468,-20.58992 1.00497,-1.49088 33.94525,-20.41484 35.49373,-20.39089 0.68253,0.0106 8.89096,4.46224 18.24096,9.89262 l 17,9.87343 0.29285,7.0596 0.29284,7.05961 -10.29284,6.0379 c -5.66107,3.32085 -11.08035,6.04234 -12.04285,6.04777 -1.46628,0.008 -1.75,-0.9287 -1.75,-5.7794 v -5.78929 l -5.58998,-3.21071 C 344.33554,267.44482 341.40372,266 340.89488,266 c -0.50885,0 -3.39336,1.39296 -6.41003,3.09546 L 329,272.19092 v 6.77771 6.77772 l 17.04403,9.77891 c 11.81945,6.78134 16.95282,10.25257 16.74646,11.32411 -0.2703,1.40358 -16.40144,11.2576 -20.62135,12.59695 -1.11732,0.35462 -7.97644,-2.96807 -18.7164,-9.06659 z m 105.61161,5.63079 -6.43566,-3.91885 2.75076,-1.04584 c 3.61126,-1.37299 3.47941,-1.39095 8.21964,1.11962 l 4.09909,2.171 15.40091,-8.94237 L 468.5,296.4517 v -17.92552 -17.92552 l -15,-8.75713 c -8.25,-4.81643 -15.39205,-8.77658 -15.87123,-8.80033 -0.47917,-0.0238 -7.78739,3.8943 -16.24047,8.7068 l -15.36925,8.75 -0.009,18 -0.009,18 5.01225,2.81514 c 2.99413,1.68166 6.11416,2.68826 7.74899,2.5 L 421.5,301.5 l 0.27182,-19.31432 0.27182,-19.31431 2.72818,0.31431 L 427.5,263.5 v 19.83808 19.83808 l -2.80576,2.41192 C 423.08476,306.97163 420.61616,308 418.9044,308 c -3.27745,0 -9.60007,-2.87566 -14.6544,-6.66511 L 401,298.89822 V 278.6041 c 0,-18.06661 0.19208,-20.4654 1.75,-21.85458 2.29615,-2.04745 30.50008,-18.37673 33.24507,-19.24795 1.5894,-0.50446 6.39486,1.75756 19.06257,8.97313 9.3156,5.30619 17.38856,10.49052 17.93991,11.52072 0.5688,1.06281 1.00245,10.07287 1.00245,20.82805 0,16.61121 -0.21638,19.20634 -1.75,20.98794 -2.18715,2.54082 -32.99955,20.20134 -35.16154,20.15328 -0.87365,-0.0194 -4.4845,-1.79879 -8.02411,-3.95417 z M 17.666667,311.33333 C 17.3,310.96667 17,298.87177 17,284.45578 17,264.7068 17.308169,257.98923 18.25,257.20789 21.624279,254.4086 51.454853,238 53.169637,238 54.930896,238 79.291492,251.42945 86.25,256.23646 l 2.75,1.89973 v 26.37289 c 0,16.46657 -0.374843,26.60455 -0.997919,26.98963 -1.037672,0.64132 -20.088225,-9.69265 -21.905954,-11.88288 -0.569532,-0.68625 -1.161651,-7.26417 -1.31582,-14.61762 L 64.5,271.62831 60,268.89276 C 54.521764,265.56254 53.007954,265.44513 48.064492,267.9671 41.056523,271.5423 41,271.69042 41,286.48005 v 13.33719 l -10.837426,6.09138 c -11.510681,6.4698 -11.468944,6.45168 -12.495907,5.42471 z M 438.5,294.49367 c -4.65787,-1.65184 -7.5,-4.72304 -7.5,-8.10445 0,-3.37783 4.666,-3.39791 5.94815,-0.0256 1.14744,3.018 2.85854,3.63638 10.06221,3.63638 5.97846,0 8.98964,-1.53843 8.98964,-4.59287 0,-1.94566 -3.11464,-3.12241 -11.4683,-4.33288 -8.84269,-1.28132 -11.93218,-3.45827 -12.32758,-8.68641 -0.21555,-2.85006 0.26068,-4.50962 1.75407,-6.11259 4.16121,-4.46653 16.15336,-5.39786 21.80686,-1.69354 2.43429,1.59501 5.44239,7.27362 4.58656,8.65838 -1.16346,1.88252 -4.94256,0.58744 -6.5551,-2.24641 C 452.20932,268.20438 451.69387,268 446.24651,268 440.22766,268 438,269.11636 438,272.13261 c 0,2.00739 1.09349,2.41831 10.2424,3.84899 8.70469,1.36121 11.35378,2.62928 12.80329,6.12871 4.04149,9.75702 -9.29539,17.08239 -22.54569,12.38336 z M 337.25,284.8251 c -2.75036,-1.70032 -3.25,-2.59745 -3.25,-5.83559 0,-3.29614 0.48623,-4.1269 3.50873,-5.9949 3.47298,-2.14643 3.54174,-2.1493 6.75,-0.2822 2.69962,1.5711 3.29173,2.5693 3.54321,5.97329 0.27425,3.7121 -0.0117,4.28085 -3.11803,6.20064 -3.99198,2.46717 -3.33532,2.47258 -7.43391,-0.0612 z m 147.08254,-34.44033 c -1.53476,-2.34235 -1.55996,-2.89016 -0.24151,-5.25 C 486.86934,240.162 495,241.92485 495,247.5 c 0,5.37967 -7.67313,7.45469 -10.66746,2.88477 z m 9.01251,-0.55711 C 495.14591,246.95051 492.63185,243 489,243 c -3.82377,0 -5.86772,3.51014 -4.03644,6.93191 1.40543,2.62606 6.71386,2.56004 8.38149,-0.10425 z M 487.116,247.75 c -0.0966,-3.122 0.21893,-3.75 1.884,-3.75 1.66507,0 1.98057,0.628 1.884,3.75 -0.0638,2.0625 -0.3218,2.9625 -0.57333,2 C 490.05915,248.7875 489.46934,248 489,248 c -0.46934,0 -1.05915,0.7875 -1.31067,1.75 -0.25153,0.9625 -0.50953,0.0625 -0.57333,-2 z M 490,246 c 0,-0.55 -0.45,-1 -1,-1 -0.55,0 -1,0.45 -1,1 0,0.55 0.45,1 1,1 0.55,0 1,-0.45 1,-1 z"
         id="path50" />
      <path
         style="fill:#979797"
         d="M 228,311.40063 C 218.925,306.15637 210.9375,301.13484 210.25,300.24168 209.35022,299.07273 209,293.26143 209,279.5 c 0,-13.78332 0.34879,-19.55941 1.25,-20.70063 1.02234,-1.29459 23.07347,-14.40126 32.72078,-19.44845 2.19821,-1.15004 3.05149,-0.9649 7.73485,1.67822 2.89524,1.63397 5.49589,2.97086 5.77922,2.97086 0.28333,0 0.51515,-11.65186 0.51515,-25.89301 0,-20.78376 0.26574,-25.99499 1.34673,-26.4098 1.53127,-0.58761 20.49609,9.64202 22.40327,12.08434 0.95923,1.22838 1.25,12.44467 1.25,48.21847 0,35.79084 -0.29031,46.98209 -1.25,48.18652 -1.30515,1.638 -34.05848,20.83748 -35.45183,20.7813 -0.43899,-0.0177 -8.22317,-4.32294 -17.29817,-9.56719 z m 23.12313,-21.63145 5.87687,-3.23083 -0.0119,-7.01917 -0.0119,-7.01918 -5.90759,-3.24458 -5.90759,-3.24459 -5.58054,3.2053 -5.58055,3.2053 v 7.19276 7.19277 l 5.25,3.04026 c 2.8875,1.67215 5.41791,3.06559 5.62313,3.09653 0.20523,0.0309 3.01773,-1.39762 6.25,-3.17457 z M 132,310.45456 c -9.075,-5.22984 -17.0625,-10.25761 -17.75,-11.17281 -0.8961,-1.1929 -1.25,-6.95776 -1.25,-20.3621 0,-16.37382 0.21753,-18.94842 1.75,-20.71201 1.95996,-2.25556 32.69511,-20.2155 34.55774,-20.19366 0.65575,0.008 8.84226,4.45315 18.19226,9.87881 l 17,9.86483 0.26955,21.00642 0.26956,21.00642 -17.48688,10.11477 c -9.61778,5.56312 -17.83908,10.10653 -18.26955,10.09646 -0.43047,-0.0101 -8.20768,-4.29728 -17.28268,-9.52713 z m 191.45274,-0.0748 c -9.32401,-5.29449 -17.28335,-10.13336 -17.68743,-10.75304 -0.40408,-0.61968 -0.73468,-9.90169 -0.73468,-20.62669 0,-10.725 0.3306,-19.99046 0.73468,-20.58992 1.00497,-1.49088 33.94525,-20.41484 35.49373,-20.39089 0.68253,0.0106 8.89096,4.46224 18.24096,9.89262 l 17,9.87343 0.29285,7.0596 0.29284,7.05961 -10.29284,6.0379 c -5.66107,3.32085 -11.08035,6.04234 -12.04285,6.04777 -1.46628,0.008 -1.75,-0.9287 -1.75,-5.7794 v -5.78929 l -5.58998,-3.21071 C 344.33554,267.44482 341.40372,266 340.89488,266 c -0.50885,0 -3.39336,1.39296 -6.41003,3.09546 L 329,272.19092 v 6.77771 6.77772 l 17.04403,9.77891 c 11.81945,6.78134 16.95282,10.25257 16.74646,11.32411 -0.2703,1.40358 -16.40144,11.2576 -20.62135,12.59695 -1.11732,0.35462 -7.97644,-2.96807 -18.7164,-9.06659 z m 109.4592,7.71306 c -1.95714,-1.04896 -5.00539,-2.78716 -6.7739,-3.86265 l -3.21545,-1.95543 2.88947,-1.19686 c 2.47739,-1.02617 3.5404,-0.88062 7.45369,1.02061 l 4.56422,2.21746 15.33501,-8.92763 15.33502,-8.92764 v -17.97172 -17.97172 l -15,-8.71144 c -8.25,-4.79129 -15.42557,-8.73266 -15.9457,-8.7586 -0.52014,-0.0259 -7.82655,3.89033 -16.23648,8.70283 l -15.29076,8.75 -0.0125,18 -0.0125,18 5.01225,2.81514 c 2.99413,1.68166 6.11416,2.68826 7.74899,2.5 L 421.5,301.5 l 0.27182,-19.31432 0.27182,-19.31431 2.72818,0.31431 L 427.5,263.5 v 19.83808 19.83808 l -2.80576,2.41192 C 423.08476,306.97163 420.61616,308 418.9044,308 c -3.27745,0 -9.60007,-2.87566 -14.6544,-6.66511 L 401,298.89822 V 278.6041 c 0,-18.06507 0.19222,-20.46597 1.75,-21.85864 2.20227,-1.96884 30.73188,-18.44624 33.41061,-19.29643 2.34951,-0.74571 35.29642,17.66791 36.86848,20.60533 0.534,0.99779 0.97091,10.34389 0.97091,20.76911 0,16.61444 -0.21609,19.20494 -1.75,20.97947 C 470.39951,301.94371 439.36982,320 437.54141,320 c -0.58906,0 -2.67233,-0.85824 -4.62947,-1.90721 z M 17.666667,311.33333 C 17.3,310.96667 17,298.87177 17,284.45578 17,264.7068 17.308169,257.98923 18.25,257.20789 21.624279,254.4086 51.454853,238 53.169637,238 54.930896,238 79.291492,251.42945 86.25,256.23646 l 2.75,1.89973 v 26.37289 c 0,16.46657 -0.374843,26.60455 -0.997919,26.98963 -1.037672,0.64132 -20.088225,-9.69265 -21.905954,-11.88288 -0.569532,-0.68625 -1.161651,-7.26417 -1.31582,-14.61762 L 64.5,271.62831 60,268.89276 C 54.521764,265.56254 53.007954,265.44513 48.064492,267.9671 41.056523,271.5423 41,271.69042 41,286.48005 v 13.33719 l -10.837426,6.09138 c -11.510681,6.4698 -11.468944,6.45168 -12.495907,5.42471 z M 438.5,294.5546 c -4.6768,-1.7298 -7.5,-4.80346 -7.5,-8.16538 0,-1.88183 0.53091,-2.38922 2.5,-2.38922 1.375,0 2.5,0.45 2.5,1 0,0.55 0.9,1.9 2,3 2.59964,2.59964 13.96112,2.89603 16.42857,0.42857 3.83397,-3.83397 1.27506,-5.73548 -9.89687,-7.35432 -8.73313,-1.26545 -11.92194,-3.4701 -12.34886,-8.53765 -0.59412,-7.05211 6.87646,-11.4038 17.15107,-9.99068 5.92886,0.81543 10.66609,4.75812 10.66609,8.87716 0,3.78625 -3.96066,3.5121 -6.20349,-0.4294 C 452.23061,268.2418 451.65163,268 446.6283,268 439.6344,268 438,268.67048 438,271.5396 c 0,2.64949 0.71143,2.95295 10.5,4.47883 11.11138,1.73209 14.66313,5.15604 12.57571,12.12321 -0.79982,2.66957 -2.10841,4.34103 -4.27626,5.46207 -4.4088,2.27988 -13.4378,2.74905 -18.29945,0.95089 z M 336.75,284.42803 c -2.27237,-1.23279 -2.75,-2.16693 -2.75,-5.37841 0,-3.36487 0.47093,-4.17755 3.50873,-6.05501 3.47298,-2.14643 3.54174,-2.1493 6.75,-0.2822 2.71279,1.57876 3.29098,2.56242 3.54613,6.03291 0.27448,3.73338 0.005,4.30144 -2.70034,5.70063 -3.66806,1.89683 -4.82967,1.89434 -8.35452,-0.0179 z m 147.58254,-34.04326 c -1.53464,-2.34215 -1.55989,-2.89035 -0.24186,-5.25 2.02435,-3.62415 7.08457,-4.15035 9.31326,-0.96846 0.87783,1.25329 1.57845,2.96607 1.55692,3.8062 -0.0215,0.84012 -0.67481,0.065 -1.45173,-1.72251 -1.15357,-2.65407 -1.97546,-3.25 -4.48229,-3.25 -3.81934,0 -5.90202,3.4962 -4.09454,6.87351 1.28892,2.40837 5.80189,2.89856 8.06947,0.87649 1.19253,-1.06341 1.20411,-0.98877 0.0776,0.5 -2.04132,2.69768 -6.71522,2.23534 -8.74679,-0.86523 z m 2.78346,-2.70809 c -0.0951,-3.13379 0.19961,-3.76354 1.634,-3.49181 1.22525,0.2321 1.80257,1.37855 1.92531,3.82332 0.0964,1.9205 -0.0491,2.70431 -0.32333,1.74181 C 490.07774,248.7875 489.46934,248 489,248 c -0.46934,0 -1.05915,0.7875 -1.31067,1.75 -0.25153,0.9625 -0.50953,0.0295 -0.57333,-2.07332 z M 490,246 c 0,-0.55 -0.45,-1 -1,-1 -0.55,0 -1,0.45 -1,1 0,0.55 0.45,1 1,1 0.55,0 1,-0.45 1,-1 z"
         id="path48" />
      <path
         style="fill:#9fcd40"
         d="m 241.40053,318.81879 c -11.42782,-6.12463 -30.06239,-17.27255 -31.15053,-18.63544 -1.97424,-2.47272 -1.75771,-39.53278 0.24266,-41.53316 2.53938,-2.53937 33.13541,-19.65049 35.12693,-19.64507 1.03423,0.003 3.68041,1.11378 5.88041,2.46879 2.2,1.35502 4.3375,2.47772 4.75,2.49488 0.4125,0.0172 0.75,-11.38869 0.75,-25.34635 0,-19.08399 0.31,-25.63394 1.25,-26.4114 0.90711,-0.75025 4.19886,0.61239 12,4.96746 l 10.75,6.00131 v 48.71067 48.71067 l -15.75,9.0793 c -21.61616,12.46092 -19.30343,11.57475 -23.84947,9.13834 z M 251.41002,289.78928 257,286.57857 v -7.05846 -7.05846 l -5.97956,-3.28728 -5.97956,-3.28728 -5.77044,3.37181 -5.77044,3.37181 v 6.87224 6.87224 l 5.5,3.30827 c 3.025,1.81955 5.79701,3.31013 6.16002,3.3124 0.36302,0.002 3.17552,-1.44068 6.25,-3.20658 z M 132,310.45456 c -9.075,-5.22984 -17.0625,-10.25761 -17.75,-11.17281 -0.8961,-1.1929 -1.25,-6.95776 -1.25,-20.3621 0,-16.37382 0.21753,-18.94842 1.75,-20.71201 1.95996,-2.25556 32.69511,-20.2155 34.55774,-20.19366 0.65575,0.008 8.84226,4.45315 18.19226,9.87881 l 17,9.86483 0.26955,21.00642 0.26956,21.00642 -17.48688,10.11477 c -9.61778,5.56312 -17.83908,10.10653 -18.26955,10.09646 -0.43047,-0.0101 -8.20768,-4.29728 -17.28268,-9.52713 z m 191.5,-0.13905 c -9.35,-5.32059 -17.33061,-10.15568 -17.73469,-10.74465 -0.40408,-0.58897 -0.74158,-9.88862 -0.75,-20.66587 -0.0136,-17.42745 0.17827,-19.7633 1.73469,-21.11633 C 309.05111,255.78825 340.04701,238 341.23161,238 c 1.3482,0 34.14103,19.11378 35.00308,20.40206 0.40408,0.60387 0.74158,3.86907 0.75,7.256 l 0.0153,6.15806 -10.42244,6.09194 C 360.84522,281.25863 355.46669,284 354.62528,284 c -1.17203,0 -1.59948,-1.41707 -1.82756,-6.05874 l -0.29772,-6.05873 -5.79531,-3.19127 -5.79532,-3.19126 -5.70468,3.15579 -5.70469,3.1558 -0.29164,6.98659 -0.29163,6.98659 17.06782,9.85236 c 10.87329,6.27657 16.96759,10.36577 16.79164,11.26697 -0.22533,1.15412 -20.06883,13.07609 -21.77619,13.08313 -0.275,10e-4 -8.15,-4.35114 -17.5,-9.67172 z m 109.41194,7.77728 c -1.95714,-1.04896 -5.00539,-2.78716 -6.7739,-3.86265 l -3.21545,-1.95543 2.88947,-1.19686 c 2.47739,-1.02617 3.5404,-0.88062 7.45369,1.02061 l 4.56422,2.21746 15.33501,-8.92763 15.33502,-8.92764 v -17.97172 -17.97172 l -15,-8.71144 c -8.25,-4.79129 -15.42557,-8.73266 -15.9457,-8.7586 -0.52014,-0.0259 -7.82655,3.89033 -16.23648,8.70283 l -15.29076,8.75 -0.0125,18 -0.0125,18 5.01225,2.81514 c 2.99413,1.68166 6.11416,2.68826 7.74899,2.5 L 421.5,301.5 l 0.27182,-19.31432 0.27182,-19.31431 2.72818,0.31431 L 427.5,263.5 v 19.83808 19.83808 l -2.80576,2.41192 C 423.08476,306.97163 420.61616,308 418.9044,308 c -3.27745,0 -9.60007,-2.87566 -14.6544,-6.66511 L 401,298.89822 V 278.6041 c 0,-18.06507 0.19222,-20.46597 1.75,-21.85864 2.20227,-1.96884 30.73188,-18.44624 33.41061,-19.29643 2.34951,-0.74571 35.29642,17.66791 36.86848,20.60533 0.534,0.99779 0.97091,10.34389 0.97091,20.76911 0,16.61444 -0.21609,19.20494 -1.75,20.97947 C 470.39951,301.94371 439.36982,320 437.54141,320 c -0.58906,0 -2.67233,-0.85824 -4.62947,-1.90721 z M 17.45126,310.73358 C 17.183976,310.03705 17.085599,297.78185 17.232644,283.4998 L 17.5,257.53245 34.39788,247.76622 C 43.691715,242.3948 52.101678,238 53.086689,238 c 1.550597,0 31.221313,16.46763 34.663311,19.23859 1.562104,1.25756 1.827693,53.28634 0.276901,54.24478 -0.894053,0.55256 -13.824699,-6.2842 -20.248995,-10.70615 -2.711982,-1.86671 -2.723127,-1.92439 -3,-15.52784 L 64.5,271.59521 l -5.69255,-3.37568 -5.69255,-3.37569 -5.80745,3.39169 -5.80745,3.39168 -0.280307,13.37045 c -0.154169,7.35375 -0.746288,13.93192 -1.31582,14.61817 C 38.843853,300.89307 19.708907,312 18.568495,312 18.2213,312 17.718544,311.43011 17.45126,310.73358 Z M 438.5,294.5546 c -4.6768,-1.7298 -7.5,-4.80346 -7.5,-8.16538 0,-1.88183 0.53091,-2.38922 2.5,-2.38922 1.375,0 2.5,0.45 2.5,1 0,0.55 0.9,1.9 2,3 2.59964,2.59964 13.96112,2.89603 16.42857,0.42857 3.83397,-3.83397 1.27506,-5.73548 -9.89687,-7.35432 -8.73313,-1.26545 -11.92194,-3.4701 -12.34886,-8.53765 -0.59412,-7.05211 6.87646,-11.4038 17.15107,-9.99068 5.92886,0.81543 10.66609,4.75812 10.66609,8.87716 0,3.78625 -3.96066,3.5121 -6.20349,-0.4294 C 452.23061,268.2418 451.65163,268 446.6283,268 439.6344,268 438,268.67048 438,271.5396 c 0,2.64949 0.71143,2.95295 10.5,4.47883 11.11138,1.73209 14.66313,5.15604 12.57571,12.12321 -0.79982,2.66957 -2.10841,4.34103 -4.27626,5.46207 -4.4088,2.27988 -13.4378,2.74905 -18.29945,0.95089 z M 336.75,284.42803 c -2.27237,-1.23279 -2.75,-2.16693 -2.75,-5.37841 0,-3.36487 0.47093,-4.17755 3.50873,-6.05501 3.47298,-2.14643 3.54174,-2.1493 6.75,-0.2822 2.71279,1.57876 3.29098,2.56242 3.54613,6.03291 0.27448,3.73338 0.005,4.30144 -2.70034,5.70063 -3.66806,1.89683 -4.82967,1.89434 -8.35452,-0.0179 z m 147.58254,-34.04326 c -1.53464,-2.34215 -1.55989,-2.89035 -0.24186,-5.25 2.02435,-3.62415 7.08457,-4.15035 9.31326,-0.96846 0.87783,1.25329 1.57845,2.96607 1.55692,3.8062 -0.0215,0.84012 -0.67481,0.065 -1.45173,-1.72251 -1.15357,-2.65407 -1.97546,-3.25 -4.48229,-3.25 -3.81934,0 -5.90202,3.4962 -4.09454,6.87351 1.28892,2.40837 5.80189,2.89856 8.06947,0.87649 1.19253,-1.06341 1.20411,-0.98877 0.0776,0.5 -2.04132,2.69768 -6.71522,2.23534 -8.74679,-0.86523 z m 2.78346,-2.70809 c -0.0951,-3.13379 0.19961,-3.76354 1.634,-3.49181 1.22525,0.2321 1.80257,1.37855 1.92531,3.82332 0.0964,1.9205 -0.0491,2.70431 -0.32333,1.74181 C 490.07774,248.7875 489.46934,248 489,248 c -0.46934,0 -1.05915,0.7875 -1.31067,1.75 -0.25153,0.9625 -0.50953,0.0295 -0.57333,-2.07332 z M 490,246 c 0,-0.55 -0.45,-1 -1,-1 -0.55,0 -1,0.45 -1,1 0,0.55 0.45,1 1,1 0.55,0 1,-0.45 1,-1 z"
         id="path46" />
      <path
         style="fill:#91c525"
         d="m 241.40053,318.81879 c -11.42782,-6.12463 -30.06239,-17.27255 -31.15053,-18.63544 -1.97424,-2.47272 -1.75771,-39.53278 0.24266,-41.53316 2.53938,-2.53937 33.13541,-19.65049 35.12693,-19.64507 1.03423,0.003 3.68041,1.11378 5.88041,2.46879 2.2,1.35502 4.3375,2.47772 4.75,2.49488 0.4125,0.0172 0.75,-11.38869 0.75,-25.34635 0,-19.08399 0.31,-25.63394 1.25,-26.4114 0.90711,-0.75025 4.19886,0.61239 12,4.96746 l 10.75,6.00131 v 48.71067 48.71067 l -15.75,9.0793 c -21.61616,12.46092 -19.30343,11.57475 -23.84947,9.13834 z M 251.41002,289.78928 257,286.57857 v -7.05846 -7.05846 l -5.97956,-3.28728 -5.97956,-3.28728 -5.77044,3.37181 -5.77044,3.37181 v 6.87224 6.87224 l 5.5,3.30827 c 3.025,1.81955 5.79701,3.31013 6.16002,3.3124 0.36302,0.002 3.17552,-1.44068 6.25,-3.20658 z M 131.5,310.08414 l -17,-9.87748 v -21.32329 -21.32329 l 16.9765,-9.78004 c 9.33708,-5.37902 17.43708,-9.76561 18,-9.74797 0.56293,0.0176 8.6735,4.47045 18.0235,9.89513 l 17,9.86306 0.26944,20.95189 0.26944,20.95189 -17.61534,10.15298 c -9.68843,5.58414 -17.90968,10.14434 -18.26944,10.13379 -0.35975,-0.0106 -8.3041,-4.46406 -17.6541,-9.89667 z m 192,0.23137 c -9.35,-5.32059 -17.33061,-10.15568 -17.73469,-10.74465 -0.40408,-0.58897 -0.74158,-9.88862 -0.75,-20.66587 -0.0136,-17.42745 0.17827,-19.7633 1.73469,-21.11633 C 309.05111,255.78825 340.04701,238 341.23161,238 c 1.3482,0 34.14103,19.11378 35.00308,20.40206 0.40408,0.60387 0.74158,3.86907 0.75,7.256 l 0.0153,6.15806 -10.42244,6.09194 C 360.84522,281.25863 355.46669,284 354.62528,284 c -1.17203,0 -1.59948,-1.41707 -1.82756,-6.05874 l -0.29772,-6.05873 -5.79531,-3.19127 -5.79532,-3.19126 -5.70468,3.15579 -5.70469,3.1558 -0.29164,6.98659 -0.29163,6.98659 17.06782,9.85236 c 10.87329,6.27657 16.96759,10.36577 16.79164,11.26697 -0.22533,1.15412 -20.06883,13.07609 -21.77619,13.08313 -0.275,10e-4 -8.15,-4.35114 -17.5,-9.67172 z m 106.20779,5.92176 -6.79222,-3.71859 2.96451,-1.40396 c 2.68695,-1.27252 3.30482,-1.20318 6.59937,0.74066 1.99918,1.17954 4.1546,2.14462 4.78982,2.14462 1.1717,0 23.91896,-12.74975 29.00346,-16.25632 l 2.77273,-1.91224 -0.27273,-17.66572 L 468.5,260.5 l -15,-8.76196 c -8.25,-4.81908 -15.68399,-8.64408 -16.51997,-8.5 -0.83599,0.14408 -8.14651,4.08696 -16.24561,8.76196 l -14.72563,8.5 -0.004,18.11067 -0.004,18.11068 5.97804,3.18626 c 4.8208,2.56946 6.3652,2.97906 7.97802,2.11591 1.87483,-1.00338 2.017,-2.24216 2.27196,-19.79694 L 422.5,263.5 h 2.5 2.5 v 19.83817 19.83817 l -2.80576,2.41183 c -3.72914,3.20556 -7.29468,3.04063 -14.34269,-0.66344 C 400.37243,299.68021 401,301.45354 401,278.5 c 0,-17.98041 0.19152,-20.35708 1.75,-21.71651 C 406.94843,253.1213 434.77084,238 437.31064,238 c 2.79872,0 31.45606,15.7667 34.8792,19.18984 1.62029,1.62029 1.81016,3.81001 1.81016,20.8759 0,10.48616 -0.42877,19.86691 -0.95282,20.84611 -0.92925,1.73632 -33.64713,21.10992 -35.57613,21.06608 -0.53408,-0.0121 -4.02755,-1.69543 -7.76326,-3.74066 z M 17.45126,310.73358 C 17.183976,310.03705 17.085599,297.78185 17.232644,283.4998 L 17.5,257.53245 34.39788,247.76622 C 43.691715,242.3948 52.101678,238 53.086689,238 c 1.550597,0 31.221313,16.46763 34.663311,19.23859 1.562104,1.25756 1.827693,53.28634 0.276901,54.24478 -0.894053,0.55256 -13.824699,-6.2842 -20.248995,-10.70615 -2.711982,-1.86671 -2.723127,-1.92439 -3,-15.52784 L 64.5,271.59521 l -5.69255,-3.37568 -5.69255,-3.37569 -5.80745,3.39169 -5.80745,3.39168 -0.280307,13.37045 c -0.154169,7.35375 -0.746288,13.93192 -1.31582,14.61817 C 38.843853,300.89307 19.708907,312 18.568495,312 18.2213,312 17.718544,311.43011 17.45126,310.73358 Z M 441.5,295.08052 c -7.03752,-1.21409 -10.5,-4.1868 -10.5,-9.01478 0,-3.26062 4.14443,-2.6781 6.16063,0.86591 1.31672,2.31448 2.59556,3.0592 6.17502,3.59597 5.65832,0.84852 11.32879,-0.895 12.23912,-3.76321 0.96899,-3.05301 -1.40165,-4.34933 -10.35601,-5.66287 -9.69327,-1.42194 -12.61378,-3.40029 -13.01982,-8.81966 -0.25904,-3.45744 0.13542,-4.38544 2.82673,-6.65003 2.80769,-2.36251 3.94651,-2.63185 11.12798,-2.63185 7.50899,0 8.17967,0.17948 10.92327,2.92308 C 460.87739,269.72355 461.1014,274 457.5,274 c -1.42752,0 -2.5,-0.577 -2.5,-1.34501 0,-3.81235 -7.84875,-6.52007 -13.49654,-4.65613 -2.70151,0.89158 -3.50346,1.70192 -3.50346,3.54015 0,2.63052 2.71676,3.6872 12.81348,4.98379 8.5645,1.09982 12.12086,5.80727 9.83301,13.01564 -1.36972,4.31561 -10.66303,7.00562 -19.14649,5.54208 z M 336.75,284.42803 c -2.26913,-1.23103 -2.75,-2.16849 -2.75,-5.36119 0,-3.3816 0.45318,-4.13667 3.59543,-5.99064 l 3.59543,-2.12136 3.40457,2.10414 c 2.92935,1.81044 3.40457,2.6475 3.40457,5.9969 0,3.29931 -0.44977,4.12535 -2.95034,5.41844 -3.61133,1.86749 -4.78406,1.86095 -8.29966,-0.0463 z M 484.87244,251.25 c -1.26951,-1.61876 -1.22245,-1.63998 0.62756,-0.28297 1.1,0.80687 2.1875,1.59437 2.41667,1.75 0.22916,0.15563 -0.0532,0.28297 -0.62756,0.28297 -0.57432,0 -1.66182,-0.7875 -2.41667,-1.75 z m 5.21089,1.46703 c 0.22917,-0.15563 1.31667,-0.94313 2.41667,-1.75 1.85001,-1.35701 1.89707,-1.33579 0.62756,0.28297 -0.75485,0.9625 -1.84235,1.75 -2.41667,1.75 -0.57432,0 -0.85672,-0.12734 -0.62756,-0.28297 z M 487.13131,248 c -0.0755,-2.62461 0.1456,-3.12483 0.884,-2 0.87528,1.33333 1.0941,1.33333 1.96938,0 0.7384,-1.12483 0.9595,-0.62461 0.884,2 -0.0554,1.925 -0.30649,2.7125 -0.55802,1.75 C 490.05915,248.7875 489.46934,248 489,248 c -0.46934,0 -1.05915,0.7875 -1.31067,1.75 -0.25153,0.9625 -0.50264,0.175 -0.55802,-1.75 z m -4.05236,-0.58333 c 0.048,-1.16495 0.28494,-1.4019 0.60416,-0.60417 0.28887,0.72187 0.25335,1.58437 -0.0789,1.91667 -0.33229,0.33229 -0.56864,-0.25834 -0.52522,-1.3125 z m 11,0 c 0.048,-1.16495 0.28494,-1.4019 0.60416,-0.60417 0.28887,0.72187 0.25335,1.58437 -0.0789,1.91667 -0.33229,0.33229 -0.56864,-0.25834 -0.52522,-1.3125 z M 484.92067,243.75 C 485.64899,242.7875 487.48469,242 489,242 c 1.51531,0 3.35101,0.7875 4.07933,1.75 1.12655,1.48877 1.11497,1.56341 -0.0776,0.5 C 492.2308,243.5625 490.43,243 489,243 c -1.43,0 -3.2308,0.5625 -4.00177,1.25 -1.19253,1.06341 -1.20411,0.98877 -0.0776,-0.5 z"
         id="path44" />
      <path
         style="fill:#797979"
         d="m 241.40053,318.81879 c -11.42782,-6.12463 -30.06239,-17.27255 -31.15053,-18.63544 -1.97424,-2.47272 -1.75771,-39.53278 0.24266,-41.53316 2.53938,-2.53937 33.13541,-19.65049 35.12693,-19.64507 1.03423,0.003 3.68041,1.11378 5.88041,2.46879 2.2,1.35502 4.3375,2.47772 4.75,2.49488 0.4125,0.0172 0.75,-11.38869 0.75,-25.34635 0,-19.08399 0.31,-25.63394 1.25,-26.4114 0.90711,-0.75025 4.19886,0.61239 12,4.96746 l 10.75,6.00131 v 48.71067 48.71067 l -15.75,9.0793 c -21.61616,12.46092 -19.30343,11.57475 -23.84947,9.13834 z M 251.41002,289.78928 257,286.57857 v -7.05846 -7.05846 l -5.97956,-3.28728 -5.97956,-3.28728 -5.77044,3.37181 -5.77044,3.37181 v 6.87224 6.87224 l 5.5,3.30827 c 3.025,1.81955 5.79701,3.31013 6.16002,3.3124 0.36302,0.002 3.17552,-1.44068 6.25,-3.20658 z m -104.84097,28.66216 c -1.5237,-0.7905 -9.48387,-5.31468 -17.68927,-10.05374 l -14.91892,-8.61647 0.26957,-21.0118 0.26957,-21.01181 17,-9.86483 c 9.35,-5.42566 17.32676,-9.87112 17.72613,-9.87881 0.39937,-0.008 8.61187,4.5305 18.25,10.08486 L 185,258.19767 v 20.24618 c 0,18.05073 -0.18977,20.40691 -1.75,21.72844 -1.49572,1.2669 -25.63718,15.39693 -31.8303,18.63032 -1.57113,0.82028 -2.75835,0.73433 -4.85065,-0.35117 z M 323.5,310.31551 c -9.35,-5.32059 -17.33061,-10.15568 -17.73469,-10.74465 -0.40408,-0.58897 -0.74158,-9.88862 -0.75,-20.66587 -0.0136,-17.42745 0.17827,-19.7633 1.73469,-21.11633 C 309.05111,255.78825 340.04701,238 341.23161,238 c 1.3482,0 34.14103,19.11378 35.00308,20.40206 0.40408,0.60387 0.74158,3.86907 0.75,7.256 l 0.0153,6.15806 -10.42244,6.09194 C 360.84522,281.25863 355.46669,284 354.62528,284 c -1.17203,0 -1.59948,-1.41707 -1.82756,-6.05874 l -0.29772,-6.05873 -5.79531,-3.19127 -5.79532,-3.19126 -5.70468,3.15579 -5.70469,3.1558 -0.29164,6.98659 -0.29163,6.98659 17.06782,9.85236 c 10.87329,6.27657 16.96759,10.36577 16.79164,11.26697 -0.22533,1.15412 -20.06883,13.07609 -21.77619,13.08313 -0.275,10e-4 -8.15,-4.35114 -17.5,-9.67172 z m 106.59128,6.01435 c -5.89479,-3.33391 -6.26038,-3.73304 -4.55887,-4.97722 2.47027,-1.8063 2.93546,-1.743 7.78952,1.06004 L 437.5,314.82535 453.25,305.6751 469,296.52484 468.99,278.51242 468.98,260.5 453.72356,251.75 C 445.33252,246.9375 437.9492,243 437.31619,243 c -0.63302,0 -7.94772,3.91253 -16.25489,8.69452 l -15.10396,8.69452 0.27135,18.41031 0.27135,18.41032 5.68503,2.96512 c 4.61568,2.40738 6.06932,2.75945 7.72802,1.87174 1.92981,-1.0328 2.05806,-2.13082 2.31497,-19.81995 L 422.5,263.5 h 2.5 2.5 v 19.64672 c 0,17.85289 -0.17232,19.83698 -1.88729,21.73044 -3.37694,3.72842 -7.95147,3.77231 -14.921,0.14316 C 400.31992,299.61955 401,301.44852 401,278.9558 c 0,-17.37755 0.20899,-19.96943 1.75,-21.70375 C 405.57155,254.07655 434.51186,238 437.40669,238 c 3.97543,0 35.21971,18.4775 35.96863,21.27143 1.21298,4.52518 0.68505,38.26803 -0.62532,39.96714 -1.33455,1.73046 -30.89336,19.08262 -34.25,20.10606 -1.30151,0.39684 -4.23821,-0.65606 -8.40872,-3.01477 z M 17.45126,310.73358 C 17.183976,310.03705 17.085599,297.78185 17.232644,283.4998 L 17.5,257.53245 34.39788,247.76622 C 43.691715,242.3948 52.101678,238 53.086689,238 c 1.550597,0 31.221313,16.46763 34.663311,19.23859 1.562104,1.25756 1.827693,53.28634 0.276901,54.24478 -0.894053,0.55256 -13.824699,-6.2842 -20.248995,-10.70615 -2.711982,-1.86671 -2.723127,-1.92439 -3,-15.52784 L 64.5,271.59521 l -5.69255,-3.37568 -5.69255,-3.37569 -5.80745,3.39169 -5.80745,3.39168 -0.280307,13.37045 c -0.154169,7.35375 -0.746288,13.93192 -1.31582,14.61817 C 38.843853,300.89307 19.708907,312 18.568495,312 18.2213,312 17.718544,311.43011 17.45126,310.73358 Z M 443,295.30808 c -7.83072,-1.31415 -12,-4.70462 -12,-9.75842 0,-2.75693 4.35016,-1.80043 6.14263,1.35063 1.23453,2.17021 2.6577,3.05913 5.72828,3.5779 7.0723,1.19486 13.12909,-0.9113 13.12909,-4.56545 0,-2.54612 -2.64624,-3.72796 -11,-4.91274 -3.93829,-0.55855 -8.0141,-1.47236 -9.05735,-2.03069 -4.43967,-2.37604 -5.18098,-8.41814 -1.55064,-12.63866 2.14394,-2.49248 3.16574,-2.81995 9.85268,-3.15762 10.36566,-0.52345 15.75531,2.47364 15.75531,8.76123 0,2.94964 -3.38624,2.6514 -5.43729,-0.47889 -0.91702,-1.39955 -2.88127,-3.00756 -4.36501,-3.57334 -3.9598,-1.50998 -10.95519,-0.20367 -12.29272,2.29552 -1.67564,3.13096 0.40965,4.35616 10.46525,6.14878 10.57123,1.88455 12.62977,3.37662 12.62977,9.15434 0,5.42732 -2.86251,8.16573 -9.93853,9.50767 -2.93395,0.55641 -5.38553,0.95038 -5.44796,0.87548 -0.0624,-0.0749 -1.23851,-0.32498 -2.61351,-0.55574 z M 336.75,284.24177 c -2.20683,-1.36824 -2.75,-2.4446 -2.75,-5.4495 0,-3.30495 0.43155,-3.96589 3.67638,-5.63059 3.6153,-1.85476 3.7316,-1.85351 7,0.0749 2.85578,1.68495 3.32362,2.50652 3.32362,5.83653 0,3.28025 -0.45318,4.10989 -2.95034,5.40122 -3.71137,1.91922 -4.88198,1.88643 -8.29966,-0.23255 z M 484.87244,251.25 c -1.26951,-1.61876 -1.22245,-1.63998 0.62756,-0.28297 1.1,0.80687 2.1875,1.59437 2.41667,1.75 0.22916,0.15563 -0.0532,0.28297 -0.62756,0.28297 -0.57432,0 -1.66182,-0.7875 -2.41667,-1.75 z m 5.21089,1.46703 c 0.22917,-0.15563 1.31667,-0.94313 2.41667,-1.75 1.85001,-1.35701 1.89707,-1.33579 0.62756,0.28297 -0.75485,0.9625 -1.84235,1.75 -2.41667,1.75 -0.57432,0 -0.85672,-0.12734 -0.62756,-0.28297 z M 487.13131,248 c -0.0755,-2.62461 0.1456,-3.12483 0.884,-2 0.87528,1.33333 1.0941,1.33333 1.96938,0 0.7384,-1.12483 0.9595,-0.62461 0.884,2 -0.0554,1.925 -0.30649,2.7125 -0.55802,1.75 C 490.05915,248.7875 489.46934,248 489,248 c -0.46934,0 -1.05915,0.7875 -1.31067,1.75 -0.25153,0.9625 -0.50264,0.175 -0.55802,-1.75 z m 6.94764,-0.58333 c 0.048,-1.16495 0.28494,-1.4019 0.60416,-0.60417 0.28887,0.72187 0.25335,1.58437 -0.0789,1.91667 -0.33229,0.33229 -0.56864,-0.25834 -0.52522,-1.3125 z"
         id="path42" />
      <path
         style="fill:#87c010"
         d="m 146.56905,318.45144 c -1.5237,-0.7905 -9.48387,-5.31468 -17.68927,-10.05374 l -14.91892,-8.61647 0.26957,-21.0118 0.26957,-21.01181 17,-9.86483 c 9.35,-5.42566 17.32676,-9.87112 17.72613,-9.87881 0.39937,-0.008 8.61187,4.5305 18.25,10.08486 L 185,258.19767 v 20.24618 c 0,18.05073 -0.18977,20.40691 -1.75,21.72844 -1.49572,1.2669 -25.63718,15.39693 -31.8303,18.63032 -1.57113,0.82028 -2.75835,0.73433 -4.85065,-0.35117 z m 80.5241,-7.8969 c -9.02376,-5.19424 -16.77937,-10.03143 -17.23468,-10.7493 -0.91424,-1.44146 -1.15929,-36.08357 -0.27845,-39.36302 0.61872,-2.30355 32.90182,-21.46463 36.07382,-21.41101 1.01539,0.0172 3.64616,1.13986 5.84616,2.49488 2.2,1.35501 4.3299,2.46597 4.73312,2.46879 0.40321,0.003 0.85321,-11.57642 1,-25.73164 0.22943,-22.12542 0.4808,-25.77789 1.79143,-26.0299 0.8385,-0.16123 6.126,2.24013 11.75,5.33636 L 281,203.19921 v 48.67077 48.67078 l -16.85521,9.72962 c -9.27036,5.35129 -17.70786,9.72931 -18.75,9.72893 -1.04213,-3.9e-4 -9.27787,-4.25053 -18.30164,-9.44477 z m 24.422,-20.65 L 257,286.80908 v -7.19382 -7.19383 l -5.75,-3.31293 -5.75,-3.31294 -5,2.75087 c -7.73529,4.25575 -7.61542,4.06995 -7.2921,11.30299 l 0.2921,6.53464 5.5,3.30384 c 3.025,1.8171 5.84432,3.30569 6.26515,3.30796 0.42083,0.002 3.23333,-1.38882 6.25,-3.09132 z M 324.5,310.87293 c -8.8,-4.99986 -16.7875,-9.78641 -17.75,-10.63678 -1.55242,-1.37156 -1.75,-3.71771 -1.75,-20.78035 0,-16.90011 0.21237,-19.47364 1.75,-21.20703 1.58106,-1.78235 29.40135,-18.23832 33.41081,-19.76282 1.07329,-0.40809 7.26406,2.62922 17.5,8.58581 8.71156,5.06951 16.62669,9.897 17.58919,10.72775 1.28248,1.10694 1.74591,3.00521 1.73469,7.10548 -0.008,3.07725 -0.34592,6.08841 -0.75,6.69146 C 375.2033,273.13569 356.13826,284 354.46854,284 c -0.98139,0 -1.45804,-1.73878 -1.67082,-6.09497 L 352.5,271.81007 346.75,268.65503 341,265.5 l -5.75,3.15977 -5.75,3.15978 v 7.22279 7.2228 l 16.75,9.58126 c 9.2125,5.26969 16.75,10.1347 16.75,10.81113 0,1.03986 -16.84361,11.25454 -21.10966,12.8018 -0.76469,0.27734 -8.59034,-3.58654 -17.39034,-8.5864 z m 105.59128,5.45693 c -5.89479,-3.33391 -6.26038,-3.73304 -4.55887,-4.97722 2.47027,-1.8063 2.93546,-1.743 7.78952,1.06004 L 437.5,314.82535 453.25,305.6751 469,296.52484 468.99,278.51242 468.98,260.5 453.72356,251.75 C 445.33252,246.9375 437.9492,243 437.31619,243 c -0.63302,0 -7.94772,3.91253 -16.25489,8.69452 l -15.10396,8.69452 0.27135,18.41031 0.27135,18.41032 5.68503,2.96512 c 4.61568,2.40738 6.06932,2.75945 7.72802,1.87174 1.92981,-1.0328 2.05806,-2.13082 2.31497,-19.81995 L 422.5,263.5 h 2.5 2.5 v 19.64672 c 0,17.85289 -0.17232,19.83698 -1.88729,21.73044 -3.37694,3.72842 -7.95147,3.77231 -14.921,0.14316 C 400.31992,299.61955 401,301.44852 401,278.9558 c 0,-17.37755 0.20899,-19.96943 1.75,-21.70375 C 405.57155,254.07655 434.51186,238 437.40669,238 c 3.97543,0 35.21971,18.4775 35.96863,21.27143 1.21298,4.52518 0.68505,38.26803 -0.62532,39.96714 -1.33455,1.73046 -30.89336,19.08262 -34.25,20.10606 -1.30151,0.39684 -4.23821,-0.65606 -8.40872,-3.01477 z M 18.25,311.27821 c -1.801809,-0.64126 -1.801809,-51.21615 0,-53.43589 C 19.884022,255.82929 51.15524,238 53.051919,238 c 0.80211,0 9.106064,4.3875 18.453231,9.75 L 88.5,257.5 l 0.266961,26.43304 c 0.150353,14.88713 -0.129288,26.82929 -0.640205,27.3402 C 87.29789,312.10211 75.035413,305.77377 67.75,300.75735 L 65,298.86381 V 285.5 272.13619 l -2.75,-1.93371 c -1.5125,-1.06354 -4.247548,-2.69886 -6.077884,-3.63405 -3.301806,-1.68702 -3.372332,-1.67399 -9,1.66215 L 41.5,271.59306 41,285.52518 l -0.5,13.93211 -6,3.57712 c -11.931593,7.11346 -15.021519,8.68101 -16.25,8.2438 z M 443,295.30808 c -7.83072,-1.31415 -12,-4.70462 -12,-9.75842 0,-2.75693 4.35016,-1.80043 6.14263,1.35063 1.23453,2.17021 2.6577,3.05913 5.72828,3.5779 7.0723,1.19486 13.12909,-0.9113 13.12909,-4.56545 0,-2.54612 -2.64624,-3.72796 -11,-4.91274 -3.93829,-0.55855 -8.0141,-1.47236 -9.05735,-2.03069 -4.43967,-2.37604 -5.18098,-8.41814 -1.55064,-12.63866 2.14394,-2.49248 3.16574,-2.81995 9.85268,-3.15762 10.36566,-0.52345 15.75531,2.47364 15.75531,8.76123 0,2.94964 -3.38624,2.6514 -5.43729,-0.47889 -0.91702,-1.39955 -2.88127,-3.00756 -4.36501,-3.57334 -3.9598,-1.50998 -10.95519,-0.20367 -12.29272,2.29552 -1.67564,3.13096 0.40965,4.35616 10.46525,6.14878 10.57123,1.88455 12.62977,3.37662 12.62977,9.15434 0,5.42732 -2.86251,8.16573 -9.93853,9.50767 -2.93395,0.55641 -5.38553,0.95038 -5.44796,0.87548 -0.0624,-0.0749 -1.23851,-0.32498 -2.61351,-0.55574 z M 336.75,284.24177 c -2.20683,-1.36824 -2.75,-2.4446 -2.75,-5.4495 0,-3.30495 0.43155,-3.96589 3.67638,-5.63059 3.6153,-1.85476 3.7316,-1.85351 7,0.0749 2.85578,1.68495 3.32362,2.50652 3.32362,5.83653 0,3.28025 -0.45318,4.10989 -2.95034,5.40122 -3.71137,1.91922 -4.88198,1.88643 -8.29966,-0.23255 z M 484.87244,251.25 c -1.26951,-1.61876 -1.22245,-1.63998 0.62756,-0.28297 1.1,0.80687 2.1875,1.59437 2.41667,1.75 0.22916,0.15563 -0.0532,0.28297 -0.62756,0.28297 -0.57432,0 -1.66182,-0.7875 -2.41667,-1.75 z m 5.21089,1.46703 c 0.22917,-0.15563 1.31667,-0.94313 2.41667,-1.75 1.85001,-1.35701 1.89707,-1.33579 0.62756,0.28297 -0.75485,0.9625 -1.84235,1.75 -2.41667,1.75 -0.57432,0 -0.85672,-0.12734 -0.62756,-0.28297 z M 487.13131,248 c -0.0755,-2.62461 0.1456,-3.12483 0.884,-2 0.87528,1.33333 1.0941,1.33333 1.96938,0 0.7384,-1.12483 0.9595,-0.62461 0.884,2 -0.0554,1.925 -0.30649,2.7125 -0.55802,1.75 C 490.05915,248.7875 489.46934,248 489,248 c -0.46934,0 -1.05915,0.7875 -1.31067,1.75 -0.25153,0.9625 -0.50264,0.175 -0.55802,-1.75 z m 6.94764,-0.58333 c 0.048,-1.16495 0.28494,-1.4019 0.60416,-0.60417 0.28887,0.72187 0.25335,1.58437 -0.0789,1.91667 -0.33229,0.33229 -0.56864,-0.25834 -0.52522,-1.3125 z"
         id="path40" />
      <path
         style="fill:#7fbc00"
         d="M 131.65811,309.8378 114,299.75299 v -20.78488 -20.78487 l 17.57844,-10.17225 17.57844,-10.17224 16.17156,9.19443 c 8.89436,5.05695 16.95906,9.88797 17.92156,10.73562 1.55572,1.37008 1.75,3.73671 1.75,21.31809 v 19.77692 l -2.75,1.89973 c -2.028,1.40096 -27.03673,15.96828 -32.34189,18.8388 -0.32554,0.17614 -8.53804,-4.2179 -18.25,-9.76454 z m 95.43504,0.71674 c -9.02376,-5.19424 -16.77937,-10.03143 -17.23468,-10.7493 -0.91424,-1.44146 -1.15929,-36.08357 -0.27845,-39.36302 0.61872,-2.30355 32.90182,-21.46463 36.07382,-21.41101 1.01539,0.0172 3.64616,1.13986 5.84616,2.49488 2.2,1.35501 4.3299,2.46597 4.73312,2.46879 0.40321,0.003 0.85321,-11.57642 1,-25.73164 0.22943,-22.12542 0.4808,-25.77789 1.79143,-26.0299 0.8385,-0.16123 6.126,2.24013 11.75,5.33636 L 281,203.19921 v 48.67077 48.67078 l -16.85521,9.72962 c -9.27036,5.35129 -17.70786,9.72931 -18.75,9.72893 -1.04213,-3.9e-4 -9.27787,-4.25053 -18.30164,-9.44477 z m 24.422,-20.65 L 257,286.80908 v -7.19382 -7.19383 l -5.75,-3.31293 -5.75,-3.31294 -5,2.75087 c -7.73529,4.25575 -7.61542,4.06995 -7.2921,11.30299 l 0.2921,6.53464 5.5,3.30384 c 3.025,1.8171 5.84432,3.30569 6.26515,3.30796 0.42083,0.002 3.23333,-1.38882 6.25,-3.09132 z M 324.5,310.87293 c -8.8,-4.99986 -16.7875,-9.78641 -17.75,-10.63678 -1.55242,-1.37156 -1.75,-3.71771 -1.75,-20.78035 0,-16.90011 0.21237,-19.47364 1.75,-21.20703 1.58106,-1.78235 29.40135,-18.23832 33.41081,-19.76282 1.07329,-0.40809 7.26406,2.62922 17.5,8.58581 8.71156,5.06951 16.62669,9.897 17.58919,10.72775 1.28248,1.10694 1.74591,3.00521 1.73469,7.10548 -0.008,3.07725 -0.34592,6.08841 -0.75,6.69146 C 375.2033,273.13569 356.13826,284 354.46854,284 c -0.98139,0 -1.45804,-1.73878 -1.67082,-6.09497 L 352.5,271.81007 346.75,268.65503 341,265.5 l -5.75,3.15977 -5.75,3.15978 v 7.22279 7.2228 l 16.75,9.58126 c 9.2125,5.26969 16.75,10.1347 16.75,10.81113 0,1.03986 -16.84361,11.25454 -21.10966,12.8018 -0.76469,0.27734 -8.59034,-3.58654 -17.39034,-8.5864 z m 107.88277,6.51368 c -2.59678,-1.38072 -5.61424,-3.13575 -6.70545,-3.90007 -1.94091,-1.35947 -1.92883,-1.41482 0.5557,-2.54685 2.16612,-0.98695 3.18164,-0.78383 6.90335,1.38079 l 4.36363,2.53796 15.75,-9.07359 15.75,-9.07359 v -18.14527 -18.14528 l -15.6007,-8.96035 c -8.58038,-4.9282 -16.03447,-8.83816 -16.56463,-8.68882 -0.53017,0.14935 -7.69463,4.12893 -15.92103,8.8435 l -14.95708,8.57194 0.27172,18.49772 0.27172,18.49772 5.71338,3.15879 c 9.06627,5.01252 9.18471,4.79531 9.78662,-17.94839 L 422.5,263.5 h 2.5 2.5 v 19.04714 c 0,16.4257 -0.23981,19.4127 -1.74243,21.70327 -2.79903,4.26677 -7.29972,4.5143 -14.6467,0.80556 C 400.54683,299.72325 401,300.90494 401,278.69113 c 0,-13.91599 0.34912,-19.76156 1.25,-20.9297 C 404.28578,255.1217 434.68292,238 437.33359,238 c 2.94155,0 31.24307,16.14856 34.41641,19.63765 2.15737,2.37203 2.25,3.21069 2.25,20.37106 0,10.34351 -0.44209,18.86668 -1.04747,20.19424 -0.65793,1.44282 -6.85163,5.64399 -16.65502,11.29705 -8.58415,4.95 -16.41435,9.31433 -17.40044,9.69851 -1.11443,0.43418 -3.57955,-0.25148 -6.5143,-1.8119 z M 18.25,311.27821 c -1.801809,-0.64126 -1.801809,-51.21615 0,-53.43589 C 19.884022,255.82929 51.15524,238 53.051919,238 c 0.80211,0 9.106064,4.3875 18.453231,9.75 L 88.5,257.5 l 0.266961,26.43304 c 0.150353,14.88713 -0.129288,26.82929 -0.640205,27.3402 C 87.29789,312.10211 75.035413,305.77377 67.75,300.75735 L 65,298.86381 V 285.5 272.13619 l -2.75,-1.93371 c -1.5125,-1.06354 -4.247548,-2.69886 -6.077884,-3.63405 -3.301806,-1.68702 -3.372332,-1.67399 -9,1.66215 L 41.5,271.59306 41,285.52518 l -0.5,13.93211 -6,3.57712 c -11.931593,7.11346 -15.021519,8.68101 -16.25,8.2438 z M 441,294.90087 C 433.53641,293.49277 427.00521,284 433.5,284 c 1.42752,0 2.5,0.577 2.5,1.34501 0,2.59625 3.79026,4.77789 9.14681,5.26482 6.1308,0.55732 10.19313,-1.05304 10.65145,-4.22237 0.43977,-3.04106 -1.49194,-4.10371 -9.46788,-5.20833 -8.84512,-1.225 -12.51114,-2.90833 -13.70077,-6.29102 -2.46051,-6.99643 2.94949,-11.87831 13.17005,-11.88437 9.15651,-0.005 14.20034,3.1666 14.20034,8.93052 0,3.01891 -3.75488,2.69783 -5.18615,-0.44347 -2.25389,-4.94674 -14.45016,-5.90739 -16.89932,-1.33109 -1.7046,3.18507 0.54423,4.62322 9.25527,5.91883 4.21243,0.62652 9.0475,1.98354 10.74459,3.0156 2.6887,1.6351 3.08561,2.43727 3.08561,6.23618 0,4.42135 -1.21706,6.28104 -5.5,8.40409 -3.16983,1.57128 -9.60875,2.08927 -14.5,1.16647 z M 336.75,283.88491 c -4.19272,-3.12811 -3.86391,-7.97009 0.70845,-10.43247 3.28137,-1.76713 3.63978,-1.77602 7,-0.17365 3.13792,1.49638 3.54155,2.122 3.54155,5.48942 0,3.13455 -0.50896,4.10122 -2.90429,5.51618 -3.69968,2.18545 -4.96203,2.12503 -8.34571,-0.39948 z M 487.13131,248 c -0.0755,-2.62461 0.1456,-3.12483 0.884,-2 0.79456,1.21037 1.14807,1.24705 1.8308,0.18998 0.55542,-0.85994 0.84867,-0.1728 0.85353,2 0.004,1.82051 -0.18466,2.52252 -0.41943,1.56002 C 490.04544,248.7875 489.46934,248 489,248 c -0.46934,0 -1.05915,0.7875 -1.31067,1.75 -0.25153,0.9625 -0.50264,0.175 -0.55802,-1.75 z"
         id="path38" />
      <path
         style="fill:#666666"
         d="m 227.09315,310.55454 c -9.02376,-5.19424 -16.77937,-10.03143 -17.23468,-10.7493 -0.91424,-1.44146 -1.15929,-36.08357 -0.27845,-39.36302 0.61872,-2.30355 32.90182,-21.46463 36.07382,-21.41101 1.01539,0.0172 3.64616,1.13986 5.84616,2.49488 2.2,1.35501 4.3299,2.46597 4.73312,2.46879 0.40321,0.003 0.85321,-11.57642 1,-25.73164 0.22943,-22.12542 0.4808,-25.77789 1.79143,-26.0299 0.8385,-0.16123 6.126,2.24013 11.75,5.33636 L 281,203.19921 v 48.67077 48.67078 l -16.85521,9.72962 c -9.27036,5.35129 -17.70786,9.72931 -18.75,9.72893 -1.04213,-3.9e-4 -9.27787,-4.25053 -18.30164,-9.44477 z m 24.422,-20.65 L 257,286.80908 v -7.19382 -7.19383 l -5.75,-3.31293 -5.75,-3.31294 -5,2.75087 c -7.73529,4.25575 -7.61542,4.06995 -7.2921,11.30299 l 0.2921,6.53464 5.5,3.30384 c 3.025,1.8171 5.84432,3.30569 6.26515,3.30796 0.42083,0.002 3.23333,-1.38882 6.25,-3.09132 z M 324.5,310.87293 c -8.8,-4.99986 -16.7875,-9.78641 -17.75,-10.63678 -1.55242,-1.37156 -1.75,-3.71771 -1.75,-20.78035 0,-16.90011 0.21237,-19.47364 1.75,-21.20703 1.58106,-1.78235 29.40135,-18.23832 33.41081,-19.76282 1.07329,-0.40809 7.26406,2.62922 17.5,8.58581 8.71156,5.06951 16.62669,9.897 17.58919,10.72775 1.28248,1.10694 1.74591,3.00521 1.73469,7.10548 -0.008,3.07725 -0.34592,6.08841 -0.75,6.69146 C 375.2033,273.13569 356.13826,284 354.46854,284 c -0.98139,0 -1.45804,-1.73878 -1.67082,-6.09497 L 352.5,271.81007 346.75,268.65503 341,265.5 l -5.75,3.15977 -5.75,3.15978 v 7.22279 7.2228 l 16.75,9.58126 c 9.2125,5.26969 16.75,10.1347 16.75,10.81113 0,1.03986 -16.84361,11.25454 -21.10966,12.8018 -0.76469,0.27734 -8.59034,-3.58654 -17.39034,-8.5864 z m -306.25,0.40528 c -1.801809,-0.64126 -1.801809,-51.21615 0,-53.43589 C 19.884022,255.82929 51.15524,238 53.051919,238 c 0.80211,0 9.106064,4.3875 18.453231,9.75 L 88.5,257.5 l 0.266961,26.43304 c 0.150353,14.88713 -0.129288,26.82929 -0.640205,27.3402 C 87.29789,312.10211 75.035413,305.77377 67.75,300.75735 L 65,298.86381 V 285.5 272.13619 l -2.75,-1.93371 c -1.5125,-1.06354 -4.247548,-2.69886 -6.077884,-3.63405 -3.301806,-1.68702 -3.372332,-1.67399 -9,1.66215 L 41.5,271.59306 41,285.52518 l -0.5,13.93211 -6,3.57712 c -11.931593,7.11346 -15.021519,8.68101 -16.25,8.2438 z"
         id="path36" />
      <path
         style="fill:#4f4f4f"
         d="m 226.75,310.26702 -16.75,-9.69628 0.0202,-21.03537 0.0202,-21.03537 16.95192,-9.75 c 9.32355,-5.3625 17.58278,-9.75 18.35384,-9.75 0.77106,0 3.47348,1.15781 6.00538,2.57292 2.5319,1.41511 5.06358,2.28855 5.62595,1.94098 C 257.63081,243.11014 258,233.69612 258,217.44098 258,198.76939 258.30946,192 259.16304,192 c 0.63967,0 5.81467,2.54682 11.5,5.65961 L 281,203.31921 v 48.2723 48.2723 l -2.75,1.89973 c -6.72893,4.64842 -31.28722,18.23469 -32.93073,18.21811 -1.0006,-0.0101 -9.35677,-4.38167 -18.56927,-9.71463 z m 25.25,-20.57873 5.5,-3.30343 0.2956,-6.11099 c 0.33466,-6.91828 -0.38051,-7.99161 -8.12694,-12.19692 l -4.46341,-2.42305 -5.85262,3.47232 -5.85263,3.47232 v 6.94056 6.94055 l 5.45576,3.26018 c 3.00067,1.79309 5.92567,3.25831 6.5,3.25603 0.57433,-0.002 3.51924,-1.49068 6.54424,-3.30757 z m 70.5,19.96091 -16,-9.24227 v -21.32778 -21.32778 l 17.17837,-9.93841 17.17838,-9.9384 3.32162,1.70084 c 6.09868,3.12284 29.29796,16.75114 31.07163,18.25288 1.28803,1.09055 1.75,2.98377 1.75,7.17172 0,4.17842 -0.4649,6.0903 -1.75,7.19673 C 372.39864,274.65169 355.92777,284 354.45372,284 c -0.96556,0 -1.44437,-1.78503 -1.656,-6.17367 L 352.5,271.65267 346.75,268.57633 341,265.5 l -5.75,3.08095 -5.75,3.08096 v 7.38408 7.38408 l 16.7398,9.53497 c 9.20689,5.24423 16.74439,10.05628 16.75,10.69345 0.014,1.59183 -19.47553,12.35448 -22.25036,12.28725 C 339.50775,318.91589 331.3,314.73245 322.5,309.6492 Z M 17,285.07143 c 0,-20.82888 0.273973,-26.20255 1.392974,-27.32155 2.150394,-2.15039 33.126522,-19.75332 34.707492,-19.72336 0.769744,0.0146 9.049534,4.42105 18.399534,9.79214 l 17,9.76562 0.266333,26.70786 C 89.01562,309.29053 88.919219,311 87.260225,311 c -0.974843,0 -6.269693,-2.58956 -11.766334,-5.75457 L 65.5,299.49086 65,285.50287 l -0.5,-13.988 -5.455763,-3.25744 C 56.043567,266.46585 53.32366,265 53,265 c -0.32366,0 -3.043567,1.46585 -6.044237,3.25743 L 41.5,271.51487 41,285.47147 40.5,299.42808 31,305.14601 c -5.225,3.14487 -10.5125,5.74855 -11.75,5.78596 L 17,311 Z"
         id="path34" />
      <path
         style="fill:#323232"
         d="m 229.43969,311.70286 c -7.73316,-4.51157 -15.27974,-9.00668 -16.77017,-9.98913 l -2.70988,-1.78628 0.27018,-20.69924 0.27018,-20.69925 16.5,-9.68962 c 9.075,-5.32929 17.175,-9.71789 18,-9.75244 0.825,-0.0345 3.4905,1.07498 5.92333,2.46562 2.43283,1.39064 5.02033,2.29934 5.75,2.01934 C 257.72762,243.16729 258,237.82092 258,217.53138 258,199.26052 258.32046,192 259.12689,192 c 1.25904,0 14.85868,7.27562 19.12311,10.23061 l 2.75,1.90558 v 47.80946 c 0,37.04421 -0.28146,48.03605 -1.25,48.81576 -3.42004,2.75328 -33.09658,19.23233 -34.56119,19.19145 -0.92885,-0.0259 -8.01595,-3.73843 -15.74912,-8.25 z M 252,289.68346 l 5.5,-3.30827 v -6.88833 -6.88832 l -5.89424,-3.49701 -5.89424,-3.49701 -6.35576,3.39583 L 233,272.39618 v 7.09783 7.09782 l 5.25,3.11482 c 2.8875,1.71315 5.925,3.15313 6.75,3.19995 0.825,0.0468 3.975,-1.40359 7,-3.22314 z m 70.5,19.85632 -16,-9.28546 -0.26959,-21.02421 -0.26959,-21.0242 17.59493,-10.18179 17.59494,-10.18179 12.67465,7.25828 c 6.97106,3.99206 15.03716,8.74694 17.92466,10.56642 l 5.25,3.30813 v 5.85743 c 0,4.33994 -0.45338,6.24636 -1.75,7.35868 -3.94866,3.38736 -20.39219,12.06617 -21.24072,11.21073 -0.49209,-0.4961 -1.03299,-3.35015 -1.202,-6.34233 l -0.30728,-5.44032 -5.75,-3.35418 -5.75,-3.35419 -5.75,3.35987 -5.75,3.35986 v 7.42107 7.42107 L 346,296 c 9.075,5.23993 16.5,10.09471 16.5,10.78838 0,1.63241 -19.16622,12.23885 -21.90893,12.12424 -1.15009,-0.0481 -9.29107,-4.26584 -18.09107,-9.37284 z m -304.833333,0.79355 c -0.912907,-0.9129 -0.818598,-50.56051 0.09865,-51.93127 C 18.733039,256.95586 51.504821,238 53.037358,238 c 1.589467,0 34.263684,18.89304 35.197329,20.35197 0.404078,0.63142 0.741578,12.73553 0.75,26.89803 C 88.998454,308.39979 88.83527,311 87.368674,311 85.324283,311 67.940245,301.25829 66.25,299.16546 65.397397,298.10979 65,293.59485 65,284.96386 c 0,-14.08131 0.189236,-13.6418 -7.75,-17.99943 l -4.25,-2.33271 -4.25,2.33271 c -7.878471,4.32427 -7.665071,3.81932 -7.972628,18.86515 L 40.5,299.39873 l -10,5.80055 c -9.936569,5.76376 -11.555831,6.41156 -12.833333,5.13405 z"
         id="path32" />
    </g>
  </g>
</svg>
