<?xml version="1.0" encoding="UTF-8" standalone="no"?>
<!-- Created with Inkscape (http://www.inkscape.org/) -->

<svg
   version="1.1"
   id="svg2"
   width="1024"
   height="1024"
   viewBox="0 0 1024 1024"
   sodipodi:docname="adobe_photoshop.svg"
   inkscape:version="1.1.1 (3bf5ae0d25, 2021-09-20)"
   xmlns:inkscape="http://www.inkscape.org/namespaces/inkscape"
   xmlns:sodipodi="http://sodipodi.sourceforge.net/DTD/sodipodi-0.dtd"
   xmlns="http://www.w3.org/2000/svg"
   xmlns:svg="http://www.w3.org/2000/svg">
  <defs
     id="defs6" />
  <sodipodi:namedview
     id="namedview4"
     pagecolor="#ffffff"
     bordercolor="#666666"
     borderopacity="1.0"
     inkscape:pageshadow="2"
     inkscape:pageopacity="0.0"
     inkscape:pagecheckerboard="0"
     showgrid="false"
     inkscape:zoom="0.76367188"
     inkscape:cx="512"
     inkscape:cy="512"
     inkscape:window-width="1920"
     inkscape:window-height="986"
     inkscape:window-x="-11"
     inkscape:window-y="-11"
     inkscape:window-maximized="1"
     inkscape:current-layer="g8" />
  <g
     inkscape:groupmode="layer"
     inkscape:label="Image"
     id="g8">
    <g
       id="g438"
       transform="translate(-26.189258,-15.713555)">
      <path
         style="fill:#dfe3e6"
         d="m 234.47577,897.9943 c -26.74831,-4.17002 -50.04018,-14.35651 -70.5144,-30.83885 -25.32044,-20.3837 -43.24729,-49.67114 -50.57855,-82.63115 l -2.33551,-10.5 v -272.5 -272.5 l 2.33551,-10.5 c 13.49205,-60.65775 60.29726,-104.23061 121.94452,-113.52306 14.62394,-2.20435 551.816,-2.20435 566.43994,0 20.48037,3.08712 38.0181,9.21533 54.23275,18.95055 34.80631,20.89757 58.76856,54.36546 67.71177,94.57251 l 2.33551,10.5 v 272.5 272.5 l -2.33551,10.5 c -13.49205,60.65775 -60.29726,104.23061 -121.94452,113.52306 -13.8653,2.09 -553.86898,2.03949 -567.29151,-0.0531 z"
         id="path476" />
      <path
         style="fill:#cfd5d8"
         d="m 237.54731,898.44419 c -64.76818,-8.39106 -115.85113,-58.2254 -125.48714,-122.41989 -2.26664,-15.10016 -2.26664,-533.89984 0,-549 9.06067,-60.36159 53.57928,-107.1856 114.79873,-120.74362 l 10.18841,-2.25638 h 281.5 281.5 l 10.18841,2.25638 c 61.21945,13.55802 105.73806,60.38203 114.79873,120.74362 2.26664,15.10016 2.26664,533.89984 0,549 -9.02921,60.15203 -52.9951,106.59023 -114.28814,120.71483 l -9.699,2.23508 -278.5,0.15605 c -153.175,0.0858 -281.425,-0.22291 -285,-0.68607 z"
         id="path474" />
      <path
         style="fill:#bfc7cd"
         d="m 237.54731,898.44419 c -35.55273,-4.60604 -68.86778,-22.48307 -91.79096,-49.2555 -16.66571,-19.4642 -27.41092,-41.55227 -32.91678,-67.66439 -1.69774,-8.05174 -1.79226,-22.81803 -1.79226,-280 0,-257.18197 0.0945,-271.94826 1.79226,-280 12.48696,-59.22072 54.97796,-102.16798 114.01933,-115.24362 l 10.18841,-2.25638 h 281.5 281.5 l 10.18841,2.25638 c 39.43552,8.73362 71.70983,30.76366 93.14444,63.57923 9.62451,14.73477 16.86834,32.66291 20.87489,51.66439 1.69774,8.05174 1.79226,22.81803 1.79226,280 0,257.18197 -0.0945,271.94826 -1.79226,280 -12.44244,59.00957 -54.39466,101.59235 -113.50874,115.21483 l -9.699,2.23508 -278.5,0.15605 c -153.175,0.0858 -281.425,-0.22291 -285,-0.68607 z"
         id="path472" />
      <path
         style="fill:#9fa9b2"
         d="m 240.04731,898.5177 c -18.42356,-1.98041 -34.7192,-6.91043 -51.3022,-15.52077 -38.85734,-20.17578 -65.66294,-55.63079 -75.44142,-99.78422 l -2.25638,-10.18841 v -271.5 -271.5 l 2.25638,-10.18841 c 12.98895,-58.64993 56.47297,-101.7724 114.48077,-113.52893 l 11.26285,-2.28266 h 279.5 279.5 l 11.26285,2.28266 c 14.4433,2.92724 26.12994,7.0418 39.03935,13.74471 38.85734,20.17578 65.66294,55.63079 75.44142,99.78422 l 2.25638,10.18841 v 271.5 271.5 l -2.25638,10.18841 c -12.93732,58.41679 -55.8483,101.16661 -113.94383,113.5159 l -10.79979,2.29569 -276,0.12293 c -151.8,0.0676 -279.15,-0.21568 -283,-0.62953 z"
         id="path470" />
      <path
         style="fill:#30a7fe"
         d="m 239.04731,898.37855 c -18.29005,-2.02141 -39.02971,-8.8111 -55.1672,-18.06049 -12.82902,-7.3531 -21.72531,-14.38804 -33.00675,-26.10083 -19.27632,-20.01336 -31.31629,-42.76821 -37.56967,-71.00452 l -2.25638,-10.18841 v -271.5 -271.5 l 2.25638,-10.18841 c 6.25338,-28.23631 18.29335,-50.99116 37.56967,-71.00452 11.28144,-11.71279 20.17773,-18.74773 33.00675,-26.10083 16.7569,-9.60441 36.90018,-16.03947 56.87779,-18.17044 13.44375,-1.43401 542.13507,-1.43401 555.57882,0 19.97761,2.13097 40.12089,8.56603 56.87779,18.17044 12.82902,7.3531 21.72531,14.38804 33.00675,26.10083 19.27632,20.01336 31.31629,42.76821 37.56967,71.00452 l 2.25638,10.18841 v 271.5 271.5 l -2.25638,10.18841 c -6.25338,28.23631 -18.29335,50.99116 -37.56967,71.00452 -11.28144,11.71279 -20.17773,18.74773 -33.00675,26.10083 -16.7569,9.60441 -36.90018,16.03947 -56.87779,18.17044 -12.13196,1.29408 -545.53766,1.18885 -557.28941,-0.10995 z"
         id="path468" />
      <path
         style="fill:#8f9ca7"
         d="m 239.04731,898.37855 c -18.29005,-2.02141 -39.02971,-8.8111 -55.1672,-18.06049 -12.82902,-7.3531 -21.72531,-14.38804 -33.00675,-26.10083 -19.27632,-20.01336 -31.31629,-42.76821 -37.56967,-71.00452 l -2.25638,-10.18841 v -271.5 -271.5 l 2.25638,-10.18841 c 6.25338,-28.23631 18.29335,-50.99116 37.56967,-71.00452 11.28144,-11.71279 20.17773,-18.74773 33.00675,-26.10083 16.7569,-9.60441 36.90018,-16.03947 56.87779,-18.17044 13.44375,-1.43401 542.13507,-1.43401 555.57882,0 19.97761,2.13097 40.12089,8.56603 56.87779,18.17044 12.82902,7.3531 21.72531,14.38804 33.00675,26.10083 19.27632,20.01336 31.31629,42.76821 37.56967,71.00452 l 2.25638,10.18841 v 271.5 271.5 l -2.25638,10.18841 c -6.25338,28.23631 -18.29335,50.99116 -37.56967,71.00452 -11.28144,11.71279 -20.17773,18.74773 -33.00675,26.10083 -16.7569,9.60441 -36.90018,16.03947 -56.87779,18.17044 -12.13196,1.29408 -545.53766,1.18885 -557.28941,-0.10995 z M 699.81206,670.92684 c 36.00995,-4.93722 62.86036,-21.79565 75.84471,-47.62025 6.067,-12.06667 8.09117,-20.92342 8.17788,-35.78229 0.11124,-19.06433 -4.13794,-32.21438 -14.82152,-45.86844 -11.47427,-14.66462 -34.85723,-28.90708 -67.46582,-41.09314 -22.34614,-8.3509 -38.1152,-17.49295 -41.51552,-24.06842 -2.23571,-4.3234 -1.89056,-11.07758 0.76552,-14.98017 5.49006,-8.06656 13.19037,-10.39821 33.75,-10.21946 22.47466,0.19541 45.87846,4.95466 62.79122,12.76883 8.66184,4.00202 9.76789,4.15313 11.1736,1.52654 1.58906,-2.9692 1.35647,-57.87241 -0.2587,-61.06495 -1.83605,-3.62913 -16.65592,-8.36702 -34.70612,-11.0955 -19.20749,-2.90342 -52.44255,-3.18382 -67.45717,-0.56912 -11.04984,1.92425 -24.74462,6.21692 -32.77992,10.27497 -23.17429,11.70363 -39.37055,31.89404 -44.32131,55.25132 -1.6834,7.94219 -1.85901,23.48409 -0.35821,31.70388 5.64504,30.91762 32.55585,54.74825 82.91661,73.42604 11.86481,4.40042 25.36401,10.74699 30.33892,14.26366 5.08695,3.59587 8.66108,9.55628 8.66108,14.44366 0,8.2062 -5.05607,14.0216 -14.8165,17.0417 -8.80183,2.72348 -38.99298,2.3803 -53.1835,-0.60453 -16.21916,-3.41153 -29.45473,-7.77206 -41.61322,-13.7097 -6.11228,-2.98494 -11.62478,-5.42717 -12.25,-5.42717 -1.48175,0 -1.6173,63.23362 -0.14146,65.99125 0.54742,1.02287 4.48492,3.20072 8.75,4.83965 30.09756,11.56557 67.29436,15.40124 102.51943,10.57164 z m -332.29993,-7.3368 c 0.67753,-1.26598 1.03518,-20.90853 1.03518,-56.85322 v -54.91896 l 27.25,0.0198 c 20.19715,0.0147 30.48525,-0.42088 39.75,-1.6829 38.29699,-5.2167 62.34126,-15.79274 83.08188,-36.54413 16.44052,-16.44907 25.39223,-33.50886 29.95468,-57.08634 6.79171,-35.09772 0.56603,-70.07904 -17.10258,-96.09722 -10.0216,-14.75745 -27.04894,-29.08738 -44.43398,-37.39489 -20.05256,-9.5822 -41.86086,-14.44673 -72,-16.06023 -18.55431,-0.99331 -118.78603,1.40494 -119.71403,2.8644 -0.41544,0.65337 -0.76224,80.41044 -0.77066,177.23794 -0.0118,135.61157 0.26033,176.32564 1.18469,177.25 0.88731,0.88731 10.25885,1.2 35.96482,1.2 33.3475,0 34.80702,-0.0789 35.8,-1.93426 z m 1.03518,-232.31801 v -57.47588 l 4.63957,-0.63593 c 2.55177,-0.34975 13.84358,-0.63592 25.09292,-0.63592 16.72939,0 22.29815,0.37595 30.58571,2.06484 24.88942,5.07215 39.09447,16.12417 45.84487,35.66893 2.00525,5.80591 2.32608,8.6113 2.26045,19.76623 -0.063,10.70079 -0.4709,14.1496 -2.3066,19.5 -5.13476,14.96596 -16.94259,26.20079 -33.69683,32.06159 -14.67584,5.13376 -21.74049,6.11973 -47.67009,6.65301 l -24.75,0.50902 z"
         id="path466" />
      <path
         style="fill:#2b9aeb"
         d="m 239.54731,898.4264 c -15.80985,-1.80412 -35.43593,-7.57134 -48.98468,-14.39439 -19.88896,-10.01591 -43.63022,-30.96271 -55.43081,-48.90631 -10.91022,-16.58975 -18.53719,-35.51192 -22.20975,-55.1014 -1.80353,-9.62006 -1.87476,-20.20151 -1.87476,-278.5 0,-258.29849 0.0712,-268.87994 1.87476,-278.5 5.66288,-30.20586 18.3344,-54.24595 40.09357,-76.0645 17.90448,-17.95334 33.69857,-27.88518 56.4104,-35.47271 24.35979,-8.13808 -3.61197,-7.46279 309.12127,-7.46279 312.73324,0 284.76148,-0.67529 309.12127,7.46279 22.71183,7.58753 38.50592,17.51937 56.4104,35.47271 21.75917,21.81855 34.43069,45.85864 40.09357,76.0645 1.80353,9.62006 1.87476,20.20151 1.87476,278.5 0,258.29849 -0.0712,268.87994 -1.87476,278.5 -5.66288,30.20586 -18.3344,54.24595 -40.09357,76.0645 -17.90607,17.95493 -33.70338,27.88834 -56.4104,35.47108 -24.12637,8.05672 4.63297,7.34447 -304.62127,7.54416 -151.8,0.098 -279.375,-0.20691 -283.5,-0.67764 z M 699.81206,670.92684 c 36.00995,-4.93722 62.86036,-21.79565 75.84471,-47.62025 6.067,-12.06667 8.09117,-20.92342 8.17788,-35.78229 0.11124,-19.06433 -4.13794,-32.21438 -14.82152,-45.86844 -11.47427,-14.66462 -34.85723,-28.90708 -67.46582,-41.09314 -22.34614,-8.3509 -38.1152,-17.49295 -41.51552,-24.06842 -2.23571,-4.3234 -1.89056,-11.07758 0.76552,-14.98017 5.49006,-8.06656 13.19037,-10.39821 33.75,-10.21946 22.47466,0.19541 45.87846,4.95466 62.79122,12.76883 8.66184,4.00202 9.76789,4.15313 11.1736,1.52654 1.58906,-2.9692 1.35647,-57.87241 -0.2587,-61.06495 -1.83605,-3.62913 -16.65592,-8.36702 -34.70612,-11.0955 -19.20749,-2.90342 -52.44255,-3.18382 -67.45717,-0.56912 -11.04984,1.92425 -24.74462,6.21692 -32.77992,10.27497 -23.17429,11.70363 -39.37055,31.89404 -44.32131,55.25132 -1.6834,7.94219 -1.85901,23.48409 -0.35821,31.70388 5.64504,30.91762 32.55585,54.74825 82.91661,73.42604 11.86481,4.40042 25.36401,10.74699 30.33892,14.26366 5.08695,3.59587 8.66108,9.55628 8.66108,14.44366 0,8.2062 -5.05607,14.0216 -14.8165,17.0417 -8.80183,2.72348 -38.99298,2.3803 -53.1835,-0.60453 -16.21916,-3.41153 -29.45473,-7.77206 -41.61322,-13.7097 -6.11228,-2.98494 -11.62478,-5.42717 -12.25,-5.42717 -1.48175,0 -1.6173,63.23362 -0.14146,65.99125 0.54742,1.02287 4.48492,3.20072 8.75,4.83965 30.09756,11.56557 67.29436,15.40124 102.51943,10.57164 z m -332.29993,-7.3368 c 0.67753,-1.26598 1.03518,-20.90853 1.03518,-56.85322 v -54.91896 l 27.25,0.0198 c 20.19715,0.0147 30.48525,-0.42088 39.75,-1.6829 38.29699,-5.2167 62.34126,-15.79274 83.08188,-36.54413 16.44052,-16.44907 25.39223,-33.50886 29.95468,-57.08634 6.79171,-35.09772 0.56603,-70.07904 -17.10258,-96.09722 -10.0216,-14.75745 -27.04894,-29.08738 -44.43398,-37.39489 -20.05256,-9.5822 -41.86086,-14.44673 -72,-16.06023 -18.55431,-0.99331 -118.78603,1.40494 -119.71403,2.8644 -0.41544,0.65337 -0.76224,80.41044 -0.77066,177.23794 -0.0118,135.61157 0.26033,176.32564 1.18469,177.25 0.88731,0.88731 10.25885,1.2 35.96482,1.2 33.3475,0 34.80702,-0.0789 35.8,-1.93426 z m 1.03518,-232.31801 v -57.47588 l 4.63957,-0.63593 c 2.55177,-0.34975 13.84358,-0.63592 25.09292,-0.63592 16.72939,0 22.29815,0.37595 30.58571,2.06484 24.88942,5.07215 39.09447,16.12417 45.84487,35.66893 2.00525,5.80591 2.32608,8.6113 2.26045,19.76623 -0.063,10.70079 -0.4709,14.1496 -2.3066,19.5 -5.13476,14.96596 -16.94259,26.20079 -33.69683,32.06159 -14.67584,5.13376 -21.74049,6.11973 -47.67009,6.65301 l -24.75,0.50902 z"
         id="path464" />
      <path
         style="fill:#7e8d99"
         d="m 239.54731,898.4264 c -15.80985,-1.80412 -35.43593,-7.57134 -48.98468,-14.39439 -19.88896,-10.01591 -43.63022,-30.96271 -55.43081,-48.90631 -10.91022,-16.58975 -18.53719,-35.51192 -22.20975,-55.1014 -1.80353,-9.62006 -1.87476,-20.20151 -1.87476,-278.5 0,-258.29849 0.0712,-268.87994 1.87476,-278.5 5.66288,-30.20586 18.3344,-54.24595 40.09357,-76.0645 17.90448,-17.95334 33.69857,-27.88518 56.4104,-35.47271 24.35979,-8.13808 -3.61197,-7.46279 309.12127,-7.46279 312.73324,0 284.76148,-0.67529 309.12127,7.46279 22.71183,7.58753 38.50592,17.51937 56.4104,35.47271 21.75917,21.81855 34.43069,45.85864 40.09357,76.0645 1.80353,9.62006 1.87476,20.20151 1.87476,278.5 0,258.29849 -0.0712,268.87994 -1.87476,278.5 -5.66288,30.20586 -18.3344,54.24595 -40.09357,76.0645 -17.90607,17.95493 -33.70338,27.88834 -56.4104,35.47108 -24.12637,8.05672 4.63297,7.34447 -304.62127,7.54416 -151.8,0.098 -279.375,-0.20691 -283.5,-0.67764 z m 458.5,-227.05791 c 18.61327,-2.18299 37.54545,-8.72225 50.58951,-17.47386 9.0109,-6.04567 20.69307,-18.36841 25.41036,-26.80371 13.14085,-23.49804 13.46706,-56.02558 0.77661,-77.43887 -5.57226,-9.40237 -14.25966,-18.31994 -24.55724,-25.20788 -10.79814,-7.22276 -33.19747,-18.37753 -47.21924,-23.51498 -13.82512,-5.06541 -29.65614,-12.6151 -35.59641,-16.97566 -10.00672,-7.34561 -11.70375,-17.76397 -4.17849,-25.6525 5.4836,-5.74831 20.4058,-8.25169 40.20532,-6.74492 20.74488,1.57871 36.72266,5.34741 53.93861,12.72258 6.31145,2.70377 8.77001,3.3324 10,2.5569 1.43828,-0.90683 1.65972,-4.50077 1.87428,-30.4198 0.18145,-21.91978 -0.0743,-30.02702 -1.00601,-31.89149 -0.97411,-1.94929 -3.36113,-3.20997 -10.83612,-5.72297 -22.98183,-7.72623 -65.76273,-10.39443 -92.34255,-5.75929 -33.87456,5.90723 -58.56054,22.97182 -70.52795,48.7536 -5.09376,10.97365 -7.03068,20.20718 -7.03068,33.5161 0,18.55392 4.7746,32.50592 15.92656,46.53948 6.9426,8.73653 15.25298,15.51281 29.17061,23.78569 12.15186,7.22327 18.79459,10.33983 36.02601,16.90223 25.41364,9.67852 35.20394,15.27446 39.47557,22.56346 5.02629,8.57671 2.14007,16.80628 -7.59875,21.66653 -8.18814,4.08637 -15.38532,5.06686 -32.5,4.42755 -24.55818,-0.91735 -47.29024,-6.55454 -67.73183,-16.79642 -5.35251,-2.68178 -10.42108,-4.87596 -11.26348,-4.87596 -1.35011,0 -1.50042,3.94107 -1.26817,33.25 l 0.26348,33.25 6.5,3.18385 c 23.16813,11.34827 66.75708,16.46959 103.5,12.16034 z m -330.53518,-7.77845 c 0.67752,-1.26596 1.03518,-20.90319 1.03518,-56.83601 v -54.90175 l 27.25,0.009 c 44.83334,0.0155 69.75863,-4.56995 94.75,-17.4311 12.01524,-6.18333 20.53748,-12.60659 30.34224,-22.86912 17.97111,-18.81015 26.84513,-39.45387 29.70463,-69.10211 3.58813,-37.20304 -6.48104,-70.27595 -28.54687,-93.76425 -21.39599,-22.77527 -46.95743,-34.6346 -87,-40.36396 -9.5756,-1.3701 -87.58265,-1.36663 -122.5,0.005 l -17.5,0.68766 -0.27358,176 c -0.15046,96.8 -0.0294,177.0125 0.26906,178.25 l 0.54262,2.25 h 35.44577 c 34.02073,0 35.48738,-0.0778 36.48095,-1.93426 z m 1.03518,-232.42645 v -57.36071 l 5.25,-0.6306 c 10.26583,-1.23307 43.18722,-0.70044 52.03111,0.84181 28.62076,4.99104 45.34242,19.17697 50.36677,42.72898 2.85823,13.39816 0.30771,31.3558 -5.97645,42.07893 -3.70882,6.32861 -14.20296,15.70712 -21.69126,19.38526 -14.92742,7.33212 -32.16027,10.30754 -59.73017,10.31302 l -20.25,0.004 z"
         id="path462" />
      <path
         style="fill:#2487cf"
         d="m 231.04731,897.05534 c -24.80213,-4.6081 -47.33645,-14.68001 -65.90883,-29.45849 -14.75551,-11.74132 -30.68456,-31.37925 -39.25124,-48.39041 -4.70436,-9.34161 -10.85916,-28.05736 -13.04974,-39.68214 -1.69222,-8.9801 -1.79019,-24.1941 -1.79019,-278 0,-301.49032 -0.66618,-274.78876 7.46279,-299.12127 6.9398,-20.77297 17.06669,-37.55777 32.2289,-53.41771 20.0225,-20.94391 42.34529,-33.8129 71.49048,-41.21396 l 10.81783,-2.74706 h 285.5 285.5 l 10.81783,2.74706 c 29.2216,7.42046 51.78855,20.49364 71.95257,41.68257 14.78794,15.5396 24.89987,32.39422 31.76681,52.9491 8.12897,24.33251 7.46279,-2.36905 7.46279,299.12127 0,301.49032 0.66618,274.78876 -7.46279,299.12127 -6.86694,20.55488 -16.97887,37.4095 -31.76681,52.9491 -19.95204,20.96618 -42.04052,33.85125 -71.42608,41.66562 l -10.34432,2.75082 -283.5,0.1724 c -228.99939,0.13925 -284.84569,-0.0776 -290.5,-1.12817 z m 467,-225.68685 c 18.61327,-2.18299 37.54545,-8.72225 50.58951,-17.47386 9.0109,-6.04567 20.69307,-18.36841 25.41036,-26.80371 13.14085,-23.49804 13.46706,-56.02558 0.77661,-77.43887 -5.57226,-9.40237 -14.25966,-18.31994 -24.55724,-25.20788 -10.79814,-7.22276 -33.19747,-18.37753 -47.21924,-23.51498 -13.82512,-5.06541 -29.65614,-12.6151 -35.59641,-16.97566 -10.00672,-7.34561 -11.70375,-17.76397 -4.17849,-25.6525 5.4836,-5.74831 20.4058,-8.25169 40.20532,-6.74492 20.74488,1.57871 36.72266,5.34741 53.93861,12.72258 6.31145,2.70377 8.77001,3.3324 10,2.5569 1.43828,-0.90683 1.65972,-4.50077 1.87428,-30.4198 0.18145,-21.91978 -0.0743,-30.02702 -1.00601,-31.89149 -0.97411,-1.94929 -3.36113,-3.20997 -10.83612,-5.72297 -22.98183,-7.72623 -65.76273,-10.39443 -92.34255,-5.75929 -33.87456,5.90723 -58.56054,22.97182 -70.52795,48.7536 -5.09376,10.97365 -7.03068,20.20718 -7.03068,33.5161 0,18.55392 4.7746,32.50592 15.92656,46.53948 6.9426,8.73653 15.25298,15.51281 29.17061,23.78569 12.15186,7.22327 18.79459,10.33983 36.02601,16.90223 25.41364,9.67852 35.20394,15.27446 39.47557,22.56346 5.02629,8.57671 2.14007,16.80628 -7.59875,21.66653 -8.18814,4.08637 -15.38532,5.06686 -32.5,4.42755 -24.55818,-0.91735 -47.29024,-6.55454 -67.73183,-16.79642 -5.35251,-2.68178 -10.42108,-4.87596 -11.26348,-4.87596 -1.35011,0 -1.50042,3.94107 -1.26817,33.25 l 0.26348,33.25 6.5,3.18385 c 23.16813,11.34827 66.75708,16.46959 103.5,12.16034 z m -330.53518,-7.77845 c 0.67752,-1.26596 1.03518,-20.90319 1.03518,-56.83601 v -54.90175 l 27.25,0.009 c 44.83334,0.0155 69.75863,-4.56995 94.75,-17.4311 12.01524,-6.18333 20.53748,-12.60659 30.34224,-22.86912 17.97111,-18.81015 26.84513,-39.45387 29.70463,-69.10211 3.58813,-37.20304 -6.48104,-70.27595 -28.54687,-93.76425 -21.39599,-22.77527 -46.95743,-34.6346 -87,-40.36396 -9.5756,-1.3701 -87.58265,-1.36663 -122.5,0.005 l -17.5,0.68766 -0.27358,176 c -0.15046,96.8 -0.0294,177.0125 0.26906,178.25 l 0.54262,2.25 h 35.44577 c 34.02073,0 35.48738,-0.0778 36.48095,-1.93426 z m 1.03518,-232.42645 v -57.36071 l 5.25,-0.6306 c 10.26583,-1.23307 43.18722,-0.70044 52.03111,0.84181 28.62076,4.99104 45.34242,19.17697 50.36677,42.72898 2.85823,13.39816 0.30771,31.3558 -5.97645,42.07893 -3.70882,6.32861 -14.20296,15.70712 -21.69126,19.38526 -14.92742,7.33212 -32.16027,10.30754 -59.73017,10.31302 l -20.25,0.004 z"
         id="path460" />
      <path
         style="fill:#217cbf"
         d="m 231.04731,897.05534 c -24.80213,-4.6081 -47.33645,-14.68001 -65.90883,-29.45849 -14.75551,-11.74132 -30.68456,-31.37925 -39.25124,-48.39041 -4.70436,-9.34161 -10.85916,-28.05736 -13.04974,-39.68214 -1.69222,-8.9801 -1.79019,-24.1941 -1.79019,-278 0,-301.49032 -0.66618,-274.78876 7.46279,-299.12127 6.9398,-20.77297 17.06669,-37.55777 32.2289,-53.41771 20.0225,-20.94391 42.34529,-33.8129 71.49048,-41.21396 l 10.81783,-2.74706 h 285.5 285.5 l 10.81783,2.74706 c 29.2216,7.42046 51.78855,20.49364 71.95257,41.68257 14.78794,15.5396 24.89987,32.39422 31.76681,52.9491 8.12897,24.33251 7.46279,-2.36905 7.46279,299.12127 0,301.49032 0.66618,274.78876 -7.46279,299.12127 -6.86694,20.55488 -16.97887,37.4095 -31.76681,52.9491 -19.95204,20.96618 -42.04052,33.85125 -71.42608,41.66562 l -10.34432,2.75082 -283.5,0.1724 c -228.99939,0.13925 -284.84569,-0.0776 -290.5,-1.12817 z m 471.5,-226.11998 c 36.27287,-6.24463 61.25652,-22.53353 73.48522,-47.91106 6.29147,-13.05634 7.928,-20.47628 7.94009,-36 0.008,-10.5364 -0.42022,-14.50752 -2.26075,-20.95493 -8.03628,-28.15125 -30.4817,-46.86222 -77.66456,-64.74283 -17.26772,-6.54384 -34.10583,-15.04467 -38.83242,-19.6048 -5.42644,-5.23531 -6.98897,-8.65375 -6.38892,-13.97739 1.39815,-12.40431 12.92694,-16.96148 40.35618,-15.95224 22.23327,0.81807 41.79195,5.01288 57.21895,12.27192 4.04459,1.90315 8.11709,3.46027 9.05,3.46027 3.91862,0 4.09621,-1.39803 4.09621,-32.24545 0,-35.08654 0.84716,-32.6746 -13.01075,-37.04301 -28.30038,-8.92111 -76.7626,-10.22123 -103.53262,-2.77753 -37.30972,10.37438 -61.171,36.07799 -65.44868,70.50198 -3.00013,24.14311 5.82393,48.20669 23.68145,64.58032 12.62029,11.57159 29.41125,20.93143 58.1821,32.43264 11.75433,4.69881 23.73497,9.89554 26.62366,11.54828 6.10771,3.49448 13.14944,10.73855 14.09299,14.49795 0.96149,3.83091 -0.15568,9.08874 -2.6863,12.64266 -11.34591,15.93387 -69.18335,11.80776 -108.04076,-7.70761 -9.62496,-4.83394 -11.33928,-5.23243 -12.2541,-2.84844 -0.33385,0.86998 -0.60036,14.93248 -0.59225,31.25 0.0163,32.69077 0.14636,33.47829 6.01301,36.39379 10.87259,5.40326 37.77275,11.88814 56.97225,13.73441 13.07837,1.25765 41.52696,0.42623 53,-1.54893 z m -335.03518,-7.34532 c 0.67747,-1.26586 1.03518,-20.87925 1.03518,-56.75896 v -54.8247 l 28.25,-0.003 c 29.98578,-0.003 38.80325,-0.77484 58.75,-5.14482 26.36677,-5.77649 47.11241,-16.49062 63.32732,-32.70553 20.6998,-20.6998 30.87644,-45.74629 32.35416,-79.6292 2.65458,-60.86736 -30.83803,-105.68936 -90.73216,-121.4237 -22.13193,-5.81412 -26.44523,-6.10048 -87.44932,-5.80576 -30.8,0.1488 -60.95,0.5988 -67,1 l -11,0.72946 -0.25663,177 c -0.14115,97.35 -0.0428,177.5625 0.21861,178.25 0.36788,0.9676 8.49462,1.25 35.97145,1.25 34.0706,0 35.53778,-0.0777 36.53139,-1.93426 z m 2.78518,-175.75507 c -1.64077,-0.42877 -1.75,-4.0042 -1.75,-57.2833 v -56.82598 l 12.75,-0.73563 c 50.79259,-2.93056 77.98748,6.27431 90.11354,30.50143 5.15746,10.30431 6.86507,21.39168 5.24282,34.0413 -1.92103,14.97943 -5.47703,22.41596 -14.88293,31.12416 -10.78225,9.98247 -26.55228,16.18309 -47.72343,18.76439 -8.66484,1.05646 -40.15101,1.35415 -43.75,0.41363 z"
         id="path458" />
      <path
         style="fill:#607282"
         d="m 231.04731,897.05534 c -24.80213,-4.6081 -47.33645,-14.68001 -65.90883,-29.45849 -14.75551,-11.74132 -30.68456,-31.37925 -39.25124,-48.39041 -4.70436,-9.34161 -10.85916,-28.05736 -13.04974,-39.68214 -1.69222,-8.9801 -1.79019,-24.1941 -1.79019,-278 0,-301.49032 -0.66618,-274.78876 7.46279,-299.12127 6.9398,-20.77297 17.06669,-37.55777 32.2289,-53.41771 20.0225,-20.94391 42.34529,-33.8129 71.49048,-41.21396 l 10.81783,-2.74706 h 285.5 285.5 l 10.81783,2.74706 c 29.2216,7.42046 51.78855,20.49364 71.95257,41.68257 14.78794,15.5396 24.89987,32.39422 31.76681,52.9491 8.12897,24.33251 7.46279,-2.36905 7.46279,299.12127 0,301.49032 0.66618,274.78876 -7.46279,299.12127 -6.86694,20.55488 -16.97887,37.4095 -31.76681,52.9491 -19.95204,20.96618 -42.04052,33.85125 -71.42608,41.66562 l -10.34432,2.75082 -283.5,0.1724 c -228.99939,0.13925 -284.84569,-0.0776 -290.5,-1.12817 z M 702.07713,671.06866 c 25.63385,-4.20593 44.95184,-13.18602 59.35944,-27.59362 10.12257,-10.12257 16.33326,-20.71289 20.32137,-34.65156 2.90557,-10.15514 3.16176,-31.25817 0.50135,-41.29918 -7.53357,-28.43356 -29.72088,-47.45365 -76.49225,-65.57307 -29.61278,-11.47212 -43.58701,-19.9497 -46.26622,-28.0678 -2.34175,-7.09557 0.96705,-14.76164 7.8807,-18.25856 15.65289,-7.91723 60.62367,-4.03974 86.47897,7.45643 10.08287,4.48319 12.28938,5.01773 14.19257,3.43823 1.26475,-1.04965 1.49425,-5.83599 1.49425,-31.16313 v -29.92301 l -2.36996,-2.36996 c -5.88123,-5.88123 -33.75118,-11.27517 -63.13004,-12.21817 -44.90544,-1.44136 -74.60188,8.04511 -95.66553,30.56018 -8.85204,9.462 -13.13616,16.39491 -16.90537,27.35765 -10.1938,29.64858 -2.87883,60.48785 19.31797,81.4429 11.8599,11.19642 34.22996,23.71324 58.75293,32.8743 24.12806,9.01354 36.82058,16.76821 39.99699,24.43674 1.65701,4.00037 0.76268,10.13168 -2.05503,14.08878 -11.34386,15.93098 -70.11399,11.74484 -107.99594,-7.69245 -9.26524,-4.754 -11.40517,-5.24086 -12.33903,-2.80727 -0.33385,0.86998 -0.60036,14.93248 -0.59225,31.25 0.0163,32.69278 0.14729,33.48571 6.01301,36.38369 11.63174,5.74671 36.64743,11.77035 57.10853,13.75144 12.4393,1.2044 41.13093,0.42538 52.39354,-1.42256 z M 367.34731,664.3243 c 0.90453,-0.90453 1.19999,-14.87773 1.19996,-56.75 l -4e-5,-55.55 28.25004,-0.0206 c 35.14498,-0.0256 49.81134,-1.76947 72.02667,-8.56399 26.03764,-7.96357 47.70914,-23.02333 62.04856,-43.11822 19.79738,-27.74356 26.05,-71.13165 15.67866,-108.79719 -3.05858,-11.10784 -11.92074,-28.24614 -19.49377,-37.6985 -16.66026,-20.79466 -41.04069,-34.98701 -72.51008,-42.2096 -18.71411,-4.2951 -24.76926,-4.60645 -83.5,-4.2935 -30.8,0.16412 -60.5,0.61412 -66,1 l -10,0.7016 -0.25663,177 c -0.14115,97.35 -0.0428,177.5625 0.21861,178.25 0.67335,1.77104 70.56867,1.81935 72.33802,0.05 z m 2.95,-176.42621 c -1.64003,-0.48773 -1.75,-4.09128 -1.75,-57.34467 v -56.82423 l 13.75,-0.73821 c 7.5625,-0.40601 20.05,-0.48516 27.75,-0.17588 36.34201,1.45971 57.40619,14.46595 65.12059,40.2092 2.33241,7.78333 2.33709,24.44285 0.009,33.39482 -5.35097,20.57896 -22.24148,33.55242 -51.65477,39.6756 -7.38769,1.53794 -49.33826,2.95931 -53.2252,1.80337 z"
         id="path456" />
      <path
         style="fill:#1c6fad"
         d="m 236.54731,897.84973 c -33.17448,-5.49738 -59.32031,-18.10678 -81.36824,-39.24163 -21.80434,-20.90134 -35.90466,-47.4089 -42.33348,-79.5838 -1.70423,-8.52929 -1.79828,-23.04294 -1.79828,-277.5 0,-254.45706 0.094,-268.97071 1.79828,-277.5 5.15819,-25.81566 14.07745,-45.6665 29.20544,-65 20.57486,-26.29458 50.34957,-44.66761 84.49628,-52.13994 8.1755,-1.78905 19.3229,-1.86006 292,-1.86006 272.6771,0 283.8245,0.071 292,1.86006 34.17917,7.47944 63.87561,25.81477 84.56062,52.20985 15.08034,19.24325 24.44206,40.24967 29.15957,65.43009 1.67835,8.95846 1.77981,24.777 1.77981,277.5 0,253.97575 -0.0941,268.47096 -1.79828,277 -11.97933,59.95407 -52.11226,101.96447 -111.57215,116.79167 l -8.62957,2.15191 -282.5,0.14806 c -155.375,0.0814 -283.625,-0.0384 -285,-0.26621 z M 702.07713,671.06866 c 25.63385,-4.20593 44.95184,-13.18602 59.35944,-27.59362 10.12257,-10.12257 16.33326,-20.71289 20.32137,-34.65156 2.90557,-10.15514 3.16176,-31.25817 0.50135,-41.29918 -7.53357,-28.43356 -29.72088,-47.45365 -76.49225,-65.57307 -29.61278,-11.47212 -43.58701,-19.9497 -46.26622,-28.0678 -2.34175,-7.09557 0.96705,-14.76164 7.8807,-18.25856 15.65289,-7.91723 60.62367,-4.03974 86.47897,7.45643 10.08287,4.48319 12.28938,5.01773 14.19257,3.43823 1.26475,-1.04965 1.49425,-5.83599 1.49425,-31.16313 v -29.92301 l -2.36996,-2.36996 c -5.88123,-5.88123 -33.75118,-11.27517 -63.13004,-12.21817 -44.90544,-1.44136 -74.60188,8.04511 -95.66553,30.56018 -8.85204,9.462 -13.13616,16.39491 -16.90537,27.35765 -10.1938,29.64858 -2.87883,60.48785 19.31797,81.4429 11.8599,11.19642 34.22996,23.71324 58.75293,32.8743 24.12806,9.01354 36.82058,16.76821 39.99699,24.43674 1.65701,4.00037 0.76268,10.13168 -2.05503,14.08878 -11.34386,15.93098 -70.11399,11.74484 -107.99594,-7.69245 -9.26524,-4.754 -11.40517,-5.24086 -12.33903,-2.80727 -0.33385,0.86998 -0.60036,14.93248 -0.59225,31.25 0.0163,32.69278 0.14729,33.48571 6.01301,36.38369 11.63174,5.74671 36.64743,11.77035 57.10853,13.75144 12.4393,1.2044 41.13093,0.42538 52.39354,-1.42256 z M 367.34731,664.3243 c 0.90453,-0.90453 1.19999,-14.87773 1.19996,-56.75 l -4e-5,-55.55 28.25004,-0.0206 c 35.14498,-0.0256 49.81134,-1.76947 72.02667,-8.56399 26.03764,-7.96357 47.70914,-23.02333 62.04856,-43.11822 19.79738,-27.74356 26.05,-71.13165 15.67866,-108.79719 -3.05858,-11.10784 -11.92074,-28.24614 -19.49377,-37.6985 -16.66026,-20.79466 -41.04069,-34.98701 -72.51008,-42.2096 -18.71411,-4.2951 -24.76926,-4.60645 -83.5,-4.2935 -30.8,0.16412 -60.5,0.61412 -66,1 l -10,0.7016 -0.25663,177 c -0.14115,97.35 -0.0428,177.5625 0.21861,178.25 0.67335,1.77104 70.56867,1.81935 72.33802,0.05 z m 2.95,-176.42621 c -1.64003,-0.48773 -1.75,-4.09128 -1.75,-57.34467 v -56.82423 l 13.75,-0.73821 c 7.5625,-0.40601 20.05,-0.48516 27.75,-0.17588 36.34201,1.45971 57.40619,14.46595 65.12059,40.2092 2.33241,7.78333 2.33709,24.44285 0.009,33.39482 -5.35097,20.57896 -22.24148,33.55242 -51.65477,39.6756 -7.38769,1.53794 -49.33826,2.95931 -53.2252,1.80337 z"
         id="path454" />
      <path
         style="fill:#18629a"
         d="m 236.54731,897.84973 c -33.17448,-5.49738 -59.32031,-18.10678 -81.36824,-39.24163 -21.80434,-20.90134 -35.90466,-47.4089 -42.33348,-79.5838 -1.70423,-8.52929 -1.79828,-23.04294 -1.79828,-277.5 0,-254.45706 0.094,-268.97071 1.79828,-277.5 5.15819,-25.81566 14.07745,-45.6665 29.20544,-65 20.57486,-26.29458 50.34957,-44.66761 84.49628,-52.13994 8.1755,-1.78905 19.3229,-1.86006 292,-1.86006 272.6771,0 283.8245,0.071 292,1.86006 34.17917,7.47944 63.87561,25.81477 84.56062,52.20985 15.08034,19.24325 24.44206,40.24967 29.15957,65.43009 1.67835,8.95846 1.77981,24.777 1.77981,277.5 0,253.97575 -0.0941,268.47096 -1.79828,277 -11.97933,59.95407 -52.11226,101.96447 -111.57215,116.79167 l -8.62957,2.15191 -282.5,0.14806 c -155.375,0.0814 -283.625,-0.0384 -285,-0.26621 z m 453.5,-225.34127 c 43.19803,-3.98275 72.61341,-21.0304 86.45942,-50.10747 5.15331,-10.82209 6.98681,-18.04772 7.70809,-30.37669 1.0057,-17.19079 -2.6812,-32.74214 -10.66919,-45.00258 -11.19777,-17.187 -36.14828,-33.67458 -69.49832,-45.92528 -5.5,-2.02036 -15.86498,-6.53198 -23.03329,-10.02583 -19.60064,-9.55339 -25.02207,-16.56668 -20.98266,-27.14371 3.6661,-9.59954 14.42373,-12.9253 39.01595,-12.06192 22.2913,0.7826 40.94897,4.85534 58.31492,12.72944 7.24661,3.28577 10.68108,3.68566 11.57809,1.34809 0.33385,-0.86998 0.60699,-14.95897 0.60699,-31.30887 0,-22.2352 -0.31503,-30.14282 -1.25,-31.37671 -1.66005,-2.19076 -17.12655,-7.2649 -27.83757,-9.13275 -31.82889,-5.55049 -72.14281,-4.29162 -93.41243,2.91696 -40.9908,13.89238 -64.2161,47.85641 -59.58387,87.13376 4.14411,35.13845 27.52831,57.75843 81.45612,78.79401 29.04613,11.33 39.53391,18.2078 41.18498,27.00875 0.91596,4.88251 -1.81769,11.88385 -5.72684,14.66741 -17.30039,12.31897 -69.33134,6.99173 -104.65488,-10.71519 -7.87842,-3.94928 -10.91952,-5.033 -11.88198,-4.23422 -1.00753,0.83617 -1.29353,7.98129 -1.29353,32.31623 0,37.07592 -0.8959,34.37814 13.20514,39.76387 13.98899,5.34293 31.24426,8.83621 54.79486,11.09306 7.96862,0.76363 25.20676,0.58865 35.5,-0.36036 z m -322.7,-8.18416 c 0.90453,-0.90453 1.19999,-14.87772 1.19995,-56.75 l -6e-5,-55.55 29.25006,-0.0362 c 31.75088,-0.0393 43.31653,-1.15952 62.86379,-6.08879 38.65274,-9.74715 66.70062,-32.23411 81.23985,-65.13281 6.62173,-14.98335 10.2468,-37.70903 9.36781,-58.72706 -0.84019,-20.0899 -4.34141,-33.88668 -12.8193,-50.51514 -14.57406,-28.58545 -41.83731,-49.23429 -77.10347,-58.39721 -22.73209,-5.9063 -26.12328,-6.12847 -88.79863,-5.81752 -31.625,0.15691 -62,0.60691 -67.5,1 l -10,0.71473 -0.25663,177 c -0.14115,97.35 -0.0428,177.5625 0.21861,178.25 0.67335,1.77104 70.56867,1.81935 72.33802,0.05 z m 2.95,-176.48933 c -1.64077,-0.42877 -1.75,-4.00412 -1.75,-57.28155 v -56.82423 l 13.7312,-0.73544 c 16.03889,-0.85903 37.42723,-0.14525 45.2688,1.51074 33.42095,7.05787 49.49304,24.97047 49.37856,55.03323 -0.0682,17.91635 -4.96253,29.9851 -16.25218,40.07587 -10.22982,9.14348 -26.50485,15.22838 -47.62638,17.80652 -8.67038,1.05832 -39.15565,1.35417 -42.75,0.41486 z"
         id="path452" />
      <path
         style="fill:#405567"
         d="m 236.54731,897.84973 c -33.17448,-5.49738 -59.32031,-18.10678 -81.36824,-39.24163 -21.80434,-20.90134 -35.90466,-47.4089 -42.33348,-79.5838 -1.70423,-8.52929 -1.79828,-23.04294 -1.79828,-277.5 0,-254.45706 0.094,-268.97071 1.79828,-277.5 5.15819,-25.81566 14.07745,-45.6665 29.20544,-65 20.57486,-26.29458 50.34957,-44.66761 84.49628,-52.13994 8.1755,-1.78905 19.3229,-1.86006 292,-1.86006 272.6771,0 283.8245,0.071 292,1.86006 34.17917,7.47944 63.87561,25.81477 84.56062,52.20985 15.08034,19.24325 24.44206,40.24967 29.15957,65.43009 1.67835,8.95846 1.77981,24.777 1.77981,277.5 0,253.97575 -0.0941,268.47096 -1.79828,277 -11.97933,59.95407 -52.11226,101.96447 -111.57215,116.79167 l -8.62957,2.15191 -282.5,0.14806 c -155.375,0.0814 -283.625,-0.0384 -285,-0.26621 z M 703.35,671.13001 c 27.74836,-5.116 48.91155,-15.98656 62.64966,-32.18027 7.00916,-8.262 10.74435,-14.97751 14.70951,-26.44631 3.13217,-9.05948 3.27787,-10.1432 3.29101,-24.47913 0.0156,-17.05498 -1.23608,-23.20471 -7.20007,-35.37432 -4.48399,-9.14964 -16.35758,-22.02196 -26.56475,-28.79921 -9.80859,-6.51261 -33.1439,-18.11947 -44.68805,-22.22762 -5.225,-1.85939 -15.80399,-6.41175 -23.50887,-10.11635 -20.65186,-9.92968 -26.1272,-16.79153 -22.00708,-27.5799 3.59963,-9.42552 14.86106,-12.95439 38.51595,-12.06933 21.24352,0.79483 40.39844,4.85005 57.39808,12.15155 4.69151,2.01504 9.55869,3.51779 10.81596,3.33944 l 2.28596,-0.32426 0.26451,-30.78863 c 0.16858,-19.62307 -0.10708,-31.48295 -0.76013,-32.70319 -1.47911,-2.76375 -20.0534,-8.50227 -34.53488,-10.66955 -17.06527,-2.55397 -58.2759,-2.59124 -70.67931,-0.0639 -26.52015,5.40375 -45.86712,16.2065 -59.50419,33.22529 -20.58694,25.6921 -22.69823,63.55617 -5.02611,90.13883 11.95485,17.98265 37.19127,34.81903 70.24011,46.86042 5.5,2.00393 15.00525,6.0648 21.12279,9.02416 16.42019,7.94327 22.44511,15.68075 19.39841,24.91235 -3.72654,11.29154 -21.11882,16.18613 -48.41528,13.62518 -23.05822,-2.16331 -43.35501,-7.68603 -61.29405,-16.67799 -8.08865,-4.05444 -10.97661,-5.07616 -11.98428,-4.23986 -1.05161,0.87276 -1.32759,7.59642 -1.32759,32.3445 0,29.84238 0.0906,31.35791 2.02211,33.81339 4.72411,6.00573 34.66238,14.19207 62.47789,17.08398 8.77546,0.91237 44.24902,-0.29438 52.30269,-1.77925 z m -337.0252,-6.16241 2.22251,-1.55671 v -55.32118 -55.32118 l 30.75,-0.52199 c 31.77353,-0.53936 42.95453,-1.63514 59.75,-5.85568 26.46052,-6.64929 44.44973,-16.49811 61,-33.39661 14.93066,-15.24482 23.94442,-32.26898 28.84013,-54.46995 1.76846,-8.01958 2.08877,-12.77251 2.05543,-30.5 -0.0364,-19.32878 -0.24346,-21.75603 -2.60236,-30.5 -7.09981,-26.31751 -19.01708,-45.45725 -37.42304,-60.10332 -20.44814,-16.27107 -45.37448,-25.72233 -77.82914,-29.51028 -12.23794,-1.42836 -21.87167,-1.54968 -75.02026,-0.94479 -40.28763,0.45852 -61.41044,1.05187 -62.25,1.74865 -1.01894,0.84563 -1.27076,36.19544 -1.27076,178.38249 0,167.82872 0.0937,177.38247 1.75,178.34715 1.08974,0.63472 14.2109,1.03076 34.77749,1.04969 28.3077,0.0261 33.34511,-0.19205 35.25,-1.52629 z m 6.47251,-177.17551 -4.25,-0.38279 V 430.62 373.8307 l 20.25,-0.68758 c 23.12406,-0.78517 35.60589,0.2451 48.60425,4.01188 11.43191,3.31283 17.36009,6.65042 24.63451,13.8693 10.65585,10.5745 14.51124,20.80329 14.51124,38.5 0,6.27388 -0.62319,12.97238 -1.53119,16.45845 -6.27677,24.09814 -27.98463,38.03999 -64.5645,41.46646 -10.83236,1.01468 -28.41767,1.17481 -37.65431,0.34288 z"
         id="path450" />
      <path
         style="fill:#125485"
         d="M 229.54731,896.49815 C 169.87141,885.90064 122.74226,837.9963 113.01994,778.05412 c -2.20426,-13.59022 -2.20426,-539.46942 0,-553.05964 2.89439,-17.84509 10.46679,-38.12582 19.77797,-52.97018 14.40856,-22.97086 36.15844,-42.25544 60.79262,-53.90189 12.6498,-5.98052 23.14034,-9.30053 36.80615,-11.6483 11.06555,-1.90105 18.27173,-1.94981 288.15063,-1.94981 269.8789,0 277.08508,0.0488 288.15063,1.94981 60.22096,10.34588 107.58911,58.17555 117.37674,118.52037 2.20426,13.59022 2.20426,539.46942 0,553.05964 -2.89439,17.84509 -10.46679,38.12582 -19.77797,52.97018 -14.40856,22.97086 -36.15844,42.25544 -60.79262,53.90189 -12.6498,5.98052 -23.14034,9.30053 -36.80615,11.6483 -11.07412,1.90252 -18.08332,1.94785 -289,1.86905 -266.3122,-0.0774 -278.07942,-0.1569 -288.15063,-1.94539 z M 703.35,671.13001 c 27.74836,-5.116 48.91155,-15.98656 62.64966,-32.18027 7.00916,-8.262 10.74435,-14.97751 14.70951,-26.44631 3.13217,-9.05948 3.27787,-10.1432 3.29101,-24.47913 0.0156,-17.05498 -1.23608,-23.20471 -7.20007,-35.37432 -4.48399,-9.14964 -16.35758,-22.02196 -26.56475,-28.79921 -9.80859,-6.51261 -33.1439,-18.11947 -44.68805,-22.22762 -5.225,-1.85939 -15.80399,-6.41175 -23.50887,-10.11635 -20.65186,-9.92968 -26.1272,-16.79153 -22.00708,-27.5799 3.59963,-9.42552 14.86106,-12.95439 38.51595,-12.06933 21.24352,0.79483 40.39844,4.85005 57.39808,12.15155 4.69151,2.01504 9.55869,3.51779 10.81596,3.33944 l 2.28596,-0.32426 0.26451,-30.78863 c 0.16858,-19.62307 -0.10708,-31.48295 -0.76013,-32.70319 -1.47911,-2.76375 -20.0534,-8.50227 -34.53488,-10.66955 -17.06527,-2.55397 -58.2759,-2.59124 -70.67931,-0.0639 -26.52015,5.40375 -45.86712,16.2065 -59.50419,33.22529 -20.58694,25.6921 -22.69823,63.55617 -5.02611,90.13883 11.95485,17.98265 37.19127,34.81903 70.24011,46.86042 5.5,2.00393 15.00525,6.0648 21.12279,9.02416 16.42019,7.94327 22.44511,15.68075 19.39841,24.91235 -3.72654,11.29154 -21.11882,16.18613 -48.41528,13.62518 -23.05822,-2.16331 -43.35501,-7.68603 -61.29405,-16.67799 -8.08865,-4.05444 -10.97661,-5.07616 -11.98428,-4.23986 -1.05161,0.87276 -1.32759,7.59642 -1.32759,32.3445 0,29.84238 0.0906,31.35791 2.02211,33.81339 4.72411,6.00573 34.66238,14.19207 62.47789,17.08398 8.77546,0.91237 44.24902,-0.29438 52.30269,-1.77925 z m -337.0252,-6.16241 2.22251,-1.55671 v -55.32118 -55.32118 l 30.75,-0.52199 c 31.77353,-0.53936 42.95453,-1.63514 59.75,-5.85568 26.46052,-6.64929 44.44973,-16.49811 61,-33.39661 14.93066,-15.24482 23.94442,-32.26898 28.84013,-54.46995 1.76846,-8.01958 2.08877,-12.77251 2.05543,-30.5 -0.0364,-19.32878 -0.24346,-21.75603 -2.60236,-30.5 -7.09981,-26.31751 -19.01708,-45.45725 -37.42304,-60.10332 -20.44814,-16.27107 -45.37448,-25.72233 -77.82914,-29.51028 -12.23794,-1.42836 -21.87167,-1.54968 -75.02026,-0.94479 -40.28763,0.45852 -61.41044,1.05187 -62.25,1.74865 -1.01894,0.84563 -1.27076,36.19544 -1.27076,178.38249 0,167.82872 0.0937,177.38247 1.75,178.34715 1.08974,0.63472 14.2109,1.03076 34.77749,1.04969 28.3077,0.0261 33.34511,-0.19205 35.25,-1.52629 z m 6.47251,-177.17551 -4.25,-0.38279 V 430.62 373.8307 l 20.25,-0.68758 c 23.12406,-0.78517 35.60589,0.2451 48.60425,4.01188 11.43191,3.31283 17.36009,6.65042 24.63451,13.8693 10.65585,10.5745 14.51124,20.80329 14.51124,38.5 0,6.27388 -0.62319,12.97238 -1.53119,16.45845 -6.27677,24.09814 -27.98463,38.03999 -64.5645,41.46646 -10.83236,1.01468 -28.41767,1.17481 -37.65431,0.34288 z"
         id="path448" />
      <path
         style="fill:#30485b"
         d="M 229.54731,896.49815 C 169.87141,885.90064 122.74226,837.9963 113.01994,778.05412 c -2.20426,-13.59022 -2.20426,-539.46942 0,-553.05964 2.89439,-17.84509 10.46679,-38.12582 19.77797,-52.97018 14.40856,-22.97086 36.15844,-42.25544 60.79262,-53.90189 12.6498,-5.98052 23.14034,-9.30053 36.80615,-11.6483 11.06555,-1.90105 18.27173,-1.94981 288.15063,-1.94981 269.8789,0 277.08508,0.0488 288.15063,1.94981 60.22096,10.34588 107.58911,58.17555 117.37674,118.52037 2.20426,13.59022 2.20426,539.46942 0,553.05964 -2.89439,17.84509 -10.46679,38.12582 -19.77797,52.97018 -14.40856,22.97086 -36.15844,42.25544 -60.79262,53.90189 -12.6498,5.98052 -23.14034,9.30053 -36.80615,11.6483 -11.07412,1.90252 -18.08332,1.94785 -289,1.86905 -266.3122,-0.0774 -278.07942,-0.1569 -288.15063,-1.94539 z m 474.5,-225.39008 c 43.96024,-7.87897 71.79427,-31.65264 79.04962,-67.51805 2.44559,-12.08934 1.61837,-29.6695 -1.9088,-40.56572 -6.99937,-21.62263 -20.91759,-35.347 -51.64082,-50.92156 -6.875,-3.48515 -18.125,-8.44161 -25,-11.01436 -16.49103,-6.17123 -33.49159,-14.51808 -38.67134,-18.98665 -8.26023,-7.1261 -9.06437,-16.56431 -1.99507,-23.41614 4.65089,-4.50782 11.11572,-6.27105 25.16641,-6.86393 20.66827,-0.87211 46.04064,3.58933 64.22073,11.29249 4.8286,2.04594 10.35427,3.7627 12.27927,3.81502 l 3.5,0.0951 0.26423,-31.23577 c 0.30764,-36.36819 1.23201,-33.34797 -11.49377,-37.55389 -15.25464,-5.04171 -36.16985,-7.66666 -61.29669,-7.69301 -27.05451,-0.0284 -44.78219,3.27429 -61.97377,11.54569 -23.12532,11.1263 -38.57938,28.91581 -45.16772,51.99357 -2.94501,10.31584 -3.18708,30.48099 -0.48346,40.27406 5.31578,19.25487 16.58471,34.01049 35.65118,46.6819 13.21053,8.77961 24.18838,14.20479 46.44854,22.95456 26.41718,10.38376 34.06278,15.11636 37.77938,23.38527 2.45756,5.46774 1.75694,9.95633 -2.26997,14.54273 -13.44083,15.30826 -68.29116,11.00879 -106.93157,-8.38187 -8.09238,-4.06095 -10.48856,-4.87456 -11.61148,-3.94262 -1.92747,1.59966 -2.04909,63.51321 -0.12971,66.03324 4.21233,5.53055 30.22648,13.22048 55.71481,16.46962 13.89687,1.77151 48.22739,1.2099 60.5,-0.98971 z m -337.07143,-6.1552 c 1.39077,-1.39077 1.57143,-7.94372 1.57143,-57 V 552.5243 l 24.25,-0.003 c 27.84579,-0.004 42.24685,-1.10205 59.35155,-4.52576 29.15069,-5.83486 52.82054,-18.24796 69.83173,-36.62162 20.46238,-22.10169 29.56672,-47.74895 29.56672,-83.29099 0,-28.16801 -7.16503,-51.50907 -21.88697,-71.29982 -18.30853,-24.61221 -46.84173,-40.60115 -84.61303,-47.41399 -12.87287,-2.32189 -13.65033,-2.3428 -79.5,-2.1378 -36.575,0.11387 -67.5125,0.45994 -68.75,0.76906 l -2.25,0.56202 v 177.78095 c 0,136.94074 0.27567,178.05662 1.2,178.98095 0.88659,0.88659 10.13968,1.2 35.42857,1.2 29.78355,0 34.43264,-0.20407 35.8,-1.57143 z m 5.82143,-177.08781 -4.25,-0.45576 v -56.78756 -56.78756 l 20.75,-0.66147 c 22.42436,-0.71485 32.98948,0.0704 45.67758,3.39495 27.44509,7.19121 41.59716,24.98728 41.55764,52.25826 -0.047,32.39117 -15.71542,49.09113 -53.25155,56.75721 -10.13876,2.07066 -39.90645,3.4162 -50.48367,2.28193 z"
         id="path446" />
      <path
         style="fill:#0b4068"
         d="m 238.04731,897.84268 c -47.6453,-6.28493 -88.35741,-34.46812 -110.47169,-76.47464 -2.72182,-5.17016 -6.73079,-14.78756 -8.90882,-21.37201 -7.67853,-23.21309 -7.11949,0.22346 -7.11949,-298.47173 0,-298.29686 -0.53985,-275.31301 7.00232,-298.12127 16.55888,-50.07572 55.91811,-84.9301 108.99768,-96.52238 8.16885,-1.78403 19.50603,-1.85635 291,-1.85635 271.49397,0 282.83115,0.0723 291,1.85635 13.49608,2.94747 23.67147,6.42434 35.5,12.13013 34.58383,16.68238 61.17171,47.13316 73.38051,84.04179 7.67853,23.21309 7.11949,-0.22346 7.11949,298.47173 0,298.69519 0.55904,275.25864 -7.11949,298.47173 -7.2574,21.93996 -18.40934,40.0021 -34.88806,56.50612 -19.7121,19.74235 -41.8855,31.91129 -71.49245,39.23561 l -9,2.22646 -281,0.1371 c -154.55,0.0754 -282.35,-0.041 -284,-0.25864 z m 466,-226.73461 c 43.96024,-7.87897 71.79427,-31.65264 79.04962,-67.51805 2.44559,-12.08934 1.61837,-29.6695 -1.9088,-40.56572 -6.99937,-21.62263 -20.91759,-35.347 -51.64082,-50.92156 -6.875,-3.48515 -18.125,-8.44161 -25,-11.01436 -16.49103,-6.17123 -33.49159,-14.51808 -38.67134,-18.98665 -8.26023,-7.1261 -9.06437,-16.56431 -1.99507,-23.41614 4.65089,-4.50782 11.11572,-6.27105 25.16641,-6.86393 20.66827,-0.87211 46.04064,3.58933 64.22073,11.29249 4.8286,2.04594 10.35427,3.7627 12.27927,3.81502 l 3.5,0.0951 0.26423,-31.23577 c 0.30764,-36.36819 1.23201,-33.34797 -11.49377,-37.55389 -15.25464,-5.04171 -36.16985,-7.66666 -61.29669,-7.69301 -27.05451,-0.0284 -44.78219,3.27429 -61.97377,11.54569 -23.12532,11.1263 -38.57938,28.91581 -45.16772,51.99357 -2.94501,10.31584 -3.18708,30.48099 -0.48346,40.27406 5.31578,19.25487 16.58471,34.01049 35.65118,46.6819 13.21053,8.77961 24.18838,14.20479 46.44854,22.95456 26.41718,10.38376 34.06278,15.11636 37.77938,23.38527 2.45756,5.46774 1.75694,9.95633 -2.26997,14.54273 -13.44083,15.30826 -68.29116,11.00879 -106.93157,-8.38187 -8.09238,-4.06095 -10.48856,-4.87456 -11.61148,-3.94262 -1.92747,1.59966 -2.04909,63.51321 -0.12971,66.03324 4.21233,5.53055 30.22648,13.22048 55.71481,16.46962 13.89687,1.77151 48.22739,1.2099 60.5,-0.98971 z m -337.07143,-6.1552 c 1.39077,-1.39077 1.57143,-7.94372 1.57143,-57 V 552.5243 l 24.25,-0.003 c 27.84579,-0.004 42.24685,-1.10205 59.35155,-4.52576 29.15069,-5.83486 52.82054,-18.24796 69.83173,-36.62162 20.46238,-22.10169 29.56672,-47.74895 29.56672,-83.29099 0,-28.16801 -7.16503,-51.50907 -21.88697,-71.29982 -18.30853,-24.61221 -46.84173,-40.60115 -84.61303,-47.41399 -12.87287,-2.32189 -13.65033,-2.3428 -79.5,-2.1378 -36.575,0.11387 -67.5125,0.45994 -68.75,0.76906 l -2.25,0.56202 v 177.78095 c 0,136.94074 0.27567,178.05662 1.2,178.98095 0.88659,0.88659 10.13968,1.2 35.42857,1.2 29.78355,0 34.43264,-0.20407 35.8,-1.57143 z m 5.82143,-177.08781 -4.25,-0.45576 v -56.78756 -56.78756 l 20.75,-0.66147 c 22.42436,-0.71485 32.98948,0.0704 45.67758,3.39495 27.44509,7.19121 41.59716,24.98728 41.55764,52.25826 -0.047,32.39117 -15.71542,49.09113 -53.25155,56.75721 -10.13876,2.07066 -39.90645,3.4162 -50.48367,2.28193 z"
         id="path444" />
      <path
         style="fill:#082d4a"
         d="m 238.04731,897.84268 c -47.6453,-6.28493 -88.35741,-34.46812 -110.47169,-76.47464 -2.72182,-5.17016 -6.73079,-14.78756 -8.90882,-21.37201 -7.67853,-23.21309 -7.11949,0.22346 -7.11949,-298.47173 0,-298.29686 -0.53985,-275.31301 7.00232,-298.12127 16.55888,-50.07572 55.91811,-84.9301 108.99768,-96.52238 8.16885,-1.78403 19.50603,-1.85635 291,-1.85635 271.49397,0 282.83115,0.0723 291,1.85635 13.49608,2.94747 23.67147,6.42434 35.5,12.13013 34.58383,16.68238 61.17171,47.13316 73.38051,84.04179 7.67853,23.21309 7.11949,-0.22346 7.11949,298.47173 0,298.69519 0.55904,275.25864 -7.11949,298.47173 -7.2574,21.93996 -18.40934,40.0021 -34.88806,56.50612 -19.7121,19.74235 -41.8855,31.91129 -71.49245,39.23561 l -9,2.22646 -281,0.1371 c -154.55,0.0754 -282.35,-0.041 -284,-0.25864 z M 695.57354,672.48721 c 38.6687,-4.73258 67.57639,-22.07842 80.47874,-48.29064 6.31384,-12.82712 8.49913,-22.25693 8.47767,-36.58223 -0.01,-6.37452 -0.6836,-14.74004 -1.49788,-18.59004 -3.04748,-14.40871 -12.79181,-29.90836 -25.00899,-39.78011 -11.60727,-9.37893 -32.52609,-20.41695 -54.47577,-28.74469 -24.15754,-9.16539 -37.29909,-16.44783 -41.71061,-23.11409 -2.17676,-3.2893 -2.47189,-4.64685 -2.06829,-9.51371 0.40999,-4.944 0.93165,-6.09928 4.04057,-8.94839 8.91888,-8.17355 33.72572,-9.51934 63.50244,-3.44507 11.79125,2.40535 20.21122,5.07936 30.46474,9.67499 12.48218,5.59452 11.77115,7.41518 11.77115,-30.14106 v -31.44176 l -2.32407,-1.52279 c -15.01632,-9.83907 -72.54248,-15.16977 -103.36903,-9.57877 -29.25844,5.3066 -53.814,20.86942 -66.35657,42.05545 -12.09953,20.43769 -14.30389,47.46699 -5.62373,68.95689 10.00585,24.77199 34.62928,43.99565 76.1734,59.46904 33.54153,12.49277 43.96841,20.84943 41.26754,33.07407 -1.16891,5.29072 -4.90464,9.01421 -11.70187,11.66354 -4.50029,1.75406 -8.30889,2.25485 -19.89654,2.61618 -28.45266,0.88722 -55.94157,-5.25671 -80.41421,-17.97302 -4.2598,-2.21345 -8.4223,-3.76458 -9.25,-3.44696 -1.29707,0.49773 -1.50492,5.05519 -1.50492,32.99809 0,29.42319 0.16179,32.61158 1.75,34.48622 4.68498,5.52994 31.77733,13.00386 59.75,16.48314 6.82874,0.84937 39.66636,0.59768 47.52623,-0.36428 z m -328.96049,-6.99809 c 1.8769,-1.00449 1.93426,-2.69136 1.93426,-56.88255 V 552.7592 l 32.75,-0.53264 c 27.27998,-0.44367 34.67077,-0.88241 44.25,-2.62678 31.43918,-5.72505 53.02526,-15.78201 71.52188,-33.32205 23.80709,-22.57587 34.60428,-49.89181 34.68133,-87.7407 0.0716,-35.15298 -11.0647,-63.16356 -33.7837,-84.97471 -17.08476,-16.40205 -36.83057,-26.47896 -63.45933,-32.3853 -17.65718,-3.91641 -28.06363,-4.65272 -65.75807,-4.65272 -55.94476,0 -92.11691,1.05766 -93.80198,2.74273 -1.21334,1.21334 -1.3795,26.8007 -1.15834,178.37343 0.22766,156.01845 0.4357,177.06907 1.75821,177.90505 2.10749,1.33217 68.56974,1.27943 71.06574,-0.0564 z m 1.93426,-234.44577 V 374.5624 l 2.41365,-0.60578 c 1.32751,-0.33319 14.26501,-0.41914 28.75,-0.19102 23.07979,0.36349 27.32557,0.68325 34.33635,2.58599 27.9181,7.57701 42.43572,25.61458 42.48522,52.78622 0.0174,9.56739 -1.03708,15.76429 -4.0704,23.92012 -2.85648,7.68035 -14.50792,19.73039 -23.41482,24.21585 -14.8666,7.48673 -30.80975,10.25052 -59.13099,10.25052 h -21.36901 z"
         id="path442" />
      <path
         style="fill:#001d35"
         d="M 235.28367,897.44353 C 179.92811,889.27307 133.71078,849.80722 117.68558,797.0243 c -6.01859,-19.82373 -5.63827,0.10887 -5.63827,-295.5 0,-219.71166 0.25205,-273.75917 1.30111,-279 11.52247,-57.56326 53.4632,-101.15032 110.47391,-114.81043 l 11.22498,-2.68957 h 283.5 283.5 l 11.22498,2.68957 c 57.01071,13.66011 98.95144,57.24717 110.47391,114.81043 1.91883,9.58595 1.91883,548.41405 0,558 -11.47645,57.33338 -52.87822,100.55287 -109.96009,114.78781 l -10.7388,2.67802 -281,0.15206 c -154.55,0.0836 -283.59364,-0.23077 -286.76364,-0.69866 z M 698.8815,672.02509 c 15.42538,-2.02209 27.00538,-5.48527 40.16581,-12.01221 23.10484,-11.45888 38.0356,-29.61707 43.57044,-52.98858 3.08043,-13.00747 2.42904,-33.37853 -1.44579,-45.21451 -5.2136,-15.92539 -17.09482,-29.87523 -34.79153,-40.84905 -11.21073,-6.95183 -29.99067,-16.01013 -42.33312,-20.41892 -4.95,-1.76816 -14.85,-6.03978 -22,-9.49248 -10.37069,-5.00795 -13.96071,-7.30526 -17.75,-11.35849 -4.30144,-4.60107 -4.74965,-5.53347 -4.74626,-9.87371 0.004,-5.35174 2.43122,-10.22128 6.38593,-12.81251 14.58403,-9.55582 61.84794,-5.34728 91.45058,8.14308 6.18817,2.82004 8.06585,3.28477 9.89831,2.44985 l 2.26144,-1.03038 v -31.36645 c 0,-35.16405 0.49959,-32.8173 -7.65888,-35.97675 -21.34895,-8.2676 -69.8499,-11.6699 -97.38831,-6.83171 -32.69827,5.74471 -57.67215,22.46272 -69.46137,46.49881 -5.78627,11.79714 -7.52327,18.61406 -8.20099,32.18499 -1.18021,23.63279 5.6067,41.39204 22.16994,58.01192 11.93132,11.97213 33.72436,24.58407 58.53961,33.87771 20.32255,7.61106 31.84291,13.61417 37.27862,19.42538 4.27189,4.567 4.72102,5.50383 4.71764,9.84038 -0.007,8.95409 -5.22982,13.96761 -17.5723,16.86803 -5.47151,1.28578 -10.38518,1.52665 -23.42396,1.14825 -25.46503,-0.73902 -46.64848,-5.94904 -68.71101,-16.89932 -5.69269,-2.82545 -10.89798,-4.80441 -11.76351,-4.47227 -1.36767,0.52482 -1.52113,4.55273 -1.28899,33.83252 l 0.26351,33.23677 3.18624,2.1468 c 7.18028,4.83789 34.37881,12.13929 53.31376,14.312 12.69457,1.45664 42.90926,1.24962 55.33419,-0.37915 z M 367.34731,665.3243 c 0.90466,-0.90466 1.2,-14.93333 1.2,-57 v -55.8 h 26.75613 c 37.49506,0 57.40823,-2.5745 79.24387,-10.24516 38.24166,-13.43394 64.54906,-41.77983 73.55523,-79.25484 3.23857,-13.4758 4.60191,-32.7137 3.34442,-47.19281 -4.93522,-56.82583 -42.13131,-94.6842 -104.72195,-106.58654 -11.40829,-2.16942 -13.27931,-2.21777 -81.09961,-2.09579 -65.84588,0.11844 -69.49033,0.21843 -70.75,1.94113 -1.0922,1.49367 -1.32809,33.05456 -1.32809,177.69088 0,119.32247 0.33286,176.49657 1.03518,177.80887 0.99342,1.85621 2.45817,1.93426 36.3,1.93426 26.09486,0 35.57686,-0.31204 36.46482,-1.2 z m 1.2,-234.25469 v -56.45468 l 3.38422,-0.63489 c 1.86132,-0.34918 14.79882,-0.44414 28.75,-0.211 22.41638,0.37459 26.29598,0.68431 33.36578,2.66369 12.85171,3.59818 20.19025,7.60624 27.76469,15.16414 10.07155,10.04956 14.75131,21.9374 14.71795,37.38753 -0.0365,16.92154 -4.93516,29.57722 -15.08606,38.97516 -7.34266,6.79801 -14.22504,10.68791 -24.72564,13.97487 -14.33326,4.48667 -23.56993,5.58987 -46.80193,5.58987 h -21.36901 z"
         id="path440" />
    </g>
  </g>
</svg>
